# MagicaVoxel @ Ephtracy

# group
o 

# material
mtllib Hammer.mtl
usemtl palette

# normals
vn -1 0 0
vn 1 0 0
vn 0 0 1
vn 0 0 -1
vn 0 -1 0
vn 0 1 0

# texcoords
vt 0.345703 0.5
vt 0.845703 0.5
vt 0.916016 0.5

# verts
v -0.6 0 0.1
v -0.6 0 -0.2
v -0.6 0.5 0.1
v -0.6 0.5 -0.2
v -0.3 0 0.1
v -0.3 0 -0.2
v -0.3 0.2 0
v -0.3 0.2 -0.1
v -0.3 0.3 0
v -0.3 0.3 -0.1
v -0.3 0.5 0.1
v -0.3 0.5 -0.2
v 0.7 0.2 0
v 0.7 0.2 -0.1
v 0.7 0.3 0
v 0.7 0.3 -0.1
v -0.6 0 0.1
v -0.6 0.5 0.1
v -0.3 0 0.1
v -0.3 0.5 0.1
v -0.3 0.2 0
v -0.3 0.3 0
v 0.3 0.2 0
v 0.3 0.3 0
v 0.4 0.2 0
v 0.4 0.3 0
v 0.5 0.2 0
v 0.5 0.3 0
v 0.6 0.2 0
v 0.6 0.3 0
v 0.7 0.2 0
v 0.7 0.3 0
v -0.3 0.2 -0.1
v -0.3 0.3 -0.1
v 0.3 0.2 -0.1
v 0.3 0.3 -0.1
v 0.4 0.2 -0.1
v 0.4 0.3 -0.1
v 0.5 0.2 -0.1
v 0.5 0.3 -0.1
v 0.6 0.2 -0.1
v 0.6 0.3 -0.1
v 0.7 0.2 -0.1
v 0.7 0.3 -0.1
v -0.6 0 -0.2
v -0.6 0.5 -0.2
v -0.3 0 -0.2
v -0.3 0.5 -0.2
v -0.6 0 0.1
v -0.3 0 0.1
v -0.6 0 -0.2
v -0.3 0 -0.2
v -0.3 0.2 0
v 0.3 0.2 0
v 0.4 0.2 0
v 0.5 0.2 0
v 0.6 0.2 0
v 0.7 0.2 0
v -0.3 0.2 -0.1
v 0.3 0.2 -0.1
v 0.4 0.2 -0.1
v 0.5 0.2 -0.1
v 0.6 0.2 -0.1
v 0.7 0.2 -0.1
v -0.3 0.3 0
v 0.3 0.3 0
v 0.4 0.3 0
v 0.5 0.3 0
v 0.6 0.3 0
v 0.7 0.3 0
v -0.3 0.3 -0.1
v 0.3 0.3 -0.1
v 0.4 0.3 -0.1
v 0.5 0.3 -0.1
v 0.6 0.3 -0.1
v 0.7 0.3 -0.1
v -0.6 0.5 0.1
v -0.3 0.5 0.1
v -0.6 0.5 -0.2
v -0.3 0.5 -0.2

# faces
f 3/3/1 2/3/1 1/3/1
f 4/3/1 2/3/1 3/3/1
f 5/3/2 6/3/2 7/3/2
f 7/3/2 6/3/2 8/3/2
f 5/3/2 7/3/2 9/3/2
f 8/3/2 6/3/2 10/3/2
f 5/3/2 9/3/2 11/3/2
f 9/3/2 10/3/2 11/3/2
f 10/3/2 6/3/2 12/3/2
f 11/3/2 10/3/2 12/3/2
f 13/2/2 14/2/2 15/2/2
f 15/2/2 14/2/2 16/2/2
f 19/3/3 18/3/3 17/3/3
f 20/3/3 18/3/3 19/3/3
f 23/2/3 22/2/3 21/2/3
f 24/2/3 22/2/3 23/2/3
f 25/1/3 24/1/3 23/1/3
f 26/1/3 24/1/3 25/1/3
f 27/2/3 26/2/3 25/2/3
f 28/2/3 26/2/3 27/2/3
f 29/1/3 28/1/3 27/1/3
f 30/1/3 28/1/3 29/1/3
f 31/2/3 30/2/3 29/2/3
f 32/2/3 30/2/3 31/2/3
f 33/2/4 34/2/4 35/2/4
f 35/2/4 34/2/4 36/2/4
f 35/1/4 36/1/4 37/1/4
f 37/1/4 36/1/4 38/1/4
f 37/2/4 38/2/4 39/2/4
f 39/2/4 38/2/4 40/2/4
f 39/1/4 40/1/4 41/1/4
f 41/1/4 40/1/4 42/1/4
f 41/2/4 42/2/4 43/2/4
f 43/2/4 42/2/4 44/2/4
f 45/3/4 46/3/4 47/3/4
f 47/3/4 46/3/4 48/3/4
f 51/3/5 50/3/5 49/3/5
f 52/3/5 50/3/5 51/3/5
f 59/2/5 54/2/5 53/2/5
f 60/1/5 55/1/5 54/1/5
f 60/2/5 54/2/5 59/2/5
f 61/2/5 56/2/5 55/2/5
f 61/1/5 55/1/5 60/1/5
f 62/1/5 57/1/5 56/1/5
f 62/2/5 56/2/5 61/2/5
f 63/2/5 58/2/5 57/2/5
f 63/1/5 57/1/5 62/1/5
f 64/2/5 58/2/5 63/2/5
f 65/2/6 66/2/6 71/2/6
f 66/1/6 67/1/6 72/1/6
f 71/2/6 66/2/6 72/2/6
f 67/2/6 68/2/6 73/2/6
f 72/1/6 67/1/6 73/1/6
f 68/1/6 69/1/6 74/1/6
f 73/2/6 68/2/6 74/2/6
f 69/2/6 70/2/6 75/2/6
f 74/1/6 69/1/6 75/1/6
f 75/2/6 70/2/6 76/2/6
f 77/3/6 78/3/6 79/3/6
f 79/3/6 78/3/6 80/3/6
