# MagicaVoxel @ Ephtracy

# group
o 

# material
mtllib Armchair.mtl
usemtl palette

# normals
vn -1 0 0
vn 1 0 0
vn 0 0 1
vn 0 0 -1
vn 0 -1 0
vn 0 1 0

# texcoords
vt 0.845703 0.5
vt 0.849609 0.5
vt 0.861328 0.5

# verts
v -0.6 0 0.5
v -0.6 0 -0.6
v -0.6 0.1 0.4
v -0.6 0.1 0.3
v -0.6 0.1 0.2
v -0.6 0.1 0.1
v -0.6 0.1 5.96046e-08
v -0.6 0.1 -0.1
v -0.6 0.1 -0.2
v -0.6 0.1 -0.3
v -0.6 0.1 -0.4
v -0.6 0.1 -0.5
v -0.6 0.2 0.4
v -0.6 0.2 0.3
v -0.6 0.2 0.2
v -0.6 0.2 0.1
v -0.6 0.2 5.96046e-08
v -0.6 0.2 -0.1
v -0.6 0.2 -0.2
v -0.6 0.2 -0.3
v -0.6 0.2 -0.4
v -0.6 0.2 -0.5
v -0.6 0.3 0.4
v -0.6 0.3 0.3
v -0.6 0.3 0.2
v -0.6 0.3 0.1
v -0.6 0.3 5.96046e-08
v -0.6 0.3 -0.1
v -0.6 0.3 -0.2
v -0.6 0.3 -0.3
v -0.6 0.3 -0.4
v -0.6 0.3 -0.5
v -0.6 0.4 0.4
v -0.6 0.4 0.3
v -0.6 0.4 0.2
v -0.6 0.4 0.1
v -0.6 0.4 5.96046e-08
v -0.6 0.4 -0.1
v -0.6 0.4 -0.2
v -0.6 0.4 -0.3
v -0.6 0.4 -0.4
v -0.6 0.4 -0.5
v -0.6 0.5 0.3
v -0.6 0.5 0.2
v -0.6 0.5 0.1
v -0.6 0.5 5.96046e-08
v -0.6 0.5 -0.1
v -0.6 0.5 -0.2
v -0.6 0.5 -0.3
v -0.6 0.5 -0.4
v -0.6 0.6 0.6
v -0.6 0.6 0.5
v -0.6 0.6 -0.3
v -0.6 0.7 0.6
v -0.6 0.7 -0.3
v -0.6 1 -0.3
v -0.6 1 -0.6
v -0.5 0 -0.6
v -0.5 0 -0.7
v -0.5 1 -0.3
v -0.5 1 -0.6
v -0.5 1 -0.7
v -0.5 1.1 -0.3
v -0.5 1.1 -0.6
v 0.4 0 0.5
v 0.4 0 0.4
v 0.4 0.1 0.5
v 0.4 0.1 0.4
v 0.4 0.4 0.5
v 0.4 0.4 -0.3
v 0.4 0.6 0.6
v 0.4 0.6 0.5
v 0.4 0.6 -0.3
v 0.4 0.7 0.6
v 0.4 0.7 -0.3
v -0.4 0 0.5
v -0.4 0 0.4
v -0.4 0.1 0.5
v -0.4 0.1 0.4
v -0.4 0.4 0.5
v -0.4 0.4 -0.3
v -0.4 0.6 0.6
v -0.4 0.6 0.5
v -0.4 0.6 -0.3
v -0.4 0.7 0.6
v -0.4 0.7 -0.3
v 0.5 0 -0.6
v 0.5 0 -0.7
v 0.5 1 -0.3
v 0.5 1 -0.6
v 0.5 1 -0.7
v 0.5 1.1 -0.3
v 0.5 1.1 -0.6
v 0.6 0 0.5
v 0.6 0 -0.6
v 0.6 0.1 0.4
v 0.6 0.1 0.3
v 0.6 0.1 0.2
v 0.6 0.1 0.1
v 0.6 0.1 5.96046e-08
v 0.6 0.1 -0.1
v 0.6 0.1 -0.2
v 0.6 0.1 -0.3
v 0.6 0.1 -0.4
v 0.6 0.1 -0.5
v 0.6 0.2 0.4
v 0.6 0.2 0.3
v 0.6 0.2 0.2
v 0.6 0.2 0.1
v 0.6 0.2 5.96046e-08
v 0.6 0.2 -0.1
v 0.6 0.2 -0.2
v 0.6 0.2 -0.3
v 0.6 0.2 -0.4
v 0.6 0.2 -0.5
v 0.6 0.3 0.4
v 0.6 0.3 0.3
v 0.6 0.3 0.2
v 0.6 0.3 0.1
v 0.6 0.3 5.96046e-08
v 0.6 0.3 -0.1
v 0.6 0.3 -0.2
v 0.6 0.3 -0.3
v 0.6 0.3 -0.4
v 0.6 0.3 -0.5
v 0.6 0.4 0.4
v 0.6 0.4 0.3
v 0.6 0.4 0.2
v 0.6 0.4 0.1
v 0.6 0.4 5.96046e-08
v 0.6 0.4 -0.1
v 0.6 0.4 -0.2
v 0.6 0.4 -0.3
v 0.6 0.4 -0.4
v 0.6 0.4 -0.5
v 0.6 0.5 0.3
v 0.6 0.5 0.2
v 0.6 0.5 0.1
v 0.6 0.5 5.96046e-08
v 0.6 0.5 -0.1
v 0.6 0.5 -0.2
v 0.6 0.5 -0.3
v 0.6 0.5 -0.4
v 0.6 0.6 0.6
v 0.6 0.6 0.5
v 0.6 0.6 -0.3
v 0.6 0.7 0.6
v 0.6 0.7 -0.3
v 0.6 1 -0.3
v 0.6 1 -0.6
v -0.6 0.6 0.6
v -0.6 0.7 0.6
v -0.4 0.6 0.6
v -0.4 0.7 0.6
v 0.4 0.6 0.6
v 0.4 0.7 0.6
v 0.6 0.6 0.6
v 0.6 0.7 0.6
v -0.6 0 0.5
v -0.6 0.6 0.5
v -0.4 0 0.5
v -0.4 0.1 0.5
v -0.4 0.3 0.5
v -0.4 0.4 0.5
v -0.4 0.6 0.5
v 0.4 0 0.5
v 0.4 0.1 0.5
v 0.4 0.3 0.5
v 0.4 0.4 0.5
v 0.4 0.6 0.5
v 0.6 0 0.5
v 0.6 0.6 0.5
v -0.4 0 0.4
v -0.4 0.1 0.4
v 0.4 0 0.4
v 0.4 0.1 0.4
v -0.6 0.7 -0.3
v -0.6 1 -0.3
v -0.5 0.7 -0.3
v -0.5 1 -0.3
v -0.5 1.1 -0.3
v -0.4 0.4 -0.3
v -0.4 0.6 -0.3
v -0.4 0.7 -0.3
v 0.4 0.4 -0.3
v 0.4 0.6 -0.3
v 0.4 0.7 -0.3
v 0.5 0.7 -0.3
v 0.5 1 -0.3
v 0.5 1.1 -0.3
v 0.6 0.7 -0.3
v 0.6 1 -0.3
v -0.6 0 -0.6
v -0.6 1 -0.6
v -0.5 0 -0.6
v -0.5 1 -0.6
v -0.5 1.1 -0.6
v 0.5 0 -0.6
v 0.5 1 -0.6
v 0.5 1.1 -0.6
v 0.6 0 -0.6
v 0.6 1 -0.6
v -0.5 0 -0.7
v -0.5 1 -0.7
v 0.5 0 -0.7
v 0.5 1 -0.7
v -0.6 0 0.5
v -0.4 0 0.5
v 0.4 0 0.5
v 0.6 0 0.5
v -0.4 0 0.4
v 0.4 0 0.4
v -0.4 0 0.3
v 0.4 0 0.3
v -0.6 0 -0.6
v -0.5 0 -0.6
v 0.5 0 -0.6
v 0.6 0 -0.6
v -0.5 0 -0.7
v 0.5 0 -0.7
v -0.4 0.1 0.5
v 0.4 0.1 0.5
v -0.4 0.1 0.4
v 0.4 0.1 0.4
v -0.6 0.6 0.6
v -0.4 0.6 0.6
v 0.4 0.6 0.6
v 0.6 0.6 0.6
v -0.6 0.6 0.5
v -0.4 0.6 0.5
v 0.4 0.6 0.5
v 0.6 0.6 0.5
v -0.4 0.4 0.5
v 0.4 0.4 0.5
v -0.4 0.4 -0.3
v 0.4 0.4 -0.3
v -0.6 0.7 0.6
v -0.4 0.7 0.6
v 0.4 0.7 0.6
v 0.6 0.7 0.6
v -0.6 0.7 -0.3
v -0.5 0.7 -0.3
v -0.4 0.7 -0.3
v 0.4 0.7 -0.3
v 0.5 0.7 -0.3
v 0.6 0.7 -0.3
v -0.6 1 -0.3
v -0.5 1 -0.3
v 0.5 1 -0.3
v 0.6 1 -0.3
v -0.6 1 -0.6
v -0.5 1 -0.6
v 0.5 1 -0.6
v 0.6 1 -0.6
v -0.5 1 -0.7
v 0.5 1 -0.7
v -0.5 1.1 -0.3
v 0.5 1.1 -0.3
v -0.5 1.1 -0.6
v 0.5 1.1 -0.6

# faces
f 3/3/1 2/3/1 1/3/1
f 4/3/1 2/3/1 3/3/1
f 5/3/1 2/3/1 4/3/1
f 6/3/1 2/3/1 5/3/1
f 7/3/1 2/3/1 6/3/1
f 8/3/1 2/3/1 7/3/1
f 9/3/1 2/3/1 8/3/1
f 10/3/1 2/3/1 9/3/1
f 11/3/1 2/3/1 10/3/1
f 12/3/1 2/3/1 11/3/1
f 13/3/1 3/3/1 1/3/1
f 13/1/1 4/1/1 3/1/1
f 14/3/1 5/3/1 4/3/1
f 14/1/1 4/1/1 13/1/1
f 15/1/1 6/1/1 5/1/1
f 15/3/1 5/3/1 14/3/1
f 16/3/1 7/3/1 6/3/1
f 16/1/1 6/1/1 15/1/1
f 17/1/1 8/1/1 7/1/1
f 17/3/1 7/3/1 16/3/1
f 18/3/1 9/3/1 8/3/1
f 18/1/1 8/1/1 17/1/1
f 19/1/1 10/1/1 9/1/1
f 19/3/1 9/3/1 18/3/1
f 20/3/1 11/3/1 10/3/1
f 20/1/1 10/1/1 19/1/1
f 21/1/1 12/1/1 11/1/1
f 21/3/1 11/3/1 20/3/1
f 22/3/1 2/3/1 12/3/1
f 22/1/1 12/1/1 21/1/1
f 23/3/1 13/3/1 1/3/1
f 23/3/1 14/3/1 13/3/1
f 24/1/1 15/1/1 14/1/1
f 24/3/1 14/3/1 23/3/1
f 25/3/1 16/3/1 15/3/1
f 25/1/1 15/1/1 24/1/1
f 26/1/1 17/1/1 16/1/1
f 26/3/1 16/3/1 25/3/1
f 27/3/1 18/3/1 17/3/1
f 27/1/1 17/1/1 26/1/1
f 28/1/1 19/1/1 18/1/1
f 28/3/1 18/3/1 27/3/1
f 29/3/1 20/3/1 19/3/1
f 29/1/1 19/1/1 28/1/1
f 30/1/1 21/1/1 20/1/1
f 30/3/1 20/3/1 29/3/1
f 31/3/1 22/3/1 21/3/1
f 31/1/1 21/1/1 30/1/1
f 32/3/1 2/3/1 22/3/1
f 32/3/1 22/3/1 31/3/1
f 33/3/1 23/3/1 1/3/1
f 33/1/1 24/1/1 23/1/1
f 34/3/1 25/3/1 24/3/1
f 34/1/1 24/1/1 33/1/1
f 35/1/1 26/1/1 25/1/1
f 35/3/1 25/3/1 34/3/1
f 36/3/1 27/3/1 26/3/1
f 36/1/1 26/1/1 35/1/1
f 37/1/1 28/1/1 27/1/1
f 37/3/1 27/3/1 36/3/1
f 38/3/1 29/3/1 28/3/1
f 38/1/1 28/1/1 37/1/1
f 39/1/1 30/1/1 29/1/1
f 39/3/1 29/3/1 38/3/1
f 40/3/1 31/3/1 30/3/1
f 40/1/1 30/1/1 39/1/1
f 41/1/1 32/1/1 31/1/1
f 41/3/1 31/3/1 40/3/1
f 42/3/1 2/3/1 32/3/1
f 42/1/1 32/1/1 41/1/1
f 43/3/1 34/3/1 33/3/1
f 43/1/1 35/1/1 34/1/1
f 44/3/1 36/3/1 35/3/1
f 44/1/1 35/1/1 43/1/1
f 45/1/1 37/1/1 36/1/1
f 45/3/1 36/3/1 44/3/1
f 46/3/1 38/3/1 37/3/1
f 46/1/1 37/1/1 45/1/1
f 47/1/1 39/1/1 38/1/1
f 47/3/1 38/3/1 46/3/1
f 48/3/1 40/3/1 39/3/1
f 48/1/1 39/1/1 47/1/1
f 49/1/1 41/1/1 40/1/1
f 49/3/1 40/3/1 48/3/1
f 50/3/1 42/3/1 41/3/1
f 50/1/1 41/1/1 49/1/1
f 52/3/1 44/3/1 43/3/1
f 52/3/1 43/3/1 33/3/1
f 52/3/1 50/3/1 49/3/1
f 52/3/1 49/3/1 48/3/1
f 52/3/1 46/3/1 45/3/1
f 52/3/1 33/3/1 1/3/1
f 52/3/1 47/3/1 46/3/1
f 52/3/1 48/3/1 47/3/1
f 52/3/1 45/3/1 44/3/1
f 53/3/1 50/3/1 52/3/1
f 54/2/1 52/2/1 51/2/1
f 54/2/1 53/2/1 52/2/1
f 55/3/1 50/3/1 53/3/1
f 55/2/1 53/2/1 54/2/1
f 56/3/1 50/3/1 55/3/1
f 57/3/1 42/3/1 50/3/1
f 57/3/1 50/3/1 56/3/1
f 57/3/1 2/3/1 42/3/1
f 61/2/1 59/2/1 58/2/1
f 62/2/1 59/2/1 61/2/1
f 63/2/1 61/2/1 60/2/1
f 64/2/1 61/2/1 63/2/1
f 67/3/1 66/3/1 65/3/1
f 68/3/1 66/3/1 67/3/1
f 72/3/1 70/3/1 69/3/1
f 73/3/1 70/3/1 72/3/1
f 74/2/1 72/2/1 71/2/1
f 74/2/1 73/2/1 72/2/1
f 75/2/1 73/2/1 74/2/1
f 76/3/2 77/3/2 78/3/2
f 78/3/2 77/3/2 79/3/2
f 80/3/2 81/3/2 83/3/2
f 83/3/2 81/3/2 84/3/2
f 82/2/2 83/2/2 85/2/2
f 83/2/2 84/2/2 85/2/2
f 85/2/2 84/2/2 86/2/2
f 87/2/2 88/2/2 90/2/2
f 90/2/2 88/2/2 91/2/2
f 89/2/2 90/2/2 92/2/2
f 92/2/2 90/2/2 93/2/2
f 94/3/2 95/3/2 96/3/2
f 96/3/2 95/3/2 97/3/2
f 97/3/2 95/3/2 98/3/2
f 98/3/2 95/3/2 99/3/2
f 99/3/2 95/3/2 100/3/2
f 100/3/2 95/3/2 101/3/2
f 101/3/2 95/3/2 102/3/2
f 102/3/2 95/3/2 103/3/2
f 103/3/2 95/3/2 104/3/2
f 104/3/2 95/3/2 105/3/2
f 94/3/2 96/3/2 106/3/2
f 96/1/2 97/1/2 106/1/2
f 97/3/2 98/3/2 107/3/2
f 106/1/2 97/1/2 107/1/2
f 98/1/2 99/1/2 108/1/2
f 107/3/2 98/3/2 108/3/2
f 99/3/2 100/3/2 109/3/2
f 108/1/2 99/1/2 109/1/2
f 100/1/2 101/1/2 110/1/2
f 109/3/2 100/3/2 110/3/2
f 101/3/2 102/3/2 111/3/2
f 110/1/2 101/1/2 111/1/2
f 102/1/2 103/1/2 112/1/2
f 111/3/2 102/3/2 112/3/2
f 103/3/2 104/3/2 113/3/2
f 112/1/2 103/1/2 113/1/2
f 104/1/2 105/1/2 114/1/2
f 113/3/2 104/3/2 114/3/2
f 105/3/2 95/3/2 115/3/2
f 114/1/2 105/1/2 115/1/2
f 94/3/2 106/3/2 116/3/2
f 106/3/2 107/3/2 116/3/2
f 107/1/2 108/1/2 117/1/2
f 116/3/2 107/3/2 117/3/2
f 108/3/2 109/3/2 118/3/2
f 117/1/2 108/1/2 118/1/2
f 109/1/2 110/1/2 119/1/2
f 118/3/2 109/3/2 119/3/2
f 110/3/2 111/3/2 120/3/2
f 119/1/2 110/1/2 120/1/2
f 111/1/2 112/1/2 121/1/2
f 120/3/2 111/3/2 121/3/2
f 112/3/2 113/3/2 122/3/2
f 121/1/2 112/1/2 122/1/2
f 113/1/2 114/1/2 123/1/2
f 122/3/2 113/3/2 123/3/2
f 114/3/2 115/3/2 124/3/2
f 123/1/2 114/1/2 124/1/2
f 115/3/2 95/3/2 125/3/2
f 124/3/2 115/3/2 125/3/2
f 94/3/2 116/3/2 126/3/2
f 116/1/2 117/1/2 126/1/2
f 117/3/2 118/3/2 127/3/2
f 126/1/2 117/1/2 127/1/2
f 118/1/2 119/1/2 128/1/2
f 127/3/2 118/3/2 128/3/2
f 119/3/2 120/3/2 129/3/2
f 128/1/2 119/1/2 129/1/2
f 120/1/2 121/1/2 130/1/2
f 129/3/2 120/3/2 130/3/2
f 121/3/2 122/3/2 131/3/2
f 130/1/2 121/1/2 131/1/2
f 122/1/2 123/1/2 132/1/2
f 131/3/2 122/3/2 132/3/2
f 123/3/2 124/3/2 133/3/2
f 132/1/2 123/1/2 133/1/2
f 124/1/2 125/1/2 134/1/2
f 133/3/2 124/3/2 134/3/2
f 125/3/2 95/3/2 135/3/2
f 134/1/2 125/1/2 135/1/2
f 126/3/2 127/3/2 136/3/2
f 127/1/2 128/1/2 136/1/2
f 128/3/2 129/3/2 137/3/2
f 136/1/2 128/1/2 137/1/2
f 129/1/2 130/1/2 138/1/2
f 137/3/2 129/3/2 138/3/2
f 130/3/2 131/3/2 139/3/2
f 138/1/2 130/1/2 139/1/2
f 131/1/2 132/1/2 140/1/2
f 139/3/2 131/3/2 140/3/2
f 132/3/2 133/3/2 141/3/2
f 140/1/2 132/1/2 141/1/2
f 133/1/2 134/1/2 142/1/2
f 141/3/2 133/3/2 142/3/2
f 134/3/2 135/3/2 143/3/2
f 142/1/2 134/1/2 143/1/2
f 136/3/2 137/3/2 145/3/2
f 126/3/2 136/3/2 145/3/2
f 142/3/2 143/3/2 145/3/2
f 141/3/2 142/3/2 145/3/2
f 138/3/2 139/3/2 145/3/2
f 94/3/2 126/3/2 145/3/2
f 139/3/2 140/3/2 145/3/2
f 140/3/2 141/3/2 145/3/2
f 137/3/2 138/3/2 145/3/2
f 145/3/2 143/3/2 146/3/2
f 144/2/2 145/2/2 147/2/2
f 145/2/2 146/2/2 147/2/2
f 146/3/2 143/3/2 148/3/2
f 147/2/2 146/2/2 148/2/2
f 148/3/2 143/3/2 149/3/2
f 143/3/2 135/3/2 150/3/2
f 149/3/2 143/3/2 150/3/2
f 135/3/2 95/3/2 150/3/2
f 153/2/3 152/2/3 151/2/3
f 154/2/3 152/2/3 153/2/3
f 157/2/3 156/2/3 155/2/3
f 158/2/3 156/2/3 157/2/3
f 161/3/3 160/3/3 159/3/3
f 162/3/3 160/3/3 161/3/3
f 163/3/3 160/3/3 162/3/3
f 164/3/3 160/3/3 163/3/3
f 165/3/3 160/3/3 164/3/3
f 167/3/3 163/3/3 162/3/3
f 168/2/3 164/2/3 163/2/3
f 168/3/3 163/3/3 167/3/3
f 169/2/3 164/2/3 168/2/3
f 171/3/3 167/3/3 166/3/3
f 171/3/3 170/3/3 169/3/3
f 171/3/3 169/3/3 168/3/3
f 171/3/3 168/3/3 167/3/3
f 172/3/3 170/3/3 171/3/3
f 175/2/3 174/2/3 173/2/3
f 176/2/3 174/2/3 175/2/3
f 179/3/3 178/3/3 177/3/3
f 180/3/3 178/3/3 179/3/3
f 184/2/3 180/2/3 179/2/3
f 184/2/3 181/2/3 180/2/3
f 185/2/3 183/2/3 182/2/3
f 185/2/3 184/2/3 183/2/3
f 186/2/3 184/2/3 185/2/3
f 187/2/3 181/2/3 184/2/3
f 187/2/3 184/2/3 186/2/3
f 188/2/3 181/2/3 187/2/3
f 189/2/3 181/2/3 188/2/3
f 190/2/3 181/2/3 189/2/3
f 191/3/3 189/3/3 188/3/3
f 192/3/3 189/3/3 191/3/3
f 193/3/4 194/3/4 195/3/4
f 195/3/4 194/3/4 196/3/4
f 196/2/4 197/2/4 199/2/4
f 199/2/4 197/2/4 200/2/4
f 198/3/4 199/3/4 201/3/4
f 201/3/4 199/3/4 202/3/4
f 203/2/4 204/2/4 205/2/4
f 205/2/4 204/2/4 206/2/4
f 211/3/5 208/3/5 207/3/5
f 212/3/5 210/3/5 209/3/5
f 213/3/5 211/3/5 207/3/5
f 213/2/5 212/2/5 211/2/5
f 214/3/5 210/3/5 212/3/5
f 214/2/5 212/2/5 213/2/5
f 215/3/5 213/3/5 207/3/5
f 215/3/5 214/3/5 213/3/5
f 216/3/5 214/3/5 215/3/5
f 217/3/5 210/3/5 214/3/5
f 217/3/5 214/3/5 216/3/5
f 218/3/5 210/3/5 217/3/5
f 219/2/5 217/2/5 216/2/5
f 220/2/5 217/2/5 219/2/5
f 223/3/5 222/3/5 221/3/5
f 224/3/5 222/3/5 223/3/5
f 229/2/5 226/2/5 225/2/5
f 230/2/5 226/2/5 229/2/5
f 231/2/5 228/2/5 227/2/5
f 232/2/5 228/2/5 231/2/5
f 233/2/6 234/2/6 235/2/6
f 235/2/6 234/2/6 236/2/6
f 237/2/6 238/2/6 241/2/6
f 241/2/6 238/2/6 242/2/6
f 242/2/6 238/2/6 243/2/6
f 239/2/6 240/2/6 244/2/6
f 244/2/6 240/2/6 245/2/6
f 245/2/6 240/2/6 246/2/6
f 247/3/6 248/3/6 251/3/6
f 251/3/6 248/3/6 252/3/6
f 249/3/6 250/3/6 253/3/6
f 253/3/6 250/3/6 254/3/6
f 252/2/6 253/2/6 255/2/6
f 255/2/6 253/2/6 256/2/6
f 257/2/6 258/2/6 259/2/6
f 259/2/6 258/2/6 260/2/6
