# MagicaVoxel @ Ephtracy

# group
o 

# material
mtllib Avtomat.mtl
usemtl palette

# normals
vn -1 0 0
vn 1 0 0
vn 0 0 1
vn 0 0 -1
vn 0 -1 0
vn 0 1 0

# texcoords
vt 0.345703 0.5
vt 0.353516 0.5
vt 0.568359 0.5
vt 0.759766 0.5
vt 0.916016 0.5

# verts
v -1.2 0 1
v -1.2 0 0.5
v -1.2 0 -1
v -1.2 3.8 1
v -1.2 3.8 0.5
v -1.2 3.8 -1
v 0.0999999 0.5 1
v 0.0999999 0.5 0.9
v 0.0999999 0.5 0.8
v 0.0999999 0.7 1
v 0.0999999 0.7 0.9
v 0.0999999 0.7 0.8
v -0.6 0.5 1
v -0.6 0.5 0.9
v -0.6 0.5 0.8
v -0.6 0.7 1
v -0.6 0.7 0.9
v -0.6 0.7 0.8
v 1.3 0 1
v 1.3 0 0.5
v 1.3 0 -1
v 1.3 3.8 1
v 1.3 3.8 0.5
v 1.3 3.8 -1
v -1.2 0 1
v -1.2 3.8 1
v -1 1 1
v -1 3.6 1
v -0.9 1.1 1
v -0.9 1.2 1
v -0.9 1.3 1
v -0.9 1.4 1
v -0.9 1.5 1
v -0.9 1.6 1
v -0.9 1.7 1
v -0.9 1.8 1
v -0.9 2.1 1
v -0.9 2.2 1
v -0.8 0.4 1
v -0.8 0.8 1
v -0.8 1.9 1
v -0.8 2 1
v -0.8 2.5 1
v -0.8 2.7 1
v -0.8 2.8 1
v -0.8 3 1
v -0.8 3.2 1
v -0.8 3.4 1
v -0.7 2.8 1
v -0.7 3 1
v -0.7 3.2 1
v -0.7 3.4 1
v -0.6 0.5 1
v -0.6 0.7 1
v -0.6 3.2 1
v -0.6 3.4 1
v -0.5 2.8 1
v -0.5 2.9 1
v -0.5 3.2 1
v -0.5 3.3 1
v -0.4 2.5 1
v -0.4 2.7 1
v -0.4 2.8 1
v -0.4 2.9 1
v -0.4 3.3 1
v -0.4 3.4 1
v -0.3 1.5 1
v -0.3 1.6 1
v -0.3 3.2 1
v -0.3 3.4 1
v -0.2 1.1 1
v -0.2 1.2 1
v -0.2 2.5 1
v -0.2 2.6 1
v -0.2 2.8 1
v -0.2 2.9 1
v -0.2 3.2 1
v -0.2 3.4 1
v -0.1 1.3 1
v -0.1 1.4 1
v -0.1 3.3 1
v -0.1 3.4 1
v 0 2.8 1
v 0 2.9 1
v 0 3.3 1
v 0 3.4 1
v 0.0999999 0.5 1
v 0.0999999 0.7 1
v 0.0999999 1.5 1
v 0.0999999 1.6 1
v 0.0999999 2.5 1
v 0.0999999 2.6 1
v 0.0999999 3.1 1
v 0.0999999 3.4 1
v 0.2 1.1 1
v 0.2 1.2 1
v 0.2 1.3 1
v 0.2 1.4 1
v 0.2 2.7 1
v 0.2 2.9 1
v 0.2 3.1 1
v 0.2 3.4 1
v 0.3 0.4 1
v 0.3 0.8 1
v 0.3 2.7 1
v 0.3 2.9 1
v 0.3 3.2 1
v 0.3 3.4 1
v 0.4 1.7 1
v 0.4 1.8 1
v 0.4 2.5 1
v 0.4 2.9 1
v 0.4 3.1 1
v 0.4 3.2 1
v 0.4 3.4 1
v 0.5 3.1 1
v 0.5 3.2 1
v 0.6 1.1 1
v 0.6 1.2 1
v 0.6 1.3 1
v 0.6 1.4 1
v 0.6 1.5 1
v 0.6 1.6 1
v 0.6 1.9 1
v 0.6 2 1
v 0.6 2.1 1
v 0.6 2.2 1
v 0.6 2.5 1
v 0.6 2.9 1
v 0.7 0.4 1
v 0.7 0.9 1
v 0.7 1 1
v 0.7 3.6 1
v 0.8 0.5 1
v 0.8 0.8 1
v 0.8 2.4 1
v 0.8 2.7 1
v 0.9 2.5 1
v 0.9 2.6 1
v 1.1 0.5 1
v 1.1 0.8 1
v 1.1 2.5 1
v 1.1 2.6 1
v 1.2 0.4 1
v 1.2 0.9 1
v 1.2 2.4 1
v 1.2 2.7 1
v 1.3 0 1
v 1.3 3.8 1
v -0.6 0.5 0.8
v -0.6 0.7 0.8
v 0.0999999 0.5 0.8
v 0.0999999 0.7 0.8
v -1.2 0 -1
v -1.2 3.8 -1
v 1.3 0 -1
v 1.3 3.8 -1
v -1.2 0 1
v 1.3 0 1
v -1.2 0 0.5
v 1.3 0 0.5
v -1.2 0 -1
v 1.3 0 -1
v -0.6 0.7 1
v 0.0999999 0.7 1
v -0.6 0.7 0.9
v 0.0999999 0.7 0.9
v -0.6 0.7 0.8
v 0.0999999 0.7 0.8
v -0.6 0.5 1
v 0.0999999 0.5 1
v -0.6 0.5 0.9
v 0.0999999 0.5 0.9
v -0.6 0.5 0.8
v 0.0999999 0.5 0.8
v -1.2 3.8 1
v 1.3 3.8 1
v -1.2 3.8 0.5
v 1.3 3.8 0.5
v -1.2 3.8 -1
v 1.3 3.8 -1

# faces
f 4/3/1 2/3/1 1/3/1
f 5/5/1 3/5/1 2/5/1
f 5/3/1 2/3/1 4/3/1
f 6/5/1 3/5/1 5/5/1
f 10/5/1 8/5/1 7/5/1
f 11/1/1 9/1/1 8/1/1
f 11/5/1 8/5/1 10/5/1
f 12/1/1 9/1/1 11/1/1
f 13/5/2 14/5/2 16/5/2
f 14/1/2 15/1/2 17/1/2
f 16/5/2 14/5/2 17/5/2
f 17/1/2 15/1/2 18/1/2
f 19/3/2 20/3/2 22/3/2
f 20/5/2 21/5/2 23/5/2
f 22/3/2 20/3/2 23/3/2
f 23/5/2 21/5/2 24/5/2
f 27/3/3 26/3/3 25/3/3
f 28/3/3 26/3/3 27/3/3
f 29/4/3 28/4/3 27/4/3
f 30/4/3 28/4/3 29/4/3
f 31/4/3 28/4/3 30/4/3
f 32/4/3 28/4/3 31/4/3
f 33/4/3 28/4/3 32/4/3
f 34/4/3 28/4/3 33/4/3
f 35/4/3 28/4/3 34/4/3
f 36/4/3 28/4/3 35/4/3
f 37/4/3 28/4/3 36/4/3
f 38/4/3 28/4/3 37/4/3
f 39/3/3 27/3/3 25/3/3
f 40/3/3 27/3/3 39/3/3
f 41/4/3 37/4/3 36/4/3
f 42/4/3 37/4/3 41/4/3
f 43/4/3 28/4/3 38/4/3
f 44/4/3 28/4/3 43/4/3
f 45/4/3 28/4/3 44/4/3
f 46/4/3 28/4/3 45/4/3
f 47/4/3 28/4/3 46/4/3
f 48/4/3 28/4/3 47/4/3
f 49/4/3 45/4/3 44/4/3
f 49/2/3 46/2/3 45/2/3
f 50/4/3 47/4/3 46/4/3
f 50/2/3 46/2/3 49/2/3
f 51/2/3 48/2/3 47/2/3
f 51/4/3 47/4/3 50/4/3
f 52/4/3 28/4/3 48/4/3
f 52/2/3 48/2/3 51/2/3
f 53/5/3 40/5/3 39/5/3
f 54/5/3 40/5/3 53/5/3
f 55/4/3 51/4/3 50/4/3
f 55/4/3 50/4/3 49/4/3
f 55/4/3 52/4/3 51/4/3
f 56/4/3 28/4/3 52/4/3
f 56/4/3 52/4/3 55/4/3
f 57/4/3 55/4/3 49/4/3
f 57/4/3 49/4/3 44/4/3
f 58/4/3 55/4/3 57/4/3
f 59/2/3 56/2/3 55/2/3
f 59/4/3 55/4/3 58/4/3
f 60/2/3 56/2/3 59/2/3
f 61/4/3 43/4/3 38/4/3
f 61/2/3 44/2/3 43/2/3
f 62/4/3 57/4/3 44/4/3
f 62/2/3 44/2/3 61/2/3
f 63/2/3 58/2/3 57/2/3
f 63/4/3 57/4/3 62/4/3
f 64/4/3 60/4/3 59/4/3
f 64/2/3 58/2/3 63/2/3
f 64/4/3 59/4/3 58/4/3
f 65/2/3 56/2/3 60/2/3
f 65/4/3 60/4/3 64/4/3
f 66/4/3 28/4/3 56/4/3
f 66/2/3 56/2/3 65/2/3
f 67/4/3 33/4/3 32/4/3
f 67/2/3 34/2/3 33/2/3
f 68/4/3 35/4/3 34/4/3
f 68/2/3 34/2/3 67/2/3
f 69/4/3 66/4/3 65/4/3
f 69/4/3 65/4/3 64/4/3
f 69/4/3 64/4/3 63/4/3
f 69/4/3 63/4/3 62/4/3
f 69/4/3 62/4/3 61/4/3
f 70/4/3 28/4/3 66/4/3
f 70/4/3 66/4/3 69/4/3
f 71/4/3 29/4/3 27/4/3
f 71/2/3 30/2/3 29/2/3
f 72/4/3 31/4/3 30/4/3
f 72/2/3 30/2/3 71/2/3
f 73/4/3 69/4/3 61/4/3
f 73/4/3 61/4/3 38/4/3
f 74/4/3 69/4/3 73/4/3
f 75/4/3 69/4/3 74/4/3
f 76/4/3 69/4/3 75/4/3
f 77/2/3 70/2/3 69/2/3
f 77/4/3 69/4/3 76/4/3
f 78/4/3 28/4/3 70/4/3
f 78/2/3 70/2/3 77/2/3
f 79/2/3 32/2/3 31/2/3
f 79/4/3 31/4/3 72/4/3
f 79/4/3 72/4/3 71/4/3
f 80/4/3 67/4/3 32/4/3
f 80/2/3 32/2/3 79/2/3
f 80/4/3 68/4/3 67/4/3
f 81/4/3 77/4/3 76/4/3
f 81/4/3 78/4/3 77/4/3
f 82/4/3 28/4/3 78/4/3
f 82/4/3 78/4/3 81/4/3
f 83/2/3 76/2/3 75/2/3
f 83/4/3 75/4/3 74/4/3
f 84/4/3 81/4/3 76/4/3
f 84/2/3 76/2/3 83/2/3
f 85/2/3 82/2/3 81/2/3
f 85/4/3 81/4/3 84/4/3
f 86/4/3 28/4/3 82/4/3
f 86/2/3 82/2/3 85/2/3
f 87/5/3 53/5/3 39/5/3
f 88/5/3 40/5/3 54/5/3
f 89/4/3 68/4/3 80/4/3
f 89/4/3 80/4/3 79/4/3
f 90/4/3 35/4/3 68/4/3
f 90/4/3 68/4/3 89/4/3
f 91/2/3 74/2/3 73/2/3
f 91/4/3 73/4/3 38/4/3
f 92/4/3 85/4/3 84/4/3
f 92/2/3 74/2/3 91/2/3
f 92/4/3 83/4/3 74/4/3
f 92/4/3 84/4/3 83/4/3
f 92/4/3 86/4/3 85/4/3
f 93/4/3 86/4/3 92/4/3
f 94/4/3 28/4/3 86/4/3
f 94/4/3 86/4/3 93/4/3
f 95/4/3 71/4/3 27/4/3
f 95/4/3 89/4/3 79/4/3
f 95/4/3 79/4/3 71/4/3
f 96/4/3 89/4/3 95/4/3
f 97/4/3 89/4/3 96/4/3
f 98/4/3 89/4/3 97/4/3
f 99/4/3 92/4/3 91/4/3
f 99/4/3 93/4/3 92/4/3
f 100/4/3 93/4/3 99/4/3
f 101/2/3 94/2/3 93/2/3
f 101/4/3 93/4/3 100/4/3
f 102/4/3 28/4/3 94/4/3
f 102/2/3 94/2/3 101/2/3
f 103/5/3 88/5/3 87/5/3
f 103/3/3 39/3/3 25/3/3
f 103/5/3 87/5/3 39/5/3
f 104/5/3 40/5/3 88/5/3
f 104/5/3 88/5/3 103/5/3
f 104/3/3 27/3/3 40/3/3
f 105/2/3 100/2/3 99/2/3
f 105/4/3 99/4/3 91/4/3
f 106/4/3 101/4/3 100/4/3
f 106/2/3 100/2/3 105/2/3
f 106/4/3 102/4/3 101/4/3
f 107/4/3 102/4/3 106/4/3
f 108/4/3 28/4/3 102/4/3
f 108/4/3 102/4/3 107/4/3
f 109/2/3 36/2/3 35/2/3
f 109/4/3 35/4/3 90/4/3
f 110/4/3 41/4/3 36/4/3
f 110/2/3 36/2/3 109/2/3
f 111/4/3 107/4/3 106/4/3
f 111/4/3 91/4/3 38/4/3
f 111/4/3 105/4/3 91/4/3
f 111/4/3 106/4/3 105/4/3
f 112/4/3 107/4/3 111/4/3
f 113/4/3 107/4/3 112/4/3
f 114/2/3 108/2/3 107/2/3
f 114/4/3 107/4/3 113/4/3
f 115/4/3 28/4/3 108/4/3
f 115/2/3 108/2/3 114/2/3
f 116/2/3 114/2/3 113/2/3
f 116/4/3 113/4/3 112/4/3
f 117/4/3 115/4/3 114/4/3
f 117/2/3 114/2/3 116/2/3
f 118/4/3 95/4/3 27/4/3
f 118/2/3 96/2/3 95/2/3
f 119/4/3 97/4/3 96/4/3
f 119/2/3 96/2/3 118/2/3
f 120/2/3 98/2/3 97/2/3
f 120/4/3 97/4/3 119/4/3
f 121/4/3 89/4/3 98/4/3
f 121/2/3 98/2/3 120/2/3
f 122/2/3 90/2/3 89/2/3
f 122/4/3 89/4/3 121/4/3
f 123/4/3 110/4/3 109/4/3
f 123/2/3 90/2/3 122/2/3
f 123/4/3 109/4/3 90/4/3
f 124/4/3 41/4/3 110/4/3
f 124/4/3 110/4/3 123/4/3
f 124/2/3 42/2/3 41/2/3
f 125/4/3 37/4/3 42/4/3
f 125/2/3 42/2/3 124/2/3
f 126/2/3 38/2/3 37/2/3
f 126/4/3 37/4/3 125/4/3
f 127/4/3 111/4/3 38/4/3
f 127/2/3 38/2/3 126/2/3
f 128/2/3 112/2/3 111/2/3
f 128/4/3 111/4/3 127/4/3
f 129/4/3 117/4/3 116/4/3
f 129/2/3 112/2/3 128/2/3
f 129/4/3 116/4/3 112/4/3
f 130/3/3 103/3/3 25/3/3
f 130/3/3 104/3/3 103/3/3
f 131/3/3 27/3/3 104/3/3
f 131/3/3 104/3/3 130/3/3
f 132/4/3 124/4/3 123/4/3
f 132/3/3 27/3/3 131/3/3
f 132/4/3 123/4/3 122/4/3
f 132/4/3 119/4/3 118/4/3
f 132/4/3 121/4/3 120/4/3
f 132/4/3 126/4/3 125/4/3
f 132/4/3 127/4/3 126/4/3
f 132/4/3 129/4/3 128/4/3
f 132/4/3 128/4/3 127/4/3
f 132/4/3 125/4/3 124/4/3
f 132/4/3 118/4/3 27/4/3
f 132/4/3 122/4/3 121/4/3
f 132/4/3 120/4/3 119/4/3
f 133/3/3 26/3/3 28/3/3
f 133/4/3 129/4/3 132/4/3
f 133/4/3 28/4/3 115/4/3
f 133/4/3 117/4/3 129/4/3
f 133/4/3 115/4/3 117/4/3
f 134/5/3 131/5/3 130/5/3
f 135/5/3 131/5/3 134/5/3
f 136/3/3 132/3/3 131/3/3
f 136/3/3 133/3/3 132/3/3
f 137/3/3 133/3/3 136/3/3
f 138/5/3 137/5/3 136/5/3
f 139/5/3 137/5/3 138/5/3
f 140/1/3 135/1/3 134/1/3
f 140/5/3 134/5/3 130/5/3
f 141/5/3 131/5/3 135/5/3
f 141/1/3 135/1/3 140/1/3
f 142/1/3 139/1/3 138/1/3
f 142/5/3 138/5/3 136/5/3
f 143/5/3 137/5/3 139/5/3
f 143/1/3 139/1/3 142/1/3
f 144/5/3 140/5/3 130/5/3
f 144/3/3 130/3/3 25/3/3
f 144/5/3 141/5/3 140/5/3
f 145/5/3 131/5/3 141/5/3
f 145/5/3 141/5/3 144/5/3
f 145/3/3 136/3/3 131/3/3
f 146/5/3 143/5/3 142/5/3
f 146/3/3 136/3/3 145/3/3
f 146/5/3 142/5/3 136/5/3
f 147/5/3 137/5/3 143/5/3
f 147/5/3 143/5/3 146/5/3
f 147/3/3 133/3/3 137/3/3
f 148/3/3 146/3/3 145/3/3
f 148/3/3 145/3/3 144/3/3
f 148/3/3 147/3/3 146/3/3
f 148/3/3 144/3/3 25/3/3
f 149/3/3 26/3/3 133/3/3
f 149/3/3 147/3/3 148/3/3
f 149/3/3 133/3/3 147/3/3
f 152/1/3 151/1/3 150/1/3
f 153/1/3 151/1/3 152/1/3
f 154/5/4 155/5/4 156/5/4
f 156/5/4 155/5/4 157/5/4
f 160/3/5 159/3/5 158/3/5
f 161/3/5 159/3/5 160/3/5
f 162/5/5 161/5/5 160/5/5
f 163/5/5 161/5/5 162/5/5
f 166/5/5 165/5/5 164/5/5
f 167/5/5 165/5/5 166/5/5
f 168/1/5 167/1/5 166/1/5
f 169/1/5 167/1/5 168/1/5
f 170/5/6 171/5/6 172/5/6
f 172/5/6 171/5/6 173/5/6
f 172/1/6 173/1/6 174/1/6
f 174/1/6 173/1/6 175/1/6
f 176/3/6 177/3/6 178/3/6
f 178/3/6 177/3/6 179/3/6
f 178/5/6 179/5/6 180/5/6
f 180/5/6 179/5/6 181/5/6
