# MagicaVoxel @ Ephtracy

# group
o 

# material
mtllib cactus.mtl
usemtl palette

# normals
vn -1 0 0
vn 1 0 0
vn 0 0 1
vn 0 0 -1
vn 0 -1 0
vn 0 1 0

# texcoords
vt 0.419922 0.5
vt 0.763672 0.5
vt 0.767578 0.5
vt 0.849609 0.5

# verts
v -0.4 1 0.1
v -0.4 1 0
v -0.4 1.1 0.1
v -0.4 1.1 0
v -0.3 0.6 0.3
v -0.3 0.6 0.2
v -0.3 0.7 0.3
v -0.3 0.7 0.2
v -0.3 0.9 0.1
v -0.3 0.9 0
v -0.3 1 0.1
v -0.3 1 0
v -0.3 1 -0.2
v -0.3 1.1 0
v -0.3 1.1 -0.1
v -0.3 1.1 -0.2
v -0.3 1.2 -0.1
v -0.3 1.2 -0.2
v -0.2 0 0.3
v -0.2 0 -0.2
v -0.2 0.5 0.3
v -0.2 0.5 -0.2
v -0.2 0.6 0.2
v -0.2 0.6 0
v -0.2 0.7 0.2
v -0.2 0.7 0.1
v -0.2 0.8 0.1
v -0.2 0.8 0
v -0.2 0.9 0.3
v -0.2 0.9 0.1
v -0.2 1 0.2
v -0.2 1 0.1
v -0.2 1.1 0.3
v -0.2 1.1 0.2
v -0.2 1.2 0.3
v -0.2 1.2 0.2
v -0.2 1.2 0.1
v -0.2 1.2 0
v -0.2 1.3 0.1
v -0.2 1.3 0
v -0.2 1.4 0.1
v -0.2 1.4 0
v -0.1 0.6 0
v -0.1 0.6 -0.1
v -0.1 0.7 0
v -0.1 0.7 -0.1
v 0 0.4 0.1
v 0 0.4 0
v 0 0.5 0.1
v 0 0.5 0
v 0 0.6 0.1
v 0 0.6 0
v 0 0.6 -0.1
v 0 0.6 -0.2
v 0 0.7 0.1
v 0 0.7 -0.1
v 0 0.8 0.3
v 0 0.8 0.1
v 0 0.8 0
v 0 0.8 -0.1
v 0 0.8 -0.2
v 0 0.8 -0.3
v 0 0.8 -0.4
v 0 0.9 0.2
v 0 0.9 0.1
v 0 0.9 0
v 0 0.9 -0.1
v 0 0.9 -0.3
v 0 0.9 -0.4
v 0 1 0.3
v 0 1 0.2
v 0 1 0.1
v 0 1 0
v 0 1 -0.2
v 0 1.1 0.1
v 0 1.1 0
v 0 1.1 -0.1
v 0 1.1 -0.2
v 0 1.1 -0.3
v 0 1.2 0.3
v 0 1.2 0.1
v 0 1.2 0
v 0 1.2 -0.1
v 0 1.2 -0.2
v 0 1.2 -0.3
v 0 1.3 0.3
v 0 1.3 0.1
v 0.1 0.6 0.3
v 0.1 0.6 0.2
v 0.1 0.7 0.3
v 0.1 0.7 0.2
v 0.1 1.3 0.1
v 0.1 1.3 0
v 0.1 1.4 0.1
v 0.1 1.4 0
v 0.2 0.4 0.2
v 0.2 0.4 -0.1
v 0.2 0.5 0.2
v 0.2 0.5 -0.1
v 0.2 0.6 0.2
v 0.2 0.6 0.1
v 0.2 0.7 0.2
v 0.2 0.7 0.1
v 0.2 0.8 0.2
v 0.2 0.8 0.1
v 0.2 1 0
v 0.2 1 -0.2
v 0.2 1.1 0
v 0.2 1.1 -0.1
v 0.2 1.1 -0.2
v 0.2 1.2 -0.1
v 0.2 1.2 -0.2
v 0.3 1.1 0.1
v 0.3 1.1 0
v 0.3 1.2 0.1
v 0.3 1.2 0
v 0.3 1.3 0.1
v 0.3 1.3 0
v 0.3 1.4 0.1
v 0.3 1.4 0
v 0.4 0.8 0.3
v 0.4 0.8 0.2
v 0.4 0.8 0.1
v 0.4 0.9 0.2
v 0.4 0.9 0.1
v 0.4 1 0.3
v 0.4 1 0.2
v 0.4 1.2 0.1
v 0.4 1.2 0
v 0.4 1.3 0.1
v 0.4 1.3 0
v -0.2 1 0.1
v -0.2 1 0
v -0.2 1 -0.2
v -0.2 1.1 0.1
v -0.2 1.1 -0.1
v -0.2 1.1 -0.2
v -0.2 1.2 -0.1
v -0.2 1.2 -0.2
v -0.1 0.4 0.2
v -0.1 0.4 -0.1
v -0.1 0.5 0.2
v -0.1 0.5 -0.1
v -0.1 0.6 0.3
v -0.1 0.6 0.2
v -0.1 0.6 0.1
v -0.1 0.7 0.3
v -0.1 0.7 0.2
v -0.1 0.7 0.1
v -0.1 0.7 0
v -0.1 0.8 0.1
v -0.1 0.8 0
v -0.1 0.9 0.3
v -0.1 0.9 0.1
v -0.1 1 0.2
v -0.1 1 0.1
v -0.1 1.1 0.3
v -0.1 1.1 0.2
v -0.1 1.2 0.3
v -0.1 1.2 0.2
v -0.1 1.3 0.1
v -0.1 1.3 0
v -0.1 1.4 0.1
v -0.1 1.4 0
v 0.1 0.4 0.1
v 0.1 0.4 0
v 0.1 0.5 0.1
v 0.1 0.5 0
v 0.1 0.6 0.1
v 0.1 0.6 0
v 0.1 0.6 -0.1
v 0.1 0.6 -0.2
v 0.1 0.7 0.1
v 0.1 0.7 0
v 0.1 0.7 -0.1
v 0.1 0.8 0.3
v 0.1 0.8 0.1
v 0.1 0.8 0
v 0.1 0.8 -0.1
v 0.1 0.8 -0.2
v 0.1 0.8 -0.3
v 0.1 0.8 -0.4
v 0.1 0.9 0.2
v 0.1 0.9 0.1
v 0.1 0.9 0
v 0.1 0.9 -0.1
v 0.1 0.9 -0.3
v 0.1 0.9 -0.4
v 0.1 1 0.3
v 0.1 1 0.2
v 0.1 1 0.1
v 0.1 1 0
v 0.1 1 -0.2
v 0.1 1.1 0.1
v 0.1 1.1 0
v 0.1 1.1 -0.1
v 0.1 1.1 -0.2
v 0.1 1.1 -0.3
v 0.1 1.2 0.2
v 0.1 1.2 0.1
v 0.1 1.2 0
v 0.1 1.2 -0.1
v 0.1 1.2 -0.2
v 0.1 1.2 -0.3
v 0.1 1.3 0.2
v 0.1 1.3 0.1
v 0.2 0.6 0
v 0.2 0.6 -0.1
v 0.2 0.7 0
v 0.2 0.7 -0.1
v 0.2 1.2 0.1
v 0.2 1.2 0
v 0.2 1.4 0.1
v 0.2 1.4 0
v 0.3 0 0.3
v 0.3 0 -0.2
v 0.3 0.5 0.3
v 0.3 0.5 -0.2
v 0.3 0.6 0.3
v 0.3 0.6 0.1
v 0.3 0.6 0
v 0.3 0.7 0.3
v 0.3 0.7 0.2
v 0.3 0.7 0.1
v 0.3 0.7 0
v 0.3 0.8 0.2
v 0.3 0.8 0.1
v 0.3 1 0
v 0.3 1 -0.1
v 0.3 1.1 0
v 0.3 1.1 -0.1
v 0.3 1.1 -0.2
v 0.3 1.2 0.3
v 0.3 1.2 0.2
v 0.3 1.2 -0.1
v 0.3 1.2 -0.2
v 0.3 1.3 0.3
v 0.3 1.3 0.2
v 0.4 1 0.1
v 0.4 1 0
v 0.4 1 -0.1
v 0.4 1 -0.2
v 0.4 1.1 0.1
v 0.4 1.1 0
v 0.4 1.1 -0.1
v 0.4 1.1 -0.2
v 0.5 0.8 0.3
v 0.5 0.8 0.2
v 0.5 0.8 0
v 0.5 0.9 0.2
v 0.5 0.9 0
v 0.5 1 0.3
v 0.5 1 0.2
v 0.5 1.1 0.1
v 0.5 1.1 0
v 0.5 1.4 0.1
v 0.5 1.4 0
v -0.3 0.6 0.3
v -0.3 0.7 0.3
v -0.2 0 0.3
v -0.2 0.5 0.3
v -0.2 0.9 0.3
v -0.2 1.1 0.3
v -0.2 1.2 0.3
v -0.1 0.6 0.3
v -0.1 0.7 0.3
v -0.1 0.9 0.3
v -0.1 1.1 0.3
v -0.1 1.2 0.3
v 0 0.8 0.3
v 0 1 0.3
v 0 1.2 0.3
v 0 1.3 0.3
v 0.1 0.6 0.3
v 0.1 0.7 0.3
v 0.1 0.8 0.3
v 0.1 1 0.3
v 0.2 0.6 0.3
v 0.2 0.7 0.3
v 0.3 0 0.3
v 0.3 0.5 0.3
v 0.3 0.6 0.3
v 0.3 0.7 0.3
v 0.3 1.2 0.3
v 0.3 1.3 0.3
v 0.4 0.8 0.3
v 0.4 1 0.3
v 0.5 0.8 0.3
v 0.5 1 0.3
v 0.2 0.7 0.2
v 0.2 0.8 0.2
v 0.3 0.7 0.2
v 0.3 0.8 0.2
v -0.4 1 0.1
v -0.4 1.1 0.1
v -0.3 0.9 0.1
v -0.3 1 0.1
v -0.3 1.1 0.1
v -0.2 0.7 0.1
v -0.2 0.8 0.1
v -0.2 0.9 0.1
v -0.2 1 0.1
v -0.2 1.1 0.1
v -0.2 1.2 0.1
v -0.2 1.3 0.1
v -0.2 1.4 0.1
v -0.1 0.6 0.1
v -0.1 0.7 0.1
v -0.1 0.8 0.1
v -0.1 0.9 0.1
v -0.1 1 0.1
v -0.1 1.2 0.1
v -0.1 1.3 0.1
v -0.1 1.4 0.1
v 0 0.4 0.1
v 0 0.5 0.1
v 0 0.6 0.1
v 0 0.7 0.1
v 0 0.8 0.1
v 0 0.9 0.1
v 0 1 0.1
v 0 1.1 0.1
v 0 1.2 0.1
v 0 1.3 0.1
v 0.1 0.4 0.1
v 0.1 0.5 0.1
v 0.1 0.6 0.1
v 0.1 0.7 0.1
v 0.1 0.8 0.1
v 0.1 0.9 0.1
v 0.1 1 0.1
v 0.1 1.1 0.1
v 0.1 1.2 0.1
v 0.1 1.3 0.1
v 0.1 1.4 0.1
v 0.2 0.6 0.1
v 0.2 0.7 0.1
v 0.2 0.8 0.1
v 0.2 0.9 0.1
v 0.2 1.2 0.1
v 0.2 1.4 0.1
v 0.3 0.8 0.1
v 0.3 1.1 0.1
v 0.3 1.2 0.1
v 0.3 1.3 0.1
v 0.3 1.4 0.1
v 0.4 0.8 0.1
v 0.4 0.9 0.1
v 0.4 1 0.1
v 0.4 1.1 0.1
v 0.4 1.2 0.1
v 0.4 1.3 0.1
v 0.4 1.4 0.1
v 0.5 1.1 0.1
v 0.5 1.4 0.1
v -0.3 1.1 -0.1
v -0.3 1.2 -0.1
v -0.2 1.1 -0.1
v -0.2 1.2 -0.1
v -0.1 0.4 -0.1
v -0.1 0.5 -0.1
v 0 0.8 -0.1
v 0 0.9 -0.1
v 0 1.1 -0.1
v 0 1.2 -0.1
v 0.1 0.8 -0.1
v 0.1 0.9 -0.1
v 0.1 1.1 -0.1
v 0.1 1.2 -0.1
v 0.2 0.4 -0.1
v 0.2 0.5 -0.1
v 0.2 1.1 -0.1
v 0.2 1.2 -0.1
v 0.3 1 -0.1
v 0.3 1.1 -0.1
v 0.3 1.2 -0.1
v 0.4 1 -0.1
v 0.4 1.1 -0.1
v -0.3 0.6 0.2
v -0.3 0.7 0.2
v -0.2 0.6 0.2
v -0.2 0.7 0.2
v -0.2 1 0.2
v -0.2 1.1 0.2
v -0.2 1.2 0.2
v -0.1 0.4 0.2
v -0.1 0.5 0.2
v -0.1 1 0.2
v -0.1 1.1 0.2
v -0.1 1.2 0.2
v 0 0.9 0.2
v 0 1 0.2
v 0.1 0.6 0.2
v 0.1 0.7 0.2
v 0.1 0.9 0.2
v 0.1 1 0.2
v 0.1 1.2 0.2
v 0.1 1.3 0.2
v 0.2 0.4 0.2
v 0.2 0.5 0.2
v 0.2 0.6 0.2
v 0.2 0.7 0.2
v 0.3 1.2 0.2
v 0.3 1.3 0.2
v 0.4 0.9 0.2
v 0.4 1 0.2
v 0.5 0.9 0.2
v 0.5 1 0.2
v 0.2 0.7 0.1
v 0.2 0.8 0.1
v 0.3 0.7 0.1
v 0.3 0.8 0.1
v -0.4 1 0
v -0.4 1.1 0
v -0.3 0.9 0
v -0.3 1 0
v -0.3 1.1 0
v -0.2 0.6 0
v -0.2 0.8 0
v -0.2 0.9 0
v -0.2 1 0
v -0.2 1.2 0
v -0.2 1.3 0
v -0.2 1.4 0
v -0.1 0.6 0
v -0.1 0.7 0
v -0.1 0.8 0
v -0.1 1.2 0
v -0.1 1.3 0
v -0.1 1.4 0
v 0 0.4 0
v 0 0.5 0
v 0 0.6 0
v 0 0.8 0
v 0 0.9 0
v 0 1 0
v 0 1.1 0
v 0 1.2 0
v 0.1 0.4 0
v 0.1 0.5 0
v 0.1 0.6 0
v 0.1 0.8 0
v 0.1 0.9 0
v 0.1 1 0
v 0.1 1.1 0
v 0.1 1.2 0
v 0.1 1.3 0
v 0.1 1.4 0
v 0.2 0.6 0
v 0.2 0.7 0
v 0.2 0.8 0
v 0.2 0.9 0
v 0.2 1 0
v 0.2 1.1 0
v 0.2 1.2 0
v 0.2 1.4 0
v 0.3 0.6 0
v 0.3 0.7 0
v 0.3 1 0
v 0.3 1.1 0
v 0.3 1.2 0
v 0.3 1.3 0
v 0.3 1.4 0
v 0.4 0.8 0
v 0.4 0.9 0
v 0.4 1 0
v 0.4 1.1 0
v 0.4 1.2 0
v 0.4 1.3 0
v 0.4 1.4 0
v 0.5 0.8 0
v 0.5 0.9 0
v 0.5 1.1 0
v 0.5 1.4 0
v -0.1 0.6 -0.1
v -0.1 0.7 -0.1
v 0 0.6 -0.1
v 0 0.7 -0.1
v 0.1 0.6 -0.1
v 0.1 0.7 -0.1
v 0.2 0.6 -0.1
v 0.2 0.7 -0.1
v -0.3 1 -0.2
v -0.3 1.1 -0.2
v -0.3 1.2 -0.2
v -0.2 0 -0.2
v -0.2 0.5 -0.2
v -0.2 1 -0.2
v -0.2 1.1 -0.2
v -0.2 1.2 -0.2
v 0 0.6 -0.2
v 0 0.8 -0.2
v 0 1 -0.2
v 0 1.1 -0.2
v 0.1 0.6 -0.2
v 0.1 0.8 -0.2
v 0.1 1 -0.2
v 0.1 1.1 -0.2
v 0.2 1 -0.2
v 0.2 1.1 -0.2
v 0.2 1.2 -0.2
v 0.3 0 -0.2
v 0.3 0.5 -0.2
v 0.3 1.1 -0.2
v 0.3 1.2 -0.2
v 0.4 1 -0.2
v 0.4 1.1 -0.2
v 0 1.1 -0.3
v 0 1.2 -0.3
v 0.1 1.1 -0.3
v 0.1 1.2 -0.3
v 0 0.8 -0.4
v 0 0.9 -0.4
v 0.1 0.8 -0.4
v 0.1 0.9 -0.4
v -0.2 0 0.3
v 0.3 0 0.3
v -0.2 0 -0.2
v 0.3 0 -0.2
v -0.3 0.6 0.3
v -0.1 0.6 0.3
v 0.1 0.6 0.3
v 0.2 0.6 0.3
v 0.3 0.6 0.3
v -0.3 0.6 0.2
v -0.2 0.6 0.2
v -0.1 0.6 0.2
v 0.1 0.6 0.2
v 0.2 0.6 0.2
v -0.1 0.6 0.1
v 0 0.6 0.1
v 0.1 0.6 0.1
v 0.2 0.6 0.1
v 0.3 0.6 0.1
v -0.2 0.6 0
v -0.1 0.6 0
v 0 0.6 0
v 0.1 0.6 0
v 0.2 0.6 0
v 0.3 0.6 0
v -0.1 0.6 -0.1
v 0 0.6 -0.1
v 0.1 0.6 -0.1
v 0.2 0.6 -0.1
v 0 0.6 -0.2
v 0.1 0.6 -0.2
v 0 0.8 0.3
v 0.1 0.8 0.3
v 0.4 0.8 0.3
v 0.5 0.8 0.3
v 0.4 0.8 0.2
v 0.5 0.8 0.2
v 0 0.8 0.1
v 0.1 0.8 0.1
v 0.2 0.8 0.1
v 0.3 0.8 0.1
v 0.4 0.8 0.1
v 0.1 0.8 0
v 0.2 0.8 0
v 0.4 0.8 0
v 0.5 0.8 0
v 0 0.8 -0.2
v 0.1 0.8 -0.2
v 0 0.8 -0.3
v 0.1 0.8 -0.3
v 0 0.8 -0.4
v 0.1 0.8 -0.4
v -0.2 0.9 0.3
v -0.1 0.9 0.3
v -0.3 0.9 0.1
v -0.2 0.9 0.1
v -0.1 0.9 0.1
v 0 0.9 0.1
v -0.3 0.9 0
v -0.2 0.9 0
v 0 0.9 0
v -0.4 1 0.1
v -0.3 1 0.1
v 0.1 1 0.1
v 0.4 1 0.1
v -0.4 1 0
v -0.3 1 0
v -0.2 1 0
v 0 1 0
v 0.1 1 0
v 0.2 1 0
v 0.3 1 0
v 0.4 1 0
v 0.3 1 -0.1
v 0.4 1 -0.1
v -0.3 1 -0.2
v -0.2 1 -0.2
v 0 1 -0.2
v 0.1 1 -0.2
v 0.2 1 -0.2
v 0.4 1 -0.2
v 0.4 1.1 0.1
v 0.5 1.1 0.1
v 0.4 1.1 0
v 0.5 1.1 0
v 0 1.1 -0.2
v 0.1 1.1 -0.2
v 0 1.1 -0.3
v 0.1 1.1 -0.3
v 0 1.2 0.3
v 0.3 1.2 0.3
v 0.1 1.2 0.2
v 0.3 1.2 0.2
v -0.2 1.2 0.1
v -0.1 1.2 0.1
v 0 1.2 0.1
v 0.1 1.2 0.1
v 0.2 1.2 0.1
v -0.2 1.2 0
v -0.1 1.2 0
v 0 1.2 0
v 0.1 1.2 0
v 0.2 1.2 0
v 0.3 1.3 0.1
v 0.4 1.3 0.1
v 0.3 1.3 0
v 0.4 1.3 0
v -0.1 0.4 0.2
v 0.2 0.4 0.2
v 0 0.4 0.1
v 0.1 0.4 0.1
v 0 0.4 0
v 0.1 0.4 0
v -0.1 0.4 -0.1
v 0.2 0.4 -0.1
v -0.2 0.5 0.3
v 0.3 0.5 0.3
v -0.1 0.5 0.2
v 0.2 0.5 0.2
v -0.1 0.5 -0.1
v 0.2 0.5 -0.1
v -0.2 0.5 -0.2
v 0.3 0.5 -0.2
v -0.3 0.7 0.3
v -0.1 0.7 0.3
v 0.1 0.7 0.3
v 0.2 0.7 0.3
v 0.3 0.7 0.3
v -0.3 0.7 0.2
v -0.2 0.7 0.2
v -0.1 0.7 0.2
v 0.1 0.7 0.2
v 0.2 0.7 0.2
v 0.3 0.7 0.2
v -0.2 0.7 0.1
v -0.1 0.7 0.1
v 0 0.7 0.1
v 0.1 0.7 0.1
v 0.2 0.7 0.1
v 0.3 0.7 0.1
v -0.1 0.7 0
v 0.1 0.7 0
v 0.2 0.7 0
v 0.3 0.7 0
v -0.1 0.7 -0.1
v 0 0.7 -0.1
v 0.1 0.7 -0.1
v 0.2 0.7 -0.1
v 0.2 0.8 0.2
v 0.3 0.8 0.2
v -0.2 0.8 0.1
v -0.1 0.8 0.1
v 0.2 0.8 0.1
v 0.3 0.8 0.1
v -0.2 0.8 0
v -0.1 0.8 0
v 0 0.8 0
v 0.1 0.8 0
v 0 0.8 -0.1
v 0.1 0.8 -0.1
v 0 0.9 0.2
v 0.1 0.9 0.2
v 0.4 0.9 0.2
v 0.5 0.9 0.2
v 0 0.9 0.1
v 0.1 0.9 0.1
v 0.2 0.9 0.1
v 0.4 0.9 0.1
v 0.1 0.9 0
v 0.2 0.9 0
v 0.4 0.9 0
v 0.5 0.9 0
v 0 0.9 -0.1
v 0.1 0.9 -0.1
v 0 0.9 -0.3
v 0.1 0.9 -0.3
v 0 0.9 -0.4
v 0.1 0.9 -0.4
v 0 1 0.3
v 0.1 1 0.3
v 0.4 1 0.3
v 0.5 1 0.3
v -0.2 1 0.2
v -0.1 1 0.2
v 0 1 0.2
v 0.1 1 0.2
v 0.4 1 0.2
v 0.5 1 0.2
v -0.2 1 0.1
v -0.1 1 0.1
v 0 1 0.1
v -0.2 1 0
v 0 1 0
v -0.4 1.1 0.1
v -0.3 1.1 0.1
v -0.2 1.1 0.1
v 0.1 1.1 0.1
v 0.3 1.1 0.1
v -0.4 1.1 0
v -0.3 1.1 0
v 0 1.1 0
v 0.1 1.1 0
v 0.2 1.1 0
v 0.3 1.1 0
v -0.3 1.1 -0.1
v -0.2 1.1 -0.1
v 0 1.1 -0.1
v 0.1 1.1 -0.1
v 0.2 1.1 -0.1
v 0.3 1.1 -0.1
v 0.4 1.1 -0.1
v 0.3 1.1 -0.2
v 0.4 1.1 -0.2
v -0.2 1.2 0.3
v -0.1 1.2 0.3
v -0.2 1.2 0.2
v -0.1 1.2 0.2
v 0.3 1.2 0.1
v 0.4 1.2 0.1
v 0.3 1.2 0
v 0.4 1.2 0
v -0.3 1.2 -0.1
v -0.2 1.2 -0.1
v 0 1.2 -0.1
v 0.1 1.2 -0.1
v 0.2 1.2 -0.1
v 0.3 1.2 -0.1
v -0.3 1.2 -0.2
v -0.2 1.2 -0.2
v 0 1.2 -0.2
v 0.1 1.2 -0.2
v 0.2 1.2 -0.2
v 0.3 1.2 -0.2
v 0 1.2 -0.3
v 0.1 1.2 -0.3
v 0 1.3 0.3
v 0.3 1.3 0.3
v 0.1 1.3 0.2
v 0.3 1.3 0.2
v -0.1 1.3 0.1
v 0 1.3 0.1
v 0.1 1.3 0.1
v -0.1 1.3 0
v 0.1 1.3 0
v -0.2 1.4 0.1
v -0.1 1.4 0.1
v 0.1 1.4 0.1
v 0.2 1.4 0.1
v 0.3 1.4 0.1
v 0.4 1.4 0.1
v 0.5 1.4 0.1
v -0.2 1.4 0
v -0.1 1.4 0
v 0.1 1.4 0
v 0.2 1.4 0
v 0.3 1.4 0
v 0.4 1.4 0
v 0.5 1.4 0

# faces
f 3/2/1 2/2/1 1/2/1
f 4/2/1 2/2/1 3/2/1
f 7/2/1 6/2/1 5/2/1
f 8/2/1 6/2/1 7/2/1
f 11/3/1 10/3/1 9/3/1
f 12/3/1 10/3/1 11/3/1
f 14/3/1 13/3/1 12/3/1
f 15/3/1 13/3/1 14/3/1
f 16/3/1 13/3/1 15/3/1
f 17/2/1 16/2/1 15/2/1
f 18/2/1 16/2/1 17/2/1
f 21/1/1 20/1/1 19/1/1
f 22/1/1 20/1/1 21/1/1
f 25/3/1 24/3/1 23/3/1
f 26/3/1 24/3/1 25/3/1
f 27/3/1 24/3/1 26/3/1
f 28/3/1 24/3/1 27/3/1
f 31/3/1 30/3/1 29/3/1
f 32/3/1 30/3/1 31/3/1
f 33/3/1 31/3/1 29/3/1
f 34/3/1 31/3/1 33/3/1
f 35/2/1 34/2/1 33/2/1
f 36/2/1 34/2/1 35/2/1
f 39/3/1 38/3/1 37/3/1
f 40/3/1 38/3/1 39/3/1
f 41/2/1 40/2/1 39/2/1
f 42/2/1 40/2/1 41/2/1
f 45/3/1 44/3/1 43/3/1
f 46/3/1 44/3/1 45/3/1
f 49/2/1 48/2/1 47/2/1
f 50/2/1 48/2/1 49/2/1
f 51/3/1 50/3/1 49/3/1
f 52/3/1 50/3/1 51/3/1
f 56/2/1 54/2/1 53/2/1
f 58/3/1 56/3/1 55/3/1
f 59/3/1 56/3/1 58/3/1
f 60/2/1 54/2/1 56/2/1
f 60/3/1 56/3/1 59/3/1
f 61/2/1 54/2/1 60/2/1
f 64/3/1 59/3/1 58/3/1
f 64/3/1 58/3/1 57/3/1
f 65/3/1 59/3/1 64/3/1
f 66/3/1 59/3/1 65/3/1
f 67/3/1 62/3/1 61/3/1
f 67/3/1 61/3/1 60/3/1
f 68/2/1 63/2/1 62/2/1
f 68/3/1 62/3/1 67/3/1
f 69/2/1 63/2/1 68/2/1
f 70/3/1 64/3/1 57/3/1
f 71/3/1 64/3/1 70/3/1
f 75/2/1 73/2/1 72/2/1
f 76/3/1 74/3/1 73/3/1
f 76/2/1 73/2/1 75/2/1
f 77/3/1 74/3/1 76/3/1
f 78/3/1 74/3/1 77/3/1
f 81/3/1 76/3/1 75/3/1
f 82/3/1 76/3/1 81/3/1
f 83/3/1 78/3/1 77/3/1
f 84/2/1 79/2/1 78/2/1
f 84/3/1 78/3/1 83/3/1
f 85/2/1 79/2/1 84/2/1
f 86/3/1 81/3/1 80/3/1
f 87/3/1 81/3/1 86/3/1
f 90/3/1 89/3/1 88/3/1
f 91/3/1 89/3/1 90/3/1
f 94/3/1 93/3/1 92/3/1
f 95/3/1 93/3/1 94/3/1
f 98/1/1 97/1/1 96/1/1
f 99/1/1 97/1/1 98/1/1
f 102/2/1 101/2/1 100/2/1
f 103/2/1 101/2/1 102/2/1
f 104/3/1 103/3/1 102/3/1
f 105/3/1 103/3/1 104/3/1
f 108/3/1 107/3/1 106/3/1
f 109/3/1 107/3/1 108/3/1
f 110/3/1 107/3/1 109/3/1
f 111/2/1 110/2/1 109/2/1
f 112/2/1 110/2/1 111/2/1
f 115/3/1 114/3/1 113/3/1
f 116/3/1 114/3/1 115/3/1
f 119/3/1 118/3/1 117/3/1
f 120/3/1 118/3/1 119/3/1
f 124/2/1 122/2/1 121/2/1
f 124/3/1 123/3/1 122/3/1
f 125/3/1 123/3/1 124/3/1
f 126/2/1 124/2/1 121/2/1
f 127/2/1 124/2/1 126/2/1
f 130/2/1 129/2/1 128/2/1
f 131/2/1 129/2/1 130/2/1
f 132/3/2 133/3/2 135/3/2
f 133/3/2 134/3/2 135/3/2
f 135/3/2 134/3/2 136/3/2
f 136/3/2 134/3/2 137/3/2
f 136/2/2 137/2/2 138/2/2
f 138/2/2 137/2/2 139/2/2
f 140/1/2 141/1/2 142/1/2
f 142/1/2 141/1/2 143/1/2
f 144/2/2 145/2/2 147/2/2
f 145/3/2 146/3/2 148/3/2
f 147/2/2 145/2/2 148/2/2
f 148/3/2 146/3/2 149/3/2
f 149/3/2 150/3/2 151/3/2
f 151/3/2 150/3/2 152/3/2
f 153/3/2 154/3/2 155/3/2
f 155/3/2 154/3/2 156/3/2
f 153/3/2 155/3/2 157/3/2
f 157/3/2 155/3/2 158/3/2
f 157/2/2 158/2/2 159/2/2
f 159/2/2 158/2/2 160/2/2
f 161/2/2 162/2/2 163/2/2
f 163/2/2 162/2/2 164/2/2
f 165/2/2 166/2/2 167/2/2
f 167/2/2 166/2/2 168/2/2
f 167/3/2 168/3/2 169/3/2
f 169/3/2 168/3/2 170/3/2
f 171/2/2 172/2/2 175/2/2
f 173/3/2 174/3/2 177/3/2
f 174/3/2 175/3/2 177/3/2
f 177/3/2 175/3/2 178/3/2
f 175/2/2 172/2/2 179/2/2
f 178/3/2 175/3/2 179/3/2
f 179/2/2 172/2/2 180/2/2
f 176/3/2 177/3/2 183/3/2
f 183/3/2 177/3/2 184/3/2
f 180/3/2 181/3/2 186/3/2
f 179/3/2 180/3/2 186/3/2
f 181/2/2 182/2/2 187/2/2
f 186/3/2 181/3/2 187/3/2
f 187/2/2 182/2/2 188/2/2
f 176/3/2 183/3/2 189/3/2
f 189/3/2 183/3/2 190/3/2
f 184/3/2 185/3/2 191/3/2
f 191/3/2 185/3/2 192/3/2
f 192/3/2 193/3/2 195/3/2
f 195/3/2 193/3/2 196/3/2
f 196/3/2 193/3/2 197/3/2
f 194/3/2 195/3/2 200/3/2
f 200/3/2 195/3/2 201/3/2
f 196/3/2 197/3/2 202/3/2
f 197/2/2 198/2/2 203/2/2
f 202/3/2 197/3/2 203/3/2
f 203/2/2 198/2/2 204/2/2
f 199/3/2 200/3/2 205/3/2
f 205/3/2 200/3/2 206/3/2
f 207/2/2 208/2/2 209/2/2
f 209/2/2 208/2/2 210/2/2
f 211/3/2 212/3/2 213/3/2
f 213/3/2 212/3/2 214/3/2
f 215/1/2 216/1/2 217/1/2
f 217/1/2 216/1/2 218/1/2
f 219/2/2 220/2/2 222/2/2
f 222/2/2 220/2/2 223/2/2
f 220/3/2 221/3/2 224/3/2
f 223/2/2 220/2/2 224/2/2
f 224/3/2 221/3/2 225/3/2
f 223/3/2 224/3/2 226/3/2
f 226/3/2 224/3/2 227/3/2
f 228/3/2 229/3/2 230/3/2
f 230/3/2 229/3/2 231/3/2
f 231/2/2 232/2/2 235/2/2
f 235/2/2 232/2/2 236/2/2
f 233/3/2 234/3/2 237/3/2
f 237/3/2 234/3/2 238/3/2
f 239/3/2 240/3/2 243/3/2
f 243/3/2 240/3/2 244/3/2
f 241/3/2 242/3/2 245/3/2
f 245/3/2 242/3/2 246/3/2
f 247/2/2 248/2/2 250/2/2
f 248/3/2 249/3/2 250/3/2
f 250/3/2 249/3/2 251/3/2
f 247/2/2 250/2/2 252/2/2
f 252/2/2 250/2/2 253/2/2
f 254/2/2 255/2/2 256/2/2
f 256/2/2 255/2/2 257/2/2
f 265/2/3 259/2/3 258/2/3
f 266/2/3 259/2/3 265/2/3
f 267/3/3 263/3/3 262/3/3
f 268/2/3 264/2/3 263/2/3
f 268/3/3 263/3/3 267/3/3
f 269/2/3 264/2/3 268/2/3
f 276/3/3 271/3/3 270/3/3
f 277/3/3 271/3/3 276/3/3
f 278/3/3 275/3/3 274/3/3
f 279/3/3 275/3/3 278/3/3
f 280/1/3 261/1/3 260/1/3
f 281/1/3 261/1/3 280/1/3
f 282/2/3 279/2/3 278/2/3
f 283/2/3 279/2/3 282/2/3
f 284/3/3 273/3/3 272/3/3
f 285/3/3 273/3/3 284/3/3
f 288/2/3 287/2/3 286/2/3
f 289/2/3 287/2/3 288/2/3
f 292/3/3 291/3/3 290/3/3
f 293/3/3 291/3/3 292/3/3
f 297/2/3 295/2/3 294/2/3
f 298/2/3 295/2/3 297/2/3
f 301/3/3 297/3/3 296/3/3
f 301/3/3 298/3/3 297/3/3
f 302/3/3 298/3/3 301/3/3
f 303/3/3 298/3/3 302/3/3
f 308/3/3 300/3/3 299/3/3
f 309/3/3 300/3/3 308/3/3
f 312/3/3 305/3/3 304/3/3
f 313/2/3 306/2/3 305/2/3
f 313/3/3 305/3/3 312/3/3
f 314/2/3 306/2/3 313/2/3
f 317/3/3 308/3/3 307/3/3
f 318/3/3 308/3/3 317/3/3
f 320/2/3 311/2/3 310/2/3
f 321/2/3 311/2/3 320/2/3
f 323/2/3 313/2/3 312/2/3
f 324/2/3 313/2/3 323/2/3
f 325/2/3 316/2/3 315/2/3
f 326/3/3 319/3/3 318/3/3
f 326/2/3 316/2/3 325/2/3
f 326/3/3 317/3/3 316/3/3
f 326/3/3 318/3/3 317/3/3
f 327/3/3 319/3/3 326/3/3
f 328/3/3 319/3/3 327/3/3
f 329/3/3 319/3/3 328/3/3
f 330/3/3 321/3/3 320/3/3
f 331/2/3 322/2/3 321/2/3
f 331/3/3 321/3/3 330/3/3
f 332/3/3 323/3/3 322/3/3
f 332/2/3 322/2/3 331/2/3
f 333/3/3 323/3/3 332/3/3
f 336/3/3 328/3/3 327/3/3
f 337/3/3 328/3/3 336/3/3
f 338/3/3 330/3/3 329/3/3
f 339/3/3 330/3/3 338/3/3
f 340/3/3 334/3/3 333/3/3
f 340/3/3 335/3/3 334/3/3
f 341/3/3 335/3/3 340/3/3
f 342/2/3 339/2/3 338/2/3
f 343/3/3 332/3/3 331/3/3
f 347/2/3 339/2/3 342/2/3
f 348/2/3 339/2/3 347/2/3
f 349/3/3 343/3/3 331/3/3
f 349/3/3 344/3/3 343/3/3
f 350/3/3 344/3/3 349/3/3
f 351/3/3 344/3/3 350/3/3
f 352/3/3 346/3/3 345/3/3
f 353/3/3 346/3/3 352/3/3
f 354/2/3 351/2/3 350/2/3
f 354/2/3 353/2/3 352/2/3
f 354/2/3 352/2/3 351/2/3
f 355/2/3 353/2/3 354/2/3
f 358/2/3 357/2/3 356/2/3
f 359/2/3 357/2/3 358/2/3
f 366/3/3 363/3/3 362/3/3
f 367/3/3 363/3/3 366/3/3
f 368/3/3 365/3/3 364/3/3
f 369/3/3 365/3/3 368/3/3
f 370/1/3 361/1/3 360/1/3
f 371/1/3 361/1/3 370/1/3
f 375/2/3 373/2/3 372/2/3
f 376/2/3 373/2/3 375/2/3
f 377/3/3 375/3/3 374/3/3
f 378/3/3 375/3/3 377/3/3
f 379/2/4 380/2/4 381/2/4
f 381/2/4 380/2/4 382/2/4
f 383/3/4 384/3/4 388/3/4
f 384/2/4 385/2/4 389/2/4
f 388/3/4 384/3/4 389/3/4
f 389/2/4 385/2/4 390/2/4
f 391/3/4 392/3/4 395/3/4
f 395/3/4 392/3/4 396/3/4
f 386/1/4 387/1/4 399/1/4
f 399/1/4 387/1/4 400/1/4
f 393/3/4 394/3/4 401/3/4
f 401/3/4 394/3/4 402/3/4
f 397/3/4 398/3/4 403/3/4
f 403/3/4 398/3/4 404/3/4
f 405/2/4 406/2/4 407/2/4
f 407/2/4 406/2/4 408/2/4
f 409/3/4 410/3/4 411/3/4
f 411/3/4 410/3/4 412/3/4
f 413/2/4 414/2/4 416/2/4
f 416/2/4 414/2/4 417/2/4
f 415/3/4 416/3/4 420/3/4
f 420/3/4 416/3/4 421/3/4
f 418/3/4 419/3/4 425/3/4
f 425/3/4 419/3/4 426/3/4
f 426/3/4 419/3/4 427/3/4
f 422/3/4 423/3/4 428/3/4
f 423/2/4 424/2/4 429/2/4
f 428/3/4 423/3/4 429/3/4
f 429/2/4 424/2/4 430/2/4
f 420/2/4 421/2/4 435/2/4
f 435/2/4 421/2/4 436/2/4
f 428/2/4 429/2/4 438/2/4
f 431/2/4 432/2/4 439/2/4
f 432/3/4 433/3/4 440/3/4
f 439/2/4 432/2/4 440/2/4
f 440/3/4 433/3/4 441/3/4
f 435/3/4 436/3/4 442/3/4
f 434/3/4 435/3/4 442/3/4
f 442/3/4 436/3/4 443/3/4
f 443/3/4 436/3/4 444/3/4
f 437/3/4 438/3/4 445/3/4
f 438/2/4 429/2/4 446/2/4
f 445/3/4 438/3/4 446/3/4
f 446/2/4 429/2/4 447/2/4
f 442/3/4 443/3/4 451/3/4
f 451/3/4 443/3/4 452/3/4
f 444/3/4 445/3/4 453/3/4
f 453/3/4 445/3/4 454/3/4
f 447/3/4 448/3/4 455/3/4
f 446/3/4 447/3/4 455/3/4
f 455/3/4 448/3/4 456/3/4
f 449/3/4 450/3/4 457/3/4
f 457/3/4 450/3/4 458/3/4
f 451/2/4 452/2/4 464/2/4
f 464/2/4 452/2/4 465/2/4
f 460/3/4 461/3/4 466/3/4
f 459/3/4 460/3/4 466/3/4
f 466/3/4 461/3/4 467/3/4
f 467/3/4 461/3/4 468/3/4
f 462/3/4 463/3/4 469/3/4
f 469/3/4 463/3/4 470/3/4
f 464/3/4 465/3/4 471/3/4
f 471/3/4 465/3/4 472/3/4
f 467/2/4 468/2/4 473/2/4
f 469/2/4 470/2/4 473/2/4
f 468/2/4 469/2/4 473/2/4
f 473/2/4 470/2/4 474/2/4
f 475/3/4 476/3/4 477/3/4
f 477/3/4 476/3/4 478/3/4
f 479/2/4 480/2/4 481/2/4
f 481/2/4 480/2/4 482/2/4
f 483/3/4 484/3/4 488/3/4
f 484/2/4 485/2/4 489/2/4
f 488/3/4 484/3/4 489/3/4
f 489/2/4 485/2/4 490/2/4
f 491/2/4 492/2/4 495/2/4
f 495/2/4 492/2/4 496/2/4
f 493/3/4 494/3/4 497/3/4
f 497/3/4 494/3/4 498/3/4
f 486/1/4 487/1/4 502/1/4
f 502/1/4 487/1/4 503/1/4
f 500/2/4 501/2/4 504/2/4
f 499/3/4 500/3/4 504/3/4
f 504/2/4 501/2/4 505/2/4
f 499/3/4 504/3/4 506/3/4
f 506/3/4 504/3/4 507/3/4
f 508/2/4 509/2/4 510/2/4
f 510/2/4 509/2/4 511/2/4
f 512/2/4 513/2/4 514/2/4
f 514/2/4 513/2/4 515/2/4
f 518/1/5 517/1/5 516/1/5
f 519/1/5 517/1/5 518/1/5
f 525/2/5 521/2/5 520/2/5
f 526/2/5 521/2/5 525/2/5
f 527/2/5 521/2/5 526/2/5
f 528/3/5 523/3/5 522/3/5
f 529/2/5 524/2/5 523/2/5
f 529/3/5 523/3/5 528/3/5
f 530/3/5 527/3/5 526/3/5
f 533/2/5 524/2/5 529/2/5
f 534/2/5 524/2/5 533/2/5
f 535/3/5 531/3/5 530/3/5
f 535/3/5 530/3/5 526/3/5
f 536/3/5 531/3/5 535/3/5
f 537/3/5 531/3/5 536/3/5
f 538/3/5 534/3/5 533/3/5
f 538/3/5 533/3/5 532/3/5
f 539/3/5 534/3/5 538/3/5
f 540/3/5 534/3/5 539/3/5
f 541/3/5 537/3/5 536/3/5
f 541/3/5 538/3/5 537/3/5
f 542/3/5 538/3/5 541/3/5
f 543/2/5 539/2/5 538/2/5
f 543/3/5 538/3/5 542/3/5
f 544/2/5 539/2/5 543/2/5
f 545/2/5 543/2/5 542/2/5
f 546/2/5 543/2/5 545/2/5
f 551/2/5 550/2/5 549/2/5
f 552/2/5 550/2/5 551/2/5
f 553/3/5 548/3/5 547/3/5
f 554/3/5 548/3/5 553/3/5
f 557/3/5 552/3/5 551/3/5
f 558/3/5 555/3/5 554/3/5
f 559/2/5 556/2/5 555/2/5
f 559/3/5 555/3/5 558/3/5
f 559/2/5 557/2/5 556/2/5
f 560/3/5 552/3/5 557/3/5
f 560/2/5 557/2/5 559/2/5
f 561/3/5 552/3/5 560/3/5
f 564/3/5 563/3/5 562/3/5
f 565/3/5 563/3/5 564/3/5
f 566/2/5 565/2/5 564/2/5
f 567/2/5 565/2/5 566/2/5
f 571/3/5 569/3/5 568/3/5
f 572/3/5 569/3/5 571/3/5
f 574/3/5 571/3/5 570/3/5
f 575/2/5 573/2/5 572/2/5
f 575/3/5 571/3/5 574/3/5
f 575/2/5 572/2/5 571/2/5
f 576/2/5 573/2/5 575/2/5
f 581/2/5 578/2/5 577/2/5
f 582/2/5 578/2/5 581/2/5
f 585/3/5 580/3/5 579/3/5
f 586/3/5 580/3/5 585/3/5
f 587/3/5 580/3/5 586/3/5
f 588/3/5 580/3/5 587/3/5
f 589/3/5 587/3/5 586/3/5
f 591/3/5 583/3/5 582/3/5
f 592/3/5 583/3/5 591/3/5
f 593/3/5 585/3/5 584/3/5
f 594/3/5 585/3/5 593/3/5
f 595/3/5 590/3/5 589/3/5
f 595/3/5 589/3/5 586/3/5
f 596/3/5 590/3/5 595/3/5
f 599/2/5 598/2/5 597/2/5
f 600/2/5 598/2/5 599/2/5
f 603/2/5 602/2/5 601/2/5
f 604/2/5 602/2/5 603/2/5
f 607/3/5 606/3/5 605/3/5
f 608/3/5 606/3/5 607/3/5
f 611/3/5 607/3/5 605/3/5
f 612/3/5 607/3/5 611/3/5
f 614/3/5 610/3/5 609/3/5
f 615/2/5 611/2/5 610/2/5
f 615/3/5 610/3/5 614/3/5
f 616/2/5 611/2/5 615/2/5
f 617/3/5 613/3/5 612/3/5
f 618/3/5 613/3/5 617/3/5
f 621/3/5 620/3/5 619/3/5
f 622/3/5 620/3/5 621/3/5
f 623/4/6 624/4/6 625/4/6
f 625/4/6 624/4/6 626/4/6
f 623/4/6 625/4/6 627/4/6
f 626/4/6 624/4/6 628/4/6
f 623/4/6 627/4/6 629/4/6
f 627/4/6 628/4/6 629/4/6
f 628/4/6 624/4/6 630/4/6
f 629/4/6 628/4/6 630/4/6
f 631/1/6 632/1/6 633/1/6
f 633/1/6 632/1/6 634/1/6
f 631/1/6 633/1/6 635/1/6
f 634/1/6 632/1/6 636/1/6
f 631/1/6 635/1/6 637/1/6
f 635/1/6 636/1/6 637/1/6
f 636/1/6 632/1/6 638/1/6
f 637/1/6 636/1/6 638/1/6
f 639/2/6 640/2/6 644/2/6
f 644/2/6 640/2/6 645/2/6
f 645/2/6 640/2/6 646/2/6
f 641/3/6 642/3/6 647/3/6
f 642/2/6 643/2/6 648/2/6
f 647/3/6 642/3/6 648/3/6
f 648/2/6 643/2/6 649/2/6
f 645/3/6 646/3/6 650/3/6
f 650/3/6 646/3/6 651/3/6
f 651/3/6 652/3/6 656/3/6
f 654/3/6 655/3/6 657/3/6
f 653/3/6 654/3/6 657/3/6
f 657/3/6 655/3/6 658/3/6
f 658/3/6 655/3/6 659/3/6
f 656/3/6 652/3/6 660/3/6
f 660/3/6 652/3/6 661/3/6
f 657/2/6 658/2/6 662/2/6
f 662/2/6 658/2/6 663/2/6
f 664/3/6 665/3/6 668/3/6
f 668/3/6 665/3/6 669/3/6
f 666/3/6 667/3/6 670/3/6
f 670/3/6 667/3/6 671/3/6
f 672/3/6 673/3/6 674/3/6
f 674/3/6 673/3/6 675/3/6
f 676/3/6 677/3/6 680/3/6
f 680/3/6 677/3/6 681/3/6
f 678/3/6 679/3/6 683/3/6
f 681/3/6 682/3/6 684/3/6
f 682/2/6 683/2/6 685/2/6
f 684/3/6 682/3/6 685/3/6
f 683/3/6 679/3/6 686/3/6
f 685/2/6 683/2/6 686/2/6
f 686/3/6 679/3/6 687/3/6
f 688/3/6 689/3/6 690/3/6
f 690/3/6 689/3/6 691/3/6
f 690/2/6 691/2/6 692/2/6
f 692/2/6 691/2/6 693/2/6
f 694/3/6 695/3/6 700/3/6
f 700/3/6 695/3/6 701/3/6
f 696/2/6 697/2/6 702/2/6
f 702/2/6 697/2/6 703/2/6
f 698/3/6 699/3/6 704/3/6
f 704/3/6 699/3/6 705/3/6
f 704/2/6 705/2/6 707/2/6
f 705/2/6 706/2/6 707/2/6
f 707/2/6 706/2/6 708/2/6
f 709/2/6 710/2/6 714/2/6
f 710/3/6 711/3/6 715/3/6
f 714/2/6 710/2/6 715/2/6
f 712/3/6 713/3/6 717/3/6
f 717/3/6 713/3/6 718/3/6
f 718/3/6 713/3/6 719/3/6
f 715/3/6 711/3/6 720/3/6
f 720/3/6 711/3/6 721/3/6
f 716/3/6 717/3/6 722/3/6
f 722/3/6 717/3/6 723/3/6
f 718/3/6 719/3/6 724/3/6
f 724/3/6 719/3/6 725/3/6
f 725/3/6 726/3/6 727/3/6
f 727/3/6 726/3/6 728/3/6
f 729/2/6 730/2/6 731/2/6
f 731/2/6 730/2/6 732/2/6
f 733/3/6 734/3/6 735/3/6
f 735/3/6 734/3/6 736/3/6
f 737/2/6 738/2/6 743/2/6
f 743/2/6 738/2/6 744/2/6
f 739/3/6 740/3/6 745/3/6
f 745/3/6 740/3/6 746/3/6
f 741/2/6 742/2/6 747/2/6
f 747/2/6 742/2/6 748/2/6
f 745/2/6 746/2/6 749/2/6
f 749/2/6 746/2/6 750/2/6
f 751/3/6 752/3/6 753/3/6
f 753/3/6 752/3/6 754/3/6
f 751/3/6 753/3/6 756/3/6
f 756/3/6 753/3/6 757/3/6
f 755/2/6 756/2/6 758/2/6
f 756/2/6 757/2/6 758/2/6
f 758/2/6 757/2/6 759/2/6
f 760/2/6 761/2/6 767/2/6
f 767/2/6 761/2/6 768/2/6
f 762/3/6 763/3/6 769/3/6
f 769/3/6 763/3/6 770/3/6
f 764/3/6 765/3/6 771/3/6
f 765/2/6 766/2/6 772/2/6
f 771/3/6 765/3/6 772/3/6
f 772/2/6 766/2/6 773/2/6
