# MagicaVoxel @ Ephtracy

# group
o 

# material
mtllib CofeMachine.mtl
usemtl palette

# normals
vn -1 0 0
vn 1 0 0
vn 0 0 1
vn 0 0 -1
vn 0 -1 0
vn 0 1 0

# texcoords
vt 0.419922 0.5
vt 0.572266 0.5
vt 0.908203 0.5
vt 0.912109 0.5

# verts
v -0.6 0 0.5
v -0.6 0 -0.8
v -0.6 0.1 -0.5
v -0.6 0.1 -0.6
v -0.6 0.2 0.5
v -0.6 0.2 -0.5
v -0.6 0.3 0.5
v -0.6 0.3 -0.4
v -0.6 1.2 0.5
v -0.6 1.2 -0.4
v -0.6 1.3 0.5
v -0.6 1.3 -0.5
v -0.6 1.4 0.6
v -0.6 1.4 -0.6
v -0.6 1.7 0.6
v -0.6 1.7 -0.8
v -0.5 0 0.6
v -0.5 0 0.5
v -0.5 0 -0.8
v -0.5 0 -0.9
v -0.5 0.1 0.6
v -0.5 0.1 0.5
v -0.5 0.1 -0.5
v -0.5 0.1 -0.6
v -0.5 0.2 0.6
v -0.5 0.2 0.5
v -0.5 0.2 -0.5
v -0.5 0.3 0.6
v -0.5 0.3 0.5
v -0.5 1.2 0.6
v -0.5 1.2 0.5
v -0.5 1.3 0.6
v -0.5 1.3 0.5
v -0.5 1.3 -0.5
v -0.5 1.4 0.6
v -0.5 1.4 -0.6
v -0.5 1.7 0.6
v -0.5 1.7 -0.8
v -0.5 1.7 -0.9
v -0.5 1.8 0.6
v -0.5 1.8 -0.8
v -5.96046e-08 0.4 0.8
v -5.96046e-08 0.4 0.6
v -5.96046e-08 0.5 0.7
v -5.96046e-08 0.5 0.6
v -5.96046e-08 1 0.7
v -5.96046e-08 1 0.6
v -5.96046e-08 1.1 0.8
v -5.96046e-08 1.1 0.6
v 0.1 0.4 0.8
v 0.1 0.4 0.6
v 0.1 0.5 0.7
v 0.1 0.5 0.6
v 0.1 1 0.7
v 0.1 1 0.6
v 0.1 1.1 0.8
v 0.1 1.1 0.6
v 0.6 0 0.6
v 0.6 0 0.5
v 0.6 0 -0.8
v 0.6 0 -0.9
v 0.6 0.1 0.6
v 0.6 0.1 0.5
v 0.6 0.2 0.6
v 0.6 0.2 0.5
v 0.6 0.2 -0.5
v 0.6 0.2 -0.6
v 0.6 0.3 0.6
v 0.6 0.3 0.5
v 0.6 1.2 0.6
v 0.6 1.2 0.5
v 0.6 1.3 0.6
v 0.6 1.3 0.5
v 0.6 1.3 -0.5
v 0.6 1.4 0.6
v 0.6 1.4 -0.6
v 0.6 1.7 0.6
v 0.6 1.7 -0.8
v 0.6 1.7 -0.9
v 0.6 1.8 0.6
v 0.6 1.8 -0.8
v 0.7 0 0.5
v 0.7 0 -0.8
v 0.7 0.2 0.5
v 0.7 0.2 -0.5
v 0.7 0.2 -0.6
v 0.7 0.3 0.5
v 0.7 0.3 -0.4
v 0.7 1.2 0.5
v 0.7 1.2 -0.4
v 0.7 1.3 0.5
v 0.7 1.3 -0.5
v 0.7 1.4 0.6
v 0.7 1.4 -0.6
v 0.7 1.7 0.6
v 0.7 1.7 -0.8
v -5.96046e-08 0.4 0.8
v -5.96046e-08 1.1 0.8
v 0.1 0.4 0.8
v 0.1 1.1 0.8
v -0.6 1.4 0.6
v -0.6 1.7 0.6
v -0.5 0 0.6
v -0.5 0.1 0.6
v -0.5 0.2 0.6
v -0.5 0.3 0.6
v -0.5 1.2 0.6
v -0.5 1.3 0.6
v -0.5 1.4 0.6
v -0.5 1.5 0.6
v -0.5 1.6 0.6
v -0.5 1.7 0.6
v -0.5 1.8 0.6
v -0.4 1.4 0.6
v -0.4 1.5 0.6
v -0.4 1.6 0.6
v -0.4 1.7 0.6
v -0.3 1.4 0.6
v -0.3 1.5 0.6
v -0.3 1.6 0.6
v -0.3 1.7 0.6
v -0.2 1.5 0.6
v -0.2 1.6 0.6
v -0.1 0.3 0.6
v -0.1 0.5 0.6
v -0.1 1 0.6
v -0.1 1.2 0.6
v -0.1 1.4 0.6
v -0.1 1.5 0.6
v -5.96046e-08 0.3 0.6
v -5.96046e-08 0.4 0.6
v -5.96046e-08 0.5 0.6
v -5.96046e-08 1 0.6
v -5.96046e-08 1.1 0.6
v -5.96046e-08 1.2 0.6
v -5.96046e-08 1.4 0.6
v -5.96046e-08 1.5 0.6
v -5.96046e-08 1.6 0.6
v 0.1 0.3 0.6
v 0.1 0.4 0.6
v 0.1 0.5 0.6
v 0.1 1 0.6
v 0.1 1.1 0.6
v 0.1 1.2 0.6
v 0.1 1.5 0.6
v 0.1 1.6 0.6
v 0.2 0.3 0.6
v 0.2 0.5 0.6
v 0.2 1 0.6
v 0.2 1.2 0.6
v 0.3 1.4 0.6
v 0.3 1.6 0.6
v 0.5 1.4 0.6
v 0.5 1.6 0.6
v 0.6 0 0.6
v 0.6 0.1 0.6
v 0.6 0.2 0.6
v 0.6 0.3 0.6
v 0.6 1.2 0.6
v 0.6 1.3 0.6
v 0.6 1.4 0.6
v 0.6 1.7 0.6
v 0.6 1.8 0.6
v 0.7 1.4 0.6
v 0.7 1.7 0.6
v -0.6 0 0.5
v -0.6 0.2 0.5
v -0.6 0.3 0.5
v -0.6 1.2 0.5
v -0.6 1.3 0.5
v -0.5 0 0.5
v -0.5 0.1 0.5
v -0.5 0.2 0.5
v -0.5 0.3 0.5
v -0.5 1.2 0.5
v -0.5 1.3 0.5
v 0.6 0 0.5
v 0.6 0.1 0.5
v 0.6 0.2 0.5
v 0.6 0.3 0.5
v 0.6 1.2 0.5
v 0.6 1.3 0.5
v 0.7 0 0.5
v 0.7 0.2 0.5
v 0.7 0.3 0.5
v 0.7 1.2 0.5
v 0.7 1.3 0.5
v -0.6 0.1 -0.6
v -0.6 1.4 -0.6
v -0.5 0.1 -0.6
v -0.5 1.4 -0.6
v 0.6 0.2 -0.6
v 0.6 1.4 -0.6
v 0.7 0.2 -0.6
v 0.7 1.4 -0.6
v -5.96046e-08 0.5 0.7
v -5.96046e-08 1 0.7
v 0.1 0.5 0.7
v 0.1 1 0.7
v -0.6 0.1 -0.5
v -0.6 0.2 -0.5
v -0.6 1.3 -0.5
v -0.5 0.1 -0.5
v -0.5 0.2 -0.5
v -0.5 1.3 -0.5
v 0.6 0.2 -0.5
v 0.6 1.3 -0.5
v 0.7 0.2 -0.5
v 0.7 1.3 -0.5
v -0.6 0 -0.8
v -0.6 1.7 -0.8
v -0.5 0 -0.8
v -0.5 1.7 -0.8
v -0.5 1.8 -0.8
v 0.6 0 -0.8
v 0.6 1.7 -0.8
v 0.6 1.8 -0.8
v 0.7 0 -0.8
v 0.7 1.7 -0.8
v -0.5 0 -0.9
v -0.5 1.7 -0.9
v 0.6 0 -0.9
v 0.6 1.7 -0.9
v -0.5 0 0.6
v 0.6 0 0.6
v -0.6 0 0.5
v -0.5 0 0.5
v 0.6 0 0.5
v 0.7 0 0.5
v -0.6 0 -0.8
v -0.5 0 -0.8
v 0.6 0 -0.8
v 0.7 0 -0.8
v -0.5 0 -0.9
v 0.6 0 -0.9
v -0.5 0.2 0.6
v 0.6 0.2 0.6
v -0.5 0.2 0.5
v 0.6 0.2 0.5
v -5.96046e-08 0.4 0.8
v 0.1 0.4 0.8
v -5.96046e-08 0.4 0.6
v 0.1 0.4 0.6
v -5.96046e-08 1 0.7
v 0.1 1 0.7
v -5.96046e-08 1 0.6
v 0.1 1 0.6
v -0.6 1.4 0.6
v -0.5 1.4 0.6
v 0.6 1.4 0.6
v 0.7 1.4 0.6
v -0.6 1.4 -0.6
v -0.5 1.4 -0.6
v 0.6 1.4 -0.6
v 0.7 1.4 -0.6
v -0.5 0.1 0.6
v 0.6 0.1 0.6
v -0.5 0.1 0.5
v 0.6 0.1 0.5
v -0.6 0.1 -0.5
v -0.5 0.1 -0.5
v -0.6 0.1 -0.6
v -0.5 0.1 -0.6
v 0.6 0.2 -0.5
v 0.7 0.2 -0.5
v 0.6 0.2 -0.6
v 0.7 0.2 -0.6
v -5.96046e-08 0.5 0.7
v 0.1 0.5 0.7
v -5.96046e-08 0.5 0.6
v 0.1 0.5 0.6
v -5.96046e-08 1.1 0.8
v 0.1 1.1 0.8
v -5.96046e-08 1.1 0.6
v 0.1 1.1 0.6
v -0.6 1.3 0.5
v -0.5 1.3 0.5
v 0.6 1.3 0.5
v 0.7 1.3 0.5
v -0.6 1.3 -0.5
v -0.5 1.3 -0.5
v 0.6 1.3 -0.5
v 0.7 1.3 -0.5
v -0.6 1.7 0.6
v -0.5 1.7 0.6
v 0.6 1.7 0.6
v 0.7 1.7 0.6
v -0.6 1.7 -0.8
v -0.5 1.7 -0.8
v 0.6 1.7 -0.8
v 0.7 1.7 -0.8
v -0.5 1.7 -0.9
v 0.6 1.7 -0.9
v -0.5 1.8 0.6
v 0.6 1.8 0.6
v -0.5 1.8 -0.8
v 0.6 1.8 -0.8

# faces
f 3/4/1 2/4/1 1/4/1
f 4/4/1 2/4/1 3/4/1
f 5/4/1 3/4/1 1/4/1
f 6/4/1 3/4/1 5/4/1
f 7/3/1 6/3/1 5/3/1
f 8/3/1 6/3/1 7/3/1
f 9/2/1 8/2/1 7/2/1
f 10/3/1 6/3/1 8/3/1
f 10/2/1 8/2/1 9/2/1
f 11/3/1 10/3/1 9/3/1
f 12/3/1 6/3/1 10/3/1
f 12/3/1 10/3/1 11/3/1
f 14/4/1 2/4/1 4/4/1
f 15/4/1 14/4/1 13/4/1
f 16/4/1 2/4/1 14/4/1
f 16/4/1 14/4/1 15/4/1
f 21/4/1 18/4/1 17/4/1
f 22/4/1 18/4/1 21/4/1
f 27/4/1 24/4/1 23/4/1
f 28/3/1 26/3/1 25/3/1
f 29/3/1 26/3/1 28/3/1
f 30/2/1 29/2/1 28/2/1
f 31/2/1 29/2/1 30/2/1
f 32/3/1 31/3/1 30/3/1
f 33/3/1 31/3/1 32/3/1
f 34/4/1 24/4/1 27/4/1
f 35/4/1 33/4/1 32/4/1
f 35/4/1 34/4/1 33/4/1
f 36/4/1 24/4/1 34/4/1
f 36/4/1 34/4/1 35/4/1
f 38/4/1 20/4/1 19/4/1
f 39/4/1 20/4/1 38/4/1
f 40/4/1 38/4/1 37/4/1
f 41/4/1 38/4/1 40/4/1
f 44/3/1 43/3/1 42/3/1
f 45/3/1 43/3/1 44/3/1
f 46/3/1 44/3/1 42/3/1
f 48/3/1 46/3/1 42/3/1
f 48/3/1 47/3/1 46/3/1
f 49/3/1 47/3/1 48/3/1
f 50/3/2 51/3/2 52/3/2
f 52/3/2 51/3/2 53/3/2
f 50/3/2 52/3/2 54/3/2
f 50/3/2 54/3/2 56/3/2
f 54/3/2 55/3/2 56/3/2
f 56/3/2 55/3/2 57/3/2
f 58/4/2 59/4/2 62/4/2
f 62/4/2 59/4/2 63/4/2
f 64/3/2 65/3/2 68/3/2
f 68/3/2 65/3/2 69/3/2
f 68/2/2 69/2/2 70/2/2
f 70/2/2 69/2/2 71/2/2
f 70/3/2 71/3/2 72/3/2
f 72/3/2 71/3/2 73/3/2
f 66/4/2 67/4/2 74/4/2
f 72/4/2 73/4/2 75/4/2
f 73/4/2 74/4/2 75/4/2
f 74/4/2 67/4/2 76/4/2
f 75/4/2 74/4/2 76/4/2
f 60/4/2 61/4/2 78/4/2
f 78/4/2 61/4/2 79/4/2
f 77/4/2 78/4/2 80/4/2
f 80/4/2 78/4/2 81/4/2
f 82/4/2 83/4/2 84/4/2
f 84/4/2 83/4/2 85/4/2
f 85/4/2 83/4/2 86/4/2
f 84/3/2 85/3/2 87/3/2
f 87/3/2 85/3/2 88/3/2
f 87/2/2 88/2/2 89/2/2
f 88/3/2 85/3/2 90/3/2
f 89/2/2 88/2/2 90/2/2
f 89/3/2 90/3/2 91/3/2
f 90/3/2 85/3/2 92/3/2
f 91/3/2 90/3/2 92/3/2
f 86/4/2 83/4/2 94/4/2
f 93/4/2 94/4/2 95/4/2
f 94/4/2 83/4/2 96/4/2
f 95/4/2 94/4/2 96/4/2
f 99/3/3 98/3/3 97/3/3
f 100/3/3 98/3/3 99/3/3
f 109/4/3 102/4/3 101/4/3
f 110/4/3 102/4/3 109/4/3
f 111/4/3 102/4/3 110/4/3
f 112/4/3 102/4/3 111/4/3
f 114/4/3 109/4/3 108/4/3
f 114/4/3 110/4/3 109/4/3
f 115/1/3 111/1/3 110/1/3
f 115/4/3 110/4/3 114/4/3
f 116/4/3 113/4/3 112/4/3
f 116/1/3 111/1/3 115/1/3
f 116/4/3 112/4/3 111/4/3
f 117/4/3 113/4/3 116/4/3
f 118/1/3 115/1/3 114/1/3
f 118/4/3 114/4/3 108/4/3
f 118/1/3 117/1/3 116/1/3
f 118/1/3 116/1/3 115/1/3
f 119/1/3 117/1/3 118/1/3
f 120/1/3 117/1/3 119/1/3
f 121/4/3 113/4/3 117/4/3
f 121/1/3 117/1/3 120/1/3
f 122/1/3 120/1/3 119/1/3
f 122/4/3 119/4/3 118/4/3
f 123/4/3 121/4/3 120/4/3
f 123/1/3 120/1/3 122/1/3
f 124/3/3 106/3/3 105/3/3
f 124/2/3 107/2/3 106/2/3
f 125/2/3 107/2/3 124/2/3
f 126/2/3 107/2/3 125/2/3
f 127/3/3 108/3/3 107/3/3
f 127/2/3 107/2/3 126/2/3
f 128/4/3 123/4/3 122/4/3
f 128/4/3 118/4/3 108/4/3
f 128/4/3 122/4/3 118/4/3
f 129/4/3 123/4/3 128/4/3
f 130/3/3 125/3/3 124/3/3
f 130/3/3 124/3/3 105/3/3
f 131/3/3 125/3/3 130/3/3
f 132/2/3 126/2/3 125/2/3
f 132/3/3 125/3/3 131/3/3
f 133/3/3 127/3/3 126/3/3
f 133/2/3 126/2/3 132/2/3
f 134/3/3 127/3/3 133/3/3
f 135/3/3 108/3/3 127/3/3
f 135/3/3 127/3/3 134/3/3
f 136/1/3 129/1/3 128/1/3
f 136/4/3 128/4/3 108/4/3
f 137/4/3 123/4/3 129/4/3
f 137/1/3 129/1/3 136/1/3
f 138/4/3 121/4/3 123/4/3
f 138/4/3 123/4/3 137/4/3
f 139/2/3 131/2/3 130/2/3
f 139/3/3 130/3/3 105/3/3
f 140/2/3 131/2/3 139/2/3
f 141/2/3 133/2/3 132/2/3
f 142/2/3 133/2/3 141/2/3
f 143/2/3 135/2/3 134/2/3
f 144/3/3 108/3/3 135/3/3
f 144/2/3 135/2/3 143/2/3
f 145/4/3 137/4/3 136/4/3
f 145/1/3 138/1/3 137/1/3
f 146/4/3 121/4/3 138/4/3
f 146/1/3 138/1/3 145/1/3
f 147/3/3 140/3/3 139/3/3
f 147/3/3 139/3/3 105/3/3
f 147/3/3 141/3/3 140/3/3
f 148/2/3 142/2/3 141/2/3
f 148/3/3 141/3/3 147/3/3
f 149/3/3 144/3/3 143/3/3
f 149/2/3 142/2/3 148/2/3
f 149/3/3 143/3/3 142/3/3
f 150/3/3 108/3/3 144/3/3
f 150/3/3 144/3/3 149/3/3
f 151/4/3 145/4/3 136/4/3
f 151/4/3 136/4/3 108/4/3
f 151/4/3 146/4/3 145/4/3
f 152/4/3 121/4/3 146/4/3
f 152/4/3 146/4/3 151/4/3
f 153/4/3 151/4/3 108/4/3
f 153/1/3 152/1/3 151/1/3
f 154/4/3 121/4/3 152/4/3
f 154/1/3 152/1/3 153/1/3
f 155/4/3 104/4/3 103/4/3
f 156/4/3 104/4/3 155/4/3
f 157/3/3 147/3/3 105/3/3
f 158/2/3 149/2/3 148/2/3
f 158/3/3 147/3/3 157/3/3
f 158/2/3 148/2/3 147/2/3
f 158/2/3 150/2/3 149/2/3
f 159/3/3 108/3/3 150/3/3
f 159/2/3 150/2/3 158/2/3
f 160/4/3 153/4/3 108/4/3
f 160/3/3 108/3/3 159/3/3
f 160/4/3 154/4/3 153/4/3
f 161/4/3 154/4/3 160/4/3
f 162/4/3 121/4/3 154/4/3
f 162/4/3 154/4/3 161/4/3
f 162/4/3 113/4/3 121/4/3
f 163/4/3 113/4/3 162/4/3
f 164/4/3 162/4/3 161/4/3
f 165/4/3 162/4/3 164/4/3
f 171/4/3 167/4/3 166/4/3
f 172/4/3 167/4/3 171/4/3
f 173/3/3 168/3/3 167/3/3
f 173/4/3 167/4/3 172/4/3
f 174/2/3 169/2/3 168/2/3
f 174/3/3 168/3/3 173/3/3
f 175/3/3 170/3/3 169/3/3
f 175/2/3 169/2/3 174/2/3
f 176/3/3 170/3/3 175/3/3
f 178/4/3 173/4/3 172/4/3
f 179/4/3 173/4/3 178/4/3
f 183/4/3 178/4/3 177/4/3
f 183/4/3 179/4/3 178/4/3
f 184/3/3 180/3/3 179/3/3
f 184/4/3 179/4/3 183/4/3
f 185/2/3 181/2/3 180/2/3
f 185/3/3 180/3/3 184/3/3
f 186/3/3 182/3/3 181/3/3
f 186/2/3 181/2/3 185/2/3
f 187/3/3 182/3/3 186/3/3
f 190/4/3 189/4/3 188/4/3
f 191/4/3 189/4/3 190/4/3
f 194/4/3 193/4/3 192/4/3
f 195/4/3 193/4/3 194/4/3
f 196/3/4 197/3/4 198/3/4
f 198/3/4 197/3/4 199/3/4
f 200/4/4 201/4/4 203/4/4
f 201/3/4 202/3/4 204/3/4
f 203/4/4 201/4/4 204/4/4
f 204/3/4 202/3/4 205/3/4
f 206/3/4 207/3/4 208/3/4
f 208/3/4 207/3/4 209/3/4
f 210/4/4 211/4/4 212/4/4
f 212/4/4 211/4/4 213/4/4
f 213/4/4 214/4/4 216/4/4
f 216/4/4 214/4/4 217/4/4
f 215/4/4 216/4/4 218/4/4
f 218/4/4 216/4/4 219/4/4
f 220/4/4 221/4/4 222/4/4
f 222/4/4 221/4/4 223/4/4
f 227/4/5 225/4/5 224/4/5
f 228/4/5 225/4/5 227/4/5
f 230/4/5 227/4/5 226/4/5
f 230/4/5 229/4/5 228/4/5
f 230/4/5 228/4/5 227/4/5
f 231/4/5 229/4/5 230/4/5
f 232/4/5 229/4/5 231/4/5
f 233/4/5 229/4/5 232/4/5
f 234/4/5 232/4/5 231/4/5
f 235/4/5 232/4/5 234/4/5
f 238/3/5 237/3/5 236/3/5
f 239/3/5 237/3/5 238/3/5
f 242/3/5 241/3/5 240/3/5
f 243/3/5 241/3/5 242/3/5
f 246/3/5 245/3/5 244/3/5
f 247/3/5 245/3/5 246/3/5
f 252/4/5 249/4/5 248/4/5
f 253/4/5 249/4/5 252/4/5
f 254/4/5 251/4/5 250/4/5
f 255/4/5 251/4/5 254/4/5
f 256/4/6 257/4/6 258/4/6
f 258/4/6 257/4/6 259/4/6
f 260/4/6 261/4/6 262/4/6
f 262/4/6 261/4/6 263/4/6
f 264/4/6 265/4/6 266/4/6
f 266/4/6 265/4/6 267/4/6
f 268/3/6 269/3/6 270/3/6
f 270/3/6 269/3/6 271/3/6
f 272/3/6 273/3/6 274/3/6
f 274/3/6 273/3/6 275/3/6
f 276/3/6 277/3/6 280/3/6
f 280/3/6 277/3/6 281/3/6
f 278/3/6 279/3/6 282/3/6
f 282/3/6 279/3/6 283/3/6
f 284/4/6 285/4/6 288/4/6
f 288/4/6 285/4/6 289/4/6
f 286/4/6 287/4/6 290/4/6
f 290/4/6 287/4/6 291/4/6
f 289/4/6 290/4/6 292/4/6
f 292/4/6 290/4/6 293/4/6
f 294/4/6 295/4/6 296/4/6
f 296/4/6 295/4/6 297/4/6
