# MagicaVoxel @ Ephtracy

# group
o 

# material
mtllib Fire shield.mtl
usemtl palette

# normals
vn -1 0 0
vn 1 0 0
vn 0 0 1
vn 0 0 -1
vn 0 -1 0
vn 0 1 0

# texcoords
vt 0.345703 0.5
vt 0.373047 0.5
vt 0.861328 0.5

# verts
v -2 1 -1.7
v -2 1 -2
v -2 3.2 -1.7
v -2 3.2 -2
v -1.3 1.4 -1.8
v -1.3 1.4 -1.9
v -1.3 1.7 -1.8
v -1.3 1.7 -1.9
v -1.2 1.3 -1.8
v -1.2 1.3 -1.9
v -1.2 1.4 -1.8
v -1.2 1.4 -1.9
v -1.2 1.7 -1.8
v -1.2 1.7 -1.9
v -1.2 1.8 -1.8
v -1.2 1.8 -1.9
v -1.1 1.5 -1.7
v -1.1 1.5 -1.8
v -1.1 1.8 -1.7
v -1.1 1.8 -1.8
v 1.9 1.1 -1.7
v 1.9 1.1 -1.9
v 1.9 3.1 -1.7
v 1.9 3.1 -1.9
v -1.9 1.1 -1.7
v -1.9 1.1 -1.9
v -1.9 3.1 -1.7
v -1.9 3.1 -1.9
v -0.8 1.5 -1.7
v -0.8 1.5 -1.8
v -0.8 1.8 -1.7
v -0.8 1.8 -1.8
v -0.7 1.3 -1.8
v -0.7 1.3 -1.9
v -0.7 1.5 -1.8
v -0.7 1.5 -1.9
v -0.7 1.6 -1.8
v -0.7 1.6 -1.9
v -0.7 1.8 -1.8
v -0.7 1.8 -1.9
v 1.4 1.5 -1.8
v 1.4 1.5 -1.9
v 1.4 1.6 -1.8
v 1.4 1.6 -1.9
v 2 1 -1.7
v 2 1 -2
v 2 3.2 -1.7
v 2 3.2 -2
v -2 1 -1.7
v -2 3.2 -1.7
v -1.9 1.1 -1.7
v -1.9 3.1 -1.7
v -1.1 1.5 -1.7
v -1.1 1.8 -1.7
v -0.8 1.5 -1.7
v -0.8 1.8 -1.7
v 1.9 1.1 -1.7
v 1.9 3.1 -1.7
v 2 1 -1.7
v 2 3.2 -1.7
v -1.3 1.4 -1.8
v -1.3 1.7 -1.8
v -1.2 1.3 -1.8
v -1.2 1.4 -1.8
v -1.2 1.7 -1.8
v -1.2 1.8 -1.8
v -1.1 1.5 -1.8
v -1.1 1.8 -1.8
v -0.8 1.5 -1.8
v -0.8 1.8 -1.8
v -0.7 1.3 -1.8
v -0.7 1.5 -1.8
v -0.7 1.6 -1.8
v -0.7 1.8 -1.8
v 1.4 1.5 -1.8
v 1.4 1.6 -1.8
v -1.9 1.1 -1.9
v -1.9 3.1 -1.9
v -1.3 1.4 -1.9
v -1.3 1.7 -1.9
v -1.2 1.3 -1.9
v -1.2 1.4 -1.9
v -1.2 1.7 -1.9
v -1.2 1.8 -1.9
v -0.7 1.3 -1.9
v -0.7 1.5 -1.9
v -0.7 1.6 -1.9
v -0.7 1.8 -1.9
v 1.4 1.5 -1.9
v 1.4 1.6 -1.9
v 1.9 1.1 -1.9
v 1.9 3.1 -1.9
v -2 1 -2
v -2 3.2 -2
v 2 1 -2
v 2 3.2 -2
v -2 1 -1.7
v 2 1 -1.7
v -2 1 -2
v 2 1 -2
v -1.2 1.3 -1.8
v -0.7 1.3 -1.8
v -1.2 1.3 -1.9
v -0.7 1.3 -1.9
v -1.3 1.4 -1.8
v -1.2 1.4 -1.8
v -1.3 1.4 -1.9
v -1.2 1.4 -1.9
v -1.1 1.5 -1.7
v -0.8 1.5 -1.7
v -1.1 1.5 -1.8
v -0.8 1.5 -1.8
v -0.7 1.5 -1.8
v 1.4 1.5 -1.8
v -0.7 1.5 -1.9
v 1.4 1.5 -1.9
v -1.9 3.1 -1.7
v 1.9 3.1 -1.7
v -1.9 3.1 -1.9
v 1.9 3.1 -1.9
v -1.9 1.1 -1.7
v 1.9 1.1 -1.7
v -1.9 1.1 -1.9
v 1.9 1.1 -1.9
v -0.7 1.6 -1.8
v 1.4 1.6 -1.8
v -0.7 1.6 -1.9
v 1.4 1.6 -1.9
v -1.3 1.7 -1.8
v -1.2 1.7 -1.8
v -1.3 1.7 -1.9
v -1.2 1.7 -1.9
v -1.1 1.8 -1.7
v -0.8 1.8 -1.7
v -1.2 1.8 -1.8
v -1.1 1.8 -1.8
v -0.8 1.8 -1.8
v -0.7 1.8 -1.8
v -1.2 1.8 -1.9
v -0.7 1.8 -1.9
v -2 3.2 -1.7
v 2 3.2 -1.7
v -2 3.2 -2
v 2 3.2 -2

# faces
f 3/2/1 2/2/1 1/2/1
f 4/2/1 2/2/1 3/2/1
f 7/1/1 6/1/1 5/1/1
f 8/1/1 6/1/1 7/1/1
f 11/1/1 10/1/1 9/1/1
f 12/1/1 10/1/1 11/1/1
f 15/1/1 14/1/1 13/1/1
f 16/1/1 14/1/1 15/1/1
f 19/1/1 18/1/1 17/1/1
f 20/1/1 18/1/1 19/1/1
f 23/2/1 22/2/1 21/2/1
f 24/2/1 22/2/1 23/2/1
f 25/2/2 26/2/2 27/2/2
f 27/2/2 26/2/2 28/2/2
f 29/1/2 30/1/2 31/1/2
f 31/1/2 30/1/2 32/1/2
f 33/1/2 34/1/2 35/1/2
f 35/1/2 34/1/2 36/1/2
f 37/1/2 38/1/2 39/1/2
f 39/1/2 38/1/2 40/1/2
f 41/3/2 42/3/2 43/3/2
f 43/3/2 42/3/2 44/3/2
f 45/2/2 46/2/2 47/2/2
f 47/2/2 46/2/2 48/2/2
f 51/2/3 50/2/3 49/2/3
f 52/2/3 50/2/3 51/2/3
f 55/1/3 54/1/3 53/1/3
f 56/1/3 54/1/3 55/1/3
f 57/2/3 51/2/3 49/2/3
f 58/2/3 50/2/3 52/2/3
f 59/2/3 57/2/3 49/2/3
f 59/2/3 58/2/3 57/2/3
f 60/2/3 50/2/3 58/2/3
f 60/2/3 58/2/3 59/2/3
f 64/1/3 62/1/3 61/1/3
f 65/1/3 62/1/3 64/1/3
f 67/1/3 64/1/3 63/1/3
f 67/1/3 66/1/3 65/1/3
f 67/1/3 65/1/3 64/1/3
f 68/1/3 66/1/3 67/1/3
f 69/1/3 67/1/3 63/1/3
f 71/1/3 69/1/3 63/1/3
f 71/1/3 70/1/3 69/1/3
f 72/1/3 70/1/3 71/1/3
f 73/1/3 70/1/3 72/1/3
f 74/1/3 70/1/3 73/1/3
f 75/3/3 73/3/3 72/3/3
f 76/3/3 73/3/3 75/3/3
f 79/2/3 78/2/3 77/2/3
f 80/2/3 78/2/3 79/2/3
f 81/2/3 79/2/3 77/2/3
f 82/2/3 79/2/3 81/2/3
f 83/2/3 78/2/3 80/2/3
f 84/2/3 78/2/3 83/2/3
f 85/2/3 81/2/3 77/2/3
f 88/2/3 78/2/3 84/2/3
f 89/2/3 86/2/3 85/2/3
f 90/2/3 88/2/3 87/2/3
f 91/2/3 89/2/3 85/2/3
f 91/2/3 90/2/3 89/2/3
f 91/2/3 85/2/3 77/2/3
f 92/2/3 88/2/3 90/2/3
f 92/2/3 90/2/3 91/2/3
f 92/2/3 78/2/3 88/2/3
f 93/2/4 94/2/4 95/2/4
f 95/2/4 94/2/4 96/2/4
f 99/2/5 98/2/5 97/2/5
f 100/2/5 98/2/5 99/2/5
f 103/1/5 102/1/5 101/1/5
f 104/1/5 102/1/5 103/1/5
f 107/1/5 106/1/5 105/1/5
f 108/1/5 106/1/5 107/1/5
f 111/1/5 110/1/5 109/1/5
f 112/1/5 110/1/5 111/1/5
f 115/3/5 114/3/5 113/3/5
f 116/3/5 114/3/5 115/3/5
f 119/2/5 118/2/5 117/2/5
f 120/2/5 118/2/5 119/2/5
f 121/2/6 122/2/6 123/2/6
f 123/2/6 122/2/6 124/2/6
f 125/3/6 126/3/6 127/3/6
f 127/3/6 126/3/6 128/3/6
f 129/1/6 130/1/6 131/1/6
f 131/1/6 130/1/6 132/1/6
f 133/1/6 134/1/6 136/1/6
f 136/1/6 134/1/6 137/1/6
f 135/1/6 136/1/6 139/1/6
f 137/1/6 138/1/6 139/1/6
f 136/1/6 137/1/6 139/1/6
f 139/1/6 138/1/6 140/1/6
f 141/2/6 142/2/6 143/2/6
f 143/2/6 142/2/6 144/2/6
