# MagicaVoxel @ Ephtracy

# group
o 

# material
mtllib IceBox.mtl
usemtl palette

# normals
vn -1 0 0
vn 1 0 0
vn 0 0 1
vn 0 0 -1
vn 0 -1 0
vn 0 1 0

# texcoords
vt 0.916016 0.5
vt 0.974609 0.5

# verts
v -0.5 0 0.5
v -0.5 0 0.4
v -0.5 0 0.3
v -0.5 0 -0.4
v -0.5 1.5 0.5
v -0.5 1.5 0.4
v -0.5 1.5 0.3
v -0.5 1.5 -0.4
v 0.6 0 0.5
v 0.6 0 0.4
v 0.6 0 0.3
v 0.6 0 -0.4
v 0.6 1.5 0.5
v 0.6 1.5 0.4
v 0.6 1.5 0.3
v 0.6 1.5 -0.4
v -0.5 0 0.5
v -0.5 1.5 0.5
v 0.2 0.9 0.5
v 0.2 1 0.5
v 0.5 0.9 0.5
v 0.5 1 0.5
v 0.6 0 0.5
v 0.6 1.5 0.5
v -0.5 0 -0.4
v -0.5 1.5 -0.4
v -0.4 0.2 -0.4
v -0.4 0.3 -0.4
v -0.4 0.4 -0.4
v -0.4 0.5 -0.4
v -0.4 0.6 -0.4
v -0.4 0.7 -0.4
v -0.4 0.8 -0.4
v -0.4 0.9 -0.4
v -0.4 1 -0.4
v -0.4 1.1 -0.4
v -0.4 1.2 -0.4
v -0.4 1.3 -0.4
v -0.3 0.1 -0.4
v -0.3 0.2 -0.4
v -0.3 0.3 -0.4
v -0.3 0.4 -0.4
v -0.3 0.5 -0.4
v -0.3 0.6 -0.4
v -0.3 0.7 -0.4
v -0.3 0.8 -0.4
v -0.3 0.9 -0.4
v -0.3 1 -0.4
v -0.3 1.1 -0.4
v -0.3 1.2 -0.4
v -0.3 1.3 -0.4
v -0.3 1.4 -0.4
v -0.2 0.1 -0.4
v -0.2 0.2 -0.4
v -0.2 0.3 -0.4
v -0.2 0.4 -0.4
v -0.2 0.5 -0.4
v -0.2 0.6 -0.4
v -0.2 0.7 -0.4
v -0.2 0.8 -0.4
v -0.2 0.9 -0.4
v -0.2 1 -0.4
v -0.2 1.1 -0.4
v -0.2 1.2 -0.4
v -0.2 1.3 -0.4
v -0.2 1.4 -0.4
v -0.1 0.1 -0.4
v -0.1 0.2 -0.4
v -0.1 0.3 -0.4
v -0.1 0.4 -0.4
v -0.1 0.5 -0.4
v -0.1 0.6 -0.4
v -0.1 0.7 -0.4
v -0.1 0.8 -0.4
v -0.1 0.9 -0.4
v -0.1 1 -0.4
v -0.1 1.1 -0.4
v -0.1 1.2 -0.4
v -0.1 1.3 -0.4
v -0.1 1.4 -0.4
v 0 0.1 -0.4
v 0 0.2 -0.4
v 0 0.3 -0.4
v 0 0.4 -0.4
v 0 0.5 -0.4
v 0 0.6 -0.4
v 0 0.7 -0.4
v 0 0.8 -0.4
v 0 0.9 -0.4
v 0 1 -0.4
v 0 1.1 -0.4
v 0 1.2 -0.4
v 0 1.3 -0.4
v 0 1.4 -0.4
v 0.1 0.1 -0.4
v 0.1 0.2 -0.4
v 0.1 0.3 -0.4
v 0.1 0.4 -0.4
v 0.1 0.5 -0.4
v 0.1 0.6 -0.4
v 0.1 0.7 -0.4
v 0.1 0.8 -0.4
v 0.1 0.9 -0.4
v 0.1 1 -0.4
v 0.1 1.1 -0.4
v 0.1 1.2 -0.4
v 0.1 1.3 -0.4
v 0.1 1.4 -0.4
v 0.2 0.1 -0.4
v 0.2 0.2 -0.4
v 0.2 0.3 -0.4
v 0.2 0.4 -0.4
v 0.2 0.5 -0.4
v 0.2 0.6 -0.4
v 0.2 0.7 -0.4
v 0.2 0.8 -0.4
v 0.2 0.9 -0.4
v 0.2 1 -0.4
v 0.2 1.1 -0.4
v 0.2 1.2 -0.4
v 0.2 1.3 -0.4
v 0.2 1.4 -0.4
v 0.3 0.1 -0.4
v 0.3 0.2 -0.4
v 0.3 0.3 -0.4
v 0.3 0.4 -0.4
v 0.3 0.5 -0.4
v 0.3 0.6 -0.4
v 0.3 0.7 -0.4
v 0.3 0.8 -0.4
v 0.3 0.9 -0.4
v 0.3 1 -0.4
v 0.3 1.1 -0.4
v 0.3 1.2 -0.4
v 0.3 1.3 -0.4
v 0.3 1.4 -0.4
v 0.4 0.1 -0.4
v 0.4 0.2 -0.4
v 0.4 0.3 -0.4
v 0.4 0.4 -0.4
v 0.4 0.5 -0.4
v 0.4 0.6 -0.4
v 0.4 0.7 -0.4
v 0.4 0.8 -0.4
v 0.4 0.9 -0.4
v 0.4 1 -0.4
v 0.4 1.1 -0.4
v 0.4 1.2 -0.4
v 0.4 1.3 -0.4
v 0.4 1.4 -0.4
v 0.5 0.2 -0.4
v 0.5 0.3 -0.4
v 0.5 0.4 -0.4
v 0.5 0.5 -0.4
v 0.5 0.6 -0.4
v 0.5 0.7 -0.4
v 0.5 0.8 -0.4
v 0.5 0.9 -0.4
v 0.5 1 -0.4
v 0.5 1.1 -0.4
v 0.5 1.2 -0.4
v 0.5 1.3 -0.4
v 0.6 0 -0.4
v 0.6 1.5 -0.4
v -0.5 0 0.5
v 0.6 0 0.5
v -0.5 0 0.4
v 0.6 0 0.4
v -0.5 0 0.3
v 0.6 0 0.3
v -0.5 0 -0.4
v 0.6 0 -0.4
v -0.5 1.5 0.5
v 0.6 1.5 0.5
v -0.5 1.5 0.4
v 0.6 1.5 0.4
v -0.5 1.5 0.3
v 0.6 1.5 0.3
v -0.5 1.5 -0.4
v 0.6 1.5 -0.4

# faces
f 5/2/1 2/2/1 1/2/1
f 6/1/1 3/1/1 2/1/1
f 6/2/1 2/2/1 5/2/1
f 7/2/1 4/2/1 3/2/1
f 7/1/1 3/1/1 6/1/1
f 8/2/1 4/2/1 7/2/1
f 9/2/2 10/2/2 13/2/2
f 10/1/2 11/1/2 14/1/2
f 13/2/2 10/2/2 14/2/2
f 11/2/2 12/2/2 15/2/2
f 14/1/2 11/1/2 15/1/2
f 15/2/2 12/2/2 16/2/2
f 19/2/3 18/2/3 17/2/3
f 20/2/3 18/2/3 19/2/3
f 21/2/3 19/2/3 17/2/3
f 21/1/3 20/1/3 19/1/3
f 22/2/3 18/2/3 20/2/3
f 22/1/3 20/1/3 21/1/3
f 23/2/3 21/2/3 17/2/3
f 23/2/3 22/2/3 21/2/3
f 24/2/3 18/2/3 22/2/3
f 24/2/3 22/2/3 23/2/3
f 25/2/4 26/2/4 27/2/4
f 27/2/4 26/2/4 28/2/4
f 28/2/4 26/2/4 29/2/4
f 29/2/4 26/2/4 30/2/4
f 30/2/4 26/2/4 31/2/4
f 31/2/4 26/2/4 32/2/4
f 32/2/4 26/2/4 33/2/4
f 33/2/4 26/2/4 34/2/4
f 34/2/4 26/2/4 35/2/4
f 35/2/4 26/2/4 36/2/4
f 36/2/4 26/2/4 37/2/4
f 37/2/4 26/2/4 38/2/4
f 25/2/4 27/2/4 39/2/4
f 27/1/4 28/1/4 40/1/4
f 39/2/4 27/2/4 40/2/4
f 28/2/4 29/2/4 41/2/4
f 40/1/4 28/1/4 41/1/4
f 29/1/4 30/1/4 42/1/4
f 41/2/4 29/2/4 42/2/4
f 30/2/4 31/2/4 43/2/4
f 42/1/4 30/1/4 43/1/4
f 31/1/4 32/1/4 44/1/4
f 43/2/4 31/2/4 44/2/4
f 32/2/4 33/2/4 45/2/4
f 44/1/4 32/1/4 45/1/4
f 33/1/4 34/1/4 46/1/4
f 45/2/4 33/2/4 46/2/4
f 34/2/4 35/2/4 47/2/4
f 46/1/4 34/1/4 47/1/4
f 35/1/4 36/1/4 48/1/4
f 47/2/4 35/2/4 48/2/4
f 36/2/4 37/2/4 49/2/4
f 48/1/4 36/1/4 49/1/4
f 37/1/4 38/1/4 50/1/4
f 49/2/4 37/2/4 50/2/4
f 38/2/4 26/2/4 51/2/4
f 50/1/4 38/1/4 51/1/4
f 51/2/4 26/2/4 52/2/4
f 49/1/4 50/1/4 53/1/4
f 25/2/4 39/2/4 53/2/4
f 51/1/4 52/1/4 53/1/4
f 50/1/4 51/1/4 53/1/4
f 48/1/4 49/1/4 53/1/4
f 47/1/4 48/1/4 53/1/4
f 46/1/4 47/1/4 53/1/4
f 45/1/4 46/1/4 53/1/4
f 44/1/4 45/1/4 53/1/4
f 43/1/4 44/1/4 53/1/4
f 42/1/4 43/1/4 53/1/4
f 41/1/4 42/1/4 53/1/4
f 40/1/4 41/1/4 53/1/4
f 39/1/4 40/1/4 53/1/4
f 53/1/4 52/1/4 54/1/4
f 54/1/4 52/1/4 55/1/4
f 55/1/4 52/1/4 56/1/4
f 56/1/4 52/1/4 57/1/4
f 57/1/4 52/1/4 58/1/4
f 58/1/4 52/1/4 59/1/4
f 59/1/4 52/1/4 60/1/4
f 60/1/4 52/1/4 61/1/4
f 61/1/4 52/1/4 62/1/4
f 62/1/4 52/1/4 63/1/4
f 63/1/4 52/1/4 64/1/4
f 64/1/4 52/1/4 65/1/4
f 52/2/4 26/2/4 66/2/4
f 65/1/4 52/1/4 66/1/4
f 25/2/4 53/2/4 67/2/4
f 53/2/4 54/2/4 67/2/4
f 54/1/4 55/1/4 68/1/4
f 67/2/4 54/2/4 68/2/4
f 55/2/4 56/2/4 69/2/4
f 68/1/4 55/1/4 69/1/4
f 56/1/4 57/1/4 70/1/4
f 69/2/4 56/2/4 70/2/4
f 57/2/4 58/2/4 71/2/4
f 70/1/4 57/1/4 71/1/4
f 58/1/4 59/1/4 72/1/4
f 71/2/4 58/2/4 72/2/4
f 59/2/4 60/2/4 73/2/4
f 72/1/4 59/1/4 73/1/4
f 60/1/4 61/1/4 74/1/4
f 73/2/4 60/2/4 74/2/4
f 61/2/4 62/2/4 75/2/4
f 74/1/4 61/1/4 75/1/4
f 62/1/4 63/1/4 76/1/4
f 75/2/4 62/2/4 76/2/4
f 63/2/4 64/2/4 77/2/4
f 76/1/4 63/1/4 77/1/4
f 64/1/4 65/1/4 78/1/4
f 77/2/4 64/2/4 78/2/4
f 65/2/4 66/2/4 79/2/4
f 78/1/4 65/1/4 79/1/4
f 66/2/4 26/2/4 80/2/4
f 79/2/4 66/2/4 80/2/4
f 76/1/4 77/1/4 81/1/4
f 78/1/4 79/1/4 81/1/4
f 79/1/4 80/1/4 81/1/4
f 75/1/4 76/1/4 81/1/4
f 74/1/4 75/1/4 81/1/4
f 73/1/4 74/1/4 81/1/4
f 72/1/4 73/1/4 81/1/4
f 71/1/4 72/1/4 81/1/4
f 70/1/4 71/1/4 81/1/4
f 69/1/4 70/1/4 81/1/4
f 68/1/4 69/1/4 81/1/4
f 67/1/4 68/1/4 81/1/4
f 25/2/4 67/2/4 81/2/4
f 77/1/4 78/1/4 81/1/4
f 81/1/4 80/1/4 82/1/4
f 82/1/4 80/1/4 83/1/4
f 83/1/4 80/1/4 84/1/4
f 84/1/4 80/1/4 85/1/4
f 85/1/4 80/1/4 86/1/4
f 86/1/4 80/1/4 87/1/4
f 87/1/4 80/1/4 88/1/4
f 88/1/4 80/1/4 89/1/4
f 89/1/4 80/1/4 90/1/4
f 90/1/4 80/1/4 91/1/4
f 91/1/4 80/1/4 92/1/4
f 92/1/4 80/1/4 93/1/4
f 80/2/4 26/2/4 94/2/4
f 93/1/4 80/1/4 94/1/4
f 25/2/4 81/2/4 95/2/4
f 81/2/4 82/2/4 95/2/4
f 82/1/4 83/1/4 96/1/4
f 95/2/4 82/2/4 96/2/4
f 83/2/4 84/2/4 97/2/4
f 96/1/4 83/1/4 97/1/4
f 84/1/4 85/1/4 98/1/4
f 97/2/4 84/2/4 98/2/4
f 85/2/4 86/2/4 99/2/4
f 98/1/4 85/1/4 99/1/4
f 86/1/4 87/1/4 100/1/4
f 99/2/4 86/2/4 100/2/4
f 87/2/4 88/2/4 101/2/4
f 100/1/4 87/1/4 101/1/4
f 88/1/4 89/1/4 102/1/4
f 101/2/4 88/2/4 102/2/4
f 89/2/4 90/2/4 103/2/4
f 102/1/4 89/1/4 103/1/4
f 90/1/4 91/1/4 104/1/4
f 103/2/4 90/2/4 104/2/4
f 91/2/4 92/2/4 105/2/4
f 104/1/4 91/1/4 105/1/4
f 92/1/4 93/1/4 106/1/4
f 105/2/4 92/2/4 106/2/4
f 93/2/4 94/2/4 107/2/4
f 106/1/4 93/1/4 107/1/4
f 94/2/4 26/2/4 108/2/4
f 107/2/4 94/2/4 108/2/4
f 104/1/4 105/1/4 109/1/4
f 106/1/4 107/1/4 109/1/4
f 107/1/4 108/1/4 109/1/4
f 103/1/4 104/1/4 109/1/4
f 102/1/4 103/1/4 109/1/4
f 101/1/4 102/1/4 109/1/4
f 100/1/4 101/1/4 109/1/4
f 99/1/4 100/1/4 109/1/4
f 98/1/4 99/1/4 109/1/4
f 97/1/4 98/1/4 109/1/4
f 96/1/4 97/1/4 109/1/4
f 95/1/4 96/1/4 109/1/4
f 25/2/4 95/2/4 109/2/4
f 105/1/4 106/1/4 109/1/4
f 109/1/4 108/1/4 110/1/4
f 110/1/4 108/1/4 111/1/4
f 111/1/4 108/1/4 112/1/4
f 112/1/4 108/1/4 113/1/4
f 113/1/4 108/1/4 114/1/4
f 114/1/4 108/1/4 115/1/4
f 115/1/4 108/1/4 116/1/4
f 116/1/4 108/1/4 117/1/4
f 117/1/4 108/1/4 118/1/4
f 118/1/4 108/1/4 119/1/4
f 119/1/4 108/1/4 120/1/4
f 120/1/4 108/1/4 121/1/4
f 108/2/4 26/2/4 122/2/4
f 121/1/4 108/1/4 122/1/4
f 25/2/4 109/2/4 123/2/4
f 109/2/4 110/2/4 123/2/4
f 110/1/4 111/1/4 124/1/4
f 123/2/4 110/2/4 124/2/4
f 111/2/4 112/2/4 125/2/4
f 124/1/4 111/1/4 125/1/4
f 112/1/4 113/1/4 126/1/4
f 125/2/4 112/2/4 126/2/4
f 113/2/4 114/2/4 127/2/4
f 126/1/4 113/1/4 127/1/4
f 114/1/4 115/1/4 128/1/4
f 127/2/4 114/2/4 128/2/4
f 115/2/4 116/2/4 129/2/4
f 128/1/4 115/1/4 129/1/4
f 116/1/4 117/1/4 130/1/4
f 129/2/4 116/2/4 130/2/4
f 117/2/4 118/2/4 131/2/4
f 130/1/4 117/1/4 131/1/4
f 118/1/4 119/1/4 132/1/4
f 131/2/4 118/2/4 132/2/4
f 119/2/4 120/2/4 133/2/4
f 132/1/4 119/1/4 133/1/4
f 120/1/4 121/1/4 134/1/4
f 133/2/4 120/2/4 134/2/4
f 121/2/4 122/2/4 135/2/4
f 134/1/4 121/1/4 135/1/4
f 122/2/4 26/2/4 136/2/4
f 135/2/4 122/2/4 136/2/4
f 132/1/4 133/1/4 137/1/4
f 134/1/4 135/1/4 137/1/4
f 135/1/4 136/1/4 137/1/4
f 131/1/4 132/1/4 137/1/4
f 130/1/4 131/1/4 137/1/4
f 129/1/4 130/1/4 137/1/4
f 128/1/4 129/1/4 137/1/4
f 127/1/4 128/1/4 137/1/4
f 126/1/4 127/1/4 137/1/4
f 125/1/4 126/1/4 137/1/4
f 124/1/4 125/1/4 137/1/4
f 123/1/4 124/1/4 137/1/4
f 25/2/4 123/2/4 137/2/4
f 133/1/4 134/1/4 137/1/4
f 137/1/4 136/1/4 138/1/4
f 138/1/4 136/1/4 139/1/4
f 139/1/4 136/1/4 140/1/4
f 140/1/4 136/1/4 141/1/4
f 141/1/4 136/1/4 142/1/4
f 142/1/4 136/1/4 143/1/4
f 143/1/4 136/1/4 144/1/4
f 144/1/4 136/1/4 145/1/4
f 145/1/4 136/1/4 146/1/4
f 146/1/4 136/1/4 147/1/4
f 147/1/4 136/1/4 148/1/4
f 148/1/4 136/1/4 149/1/4
f 136/2/4 26/2/4 150/2/4
f 149/1/4 136/1/4 150/1/4
f 137/2/4 138/2/4 151/2/4
f 138/1/4 139/1/4 151/1/4
f 139/2/4 140/2/4 152/2/4
f 151/1/4 139/1/4 152/1/4
f 140/1/4 141/1/4 153/1/4
f 152/2/4 140/2/4 153/2/4
f 141/2/4 142/2/4 154/2/4
f 153/1/4 141/1/4 154/1/4
f 142/1/4 143/1/4 155/1/4
f 154/2/4 142/2/4 155/2/4
f 143/2/4 144/2/4 156/2/4
f 155/1/4 143/1/4 156/1/4
f 144/1/4 145/1/4 157/1/4
f 156/2/4 144/2/4 157/2/4
f 145/2/4 146/2/4 158/2/4
f 157/1/4 145/1/4 158/1/4
f 146/1/4 147/1/4 159/1/4
f 158/2/4 146/2/4 159/2/4
f 147/2/4 148/2/4 160/2/4
f 159/1/4 147/1/4 160/1/4
f 148/1/4 149/1/4 161/1/4
f 160/2/4 148/2/4 161/2/4
f 149/2/4 150/2/4 162/2/4
f 161/1/4 149/1/4 162/1/4
f 159/2/4 160/2/4 163/2/4
f 25/2/4 137/2/4 163/2/4
f 161/2/4 162/2/4 163/2/4
f 158/2/4 159/2/4 163/2/4
f 157/2/4 158/2/4 163/2/4
f 156/2/4 157/2/4 163/2/4
f 155/2/4 156/2/4 163/2/4
f 154/2/4 155/2/4 163/2/4
f 153/2/4 154/2/4 163/2/4
f 152/2/4 153/2/4 163/2/4
f 151/2/4 152/2/4 163/2/4
f 137/2/4 151/2/4 163/2/4
f 160/2/4 161/2/4 163/2/4
f 162/2/4 150/2/4 164/2/4
f 163/2/4 162/2/4 164/2/4
f 150/2/4 26/2/4 164/2/4
f 167/2/5 166/2/5 165/2/5
f 168/2/5 166/2/5 167/2/5
f 169/1/5 168/1/5 167/1/5
f 170/1/5 168/1/5 169/1/5
f 171/2/5 170/2/5 169/2/5
f 172/2/5 170/2/5 171/2/5
f 173/2/6 174/2/6 175/2/6
f 175/2/6 174/2/6 176/2/6
f 175/1/6 176/1/6 177/1/6
f 177/1/6 176/1/6 178/1/6
f 177/2/6 178/2/6 179/2/6
f 179/2/6 178/2/6 180/2/6
