# MagicaVoxel @ Ephtracy

# group
o 

# material
mtllib microwawe.mtl
usemtl palette

# normals
vn -1 0 0
vn 1 0 0
vn 0 0 1
vn 0 0 -1
vn 0 -1 0
vn 0 1 0

# texcoords
vt 0.314453 0.5
vt 0.345703 0.5
vt 0.353516 0.5
vt 0.408203 0.5
vt 0.572266 0.5

# verts
v -1.5 0 0.9
v -1.5 0 -0.8
v -1.5 1.8 0.9
v -1.5 1.8 -0.8
v 0.8 0.1 0.9
v 0.8 0.1 0.8
v 0.8 1.7 0.9
v 0.8 1.7 0.8
v 1.4 1.3 0.9
v 1.4 1.3 0.8
v 1.4 1.6 0.9
v 1.4 1.6 0.8
v -1.4 0.1 0.9
v -1.4 0.1 0.8
v -1.4 1.7 0.9
v -1.4 1.7 0.8
v 0.9 1.3 0.9
v 0.9 1.3 0.8
v 0.9 1.6 0.9
v 0.9 1.6 0.8
v 1.5 0 0.9
v 1.5 0 -0.8
v 1.5 1.8 0.9
v 1.5 1.8 -0.8
v -1.5 0 0.9
v -1.5 1.8 0.9
v -1.4 0.1 0.9
v -1.4 1.7 0.9
v 0.8 0.1 0.9
v 0.8 1.7 0.9
v 0.9 0.1 0.9
v 0.9 1 0.9
v 0.9 1.3 0.9
v 0.9 1.6 0.9
v 1 0.2 0.9
v 1 0.3 0.9
v 1 0.4 0.9
v 1 0.5 0.9
v 1 0.6 0.9
v 1 0.7 0.9
v 1 0.8 0.9
v 1 0.9 0.9
v 1.3 0.2 0.9
v 1.3 0.3 0.9
v 1.3 0.4 0.9
v 1.3 0.5 0.9
v 1.3 0.6 0.9
v 1.3 0.7 0.9
v 1.3 0.8 0.9
v 1.3 0.9 0.9
v 1.4 0.1 0.9
v 1.4 1 0.9
v 1.4 1.3 0.9
v 1.4 1.6 0.9
v 1.5 0 0.9
v 1.5 1.8 0.9
v -1.4 0.1 0.8
v -1.4 1.7 0.8
v 0.8 0.1 0.8
v 0.8 1.7 0.8
v 0.9 1.3 0.8
v 0.9 1.6 0.8
v 1.4 1.3 0.8
v 1.4 1.6 0.8
v -1.5 0 -0.8
v -1.5 1.8 -0.8
v 1.5 0 -0.8
v 1.5 1.8 -0.8
v -1.5 0 0.9
v 1.5 0 0.9
v -1.5 0 -0.8
v 1.5 0 -0.8
v 0.9 1.6 0.9
v 1.4 1.6 0.9
v 0.9 1.6 0.8
v 1.4 1.6 0.8
v -1.4 1.7 0.9
v 0.8 1.7 0.9
v -1.4 1.7 0.8
v 0.8 1.7 0.8
v -1.4 0.1 0.9
v 0.8 0.1 0.9
v -1.4 0.1 0.8
v 0.8 0.1 0.8
v 0.9 1.3 0.9
v 1.4 1.3 0.9
v 0.9 1.3 0.8
v 1.4 1.3 0.8
v -1.5 1.8 0.9
v 1.5 1.8 0.9
v -1.5 1.8 -0.8
v 1.5 1.8 -0.8

# faces
f 3/4/1 2/4/1 1/4/1
f 4/4/1 2/4/1 3/4/1
f 7/4/1 6/4/1 5/4/1
f 8/4/1 6/4/1 7/4/1
f 11/4/1 10/4/1 9/4/1
f 12/4/1 10/4/1 11/4/1
f 13/4/2 14/4/2 15/4/2
f 15/4/2 14/4/2 16/4/2
f 17/4/2 18/4/2 19/4/2
f 19/4/2 18/4/2 20/4/2
f 21/4/2 22/4/2 23/4/2
f 23/4/2 22/4/2 24/4/2
f 27/4/3 26/4/3 25/4/3
f 28/4/3 26/4/3 27/4/3
f 29/4/3 27/4/3 25/4/3
f 30/4/3 26/4/3 28/4/3
f 31/4/3 29/4/3 25/4/3
f 31/4/3 30/4/3 29/4/3
f 32/4/3 30/4/3 31/4/3
f 33/4/3 30/4/3 32/4/3
f 34/4/3 30/4/3 33/4/3
f 35/3/3 32/3/3 31/3/3
f 36/3/3 32/3/3 35/3/3
f 37/3/3 32/3/3 36/3/3
f 38/3/3 32/3/3 37/3/3
f 39/3/3 32/3/3 38/3/3
f 40/3/3 32/3/3 39/3/3
f 41/3/3 32/3/3 40/3/3
f 42/3/3 32/3/3 41/3/3
f 43/3/3 35/3/3 31/3/3
f 43/2/3 36/2/3 35/2/3
f 44/3/3 37/3/3 36/3/3
f 44/2/3 36/2/3 43/2/3
f 45/2/3 38/2/3 37/2/3
f 45/3/3 37/3/3 44/3/3
f 46/3/3 39/3/3 38/3/3
f 46/2/3 38/2/3 45/2/3
f 47/2/3 40/2/3 39/2/3
f 47/3/3 39/3/3 46/3/3
f 48/3/3 41/3/3 40/3/3
f 48/2/3 40/2/3 47/2/3
f 49/2/3 42/2/3 41/2/3
f 49/3/3 41/3/3 48/3/3
f 50/3/3 32/3/3 42/3/3
f 50/2/3 42/2/3 49/2/3
f 51/4/3 31/4/3 25/4/3
f 51/3/3 49/3/3 48/3/3
f 51/3/3 50/3/3 49/3/3
f 51/3/3 47/3/3 46/3/3
f 51/3/3 46/3/3 45/3/3
f 51/3/3 45/3/3 44/3/3
f 51/3/3 44/3/3 43/3/3
f 51/3/3 43/3/3 31/3/3
f 51/3/3 48/3/3 47/3/3
f 52/3/3 32/3/3 50/3/3
f 52/3/3 50/3/3 51/3/3
f 52/4/3 33/4/3 32/4/3
f 53/4/3 33/4/3 52/4/3
f 54/4/3 30/4/3 34/4/3
f 55/4/3 51/4/3 25/4/3
f 55/4/3 54/4/3 53/4/3
f 55/4/3 53/4/3 52/4/3
f 55/4/3 52/4/3 51/4/3
f 56/4/3 26/4/3 30/4/3
f 56/4/3 54/4/3 55/4/3
f 56/4/3 30/4/3 54/4/3
f 59/5/3 58/5/3 57/5/3
f 60/5/3 58/5/3 59/5/3
f 63/1/3 62/1/3 61/1/3
f 64/1/3 62/1/3 63/1/3
f 65/4/4 66/4/4 67/4/4
f 67/4/4 66/4/4 68/4/4
f 71/4/5 70/4/5 69/4/5
f 72/4/5 70/4/5 71/4/5
f 75/4/5 74/4/5 73/4/5
f 76/4/5 74/4/5 75/4/5
f 79/4/5 78/4/5 77/4/5
f 80/4/5 78/4/5 79/4/5
f 81/4/6 82/4/6 83/4/6
f 83/4/6 82/4/6 84/4/6
f 85/4/6 86/4/6 87/4/6
f 87/4/6 86/4/6 88/4/6
f 89/4/6 90/4/6 91/4/6
f 91/4/6 90/4/6 92/4/6
