# MagicaVoxel @ Ephtracy

# group
o 

# material
mtllib Printer.mtl
usemtl palette

# normals
vn -1 0 0
vn 1 0 0
vn 0 0 1
vn 0 0 -1
vn 0 -1 0
vn 0 1 0

# texcoords
vt 0.345703 0.5
vt 0.353516 0.5
vt 0.408203 0.5

# verts
v -1.6 1 1
v -1.6 1 -1
v -1.6 1.2 0.8
v -1.6 1.2 -0.8
v -1.6 1.4 0.8
v -1.6 1.4 -0.8
v -1.6 2.4 0.9
v -1.6 2.4 -0.9
v -1.6 2.6 1
v -1.6 2.6 0.9
v -1.6 2.6 -0.9
v -1.6 2.6 -1
v -1.5 0 0.9
v -1.5 0 -0.9
v -1.5 1 0.9
v -1.5 1 -0.9
v -1.5 1.2 0.8
v -1.5 1.2 -0.8
v -1.5 1.4 0.8
v -1.5 1.4 -0.8
v -1.5 2.4 0.9
v -1.5 2.4 -0.9
v -1.5 2.5 0.9
v -1.5 2.5 -0.9
v -1.1 2.5 0.9
v -1.1 2.5 0.8
v -1.1 2.6 0.9
v -1.1 2.6 0.8
v -0.7 2.5 0.8
v -0.7 2.5 0.6
v -0.7 2.6 0.8
v -0.7 2.6 0.6
v 0.8 0.1 0.9
v 0.8 0.1 0.8
v 0.8 0.4 0.9
v 0.8 0.4 0.8
v 0.8 2.5 0.6
v 0.8 2.5 -0.9
v 0.8 2.6 0.6
v 0.8 2.6 -0.9
v 0.9 1.1 1
v 0.9 1.1 0.9
v 0.9 1.3 1
v 0.9 1.3 0.9
v 1 2.6 0.6
v 1 2.6 -0.9
v 1 2.7 0.6
v 1 2.7 -0.9
v 1.3 2.4 0.6
v 1.3 2.4 0.5
v 1.3 2.4 -0.9
v 1.3 2.5 0.6
v 1.3 2.5 -0.9
v 1.5 1.9 0.9
v 1.5 1.9 0.8
v 1.5 2.2 0.9
v 1.5 2.2 0.8
v -1 1.9 1
v -1 1.9 0.9
v -1 2.6 1
v -1 2.6 0.9
v -0.9 0.1 0.9
v -0.9 0.1 0.8
v -0.9 0.4 0.9
v -0.9 0.4 0.8
v -0.8 1.1 1
v -0.8 1.1 0.9
v -0.8 1.3 1
v -0.8 1.3 0.9
v -0.6 1.9 0.9
v -0.6 1.9 0.8
v -0.6 2.2 0.9
v -0.6 2.2 0.8
v -0.6 2.3 0.9
v -0.6 2.3 0.8
v -0.6 2.4 0.8
v -0.6 2.4 0.7
v -0.6 2.6 0.9
v -0.6 2.6 0.7
v 1.1 2.4 0.6
v 1.1 2.4 0.5
v 1.1 2.4 -0.9
v 1.1 2.5 0.6
v 1.1 2.5 -0.9
v 1.2 2.5 0.6
v 1.2 2.5 -0.9
v 1.2 2.6 0.6
v 1.2 2.6 -0.9
v 1.2 2.7 0.6
v 1.2 2.7 -0.9
v 1.5 0 0.9
v 1.5 0 -0.9
v 1.5 1 0.9
v 1.5 1 -0.9
v 1.5 2 0.8
v 1.5 2 -0.1
v 1.5 2.2 0.8
v 1.5 2.2 -0.1
v 1.6 1 1
v 1.6 1 -1
v 1.6 1.1 -0.7
v 1.6 1.1 -0.9
v 1.6 1.3 -0.7
v 1.6 1.3 -0.9
v 1.6 1.9 1
v 1.6 1.9 0.9
v 1.6 2 0.8
v 1.6 2 -0.1
v 1.6 2.2 0.8
v 1.6 2.2 -0.1
v 1.6 2.3 0.9
v 1.6 2.3 0.8
v 1.6 2.4 0.8
v 1.6 2.4 0.7
v 1.6 2.5 0.6
v 1.6 2.5 -0.9
v 1.6 2.6 0.7
v 1.6 2.6 0.6
v 1.6 2.6 -0.9
v 1.6 2.6 -1
v -1.6 1 1
v -1.6 2.6 1
v -1 1.9 1
v -1 2.6 1
v -0.8 1.1 1
v -0.8 1.3 1
v 0.9 1.1 1
v 0.9 1.3 1
v 1.3 1.1 1
v 1.3 1.2 1
v 1.5 1.1 1
v 1.5 1.2 1
v 1.6 1 1
v 1.6 1.9 1
v -1.5 0 0.9
v -1.5 1 0.9
v -1 1.9 0.9
v -1 2.6 0.9
v -0.9 0.1 0.9
v -0.9 0.4 0.9
v -0.9 2 0.9
v -0.9 2.5 0.9
v -0.8 1.1 0.9
v -0.8 1.3 0.9
v -0.7 2 0.9
v -0.7 2.5 0.9
v -0.6 1.9 0.9
v -0.6 2.2 0.9
v -0.6 2.3 0.9
v -0.6 2.6 0.9
v 0.8 0.1 0.9
v 0.8 0.4 0.9
v 0.9 1.1 0.9
v 0.9 1.3 0.9
v 1.5 0 0.9
v 1.5 1 0.9
v 1.5 1.9 0.9
v 1.5 2.2 0.9
v 1.6 1.9 0.9
v 1.6 2.3 0.9
v -0.9 0.1 0.8
v -0.9 0.4 0.8
v -0.6 1.9 0.8
v -0.6 2.2 0.8
v -0.6 2.3 0.8
v -0.6 2.4 0.8
v -0.4 2.3 0.8
v -0.4 2.4 0.8
v 0.8 0.1 0.8
v 0.8 0.4 0.8
v 1.5 1.9 0.8
v 1.5 2.2 0.8
v 1.5 2.3 0.8
v 1.5 2.4 0.8
v 1.6 2.3 0.8
v 1.6 2.4 0.8
v -0.6 2.4 0.7
v -0.6 2.6 0.7
v -0.4 2.4 0.7
v -0.4 2.5 0.7
v 1.5 2.4 0.7
v 1.5 2.5 0.7
v 1.6 2.4 0.7
v 1.6 2.6 0.7
v 1 2.6 0.6
v 1 2.7 0.6
v 1.2 2.6 0.6
v 1.2 2.7 0.6
v 1.5 2 -0.1
v 1.5 2.2 -0.1
v 1.6 2 -0.1
v 1.6 2.2 -0.1
v -1.6 1.2 -0.8
v -1.6 1.4 -0.8
v -1.5 1.2 -0.8
v -1.5 1.4 -0.8
v -1.6 2.4 -0.9
v -1.6 2.6 -0.9
v -1.5 2.4 -0.9
v -1.5 2.5 -0.9
v -1.4 2.5 -0.9
v 0.8 2.5 -0.9
v 0.8 2.6 -0.9
v 1.1 2.4 -0.9
v 1.1 2.5 -0.9
v 1.2 2.5 -0.9
v 1.2 2.6 -0.9
v 1.3 2.4 -0.9
v 1.3 2.5 -0.9
v 1.6 2.5 -0.9
v 1.6 2.6 -0.9
v -1.6 2.4 0.9
v -1.6 2.6 0.9
v -1.5 2.4 0.9
v -1.5 2.5 0.9
v -1.4 2.5 0.9
v -1.1 2.5 0.9
v -1.1 2.6 0.9
v -1.6 1.2 0.8
v -1.6 1.4 0.8
v -1.5 1.2 0.8
v -1.5 1.4 0.8
v -1.1 2.5 0.8
v -1.1 2.6 0.8
v -0.7 2.5 0.8
v -0.7 2.6 0.8
v 1.5 2 0.8
v 1.5 2.2 0.8
v 1.6 2 0.8
v 1.6 2.2 0.8
v -0.7 2.5 0.6
v -0.7 2.6 0.6
v 0.8 2.5 0.6
v 0.8 2.6 0.6
v 1.1 2.4 0.6
v 1.1 2.5 0.6
v 1.2 2.5 0.6
v 1.2 2.6 0.6
v 1.3 2.4 0.6
v 1.3 2.5 0.6
v 1.6 2.5 0.6
v 1.6 2.6 0.6
v -1.5 0 -0.9
v -1.5 1 -0.9
v 1 2.6 -0.9
v 1 2.7 -0.9
v 1.2 2.6 -0.9
v 1.2 2.7 -0.9
v 1.5 0 -0.9
v 1.5 1 -0.9
v -1.6 1 -1
v -1.6 2.6 -1
v 1.6 1 -1
v 1.6 2.6 -1
v -1.5 0 0.9
v 1.5 0 0.9
v -1.5 0 -0.9
v 1.5 0 -0.9
v -0.9 0.4 0.9
v 0.8 0.4 0.9
v -0.9 0.4 0.8
v 0.8 0.4 0.8
v -1.6 1 1
v 1.6 1 1
v -1.5 1 0.9
v 1.5 1 0.9
v -1.5 1 -0.9
v 1.5 1 -0.9
v -1.6 1 -1
v 1.6 1 -1
v -0.8 1.3 1
v 0.9 1.3 1
v -0.8 1.3 0.9
v 0.9 1.3 0.9
v -1.6 1.4 0.8
v -1.5 1.4 0.8
v -1.6 1.4 -0.8
v -1.5 1.4 -0.8
v -0.6 2.2 0.9
v 1.5 2.2 0.9
v -0.6 2.2 0.8
v 1.5 2.2 0.8
v 1.6 2.2 0.8
v 1.5 2.2 -0.1
v 1.6 2.2 -0.1
v 1.1 2.5 0.6
v 1.2 2.5 0.6
v 1.1 2.5 -0.9
v 1.2 2.5 -0.9
v -0.9 0.1 0.9
v 0.8 0.1 0.9
v -0.9 0.1 0.8
v 0.8 0.1 0.8
v -0.8 1.1 1
v 0.9 1.1 1
v -0.8 1.1 0.9
v 0.9 1.1 0.9
v -1.6 1.2 0.8
v -1.5 1.2 0.8
v -1.6 1.2 -0.8
v -1.5 1.2 -0.8
v -1 1.9 1
v 1.6 1.9 1
v -1 1.9 0.9
v -0.6 1.9 0.9
v 1.5 1.9 0.9
v 1.6 1.9 0.9
v -0.6 1.9 0.8
v 1.5 1.9 0.8
v 1.5 2 0.8
v 1.6 2 0.8
v 1.5 2 -0.1
v 1.6 2 -0.1
v -0.6 2.3 0.9
v 1.6 2.3 0.9
v -0.6 2.3 0.8
v -0.4 2.3 0.8
v 1.5 2.3 0.8
v 1.6 2.3 0.8
v -1.6 2.4 0.9
v -1.5 2.4 0.9
v -0.6 2.4 0.8
v -0.4 2.4 0.8
v 1.5 2.4 0.8
v 1.6 2.4 0.8
v -0.6 2.4 0.7
v -0.4 2.4 0.7
v 1.5 2.4 0.7
v 1.6 2.4 0.7
v 1.1 2.4 0.6
v 1.3 2.4 0.6
v 1.1 2.4 0.5
v 1.3 2.4 0.5
v -1.6 2.4 -0.9
v -1.5 2.4 -0.9
v 1.1 2.4 -0.9
v 1.3 2.4 -0.9
v -1.5 2.5 0.9
v -1.4 2.5 0.9
v -1.1 2.5 0.9
v -1.1 2.5 0.8
v -0.7 2.5 0.8
v -0.7 2.5 0.6
v 0.8 2.5 0.6
v 1.3 2.5 0.6
v 1.6 2.5 0.6
v -1.5 2.5 -0.9
v -1.4 2.5 -0.9
v 0.8 2.5 -0.9
v 1.3 2.5 -0.9
v 1.6 2.5 -0.9
v -1.6 2.6 1
v -1 2.6 1
v -1.6 2.6 0.9
v -1.1 2.6 0.9
v -1 2.6 0.9
v -0.6 2.6 0.9
v -1.1 2.6 0.8
v -0.7 2.6 0.8
v -0.6 2.6 0.7
v 1.6 2.6 0.7
v -0.7 2.6 0.6
v 0.8 2.6 0.6
v 1 2.6 0.6
v 1.2 2.6 0.6
v 1.6 2.6 0.6
v -1.6 2.6 -0.9
v 0.8 2.6 -0.9
v 1 2.6 -0.9
v 1.2 2.6 -0.9
v 1.6 2.6 -0.9
v -1.6 2.6 -1
v 1.6 2.6 -1
v 1 2.7 0.6
v 1.2 2.7 0.6
v 1 2.7 -0.9
v 1.2 2.7 -0.9

# faces
f 3/3/1 2/3/1 1/3/1
f 4/3/1 2/3/1 3/3/1
f 5/3/1 3/3/1 1/3/1
f 6/3/1 2/3/1 4/3/1
f 7/3/1 5/3/1 1/3/1
f 7/3/1 6/3/1 5/3/1
f 8/3/1 2/3/1 6/3/1
f 8/3/1 6/3/1 7/3/1
f 9/3/1 7/3/1 1/3/1
f 10/3/1 7/3/1 9/3/1
f 11/3/1 2/3/1 8/3/1
f 12/3/1 2/3/1 11/3/1
f 15/3/1 14/3/1 13/3/1
f 16/3/1 14/3/1 15/3/1
f 19/1/1 18/1/1 17/1/1
f 20/1/1 18/1/1 19/1/1
f 23/1/1 22/1/1 21/1/1
f 24/1/1 22/1/1 23/1/1
f 27/3/1 26/3/1 25/3/1
f 28/3/1 26/3/1 27/3/1
f 31/3/1 30/3/1 29/3/1
f 32/3/1 30/3/1 31/3/1
f 35/3/1 34/3/1 33/3/1
f 36/3/1 34/3/1 35/3/1
f 39/3/1 38/3/1 37/3/1
f 40/3/1 38/3/1 39/3/1
f 43/3/1 42/3/1 41/3/1
f 44/3/1 42/3/1 43/3/1
f 47/3/1 46/3/1 45/3/1
f 48/3/1 46/3/1 47/3/1
f 52/3/1 50/3/1 49/3/1
f 52/3/1 51/3/1 50/3/1
f 53/3/1 51/3/1 52/3/1
f 56/3/1 55/3/1 54/3/1
f 57/3/1 55/3/1 56/3/1
f 58/3/2 59/3/2 60/3/2
f 60/3/2 59/3/2 61/3/2
f 62/3/2 63/3/2 64/3/2
f 64/3/2 63/3/2 65/3/2
f 66/3/2 67/3/2 68/3/2
f 68/3/2 67/3/2 69/3/2
f 70/3/2 71/3/2 72/3/2
f 72/3/2 71/3/2 73/3/2
f 74/3/2 75/3/2 76/3/2
f 74/3/2 76/3/2 78/3/2
f 76/3/2 77/3/2 78/3/2
f 78/3/2 77/3/2 79/3/2
f 80/3/2 81/3/2 83/3/2
f 81/3/2 82/3/2 83/3/2
f 83/3/2 82/3/2 84/3/2
f 85/3/2 86/3/2 87/3/2
f 87/3/2 86/3/2 88/3/2
f 87/3/2 88/3/2 89/3/2
f 89/3/2 88/3/2 90/3/2
f 91/3/2 92/3/2 93/3/2
f 93/3/2 92/3/2 94/3/2
f 95/1/2 96/1/2 97/1/2
f 97/1/2 96/1/2 98/1/2
f 99/3/2 100/3/2 101/3/2
f 101/3/2 100/3/2 102/3/2
f 99/3/2 101/3/2 103/3/2
f 101/1/2 102/1/2 103/1/2
f 102/3/2 100/3/2 104/3/2
f 103/1/2 102/1/2 104/1/2
f 99/3/2 103/3/2 105/3/2
f 103/3/2 104/3/2 105/3/2
f 105/3/2 104/3/2 106/3/2
f 106/3/2 104/3/2 107/3/2
f 107/3/2 104/3/2 108/3/2
f 106/3/2 107/3/2 109/3/2
f 108/3/2 104/3/2 110/3/2
f 106/3/2 109/3/2 111/3/2
f 109/3/2 110/3/2 111/3/2
f 111/3/2 110/3/2 112/3/2
f 112/3/2 110/3/2 113/3/2
f 113/3/2 110/3/2 114/3/2
f 114/3/2 110/3/2 115/3/2
f 104/3/2 100/3/2 116/3/2
f 115/3/2 110/3/2 116/3/2
f 110/3/2 104/3/2 116/3/2
f 114/3/2 115/3/2 117/3/2
f 117/3/2 115/3/2 118/3/2
f 116/3/2 100/3/2 119/3/2
f 119/3/2 100/3/2 120/3/2
f 123/3/3 122/3/3 121/3/3
f 124/3/3 122/3/3 123/3/3
f 125/3/3 123/3/3 121/3/3
f 126/3/3 123/3/3 125/3/3
f 127/3/3 125/3/3 121/3/3
f 128/3/3 123/3/3 126/3/3
f 129/3/3 127/3/3 121/3/3
f 129/3/3 128/3/3 127/3/3
f 130/3/3 128/3/3 129/3/3
f 131/3/3 129/3/3 121/3/3
f 131/1/3 130/1/3 129/1/3
f 132/3/3 128/3/3 130/3/3
f 132/1/3 130/1/3 131/1/3
f 133/3/3 131/3/3 121/3/3
f 133/3/3 132/3/3 131/3/3
f 134/3/3 123/3/3 128/3/3
f 134/3/3 132/3/3 133/3/3
f 134/3/3 128/3/3 132/3/3
f 139/3/3 136/3/3 135/3/3
f 140/3/3 136/3/3 139/3/3
f 141/3/3 138/3/3 137/3/3
f 142/3/3 138/3/3 141/3/3
f 145/3/3 141/3/3 137/3/3
f 145/2/3 142/2/3 141/2/3
f 146/3/3 138/3/3 142/3/3
f 146/2/3 142/2/3 145/2/3
f 147/3/3 145/3/3 137/3/3
f 147/3/3 146/3/3 145/3/3
f 148/3/3 146/3/3 147/3/3
f 149/3/3 146/3/3 148/3/3
f 150/3/3 138/3/3 146/3/3
f 150/3/3 146/3/3 149/3/3
f 151/3/3 139/3/3 135/3/3
f 152/3/3 136/3/3 140/3/3
f 153/3/3 144/3/3 143/3/3
f 154/3/3 144/3/3 153/3/3
f 155/3/3 151/3/3 135/3/3
f 155/3/3 152/3/3 151/3/3
f 156/3/3 136/3/3 152/3/3
f 156/3/3 152/3/3 155/3/3
f 158/3/3 149/3/3 148/3/3
f 159/3/3 158/3/3 157/3/3
f 160/3/3 149/3/3 158/3/3
f 160/3/3 158/3/3 159/3/3
f 167/3/3 166/3/3 165/3/3
f 168/3/3 166/3/3 167/3/3
f 169/3/3 162/3/3 161/3/3
f 170/3/3 162/3/3 169/3/3
f 171/1/3 164/1/3 163/1/3
f 172/1/3 164/1/3 171/1/3
f 173/2/3 168/2/3 167/2/3
f 174/2/3 168/2/3 173/2/3
f 175/3/3 174/3/3 173/3/3
f 176/3/3 174/3/3 175/3/3
f 179/3/3 178/3/3 177/3/3
f 180/3/3 178/3/3 179/3/3
f 181/2/3 180/2/3 179/2/3
f 182/3/3 178/3/3 180/3/3
f 182/2/3 180/2/3 181/2/3
f 183/3/3 182/3/3 181/3/3
f 184/3/3 178/3/3 182/3/3
f 184/3/3 182/3/3 183/3/3
f 187/3/3 186/3/3 185/3/3
f 188/3/3 186/3/3 187/3/3
f 191/3/3 190/3/3 189/3/3
f 192/3/3 190/3/3 191/3/3
f 195/3/3 194/3/3 193/3/3
f 196/3/3 194/3/3 195/3/3
f 199/3/3 198/3/3 197/3/3
f 200/3/3 198/3/3 199/3/3
f 201/3/3 198/3/3 200/3/3
f 202/3/3 198/3/3 201/3/3
f 203/3/3 198/3/3 202/3/3
f 206/3/3 205/3/3 204/3/3
f 208/3/3 206/3/3 204/3/3
f 208/3/3 207/3/3 206/3/3
f 209/3/3 207/3/3 208/3/3
f 210/3/3 207/3/3 209/3/3
f 211/3/3 207/3/3 210/3/3
f 212/3/4 213/3/4 214/3/4
f 214/3/4 213/3/4 215/3/4
f 215/3/4 213/3/4 216/3/4
f 216/3/4 213/3/4 217/3/4
f 217/3/4 213/3/4 218/3/4
f 219/3/4 220/3/4 221/3/4
f 221/3/4 220/3/4 222/3/4
f 223/3/4 224/3/4 225/3/4
f 225/3/4 224/3/4 226/3/4
f 227/3/4 228/3/4 229/3/4
f 229/3/4 228/3/4 230/3/4
f 231/3/4 232/3/4 233/3/4
f 233/3/4 232/3/4 234/3/4
f 235/2/4 236/2/4 237/2/4
f 235/2/4 237/2/4 239/2/4
f 237/3/4 238/3/4 240/3/4
f 239/2/4 237/2/4 240/2/4
f 240/3/4 238/3/4 241/3/4
f 241/3/4 238/3/4 242/3/4
f 245/3/4 246/3/4 247/3/4
f 247/3/4 246/3/4 248/3/4
f 243/3/4 244/3/4 249/3/4
f 249/3/4 244/3/4 250/3/4
f 251/3/4 252/3/4 253/3/4
f 253/3/4 252/3/4 254/3/4
f 257/3/5 256/3/5 255/3/5
f 258/3/5 256/3/5 257/3/5
f 261/3/5 260/3/5 259/3/5
f 262/3/5 260/3/5 261/3/5
f 265/3/5 264/3/5 263/3/5
f 266/3/5 264/3/5 265/3/5
f 267/3/5 265/3/5 263/3/5
f 268/3/5 264/3/5 266/3/5
f 269/3/5 267/3/5 263/3/5
f 269/3/5 268/3/5 267/3/5
f 270/3/5 264/3/5 268/3/5
f 270/3/5 268/3/5 269/3/5
f 273/3/5 272/3/5 271/3/5
f 274/3/5 272/3/5 273/3/5
f 277/3/5 276/3/5 275/3/5
f 278/3/5 276/3/5 277/3/5
f 281/3/5 280/3/5 279/3/5
f 282/3/5 280/3/5 281/3/5
f 284/3/5 283/3/5 282/3/5
f 285/3/5 283/3/5 284/3/5
f 288/3/5 287/3/5 286/3/5
f 289/3/5 287/3/5 288/3/5
f 290/3/6 291/3/6 292/3/6
f 292/3/6 291/3/6 293/3/6
f 294/3/6 295/3/6 296/3/6
f 296/3/6 295/3/6 297/3/6
f 298/3/6 299/3/6 300/3/6
f 300/3/6 299/3/6 301/3/6
f 302/3/6 303/3/6 304/3/6
f 304/3/6 303/3/6 305/3/6
f 305/3/6 303/3/6 306/3/6
f 306/3/6 303/3/6 307/3/6
f 305/3/6 306/3/6 308/3/6
f 308/3/6 306/3/6 309/3/6
f 310/3/6 311/3/6 312/3/6
f 312/3/6 311/3/6 313/3/6
f 314/3/6 315/3/6 316/3/6
f 316/3/6 315/3/6 317/3/6
f 317/3/6 315/3/6 318/3/6
f 318/3/6 315/3/6 319/3/6
f 322/3/6 323/3/6 326/3/6
f 323/2/6 324/2/6 327/2/6
f 326/3/6 323/3/6 327/3/6
f 324/3/6 325/3/6 328/3/6
f 327/2/6 324/2/6 328/2/6
f 328/3/6 325/3/6 329/3/6
f 330/3/6 331/3/6 332/3/6
f 332/3/6 331/3/6 333/3/6
f 320/3/6 321/3/6 334/3/6
f 334/3/6 321/3/6 335/3/6
f 332/1/6 333/1/6 336/1/6
f 336/1/6 333/1/6 337/1/6
f 339/3/6 340/3/6 341/3/6
f 341/3/6 342/3/6 343/3/6
f 338/1/6 339/1/6 347/1/6
f 339/3/6 341/3/6 348/3/6
f 347/1/6 339/1/6 348/1/6
f 341/3/6 343/3/6 348/3/6
f 343/3/6 344/3/6 348/3/6
f 348/3/6 344/3/6 349/3/6
f 345/3/6 346/3/6 350/3/6
f 350/3/6 346/3/6 351/3/6
f 352/3/6 353/3/6 354/3/6
f 354/3/6 353/3/6 355/3/6
f 355/3/6 353/3/6 356/3/6
f 356/3/6 357/3/6 358/3/6
f 355/3/6 356/3/6 358/3/6
f 358/3/6 357/3/6 359/3/6
f 359/3/6 357/3/6 360/3/6
f 359/3/6 360/3/6 362/3/6
f 360/3/6 361/3/6 362/3/6
f 362/3/6 361/3/6 363/3/6
f 363/3/6 361/3/6 364/3/6
f 364/3/6 361/3/6 365/3/6
f 365/3/6 361/3/6 366/3/6
f 363/3/6 364/3/6 368/3/6
f 368/3/6 364/3/6 369/3/6
f 367/3/6 368/3/6 372/3/6
f 370/3/6 371/3/6 372/3/6
f 369/3/6 370/3/6 372/3/6
f 368/3/6 369/3/6 372/3/6
f 372/3/6 371/3/6 373/3/6
f 374/3/6 375/3/6 376/3/6
f 376/3/6 375/3/6 377/3/6
