# MagicaVoxel @ Ephtracy

# group
o 

# material
mtllib SodaAvtomat.mtl
usemtl palette

# normals
vn -1 0 0
vn 1 0 0
vn 0 0 1
vn 0 0 -1
vn 0 -1 0
vn 0 1 0

# texcoords
vt 0.345703 0.5
vt 0.373047 0.5
vt 0.759766 0.5
vt 0.916016 0.5

# verts
v -2 0 0
v -2 0 -0.5
v -2 0 -2
v -2 3.8 0
v -2 3.8 -0.5
v -2 3.8 -2
v -0.7 0.5 0
v -0.7 0.5 -0.1
v -0.7 0.5 -0.2
v -0.7 0.7 0
v -0.7 0.7 -0.1
v -0.7 0.7 -0.2
v -1.4 0.5 0
v -1.4 0.5 -0.1
v -1.4 0.5 -0.2
v -1.4 0.7 0
v -1.4 0.7 -0.1
v -1.4 0.7 -0.2
v 0.5 0 0
v 0.5 0 -0.5
v 0.5 0 -2
v 0.5 3.8 0
v 0.5 3.8 -0.5
v 0.5 3.8 -2
v -2 0 0
v -2 3.8 0
v -1.8 1 0
v -1.8 3.6 0
v -1.7 1.2 0
v -1.7 1.4 0
v -1.7 1.7 0
v -1.7 1.8 0
v -1.7 1.9 0
v -1.7 2 0
v -1.7 3 0
v -1.7 3.1 0
v -1.7 3.2 0
v -1.7 3.5 0
v -1.6 0.4 0
v -1.6 0.8 0
v -1.6 2.4 0
v -1.6 2.5 0
v -1.6 2.6 0
v -1.6 2.8 0
v -1.6 3.3 0
v -1.6 3.4 0
v -1.5 1.9 0
v -1.5 2 0
v -1.5 2.4 0
v -1.5 2.5 0
v -1.5 2.6 0
v -1.5 2.8 0
v -1.5 3.1 0
v -1.5 3.2 0
v -1.4 0.5 0
v -1.4 0.7 0
v -1.4 1.2 0
v -1.4 1.4 0
v -1.4 1.7 0
v -1.4 1.8 0
v -1.4 2.3 0
v -1.4 2.5 0
v -1.4 2.6 0
v -1.4 2.8 0
v -1.4 3 0
v -1.4 3.3 0
v -1.4 3.4 0
v -1.4 3.5 0
v -1.3 1.2 0
v -1.3 1.4 0
v -1.3 1.9 0
v -1.3 2 0
v -1.3 2.3 0
v -1.3 2.5 0
v -1.3 2.6 0
v -1.3 2.8 0
v -1.3 3 0
v -1.3 3.5 0
v -1.2 1.2 0
v -1.2 1.4 0
v -1.2 1.7 0
v -1.2 1.8 0
v -1.2 2.2 0
v -1.2 2.3 0
v -1.2 3.1 0
v -1.2 3.4 0
v -1.1 1.3 0
v -1.1 1.4 0
v -1.1 1.9 0
v -1.1 2 0
v -1.1 2.4 0
v -1.1 2.8 0
v -1.1 3.1 0
v -1.1 3.4 0
v -1 1.2 0
v -1 1.3 0
v -1 2.2 0
v -1 2.3 0
v -1 2.4 0
v -1 2.8 0
v -1 3 0
v -1 3.5 0
v -0.9 1.9 0
v -0.9 2 0
v -0.9 3 0
v -0.9 3.5 0
v -0.8 1.2 0
v -0.8 1.4 0
v -0.8 1.7 0
v -0.8 1.8 0
v -0.8 2.2 0
v -0.8 2.3 0
v -0.8 2.4 0
v -0.8 2.8 0
v -0.8 3.1 0
v -0.8 3.4 0
v -0.7 0.5 0
v -0.7 0.7 0
v -0.7 3 0
v -0.7 3.1 0
v -0.7 3.4 0
v -0.7 3.5 0
v -0.6 1.3 0
v -0.6 1.4 0
v -0.6 1.7 0
v -0.6 1.8 0
v -0.6 2.4 0
v -0.6 2.8 0
v -0.6 3.1 0
v -0.6 3.4 0
v -0.5 0.4 0
v -0.5 0.8 0
v -0.5 1.3 0
v -0.5 1.4 0
v -0.5 2.2 0
v -0.5 2.3 0
v -0.5 2.4 0
v -0.5 2.5 0
v -0.5 3 0
v -0.5 3.4 0
v -0.4 1.2 0
v -0.4 1.4 0
v -0.4 1.9 0
v -0.4 2 0
v -0.4 2.6 0
v -0.4 2.8 0
v -0.4 3 0
v -0.4 3.2 0
v -0.4 3.3 0
v -0.4 3.4 0
v -0.4 3.5 0
v -0.3 1.2 0
v -0.3 1.4 0
v -0.3 2.6 0
v -0.3 2.8 0
v -0.3 3 0
v -0.3 3.2 0
v -0.3 3.3 0
v -0.3 3.4 0
v -0.3 3.5 0
v -0.2 1.7 0
v -0.2 1.8 0
v -0.2 2.4 0
v -0.2 2.5 0
v -0.2 3 0
v -0.2 3.4 0
v -0.0999999 0.4 0
v -0.0999999 0.9 0
v -0.0999999 1 0
v -0.0999999 3.6 0
v 2.38419e-07 0.5 0
v 2.38419e-07 0.8 0
v 2.38419e-07 2.4 0
v 2.38419e-07 2.7 0
v 0.1 2.5 0
v 0.1 2.6 0
v 0.3 0.5 0
v 0.3 0.8 0
v 0.3 2.5 0
v 0.3 2.6 0
v 0.4 0.4 0
v 0.4 0.9 0
v 0.4 2.4 0
v 0.4 2.7 0
v 0.5 0 0
v 0.5 3.8 0
v -1.4 0.5 -0.2
v -1.4 0.7 -0.2
v -0.7 0.5 -0.2
v -0.7 0.7 -0.2
v -2 0 -2
v -2 3.8 -2
v 0.5 0 -2
v 0.5 3.8 -2
v -2 0 0
v 0.5 0 0
v -2 0 -0.5
v 0.5 0 -0.5
v -2 0 -2
v 0.5 0 -2
v -1.4 0.7 0
v -0.7 0.7 0
v -1.4 0.7 -0.1
v -0.7 0.7 -0.1
v -1.4 0.7 -0.2
v -0.7 0.7 -0.2
v -1.4 0.5 0
v -0.7 0.5 0
v -1.4 0.5 -0.1
v -0.7 0.5 -0.1
v -1.4 0.5 -0.2
v -0.7 0.5 -0.2
v -2 3.8 0
v 0.5 3.8 0
v -2 3.8 -0.5
v 0.5 3.8 -0.5
v -2 3.8 -2
v 0.5 3.8 -2

# faces
f 4/2/1 2/2/1 1/2/1
f 5/4/1 3/4/1 2/4/1
f 5/2/1 2/2/1 4/2/1
f 6/4/1 3/4/1 5/4/1
f 10/4/1 8/4/1 7/4/1
f 11/1/1 9/1/1 8/1/1
f 11/4/1 8/4/1 10/4/1
f 12/1/1 9/1/1 11/1/1
f 13/4/2 14/4/2 16/4/2
f 14/1/2 15/1/2 17/1/2
f 16/4/2 14/4/2 17/4/2
f 17/1/2 15/1/2 18/1/2
f 19/2/2 20/2/2 22/2/2
f 20/4/2 21/4/2 23/4/2
f 22/2/2 20/2/2 23/2/2
f 23/4/2 21/4/2 24/4/2
f 27/2/3 26/2/3 25/2/3
f 28/2/3 26/2/3 27/2/3
f 29/3/3 28/3/3 27/3/3
f 30/3/3 28/3/3 29/3/3
f 31/3/3 28/3/3 30/3/3
f 32/3/3 28/3/3 31/3/3
f 33/3/3 28/3/3 32/3/3
f 34/3/3 28/3/3 33/3/3
f 35/3/3 28/3/3 34/3/3
f 36/3/3 28/3/3 35/3/3
f 37/3/3 28/3/3 36/3/3
f 38/3/3 28/3/3 37/3/3
f 39/2/3 27/2/3 25/2/3
f 40/2/3 27/2/3 39/2/3
f 41/3/3 35/3/3 34/3/3
f 42/3/3 35/3/3 41/3/3
f 43/3/3 35/3/3 42/3/3
f 44/3/3 35/3/3 43/3/3
f 45/2/3 38/2/3 37/2/3
f 46/2/3 38/2/3 45/2/3
f 47/3/3 33/3/3 32/3/3
f 47/1/3 34/1/3 33/1/3
f 48/3/3 41/3/3 34/3/3
f 48/1/3 34/1/3 47/1/3
f 49/1/3 42/1/3 41/1/3
f 49/3/3 41/3/3 48/3/3
f 50/3/3 43/3/3 42/3/3
f 50/1/3 42/1/3 49/1/3
f 51/1/3 44/1/3 43/1/3
f 51/3/3 43/3/3 50/3/3
f 52/3/3 35/3/3 44/3/3
f 52/1/3 44/1/3 51/1/3
f 53/2/3 36/2/3 35/2/3
f 53/3/3 37/3/3 36/3/3
f 54/2/3 45/2/3 37/2/3
f 54/3/3 37/3/3 53/3/3
f 55/4/3 40/4/3 39/4/3
f 56/4/3 40/4/3 55/4/3
f 57/3/3 29/3/3 27/3/3
f 57/1/3 30/1/3 29/1/3
f 58/3/3 31/3/3 30/3/3
f 58/1/3 30/1/3 57/1/3
f 59/1/3 32/1/3 31/1/3
f 59/3/3 31/3/3 58/3/3
f 60/3/3 52/3/3 51/3/3
f 60/1/3 32/1/3 59/1/3
f 60/3/3 51/3/3 50/3/3
f 60/3/3 47/3/3 32/3/3
f 60/3/3 48/3/3 47/3/3
f 60/3/3 49/3/3 48/3/3
f 60/3/3 50/3/3 49/3/3
f 61/3/3 52/3/3 60/3/3
f 62/3/3 52/3/3 61/3/3
f 63/3/3 52/3/3 62/3/3
f 64/3/3 35/3/3 52/3/3
f 64/3/3 52/3/3 63/3/3
f 65/2/3 54/2/3 53/2/3
f 65/3/3 35/3/3 64/3/3
f 65/2/3 53/2/3 35/2/3
f 66/3/3 46/3/3 45/3/3
f 66/2/3 54/2/3 65/2/3
f 66/2/3 45/2/3 54/2/3
f 67/2/3 38/2/3 46/2/3
f 67/3/3 46/3/3 66/3/3
f 68/3/3 28/3/3 38/3/3
f 68/2/3 38/2/3 67/2/3
f 69/3/3 57/3/3 27/3/3
f 69/3/3 58/3/3 57/3/3
f 69/3/3 60/3/3 59/3/3
f 69/3/3 59/3/3 58/3/3
f 69/3/3 61/3/3 60/3/3
f 70/3/3 61/3/3 69/3/3
f 71/3/3 61/3/3 70/3/3
f 72/3/3 61/3/3 71/3/3
f 73/1/3 62/1/3 61/1/3
f 73/3/3 61/3/3 72/3/3
f 74/3/3 63/3/3 62/3/3
f 74/1/3 62/1/3 73/1/3
f 75/1/3 64/1/3 63/1/3
f 75/3/3 63/3/3 74/3/3
f 76/3/3 67/3/3 66/3/3
f 76/1/3 64/1/3 75/1/3
f 76/3/3 68/3/3 67/3/3
f 76/3/3 66/3/3 65/3/3
f 76/3/3 65/3/3 64/3/3
f 77/3/3 68/3/3 76/3/3
f 78/3/3 28/3/3 68/3/3
f 78/3/3 68/3/3 77/3/3
f 79/1/3 70/1/3 69/1/3
f 79/3/3 69/3/3 27/3/3
f 80/3/3 71/3/3 70/3/3
f 80/1/3 70/1/3 79/1/3
f 81/3/3 71/3/3 80/3/3
f 82/3/3 71/3/3 81/3/3
f 83/3/3 75/3/3 74/3/3
f 83/3/3 77/3/3 76/3/3
f 83/3/3 73/3/3 72/3/3
f 83/3/3 74/3/3 73/3/3
f 83/3/3 76/3/3 75/3/3
f 84/3/3 77/3/3 83/3/3
f 85/2/3 78/2/3 77/2/3
f 86/2/3 78/2/3 85/2/3
f 87/3/3 81/3/3 80/3/3
f 87/3/3 80/3/3 79/3/3
f 88/3/3 81/3/3 87/3/3
f 89/3/3 71/3/3 82/3/3
f 89/1/3 72/1/3 71/1/3
f 90/3/3 83/3/3 72/3/3
f 90/1/3 72/1/3 89/1/3
f 91/3/3 77/3/3 84/3/3
f 92/3/3 77/3/3 91/3/3
f 93/3/3 86/3/3 85/3/3
f 93/2/3 85/2/3 77/2/3
f 94/2/3 78/2/3 86/2/3
f 94/3/3 86/3/3 93/3/3
f 95/3/3 79/3/3 27/3/3
f 95/3/3 87/3/3 79/3/3
f 96/1/3 88/1/3 87/1/3
f 96/3/3 87/3/3 95/3/3
f 97/3/3 83/3/3 90/3/3
f 97/1/3 84/1/3 83/1/3
f 97/3/3 90/3/3 89/3/3
f 98/3/3 91/3/3 84/3/3
f 98/1/3 84/1/3 97/1/3
f 99/1/3 92/1/3 91/1/3
f 99/3/3 91/3/3 98/3/3
f 100/3/3 77/3/3 92/3/3
f 100/1/3 92/1/3 99/1/3
f 101/2/3 93/2/3 77/2/3
f 101/3/3 77/3/3 100/3/3
f 101/2/3 94/2/3 93/2/3
f 102/2/3 78/2/3 94/2/3
f 102/2/3 94/2/3 101/2/3
f 102/3/3 28/3/3 78/3/3
f 103/3/3 101/3/3 100/3/3
f 103/3/3 97/3/3 89/3/3
f 103/3/3 102/3/3 101/3/3
f 103/3/3 98/3/3 97/3/3
f 103/3/3 100/3/3 99/3/3
f 103/3/3 89/3/3 82/3/3
f 103/3/3 99/3/3 98/3/3
f 104/3/3 102/3/3 103/3/3
f 105/3/3 102/3/3 104/3/3
f 106/3/3 28/3/3 102/3/3
f 106/3/3 102/3/3 105/3/3
f 107/3/3 95/3/3 27/3/3
f 107/1/3 96/1/3 95/1/3
f 108/3/3 81/3/3 88/3/3
f 108/1/3 96/1/3 107/1/3
f 108/1/3 88/1/3 96/1/3
f 109/1/3 82/1/3 81/1/3
f 109/3/3 81/3/3 108/3/3
f 110/3/3 103/3/3 82/3/3
f 110/1/3 82/1/3 109/1/3
f 111/3/3 105/3/3 104/3/3
f 112/3/3 105/3/3 111/3/3
f 113/3/3 105/3/3 112/3/3
f 114/3/3 105/3/3 113/3/3
f 115/2/3 106/2/3 105/2/3
f 116/2/3 106/2/3 115/2/3
f 117/4/3 55/4/3 39/4/3
f 118/4/3 40/4/3 56/4/3
f 119/3/3 105/3/3 114/3/3
f 119/2/3 115/2/3 105/2/3
f 120/3/3 116/3/3 115/3/3
f 120/2/3 115/2/3 119/2/3
f 121/2/3 106/2/3 116/2/3
f 121/3/3 116/3/3 120/3/3
f 122/3/3 28/3/3 106/3/3
f 122/2/3 106/2/3 121/2/3
f 123/3/3 108/3/3 107/3/3
f 123/3/3 109/3/3 108/3/3
f 123/3/3 110/3/3 109/3/3
f 124/3/3 110/3/3 123/3/3
f 125/3/3 110/3/3 124/3/3
f 126/3/3 103/3/3 110/3/3
f 126/3/3 110/3/3 125/3/3
f 127/3/3 113/3/3 112/3/3
f 127/1/3 114/1/3 113/1/3
f 128/3/3 120/3/3 119/3/3
f 128/1/3 114/1/3 127/1/3
f 128/3/3 119/3/3 114/3/3
f 129/2/3 121/2/3 120/2/3
f 129/3/3 120/3/3 128/3/3
f 130/3/3 122/3/3 121/3/3
f 130/2/3 121/2/3 129/2/3
f 131/4/3 117/4/3 39/4/3
f 131/4/3 118/4/3 117/4/3
f 131/2/3 39/2/3 25/2/3
f 132/2/3 27/2/3 40/2/3
f 132/4/3 118/4/3 131/4/3
f 132/4/3 40/4/3 118/4/3
f 133/3/3 123/3/3 107/3/3
f 133/1/3 124/1/3 123/1/3
f 134/3/3 125/3/3 124/3/3
f 134/1/3 124/1/3 133/1/3
f 135/3/3 111/3/3 104/3/3
f 135/1/3 112/1/3 111/1/3
f 136/3/3 128/3/3 127/3/3
f 136/1/3 112/1/3 135/1/3
f 136/3/3 130/3/3 129/3/3
f 136/3/3 127/3/3 112/3/3
f 136/3/3 129/3/3 128/3/3
f 137/3/3 130/3/3 136/3/3
f 138/3/3 130/3/3 137/3/3
f 139/3/3 130/3/3 138/3/3
f 140/3/3 122/3/3 130/3/3
f 140/3/3 130/3/3 139/3/3
f 141/3/3 107/3/3 27/3/3
f 141/3/3 133/3/3 107/3/3
f 141/3/3 134/3/3 133/3/3
f 142/3/3 125/3/3 134/3/3
f 142/3/3 134/3/3 141/3/3
f 143/1/3 104/1/3 103/1/3
f 143/3/3 103/3/3 126/3/3
f 144/3/3 135/3/3 104/3/3
f 144/1/3 104/1/3 143/1/3
f 144/3/3 136/3/3 135/3/3
f 144/3/3 137/3/3 136/3/3
f 145/3/3 139/3/3 138/3/3
f 146/3/3 139/3/3 145/3/3
f 147/2/3 140/2/3 139/2/3
f 147/3/3 139/3/3 146/3/3
f 148/2/3 140/2/3 147/2/3
f 149/2/3 140/2/3 148/2/3
f 150/3/3 122/3/3 140/3/3
f 150/2/3 140/2/3 149/2/3
f 151/3/3 28/3/3 122/3/3
f 151/3/3 122/3/3 150/3/3
f 152/1/3 142/1/3 141/1/3
f 152/3/3 141/3/3 27/3/3
f 153/3/3 125/3/3 142/3/3
f 153/1/3 142/1/3 152/1/3
f 154/1/3 146/1/3 145/1/3
f 154/3/3 145/3/3 138/3/3
f 155/3/3 147/3/3 146/3/3
f 155/1/3 146/1/3 154/1/3
f 155/3/3 148/3/3 147/3/3
f 156/3/3 148/3/3 155/3/3
f 157/2/3 149/2/3 148/2/3
f 157/3/3 148/3/3 156/3/3
f 158/3/3 150/3/3 149/3/3
f 158/2/3 149/2/3 157/2/3
f 159/2/3 151/2/3 150/2/3
f 159/3/3 150/3/3 158/3/3
f 160/3/3 28/3/3 151/3/3
f 160/2/3 151/2/3 159/2/3
f 161/3/3 125/3/3 153/3/3
f 161/1/3 126/1/3 125/1/3
f 161/3/3 153/3/3 152/3/3
f 162/3/3 143/3/3 126/3/3
f 162/1/3 126/1/3 161/1/3
f 162/3/3 144/3/3 143/3/3
f 163/3/3 137/3/3 144/3/3
f 163/3/3 144/3/3 162/3/3
f 163/1/3 138/1/3 137/1/3
f 164/3/3 156/3/3 155/3/3
f 164/1/3 138/1/3 163/1/3
f 164/3/3 155/3/3 154/3/3
f 164/3/3 154/3/3 138/3/3
f 165/2/3 157/2/3 156/2/3
f 165/3/3 156/3/3 164/3/3
f 165/2/3 159/2/3 158/2/3
f 165/2/3 158/2/3 157/2/3
f 166/3/3 160/3/3 159/3/3
f 166/2/3 159/2/3 165/2/3
f 167/2/3 132/2/3 131/2/3
f 167/2/3 131/2/3 25/2/3
f 168/2/3 27/2/3 132/2/3
f 168/2/3 132/2/3 167/2/3
f 169/3/3 163/3/3 162/3/3
f 169/2/3 27/2/3 168/2/3
f 169/3/3 162/3/3 161/3/3
f 169/3/3 164/3/3 163/3/3
f 169/3/3 165/3/3 164/3/3
f 169/3/3 161/3/3 152/3/3
f 169/3/3 166/3/3 165/3/3
f 169/3/3 152/3/3 27/3/3
f 170/2/3 26/2/3 28/2/3
f 170/3/3 166/3/3 169/3/3
f 170/3/3 28/3/3 160/3/3
f 170/3/3 160/3/3 166/3/3
f 171/4/3 168/4/3 167/4/3
f 172/4/3 168/4/3 171/4/3
f 173/2/3 169/2/3 168/2/3
f 173/2/3 170/2/3 169/2/3
f 174/2/3 170/2/3 173/2/3
f 175/4/3 174/4/3 173/4/3
f 176/4/3 174/4/3 175/4/3
f 177/1/3 172/1/3 171/1/3
f 177/4/3 171/4/3 167/4/3
f 178/4/3 168/4/3 172/4/3
f 178/1/3 172/1/3 177/1/3
f 179/1/3 176/1/3 175/1/3
f 179/4/3 175/4/3 173/4/3
f 180/4/3 174/4/3 176/4/3
f 180/1/3 176/1/3 179/1/3
f 181/4/3 177/4/3 167/4/3
f 181/2/3 167/2/3 25/2/3
f 181/4/3 178/4/3 177/4/3
f 182/4/3 168/4/3 178/4/3
f 182/4/3 178/4/3 181/4/3
f 182/2/3 173/2/3 168/2/3
f 183/4/3 180/4/3 179/4/3
f 183/2/3 173/2/3 182/2/3
f 183/4/3 179/4/3 173/4/3
f 184/4/3 174/4/3 180/4/3
f 184/4/3 180/4/3 183/4/3
f 184/2/3 170/2/3 174/2/3
f 185/2/3 183/2/3 182/2/3
f 185/2/3 182/2/3 181/2/3
f 185/2/3 184/2/3 183/2/3
f 185/2/3 181/2/3 25/2/3
f 186/2/3 26/2/3 170/2/3
f 186/2/3 184/2/3 185/2/3
f 186/2/3 170/2/3 184/2/3
f 189/1/3 188/1/3 187/1/3
f 190/1/3 188/1/3 189/1/3
f 191/4/4 192/4/4 193/4/4
f 193/4/4 192/4/4 194/4/4
f 197/2/5 196/2/5 195/2/5
f 198/2/5 196/2/5 197/2/5
f 199/4/5 198/4/5 197/4/5
f 200/4/5 198/4/5 199/4/5
f 203/4/5 202/4/5 201/4/5
f 204/4/5 202/4/5 203/4/5
f 205/1/5 204/1/5 203/1/5
f 206/1/5 204/1/5 205/1/5
f 207/4/6 208/4/6 209/4/6
f 209/4/6 208/4/6 210/4/6
f 209/1/6 210/1/6 211/1/6
f 211/1/6 210/1/6 212/1/6
f 213/2/6 214/2/6 215/2/6
f 215/2/6 214/2/6 216/2/6
f 215/4/6 216/4/6 217/4/6
f 217/4/6 216/4/6 218/4/6
