# MagicaVoxel @ Ephtracy

# group
o 

# material
mtllib System unit.mtl
usemtl palette

# normals
vn -1 0 0
vn 1 0 0
vn 0 0 1
vn 0 0 -1
vn 0 -1 0
vn 0 1 0

# texcoords
vt 0.908203 0.5
vt 0.912109 0.5

# verts
v -0.7 0 0.3
v -0.7 0 -0.4
v -0.7 0.1 0.2
v -0.7 0.1 -0.3
v -0.7 0.3 0.2
v -0.7 0.3 -0.3
v -0.7 0.4 0.2
v -0.7 0.4 -0.3
v -0.7 1.1 0.2
v -0.7 1.1 -0.3
v -0.7 1.2 0.3
v -0.7 1.2 -0.4
v 0.6 0 0.3
v 0.6 0 -0.4
v 0.6 0.1 0.2
v 0.6 0.1 -0.3
v 0.6 0.2 0
v 0.6 0.2 -0.1
v 0.6 0.3 0
v 0.6 0.3 -0.1
v 0.6 0.4 0.1
v 0.6 0.4 0
v 0.6 0.4 -0.1
v 0.6 0.4 -0.2
v 0.6 0.5 0.1
v 0.6 0.5 0
v 0.6 0.5 -0.1
v 0.6 0.5 -0.2
v 0.6 0.7 0.1
v 0.6 0.7 -0.2
v 0.6 0.8 0.1
v 0.6 0.8 -0.2
v 0.6 0.9 0.1
v 0.6 0.9 -0.2
v 0.6 1 0.1
v 0.6 1 -0.2
v 0.6 1.1 0.2
v 0.6 1.1 -0.3
v 0.6 1.2 0.3
v 0.6 1.2 -0.4
v -0.7 0 0.3
v -0.7 1.2 0.3
v 0.5 0 0.3
v 0.5 1.2 0.3
v 0.6 0 0.3
v 0.6 1.2 0.3
v -0.7 0 -0.4
v -0.7 1.2 -0.4
v -0.6 0.7 -0.4
v -0.6 1.1 -0.4
v -0.1 0.7 -0.4
v -0.1 1.1 -0.4
v 0.5 0 -0.4
v 0.5 1.2 -0.4
v 0.6 0 -0.4
v 0.6 1.2 -0.4
v -0.7 0 0.3
v 0.5 0 0.3
v 0.6 0 0.3
v -0.7 0 -0.4
v 0.5 0 -0.4
v 0.6 0 -0.4
v -0.7 1.2 0.3
v 0.5 1.2 0.3
v 0.6 1.2 0.3
v -0.6 1.2 0.2
v 0 1.2 0.2
v -0.6 1.2 -0.3
v 0 1.2 -0.3
v -0.7 1.2 -0.4
v 0.5 1.2 -0.4
v 0.6 1.2 -0.4

# faces
f 3/2/1 2/2/1 1/2/1
f 4/2/1 2/2/1 3/2/1
f 5/2/1 3/2/1 1/2/1
f 5/1/1 4/1/1 3/1/1
f 6/2/1 2/2/1 4/2/1
f 6/1/1 4/1/1 5/1/1
f 7/2/1 5/2/1 1/2/1
f 7/2/1 6/2/1 5/2/1
f 8/2/1 2/2/1 6/2/1
f 8/2/1 6/2/1 7/2/1
f 9/2/1 7/2/1 1/2/1
f 9/1/1 8/1/1 7/1/1
f 10/2/1 2/2/1 8/2/1
f 10/1/1 8/1/1 9/1/1
f 11/2/1 9/2/1 1/2/1
f 11/2/1 10/2/1 9/2/1
f 12/2/1 2/2/1 10/2/1
f 12/2/1 10/2/1 11/2/1
f 13/1/2 14/1/2 15/1/2
f 15/1/2 14/1/2 16/1/2
f 15/2/2 16/2/2 17/2/2
f 17/2/2 16/2/2 18/2/2
f 15/2/2 17/2/2 19/2/2
f 17/1/2 18/1/2 19/1/2
f 18/2/2 16/2/2 20/2/2
f 19/1/2 18/1/2 20/1/2
f 15/2/2 19/2/2 21/2/2
f 19/2/2 20/2/2 21/2/2
f 21/2/2 20/2/2 22/2/2
f 20/2/2 16/2/2 23/2/2
f 22/2/2 20/2/2 23/2/2
f 23/2/2 16/2/2 24/2/2
f 21/1/2 22/1/2 25/1/2
f 15/2/2 21/2/2 25/2/2
f 22/2/2 23/2/2 26/2/2
f 25/1/2 22/1/2 26/1/2
f 23/1/2 24/1/2 27/1/2
f 26/2/2 23/2/2 27/2/2
f 24/2/2 16/2/2 28/2/2
f 27/1/2 24/1/2 28/1/2
f 26/2/2 27/2/2 29/2/2
f 25/2/2 26/2/2 29/2/2
f 27/2/2 28/2/2 29/2/2
f 15/2/2 25/2/2 29/2/2
f 28/2/2 16/2/2 30/2/2
f 29/2/2 28/2/2 30/2/2
f 15/2/2 29/2/2 31/2/2
f 29/1/2 30/1/2 31/1/2
f 30/2/2 16/2/2 32/2/2
f 31/1/2 30/1/2 32/1/2
f 15/2/2 31/2/2 33/2/2
f 31/2/2 32/2/2 33/2/2
f 32/2/2 16/2/2 34/2/2
f 33/2/2 32/2/2 34/2/2
f 15/2/2 33/2/2 35/2/2
f 33/1/2 34/1/2 35/1/2
f 34/2/2 16/2/2 36/2/2
f 35/1/2 34/1/2 36/1/2
f 13/1/2 15/1/2 37/1/2
f 15/2/2 35/2/2 37/2/2
f 35/2/2 36/2/2 37/2/2
f 36/2/2 16/2/2 38/2/2
f 37/2/2 36/2/2 38/2/2
f 16/1/2 14/1/2 38/1/2
f 13/1/2 37/1/2 39/1/2
f 37/1/2 38/1/2 39/1/2
f 38/1/2 14/1/2 40/1/2
f 39/1/2 38/1/2 40/1/2
f 43/2/3 42/2/3 41/2/3
f 44/2/3 42/2/3 43/2/3
f 45/1/3 44/1/3 43/1/3
f 46/1/3 44/1/3 45/1/3
f 47/2/4 48/2/4 49/2/4
f 49/2/4 48/2/4 50/2/4
f 47/2/4 49/2/4 51/2/4
f 49/1/4 50/1/4 51/1/4
f 50/2/4 48/2/4 52/2/4
f 51/1/4 50/1/4 52/1/4
f 47/2/4 51/2/4 53/2/4
f 51/2/4 52/2/4 53/2/4
f 52/2/4 48/2/4 54/2/4
f 53/2/4 52/2/4 54/2/4
f 53/1/4 54/1/4 55/1/4
f 55/1/4 54/1/4 56/1/4
f 60/2/5 58/2/5 57/2/5
f 61/1/5 59/1/5 58/1/5
f 61/2/5 58/2/5 60/2/5
f 62/1/5 59/1/5 61/1/5
f 63/2/6 64/2/6 66/2/6
f 66/2/6 64/2/6 67/2/6
f 63/2/6 66/2/6 68/2/6
f 66/1/6 67/1/6 68/1/6
f 67/2/6 64/2/6 69/2/6
f 68/1/6 67/1/6 69/1/6
f 63/2/6 68/2/6 70/2/6
f 68/2/6 69/2/6 70/2/6
f 64/1/6 65/1/6 71/1/6
f 70/2/6 69/2/6 71/2/6
f 69/2/6 64/2/6 71/2/6
f 71/1/6 65/1/6 72/1/6
