# MagicaVoxel @ Ephtracy

# group
o 

# material
mtllib walltable.mtl
usemtl palette

# normals
vn -1 0 0
vn 1 0 0
vn 0 0 1
vn 0 0 -1
vn 0 -1 0
vn 0 1 0

# texcoords
vt 0.357422 0.5
vt 0.630859 0.5
vt 0.759766 0.5
vt 0.845703 0.5
vt 0.853516 0.5
vt 0.857422 0.5
vt 0.861328 0.5
vt 0.962891 0.5

# verts
v -3 0 0.2
v -3 0 -0.1
v -3 4 0.2
v -3 4 -0.1
v 3 0 0.2
v 3 0 -0.1
v 3 4 0.2
v 3 4 -0.1
v -3 0 0.2
v -3 4 0.2
v -2.8 0.2 0.2
v -2.8 1.9 0.2
v -2.8 2.1 0.2
v -2.8 3.8 0.2
v -2.7 0.6 0.2
v -2.7 0.7 0.2
v -2.7 0.8 0.2
v -2.7 0.9 0.2
v -2.7 1 0.2
v -2.7 1.1 0.2
v -2.7 1.2 0.2
v -2.7 1.3 0.2
v -2.7 1.4 0.2
v -2.7 1.5 0.2
v -2.7 1.6 0.2
v -2.7 1.7 0.2
v -2.7 2.6 0.2
v -2.7 2.7 0.2
v -2.7 2.8 0.2
v -2.7 2.9 0.2
v -2.7 3 0.2
v -2.7 3.1 0.2
v -2.7 3.3 0.2
v -2.7 3.4 0.2
v -2.7 3.5 0.2
v -2.7 3.6 0.2
v -2.2 0.8 0.2
v -2.2 0.9 0.2
v -2 1 0.2
v -2 1.1 0.2
v -1.9 1.4 0.2
v -1.9 1.5 0.2
v -1.8 2.6 0.2
v -1.8 2.7 0.2
v -1.7 1.2 0.2
v -1.7 1.3 0.2
v -1.7 1.6 0.2
v -1.7 1.7 0.2
v -1.7 2.8 0.2
v -1.7 2.9 0.2
v -1.7 3 0.2
v -1.7 3.1 0.2
v -1.7 3.3 0.2
v -1.7 3.4 0.2
v -1.7 3.5 0.2
v -1.7 3.6 0.2
v -1.6 0.6 0.2
v -1.6 0.7 0.2
v -1.5 0.2 0.2
v -1.5 1.9 0.2
v -1.5 2.1 0.2
v -1.5 3.8 0.2
v -1.2 0.2 0.2
v -1.2 3.8 0.2
v -1.1 0.3 0.2
v -1.1 0.6 0.2
v -1.1 0.9 0.2
v -1.1 1 0.2
v -1.1 1.1 0.2
v -1.1 1.2 0.2
v -1.1 1.3 0.2
v -1.1 1.4 0.2
v -1.1 1.5 0.2
v -1.1 1.6 0.2
v -1.1 1.9 0.2
v -1.1 2 0.2
v -1.1 2.1 0.2
v -1.1 2.2 0.2
v -1.1 2.3 0.2
v -1.1 2.4 0.2
v -1.1 2.5 0.2
v -1.1 3.7 0.2
v -1 0.7 0.2
v -1 0.8 0.2
v -1 1.7 0.2
v -1 1.8 0.2
v -0.3 0.9 0.2
v -0.3 1 0.2
v -0.3 2.3 0.2
v -0.3 2.4 0.2
v -0.2 1.5 0.2
v -0.2 1.6 0.2
v -0.2 1.9 0.2
v -0.2 2 0.2
v -0.0999999 0.7 0.2
v -0.0999999 0.8 0.2
v -0.0999999 1.1 0.2
v -0.0999999 1.2 0.2
v -0.0999999 1.7 0.2
v -0.0999999 1.8 0.2
v 2.38419e-007 0.3 0.2
v 2.38419e-007 0.6 0.2
v 0.1 1.3 0.2
v 0.1 1.4 0.2
v 0.1 2.1 0.2
v 0.1 2.2 0.2
v 0.1 2.5 0.2
v 0.1 3.7 0.2
v 0.2 0.2 0.2
v 0.2 3.8 0.2
v 0.5 0.2 0.2
v 0.5 2.2 0.2
v 0.5 2.5 0.2
v 0.5 3.6 0.2
v 0.6 0.7 0.2
v 0.6 1.1 0.2
v 0.6 1.4 0.2
v 0.6 1.5 0.2
v 0.6 2.8 0.2
v 0.6 2.9 0.2
v 0.6 3 0.2
v 0.6 3.1 0.2
v 0.6 3.2 0.2
v 0.6 3.3 0.2
v 0.6 3.4 0.2
v 0.6 3.5 0.2
v 0.7 1.2 0.2
v 0.7 1.3 0.2
v 0.7 1.6 0.2
v 0.7 2 0.2
v 0.8 0.4 0.2
v 0.8 0.5 0.2
v 1.1 0.7 0.2
v 1.1 1.1 0.2
v 1.1 1.6 0.2
v 1.1 2 0.2
v 1.2 2.8 0.2
v 1.2 2.9 0.2
v 1.2 3 0.2
v 1.2 3.1 0.2
v 1.2 3.2 0.2
v 1.2 3.3 0.2
v 1.2 3.4 0.2
v 1.2 3.5 0.2
v 1.3 2.5 0.2
v 1.3 3.6 0.2
v 1.4 0.6 0.2
v 1.4 1 0.2
v 1.4 1.6 0.2
v 1.4 2 0.2
v 1.6 2.5 0.2
v 1.6 3.6 0.2
v 1.7 2.6 0.2
v 1.7 2.7 0.2
v 1.7 3.4 0.2
v 1.7 3.5 0.2
v 1.8 0.6 0.2
v 1.8 1 0.2
v 1.8 1.6 0.2
v 1.8 2 0.2
v 1.9 1.2 0.2
v 1.9 1.3 0.2
v 2 2.8 0.2
v 2 3.3 0.2
v 2.2 0.7 0.2
v 2.2 1.1 0.2
v 2.2 1.6 0.2
v 2.2 2 0.2
v 2.4 2.8 0.2
v 2.4 3.3 0.2
v 2.5 1.6 0.2
v 2.5 2 0.2
v 2.6 0.4 0.2
v 2.6 0.5 0.2
v 2.6 0.7 0.2
v 2.6 1.1 0.2
v 2.6 1.4 0.2
v 2.6 1.5 0.2
v 2.6 2.6 0.2
v 2.6 2.7 0.2
v 2.6 3.4 0.2
v 2.6 3.5 0.2
v 2.8 0.2 0.2
v 2.8 2.2 0.2
v 2.8 2.5 0.2
v 2.8 3.6 0.2
v 3 0 0.2
v 3 4 0.2
v -3 0 -0.1
v -3 4 -0.1
v 3 0 -0.1
v 3 4 -0.1
v -3 0 0.2
v 3 0 0.2
v -3 0 -0.1
v 3 0 -0.1
v -3 4 0.2
v 3 4 0.2
v -3 4 -0.1
v 3 4 -0.1

# faces
f 3/1/1 2/1/1 1/1/1
f 4/1/1 2/1/1 3/1/1
f 5/1/2 6/1/2 7/1/2
f 7/1/2 6/1/2 8/1/2
f 11/1/3 10/1/3 9/1/3
f 12/1/3 10/1/3 11/1/3
f 13/1/3 10/1/3 12/1/3
f 14/1/3 10/1/3 13/1/3
f 15/8/3 12/8/3 11/8/3
f 16/8/3 12/8/3 15/8/3
f 17/8/3 12/8/3 16/8/3
f 18/8/3 12/8/3 17/8/3
f 19/8/3 12/8/3 18/8/3
f 20/8/3 12/8/3 19/8/3
f 21/8/3 12/8/3 20/8/3
f 22/8/3 12/8/3 21/8/3
f 23/8/3 12/8/3 22/8/3
f 24/8/3 12/8/3 23/8/3
f 25/8/3 12/8/3 24/8/3
f 26/8/3 12/8/3 25/8/3
f 27/8/3 14/8/3 13/8/3
f 28/8/3 14/8/3 27/8/3
f 29/8/3 14/8/3 28/8/3
f 30/8/3 14/8/3 29/8/3
f 31/8/3 14/8/3 30/8/3
f 32/8/3 14/8/3 31/8/3
f 33/8/3 14/8/3 32/8/3
f 34/8/3 14/8/3 33/8/3
f 35/8/3 14/8/3 34/8/3
f 36/8/3 14/8/3 35/8/3
f 37/8/3 17/8/3 16/8/3
f 37/6/3 18/6/3 17/6/3
f 38/8/3 19/8/3 18/8/3
f 38/6/3 18/6/3 37/6/3
f 39/6/3 20/6/3 19/6/3
f 39/8/3 19/8/3 38/8/3
f 39/8/3 38/8/3 37/8/3
f 40/8/3 21/8/3 20/8/3
f 40/6/3 20/6/3 39/6/3
f 41/8/3 23/8/3 22/8/3
f 41/6/3 24/6/3 23/6/3
f 42/8/3 25/8/3 24/8/3
f 42/6/3 24/6/3 41/6/3
f 43/8/3 27/8/3 13/8/3
f 43/6/3 28/6/3 27/6/3
f 44/8/3 29/8/3 28/8/3
f 44/6/3 28/6/3 43/6/3
f 45/6/3 22/6/3 21/6/3
f 45/8/3 21/8/3 40/8/3
f 45/8/3 40/8/3 39/8/3
f 46/8/3 41/8/3 22/8/3
f 46/6/3 22/6/3 45/6/3
f 46/8/3 42/8/3 41/8/3
f 47/6/3 26/6/3 25/6/3
f 47/8/3 42/8/3 46/8/3
f 47/8/3 25/8/3 42/8/3
f 48/8/3 12/8/3 26/8/3
f 48/6/3 26/6/3 47/6/3
f 49/8/3 29/8/3 44/8/3
f 49/8/3 44/8/3 43/8/3
f 49/6/3 30/6/3 29/6/3
f 50/8/3 31/8/3 30/8/3
f 50/6/3 30/6/3 49/6/3
f 51/6/3 32/6/3 31/6/3
f 51/8/3 31/8/3 50/8/3
f 52/8/3 33/8/3 32/8/3
f 52/6/3 32/6/3 51/6/3
f 53/6/3 34/6/3 33/6/3
f 53/8/3 33/8/3 52/8/3
f 54/8/3 35/8/3 34/8/3
f 54/6/3 34/6/3 53/6/3
f 55/6/3 36/6/3 35/6/3
f 55/8/3 35/8/3 54/8/3
f 56/8/3 14/8/3 36/8/3
f 56/6/3 36/6/3 55/6/3
f 57/8/3 15/8/3 11/8/3
f 57/6/3 16/6/3 15/6/3
f 58/8/3 47/8/3 46/8/3
f 58/6/3 16/6/3 57/6/3
f 58/8/3 37/8/3 16/8/3
f 58/8/3 39/8/3 37/8/3
f 58/8/3 48/8/3 47/8/3
f 58/8/3 45/8/3 39/8/3
f 58/8/3 46/8/3 45/8/3
f 59/1/3 11/1/3 9/1/3
f 59/8/3 57/8/3 11/8/3
f 59/8/3 58/8/3 57/8/3
f 60/8/3 48/8/3 58/8/3
f 60/8/3 58/8/3 59/8/3
f 60/1/3 13/1/3 12/1/3
f 60/8/3 12/8/3 48/8/3
f 61/8/3 52/8/3 51/8/3
f 61/1/3 13/1/3 60/1/3
f 61/8/3 50/8/3 49/8/3
f 61/8/3 51/8/3 50/8/3
f 61/8/3 43/8/3 13/8/3
f 61/8/3 53/8/3 52/8/3
f 61/8/3 49/8/3 43/8/3
f 61/8/3 54/8/3 53/8/3
f 61/8/3 55/8/3 54/8/3
f 61/8/3 56/8/3 55/8/3
f 62/1/3 10/1/3 14/1/3
f 62/8/3 56/8/3 61/8/3
f 62/8/3 14/8/3 56/8/3
f 63/1/3 59/1/3 9/1/3
f 63/1/3 61/1/3 60/1/3
f 63/1/3 62/1/3 61/1/3
f 63/1/3 60/1/3 59/1/3
f 64/1/3 10/1/3 62/1/3
f 64/1/3 62/1/3 63/1/3
f 65/8/3 64/8/3 63/8/3
f 66/8/3 64/8/3 65/8/3
f 67/8/3 64/8/3 66/8/3
f 68/8/3 64/8/3 67/8/3
f 69/8/3 64/8/3 68/8/3
f 70/8/3 64/8/3 69/8/3
f 71/8/3 64/8/3 70/8/3
f 72/8/3 64/8/3 71/8/3
f 73/8/3 64/8/3 72/8/3
f 74/8/3 64/8/3 73/8/3
f 75/8/3 64/8/3 74/8/3
f 76/8/3 64/8/3 75/8/3
f 77/8/3 64/8/3 76/8/3
f 78/8/3 64/8/3 77/8/3
f 79/8/3 64/8/3 78/8/3
f 80/8/3 64/8/3 79/8/3
f 81/8/3 64/8/3 80/8/3
f 82/8/3 64/8/3 81/8/3
f 83/8/3 67/8/3 66/8/3
f 84/8/3 67/8/3 83/8/3
f 85/8/3 75/8/3 74/8/3
f 86/8/3 75/8/3 85/8/3
f 87/6/3 68/6/3 67/6/3
f 87/8/3 67/8/3 84/8/3
f 88/8/3 69/8/3 68/8/3
f 88/6/3 68/6/3 87/6/3
f 89/8/3 79/8/3 78/8/3
f 89/6/3 80/6/3 79/6/3
f 90/8/3 81/8/3 80/8/3
f 90/6/3 80/6/3 89/6/3
f 91/8/3 73/8/3 72/8/3
f 91/6/3 74/6/3 73/6/3
f 92/8/3 85/8/3 74/8/3
f 92/6/3 74/6/3 91/6/3
f 93/8/3 75/8/3 86/8/3
f 93/6/3 76/6/3 75/6/3
f 94/8/3 77/8/3 76/8/3
f 94/6/3 76/6/3 93/6/3
f 95/8/3 83/8/3 66/8/3
f 95/6/3 84/6/3 83/6/3
f 96/8/3 87/8/3 84/8/3
f 96/6/3 84/6/3 95/6/3
f 96/8/3 88/8/3 87/8/3
f 97/6/3 70/6/3 69/6/3
f 97/8/3 88/8/3 96/8/3
f 97/8/3 69/8/3 88/8/3
f 98/8/3 71/8/3 70/8/3
f 98/6/3 70/6/3 97/6/3
f 99/8/3 85/8/3 92/8/3
f 99/6/3 86/6/3 85/6/3
f 99/8/3 92/8/3 91/8/3
f 100/8/3 93/8/3 86/8/3
f 100/6/3 86/6/3 99/6/3
f 100/8/3 94/8/3 93/8/3
f 101/8/3 65/8/3 63/8/3
f 101/7/3 66/7/3 65/7/3
f 102/8/3 95/8/3 66/8/3
f 102/7/3 66/7/3 101/7/3
f 102/8/3 96/8/3 95/8/3
f 102/8/3 97/8/3 96/8/3
f 102/8/3 98/8/3 97/8/3
f 103/8/3 71/8/3 98/8/3
f 103/8/3 98/8/3 102/8/3
f 103/8/3 102/8/3 101/8/3
f 103/6/3 72/6/3 71/6/3
f 104/8/3 100/8/3 99/8/3
f 104/6/3 72/6/3 103/6/3
f 104/8/3 91/8/3 72/8/3
f 104/8/3 99/8/3 91/8/3
f 105/8/3 94/8/3 100/8/3
f 105/8/3 100/8/3 104/8/3
f 105/6/3 78/6/3 77/6/3
f 105/8/3 77/8/3 94/8/3
f 106/8/3 90/8/3 89/8/3
f 106/6/3 78/6/3 105/6/3
f 106/8/3 89/8/3 78/8/3
f 107/7/3 82/7/3 81/7/3
f 107/8/3 90/8/3 106/8/3
f 107/8/3 81/8/3 90/8/3
f 108/8/3 64/8/3 82/8/3
f 108/7/3 82/7/3 107/7/3
f 109/1/3 63/1/3 9/1/3
f 109/8/3 104/8/3 103/8/3
f 109/8/3 108/8/3 107/8/3
f 109/8/3 106/8/3 105/8/3
f 109/8/3 101/8/3 63/8/3
f 109/8/3 105/8/3 104/8/3
f 109/8/3 107/8/3 106/8/3
f 109/8/3 103/8/3 101/8/3
f 110/8/3 64/8/3 108/8/3
f 110/8/3 108/8/3 109/8/3
f 110/1/3 10/1/3 64/1/3
f 111/1/3 109/1/3 9/1/3
f 111/1/3 110/1/3 109/1/3
f 112/1/3 110/1/3 111/1/3
f 113/1/3 110/1/3 112/1/3
f 114/1/3 110/1/3 113/1/3
f 115/8/3 112/8/3 111/8/3
f 116/8/3 112/8/3 115/8/3
f 117/8/3 112/8/3 116/8/3
f 118/8/3 112/8/3 117/8/3
f 119/8/3 114/8/3 113/8/3
f 120/8/3 114/8/3 119/8/3
f 121/8/3 114/8/3 120/8/3
f 122/8/3 114/8/3 121/8/3
f 123/8/3 114/8/3 122/8/3
f 124/8/3 114/8/3 123/8/3
f 125/8/3 114/8/3 124/8/3
f 126/8/3 114/8/3 125/8/3
f 127/8/3 117/8/3 116/8/3
f 128/8/3 117/8/3 127/8/3
f 129/8/3 112/8/3 118/8/3
f 130/8/3 112/8/3 129/8/3
f 131/8/3 115/8/3 111/8/3
f 132/8/3 115/8/3 131/8/3
f 133/2/3 116/2/3 115/2/3
f 133/8/3 115/8/3 132/8/3
f 134/8/3 127/8/3 116/8/3
f 134/2/3 116/2/3 133/2/3
f 135/8/3 129/8/3 118/8/3
f 135/4/3 130/4/3 129/4/3
f 136/8/3 112/8/3 130/8/3
f 136/4/3 130/4/3 135/4/3
f 137/8/3 119/8/3 113/8/3
f 137/6/3 120/6/3 119/6/3
f 138/8/3 121/8/3 120/8/3
f 138/6/3 120/6/3 137/6/3
f 139/6/3 122/6/3 121/6/3
f 139/8/3 121/8/3 138/8/3
f 140/8/3 123/8/3 122/8/3
f 140/6/3 122/6/3 139/6/3
f 141/6/3 124/6/3 123/6/3
f 141/8/3 123/8/3 140/8/3
f 142/8/3 125/8/3 124/8/3
f 142/6/3 124/6/3 141/6/3
f 143/6/3 126/6/3 125/6/3
f 143/8/3 125/8/3 142/8/3
f 144/8/3 114/8/3 126/8/3
f 144/6/3 126/6/3 143/6/3
f 145/1/3 113/1/3 112/1/3
f 145/8/3 143/8/3 142/8/3
f 145/8/3 144/8/3 143/8/3
f 145/8/3 137/8/3 113/8/3
f 145/8/3 138/8/3 137/8/3
f 145/8/3 139/8/3 138/8/3
f 145/8/3 140/8/3 139/8/3
f 145/8/3 141/8/3 140/8/3
f 145/8/3 142/8/3 141/8/3
f 146/1/3 110/1/3 114/1/3
f 146/8/3 144/8/3 145/8/3
f 146/8/3 114/8/3 144/8/3
f 147/8/3 133/8/3 132/8/3
f 147/8/3 134/8/3 133/8/3
f 148/8/3 134/8/3 147/8/3
f 149/8/3 135/8/3 118/8/3
f 149/8/3 136/8/3 135/8/3
f 150/8/3 112/8/3 136/8/3
f 150/8/3 136/8/3 149/8/3
f 151/1/3 145/1/3 112/1/3
f 151/1/3 146/1/3 145/1/3
f 152/1/3 110/1/3 146/1/3
f 152/1/3 146/1/3 151/1/3
f 153/8/3 152/8/3 151/8/3
f 154/8/3 152/8/3 153/8/3
f 155/8/3 152/8/3 154/8/3
f 156/8/3 152/8/3 155/8/3
f 157/3/3 148/3/3 147/3/3
f 157/8/3 147/8/3 132/8/3
f 158/8/3 134/8/3 148/8/3
f 158/3/3 148/3/3 157/3/3
f 159/8/3 149/8/3 118/8/3
f 159/5/3 150/5/3 149/5/3
f 160/8/3 112/8/3 150/8/3
f 160/5/3 150/5/3 159/5/3
f 161/8/3 134/8/3 158/8/3
f 161/8/3 158/8/3 157/8/3
f 161/8/3 127/8/3 134/8/3
f 161/6/3 128/6/3 127/6/3
f 162/8/3 117/8/3 128/8/3
f 162/6/3 128/6/3 161/6/3
f 163/8/3 155/8/3 154/8/3
f 164/8/3 155/8/3 163/8/3
f 165/8/3 161/8/3 157/8/3
f 165/8/3 162/8/3 161/8/3
f 166/8/3 162/8/3 165/8/3
f 167/8/3 159/8/3 118/8/3
f 167/8/3 160/8/3 159/8/3
f 168/8/3 112/8/3 160/8/3
f 168/8/3 160/8/3 167/8/3
f 169/5/3 164/5/3 163/5/3
f 169/8/3 163/8/3 154/8/3
f 170/8/3 155/8/3 164/8/3
f 170/5/3 164/5/3 169/5/3
f 171/8/3 167/8/3 118/8/3
f 171/3/3 168/3/3 167/3/3
f 172/8/3 112/8/3 168/8/3
f 172/3/3 168/3/3 171/3/3
f 173/6/3 132/6/3 131/6/3
f 173/8/3 131/8/3 111/8/3
f 174/8/3 157/8/3 132/8/3
f 174/6/3 132/6/3 173/6/3
f 174/8/3 165/8/3 157/8/3
f 175/5/3 166/5/3 165/5/3
f 175/8/3 165/8/3 174/8/3
f 176/8/3 162/8/3 166/8/3
f 176/5/3 166/5/3 175/5/3
f 177/6/3 118/6/3 117/6/3
f 177/8/3 162/8/3 176/8/3
f 177/8/3 117/8/3 162/8/3
f 178/8/3 172/8/3 171/8/3
f 178/6/3 118/6/3 177/6/3
f 178/8/3 171/8/3 118/8/3
f 179/6/3 154/6/3 153/6/3
f 179/8/3 153/8/3 151/8/3
f 180/8/3 169/8/3 154/8/3
f 180/6/3 154/6/3 179/6/3
f 180/8/3 170/8/3 169/8/3
f 181/8/3 155/8/3 170/8/3
f 181/8/3 170/8/3 180/8/3
f 181/6/3 156/6/3 155/6/3
f 182/8/3 152/8/3 156/8/3
f 182/6/3 156/6/3 181/6/3
f 183/1/3 111/1/3 9/1/3
f 183/8/3 175/8/3 174/8/3
f 183/8/3 173/8/3 111/8/3
f 183/8/3 177/8/3 176/8/3
f 183/8/3 176/8/3 175/8/3
f 183/8/3 178/8/3 177/8/3
f 183/8/3 174/8/3 173/8/3
f 184/1/3 151/1/3 112/1/3
f 184/8/3 178/8/3 183/8/3
f 184/8/3 112/8/3 172/8/3
f 184/8/3 172/8/3 178/8/3
f 185/8/3 182/8/3 181/8/3
f 185/1/3 151/1/3 184/1/3
f 185/8/3 179/8/3 151/8/3
f 185/8/3 181/8/3 180/8/3
f 185/8/3 180/8/3 179/8/3
f 186/8/3 152/8/3 182/8/3
f 186/8/3 182/8/3 185/8/3
f 186/1/3 110/1/3 152/1/3
f 187/1/3 185/1/3 184/1/3
f 187/1/3 184/1/3 183/1/3
f 187/1/3 186/1/3 185/1/3
f 187/1/3 183/1/3 9/1/3
f 188/1/3 10/1/3 110/1/3
f 188/1/3 186/1/3 187/1/3
f 188/1/3 110/1/3 186/1/3
f 189/1/4 190/1/4 191/1/4
f 191/1/4 190/1/4 192/1/4
f 195/1/5 194/1/5 193/1/5
f 196/1/5 194/1/5 195/1/5
f 197/1/6 198/1/6 199/1/6
f 199/1/6 198/1/6 200/1/6
