# MagicaVoxel @ Ephtracy

# group
o 

# material
mtllib worktable4.mtl
usemtl palette

# normals
vn -1 0 0
vn 1 0 0
vn 0 0 1
vn 0 0 -1
vn 0 -1 0
vn 0 1 0

# texcoords
vt 0.345703 0.5
vt 0.939453 0.5

# verts
v -0.7 0 2
v -0.7 0 1.7
v -0.7 0 -1.7
v -0.7 0 -2
v -0.7 0.1 1.9
v -0.7 0.1 1.8
v -0.7 0.1 -1.8
v -0.7 0.1 -1.9
v -0.7 1.7 1.7
v -0.7 1.7 -1.7
v -0.7 1.8 1.8
v -0.7 1.8 -1.8
v -0.7 1.9 1.9
v -0.7 1.9 -1.9
v -0.7 2 2
v -0.7 2 -2
v 0.6 0 2
v 0.6 0 1.7
v 0.6 0 -1.7
v 0.6 0 -2
v 0.6 0.1 1.9
v 0.6 0.1 1.8
v 0.6 0.1 -1.8
v 0.6 0.1 -1.9
v 0.6 1.7 2
v 0.6 1.7 1.9
v 0.6 1.7 1.8
v 0.6 1.7 1.7
v 0.6 1.7 -1.7
v 0.6 1.7 -1.8
v 0.6 1.7 -1.9
v 0.6 1.7 -2
v -0.6 0 2
v -0.6 0 1.7
v -0.6 0 -1.7
v -0.6 0 -2
v -0.6 0.1 1.9
v -0.6 0.1 1.8
v -0.6 0.1 -1.8
v -0.6 0.1 -1.9
v -0.6 1.7 2
v -0.6 1.7 1.9
v -0.6 1.7 1.8
v -0.6 1.7 1.7
v -0.6 1.7 -1.7
v -0.6 1.7 -1.8
v -0.6 1.7 -1.9
v -0.6 1.7 -2
v 0.7 0 2
v 0.7 0 1.7
v 0.7 0 -1.7
v 0.7 0 -2
v 0.7 0.1 1.9
v 0.7 0.1 1.8
v 0.7 0.1 -1.8
v 0.7 0.1 -1.9
v 0.7 1.7 1.7
v 0.7 1.7 -1.7
v 0.7 1.8 1.8
v 0.7 1.8 -1.8
v 0.7 1.9 1.9
v 0.7 1.9 -1.9
v 0.7 2 2
v 0.7 2 -2
v -0.7 0 2
v -0.7 2 2
v -0.6 0 2
v -0.6 1.7 2
v 0.6 0 2
v 0.6 1.7 2
v 0.7 0 2
v 0.7 2 2
v -0.7 0 -1.7
v -0.7 1.7 -1.7
v -0.6 0 -1.7
v -0.6 1.7 -1.7
v 0.6 0 -1.7
v 0.6 1.7 -1.7
v 0.7 0 -1.7
v 0.7 1.7 -1.7
v -0.7 0 1.7
v -0.7 1.7 1.7
v -0.6 0 1.7
v -0.6 1.7 1.7
v 0.6 0 1.7
v 0.6 1.7 1.7
v 0.7 0 1.7
v 0.7 1.7 1.7
v -0.7 0 -2
v -0.7 2 -2
v -0.6 0 -2
v -0.6 1.7 -2
v 0.6 0 -2
v 0.6 1.7 -2
v 0.7 0 -2
v 0.7 2 -2
v -0.7 0 2
v -0.6 0 2
v 0.6 0 2
v 0.7 0 2
v -0.7 0 1.7
v -0.6 0 1.7
v 0.6 0 1.7
v 0.7 0 1.7
v -0.7 0 -1.7
v -0.6 0 -1.7
v 0.6 0 -1.7
v 0.7 0 -1.7
v -0.7 0 -2
v -0.6 0 -2
v 0.6 0 -2
v 0.7 0 -2
v -0.6 1.7 2
v 0.6 1.7 2
v -0.6 1.7 1.9
v 0.6 1.7 1.9
v -0.6 1.7 1.8
v 0.6 1.7 1.8
v -0.7 1.7 1.7
v -0.6 1.7 1.7
v 0.6 1.7 1.7
v 0.7 1.7 1.7
v -0.7 1.7 -1.7
v -0.6 1.7 -1.7
v 0.6 1.7 -1.7
v 0.7 1.7 -1.7
v -0.6 1.7 -1.8
v 0.6 1.7 -1.8
v -0.6 1.7 -1.9
v 0.6 1.7 -1.9
v -0.6 1.7 -2
v 0.6 1.7 -2
v -0.7 2 2
v 0.7 2 2
v -0.6 2 1.9
v 0.6 2 1.9
v -0.6 2 -1.9
v 0.6 2 -1.9
v -0.7 2 -2
v 0.7 2 -2

# faces
f 5/1/1 2/1/1 1/1/1
f 6/1/1 2/1/1 5/1/1
f 7/1/1 4/1/1 3/1/1
f 8/1/1 4/1/1 7/1/1
f 9/1/1 2/1/1 6/1/1
f 10/1/1 7/1/1 3/1/1
f 11/2/1 6/2/1 5/2/1
f 11/1/1 10/1/1 9/1/1
f 11/1/1 9/1/1 6/1/1
f 12/1/1 7/1/1 10/1/1
f 12/1/1 10/1/1 11/1/1
f 12/2/1 8/2/1 7/2/1
f 13/1/1 5/1/1 1/1/1
f 13/2/1 11/2/1 5/2/1
f 13/2/1 12/2/1 11/2/1
f 14/1/1 4/1/1 8/1/1
f 14/2/1 12/2/1 13/2/1
f 14/2/1 8/2/1 12/2/1
f 15/1/1 13/1/1 1/1/1
f 15/1/1 14/1/1 13/1/1
f 16/1/1 4/1/1 14/1/1
f 16/1/1 14/1/1 15/1/1
f 21/1/1 18/1/1 17/1/1
f 22/1/1 18/1/1 21/1/1
f 23/1/1 20/1/1 19/1/1
f 24/1/1 20/1/1 23/1/1
f 25/1/1 21/1/1 17/1/1
f 26/2/1 22/2/1 21/2/1
f 26/1/1 21/1/1 25/1/1
f 27/1/1 18/1/1 22/1/1
f 27/2/1 22/2/1 26/2/1
f 28/1/1 18/1/1 27/1/1
f 29/1/1 23/1/1 19/1/1
f 30/2/1 24/2/1 23/2/1
f 30/1/1 23/1/1 29/1/1
f 31/1/1 20/1/1 24/1/1
f 31/2/1 24/2/1 30/2/1
f 32/1/1 20/1/1 31/1/1
f 33/1/2 34/1/2 37/1/2
f 37/1/2 34/1/2 38/1/2
f 35/1/2 36/1/2 39/1/2
f 39/1/2 36/1/2 40/1/2
f 33/1/2 37/1/2 41/1/2
f 37/2/2 38/2/2 42/2/2
f 41/1/2 37/1/2 42/1/2
f 38/1/2 34/1/2 43/1/2
f 42/2/2 38/2/2 43/2/2
f 43/1/2 34/1/2 44/1/2
f 35/1/2 39/1/2 45/1/2
f 39/2/2 40/2/2 46/2/2
f 45/1/2 39/1/2 46/1/2
f 40/1/2 36/1/2 47/1/2
f 46/2/2 40/2/2 47/2/2
f 47/1/2 36/1/2 48/1/2
f 49/1/2 50/1/2 53/1/2
f 53/1/2 50/1/2 54/1/2
f 51/1/2 52/1/2 55/1/2
f 55/1/2 52/1/2 56/1/2
f 54/1/2 50/1/2 57/1/2
f 51/1/2 55/1/2 58/1/2
f 53/2/2 54/2/2 59/2/2
f 57/1/2 58/1/2 59/1/2
f 54/1/2 57/1/2 59/1/2
f 58/1/2 55/1/2 60/1/2
f 59/1/2 58/1/2 60/1/2
f 55/2/2 56/2/2 60/2/2
f 49/1/2 53/1/2 61/1/2
f 53/2/2 59/2/2 61/2/2
f 59/2/2 60/2/2 61/2/2
f 56/1/2 52/1/2 62/1/2
f 61/2/2 60/2/2 62/2/2
f 60/2/2 56/2/2 62/2/2
f 49/1/2 61/1/2 63/1/2
f 61/1/2 62/1/2 63/1/2
f 62/1/2 52/1/2 64/1/2
f 63/1/2 62/1/2 64/1/2
f 67/1/3 66/1/3 65/1/3
f 68/1/3 66/1/3 67/1/3
f 70/1/3 66/1/3 68/1/3
f 71/1/3 70/1/3 69/1/3
f 72/1/3 66/1/3 70/1/3
f 72/1/3 70/1/3 71/1/3
f 75/1/3 74/1/3 73/1/3
f 76/1/3 74/1/3 75/1/3
f 79/1/3 78/1/3 77/1/3
f 80/1/3 78/1/3 79/1/3
f 81/1/4 82/1/4 83/1/4
f 83/1/4 82/1/4 84/1/4
f 85/1/4 86/1/4 87/1/4
f 87/1/4 86/1/4 88/1/4
f 89/1/4 90/1/4 91/1/4
f 91/1/4 90/1/4 92/1/4
f 92/1/4 90/1/4 94/1/4
f 93/1/4 94/1/4 95/1/4
f 94/1/4 90/1/4 96/1/4
f 95/1/4 94/1/4 96/1/4
f 101/1/5 98/1/5 97/1/5
f 102/1/5 98/1/5 101/1/5
f 103/1/5 100/1/5 99/1/5
f 104/1/5 100/1/5 103/1/5
f 109/1/5 106/1/5 105/1/5
f 110/1/5 106/1/5 109/1/5
f 111/1/5 108/1/5 107/1/5
f 112/1/5 108/1/5 111/1/5
f 115/1/5 114/1/5 113/1/5
f 116/1/5 114/1/5 115/1/5
f 117/1/5 116/1/5 115/1/5
f 118/1/5 116/1/5 117/1/5
f 120/1/5 118/1/5 117/1/5
f 121/1/5 118/1/5 120/1/5
f 123/1/5 121/1/5 120/1/5
f 123/1/5 122/1/5 121/1/5
f 123/1/5 120/1/5 119/1/5
f 124/1/5 122/1/5 123/1/5
f 125/1/5 122/1/5 124/1/5
f 126/1/5 122/1/5 125/1/5
f 127/1/5 125/1/5 124/1/5
f 128/1/5 125/1/5 127/1/5
f 129/1/5 128/1/5 127/1/5
f 130/1/5 128/1/5 129/1/5
f 131/1/5 130/1/5 129/1/5
f 132/1/5 130/1/5 131/1/5
f 133/1/6 134/1/6 135/1/6
f 135/1/6 134/1/6 136/1/6
f 133/1/6 135/1/6 137/1/6
f 135/2/6 136/2/6 137/2/6
f 136/1/6 134/1/6 138/1/6
f 137/2/6 136/2/6 138/2/6
f 133/1/6 137/1/6 139/1/6
f 137/1/6 138/1/6 139/1/6
f 138/1/6 134/1/6 140/1/6
f 139/1/6 138/1/6 140/1/6
