# MagicaVoxel @ Ephtracy

# group
o 

# material
mtllib FloorBlock1.mtl
usemtl palette

# normals
vn -1 0 0
vn 1 0 0
vn 0 0 1
vn 0 0 -1
vn 0 -1 0
vn 0 1 0

# texcoords
vt 0.419922 0.5
vt 0.423828 0.5
vt 0.845703 0.5
vt 0.849609 0.5
vt 0.853516 0.5
vt 0.857422 0.5
vt 0.947266 0.5

# verts
v -4.1 0 4
v -4.1 0 -3
v -4.1 0.6 3.5
v -4.1 0.6 1.2
v -4.1 0.7 3.4
v -4.1 0.7 1.3
v -4.1 1.9 3.4
v -4.1 1.9 1.3
v -4.1 2 3.5
v -4.1 2 1.2
v -4.1 2.4 4
v -4.1 2.4 -3
v -0.7 0.7 4
v -0.7 0.7 3.7
v -0.7 1.9 4
v -0.7 1.9 3.7
v -0.4 0.2 0.7
v -0.4 0.2 0
v -0.4 0.2 -1.9
v -0.4 0.2 -2.1
v -0.4 0.2 -2.6
v -0.4 0.2 -2.7
v -0.4 1.7 0
v -0.4 1.7 -0.9
v -0.4 1.7 -1.1
v -0.4 1.7 -1.9
v -0.4 2.2 0.7
v -0.4 2.2 -0.9
v -0.4 2.2 -1.1
v -0.4 2.2 -2.7
v 2.9 0.2 1
v 2.9 0.2 0.7
v 2.9 1.7 1
v 2.9 1.7 0.7
v 3.6 0.2 3.7
v 3.6 0.2 2.9
v 3.6 0.2 2
v 3.6 0.2 1
v 3.6 0.2 0.7
v 3.6 0.2 -2.7
v 3.6 1.6 2.9
v 3.6 1.6 2
v 3.6 2.2 3.7
v 3.6 2.2 1
v 3.6 2.2 0.7
v 3.6 2.2 -2.7
v -3.8 0.2 3.7
v -3.8 0.2 1
v -3.8 0.2 0.7
v -3.8 0.2 -0.9
v -3.8 0.2 -1.1
v -3.8 0.2 -2.7
v -3.8 0.6 3.5
v -3.8 0.6 1.2
v -3.8 0.7 3.4
v -3.8 0.7 1.3
v -3.8 1.9 3.4
v -3.8 1.9 1.3
v -3.8 2 3.5
v -3.8 2 1.2
v -3.8 2.2 3.7
v -3.8 2.2 1
v -3.8 2.2 0.7
v -3.8 2.2 -0.9
v -3.8 2.2 -1.1
v -3.8 2.2 -2.7
v -3 0.7 4
v -3 0.7 3.7
v -3 1.9 4
v -3 1.9 3.7
v -0.0999999 0.2 0.7
v -0.0999999 0.2 0
v -0.0999999 0.2 -0.9
v -0.0999999 0.2 -1.1
v -0.0999999 0.2 -1.9
v -0.0999999 0.2 -2.7
v -0.0999999 1.7 0
v -0.0999999 1.7 -0.9
v -0.0999999 1.7 -1.1
v -0.0999999 1.7 -1.9
v -0.0999999 2.2 0.7
v -0.0999999 2.2 -2.7
v 2 0.2 1
v 2 0.2 0.7
v 2 1.7 1
v 2 1.7 0.7
v 3.9 0 4
v 3.9 0 -3
v 3.9 0.2 3
v 3.9 0.2 2.9
v 3.9 0.2 2
v 3.9 0.2 1.9
v 3.9 1.6 2.9
v 3.9 1.6 2
v 3.9 1.7 3
v 3.9 1.7 1.9
v 3.9 2.4 4
v 3.9 2.4 -3
v -4.1 0 4
v -4.1 2.4 4
v -3.1 0.6 4
v -3.1 2 4
v -3 0.7 4
v -3 1.9 4
v -0.7 0.7 4
v -0.7 1.9 4
v -0.6 0.6 4
v -0.6 2 4
v 3.9 0 4
v 3.9 2.4 4
v 3.6 0.2 2
v 3.6 1.6 2
v 3.8 0.2 2
v 3.9 0.2 2
v 3.9 1.6 2
v -4.1 0.7 1.3
v -4.1 1.9 1.3
v -3.8 0.7 1.3
v -3.8 1.9 1.3
v -3.8 0.2 1
v -3.8 2.2 1
v 2 0.2 1
v 2 1.7 1
v 2.9 0.2 1
v 2.9 1.7 1
v 3.6 0.2 1
v 3.6 2.2 1
v -3.8 0.2 -0.9
v -3.8 2.2 -0.9
v -0.4 1.7 -0.9
v -0.4 2.2 -0.9
v -0.0999999 0.2 -0.9
v -0.0999999 1.7 -0.9
v -0.4 0.2 -1.9
v -0.4 1.7 -1.9
v -0.0999999 0.2 -1.9
v -0.0999999 1.7 -1.9
v -3.8 0.2 -2.7
v -3.8 2.2 -2.7
v -0.4 0.2 -2.7
v -0.4 2.2 -2.7
v -0.0999999 0.2 -2.7
v -0.0999999 2.2 -2.7
v 3.6 0.2 -2.7
v 3.6 2.2 -2.7
v -3.8 0.2 3.7
v -3.8 2.2 3.7
v -3.1 0.6 3.7
v -3.1 2 3.7
v -3 0.7 3.7
v -3 1.9 3.7
v -0.7 0.7 3.7
v -0.7 1.9 3.7
v -0.6 0.6 3.7
v -0.6 2 3.7
v 3.6 0.2 3.7
v 3.6 2.2 3.7
v -4.1 0.7 3.4
v -4.1 1.9 3.4
v -3.8 0.7 3.4
v -3.8 1.9 3.4
v 3.6 0.2 2.9
v 3.6 1.6 2.9
v 3.8 0.2 2.9
v 3.9 0.2 2.9
v 3.9 1.6 2.9
v -3.8 0.2 0.7
v -3.8 2.2 0.7
v -0.4 0.2 0.7
v -0.4 2.2 0.7
v -0.0999999 0.2 0.7
v -0.0999999 2.2 0.7
v 2 0.2 0.7
v 2 1.7 0.7
v 2.9 0.2 0.7
v 2.9 1.7 0.7
v 3.6 0.2 0.7
v 3.6 2.2 0.7
v -0.4 0.2 0
v -0.4 1.7 0
v -0.0999999 0.2 0
v -0.0999999 1.7 0
v -3.8 0.2 -1.1
v -3.8 2.2 -1.1
v -0.4 1.7 -1.1
v -0.4 2.2 -1.1
v -0.0999999 0.2 -1.1
v -0.0999999 1.7 -1.1
v -4.1 0 -3
v -4.1 2.4 -3
v 3.9 0 -3
v 3.9 2.4 -3
v -4.1 0 4
v 3.9 0 4
v -4.1 0 -3
v 3.9 0 -3
v 3.6 1.6 2.9
v 3.9 1.6 2.9
v 3.6 1.6 2
v 3.9 1.6 2
v 2 1.7 1
v 2.9 1.7 1
v 2 1.7 0.7
v 2.9 1.7 0.7
v -0.4 1.7 0
v -0.0999999 1.7 0
v -0.4 1.7 -0.9
v -0.0999999 1.7 -0.9
v -0.4 1.7 -1.1
v -0.0999999 1.7 -1.1
v -0.4 1.7 -1.9
v -0.0999999 1.7 -1.9
v -3 1.9 4
v -0.7 1.9 4
v -3 1.9 3.7
v -0.7 1.9 3.7
v -4.1 1.9 3.4
v -3.8 1.9 3.4
v -4.1 1.9 1.3
v -3.8 1.9 1.3
v -3.8 2.2 3.7
v 3.6 2.2 3.7
v -3.8 2.2 1
v 3.6 2.2 1
v -3.8 2.2 0.7
v -0.4 2.2 0.7
v -0.0999999 2.2 0.7
v 3.6 2.2 0.7
v -3.8 2.2 -0.9
v -0.4 2.2 -0.9
v -3.8 2.2 -1.1
v -0.4 2.2 -1.1
v -3.8 2.2 -2.7
v -0.4 2.2 -2.7
v -0.0999999 2.2 -2.7
v 3.6 2.2 -2.7
v -3.8 0.2 3.7
v 3.6 0.2 3.7
v -3.7 0.2 3.6
v -1.8 0.2 3.6
v -0.8 0.2 3.6
v 1.1 0.2 3.6
v 3.1 0.2 3.6
v 3.5 0.2 3.6
v -3.7 0.2 3.4
v -1.8 0.2 3.4
v 3.1 0.2 3.3
v 3.5 0.2 3.3
v -1.8 0.2 3.2
v -1.2 0.2 3.2
v -1.8 0.2 3
v -1.2 0.2 3
v -0.8 0.2 3
v 1.1 0.2 3
v 3.6 0.2 2.9
v 3.8 0.2 2.9
v 3.9 0.2 2.9
v -3.7 0.2 2.8
v 1.1 0.2 2.8
v 2.6 0.2 2.8
v 2.8 0.2 2.8
v 3.5 0.2 2.8
v 3.8 0.2 2.8
v 1.1 0.2 2.7
v 2.6 0.2 2.7
v 3.1 0.2 2.6
v 3.8 0.2 2.6
v -3.7 0.2 2.5
v -1 0.2 2.5
v -0.2 0.2 2.5
v 1.1 0.2 2.5
v 3.1 0.2 2.5
v 3.4 0.2 2.5
v 3.8 0.2 2.5
v 3.5 0.2 2.1
v 3.8 0.2 2.1
v -3 0.2 2
v -2.7 0.2 2
v -2 0.2 2
v -1 0.2 2
v -0.2 0.2 2
v 3.6 0.2 2
v 3.8 0.2 2
v 3.9 0.2 2
v 1.1 0.2 1.8
v 2.6 0.2 1.8
v 2.8 0.2 1.8
v 3.1 0.2 1.8
v 1.1 0.2 1.5
v 3.1 0.2 1.5
v -2 0.2 1.2
v 0.4 0.2 1.2
v -3.7 0.2 1.1
v -3 0.2 1.1
v -2.7 0.2 1.1
v 0.4 0.2 1.1
v 1.1 0.2 1.1
v 3.1 0.2 1.1
v 3.4 0.2 1.1
v 3.5 0.2 1.1
v -3.8 0.2 1
v 2 0.2 1
v 2.9 0.2 1
v 3.6 0.2 1
v -3.8 0.2 0.7
v -0.4 0.2 0.7
v -0.0999999 0.2 0.7
v 2 0.2 0.7
v 2.9 0.2 0.7
v 3.6 0.2 0.7
v -3.7 0.2 0.6
v -2.3 0.2 0.6
v -0.5 0.2 0.6
v 4.76837e-07 0.2 0.6
v 0.4 0.2 0.6
v -2 0.2 0.2
v -0.5 0.2 0.2
v 4.76837e-07 0.2 0.2
v 0.4 0.2 0.2
v 1.1 0.2 0.2
v 3.1 0.2 0.0999999
v 3.5 0.2 0.0999999
v -0.4 0.2 0
v -0.0999999 0.2 0
v -0.5 0.2 -0.1
v 4.76837e-07 0.2 -0.1
v 1.1 0.2 -0.2
v 3.1 0.2 -0.2
v -3.7 0.2 -0.4
v -3.4 0.2 -0.4
v -2.4 0.2 -0.4
v -2.3 0.2 -0.4
v -2 0.2 -0.4
v -1.6 0.2 -0.4
v 1.1 0.2 -0.4
v 3.1 0.2 -0.4
v -3.7 0.2 -0.6
v -3.4 0.2 -0.6
v -2.4 0.2 -0.6
v -1.6 0.2 -0.6
v -3.7 0.2 -0.8
v 4.76837e-07 0.2 -0.8
v -3.8 0.2 -0.9
v -0.0999999 0.2 -0.9
v -3.8 0.2 -1.1
v -0.0999999 0.2 -1.1
v -1.6 0.2 -1.2
v 4.76837e-07 0.2 -1.2
v -3.7 0.2 -1.4
v -1.6 0.2 -1.4
v -0.5 0.2 -1.8
v 4.76837e-07 0.2 -1.8
v -3.2 0.2 -1.9
v -2.9 0.2 -1.9
v -1.6 0.2 -1.9
v -0.5 0.2 -1.9
v -0.4 0.2 -1.9
v -0.0999999 0.2 -1.9
v 4.76837e-07 0.2 -1.9
v 3.5 0.2 -1.9
v -1.6 0.2 -2.1
v -0.4 0.2 -2.1
v 4.76837e-07 0.2 -2.1
v 3.5 0.2 -2.1
v -3.7 0.2 -2.6
v -3.2 0.2 -2.6
v -2.9 0.2 -2.6
v -0.4 0.2 -2.6
v 4.76837e-07 0.2 -2.6
v 3.5 0.2 -2.6
v -3.8 0.2 -2.7
v -0.4 0.2 -2.7
v -0.0999999 0.2 -2.7
v 3.6 0.2 -2.7
v -3 0.7 4
v -0.7 0.7 4
v -3 0.7 3.7
v -0.7 0.7 3.7
v -4.1 0.7 3.4
v -3.8 0.7 3.4
v -4.1 0.7 1.3
v -3.8 0.7 1.3
v -4.1 2.4 4
v 3.9 2.4 4
v -4.1 2.4 -3
v 3.9 2.4 -3

# faces
f 3/7/1 2/7/1 1/7/1
f 4/7/1 2/7/1 3/7/1
f 5/6/1 4/6/1 3/6/1
f 6/6/1 4/6/1 5/6/1
f 7/6/1 5/6/1 3/6/1
f 8/6/1 4/6/1 6/6/1
f 9/7/1 3/7/1 1/7/1
f 9/6/1 8/6/1 7/6/1
f 9/6/1 7/6/1 3/6/1
f 10/6/1 4/6/1 8/6/1
f 10/6/1 8/6/1 9/6/1
f 10/7/1 2/7/1 4/7/1
f 11/7/1 9/7/1 1/7/1
f 11/7/1 10/7/1 9/7/1
f 12/7/1 2/7/1 10/7/1
f 12/7/1 10/7/1 11/7/1
f 15/6/1 14/6/1 13/6/1
f 16/6/1 14/6/1 15/6/1
f 23/1/1 18/1/1 17/1/1
f 26/1/1 22/1/1 21/1/1
f 26/1/1 20/1/1 19/1/1
f 26/1/1 21/1/1 20/1/1
f 27/1/1 24/1/1 23/1/1
f 27/1/1 23/1/1 17/1/1
f 28/1/1 24/1/1 27/1/1
f 29/1/1 26/1/1 25/1/1
f 30/1/1 22/1/1 26/1/1
f 30/1/1 26/1/1 29/1/1
f 33/1/1 32/1/1 31/1/1
f 34/1/1 32/1/1 33/1/1
f 41/1/1 36/1/1 35/1/1
f 42/1/1 38/1/1 37/1/1
f 43/1/1 41/1/1 35/1/1
f 43/1/1 42/1/1 41/1/1
f 44/1/1 38/1/1 42/1/1
f 44/1/1 42/1/1 43/1/1
f 45/1/1 40/1/1 39/1/1
f 46/1/1 40/1/1 45/1/1
f 47/1/2 48/1/2 53/1/2
f 53/1/2 48/1/2 54/1/2
f 53/6/2 54/6/2 55/6/2
f 55/6/2 54/6/2 56/6/2
f 53/6/2 55/6/2 57/6/2
f 56/6/2 54/6/2 58/6/2
f 47/1/2 53/1/2 59/1/2
f 57/6/2 58/6/2 59/6/2
f 53/6/2 57/6/2 59/6/2
f 58/6/2 54/6/2 60/6/2
f 59/6/2 58/6/2 60/6/2
f 54/1/2 48/1/2 60/1/2
f 47/1/2 59/1/2 61/1/2
f 59/1/2 60/1/2 61/1/2
f 60/1/2 48/1/2 62/1/2
f 61/1/2 60/1/2 62/1/2
f 49/1/2 50/1/2 63/1/2
f 63/1/2 50/1/2 64/1/2
f 51/1/2 52/1/2 65/1/2
f 65/1/2 52/1/2 66/1/2
f 67/6/2 68/6/2 69/6/2
f 69/6/2 68/6/2 70/6/2
f 71/1/2 72/1/2 77/1/2
f 73/1/2 74/1/2 78/1/2
f 78/1/2 74/1/2 79/1/2
f 75/1/2 76/1/2 80/1/2
f 78/1/2 79/1/2 81/1/2
f 79/1/2 80/1/2 81/1/2
f 71/1/2 77/1/2 81/1/2
f 77/1/2 78/1/2 81/1/2
f 80/1/2 76/1/2 82/1/2
f 81/1/2 80/1/2 82/1/2
f 83/1/2 84/1/2 85/1/2
f 85/1/2 84/1/2 86/1/2
f 87/7/2 88/7/2 89/7/2
f 89/7/2 88/7/2 90/7/2
f 90/7/2 88/7/2 91/7/2
f 91/7/2 88/7/2 92/7/2
f 89/1/2 90/1/2 93/1/2
f 91/1/2 92/1/2 94/1/2
f 87/7/2 89/7/2 95/7/2
f 93/1/2 94/1/2 95/1/2
f 89/1/2 93/1/2 95/1/2
f 94/1/2 92/1/2 96/1/2
f 95/1/2 94/1/2 96/1/2
f 92/7/2 88/7/2 96/7/2
f 87/7/2 95/7/2 97/7/2
f 95/7/2 96/7/2 97/7/2
f 96/7/2 88/7/2 98/7/2
f 97/7/2 96/7/2 98/7/2
f 101/7/3 100/7/3 99/7/3
f 102/7/3 100/7/3 101/7/3
f 103/6/3 102/6/3 101/6/3
f 104/6/3 102/6/3 103/6/3
f 105/6/3 103/6/3 101/6/3
f 106/6/3 102/6/3 104/6/3
f 107/7/3 101/7/3 99/7/3
f 107/6/3 106/6/3 105/6/3
f 107/6/3 105/6/3 101/6/3
f 108/6/3 102/6/3 106/6/3
f 108/6/3 106/6/3 107/6/3
f 108/7/3 100/7/3 102/7/3
f 109/7/3 107/7/3 99/7/3
f 109/7/3 108/7/3 107/7/3
f 110/7/3 100/7/3 108/7/3
f 110/7/3 108/7/3 109/7/3
f 113/1/3 112/1/3 111/1/3
f 114/1/3 112/1/3 113/1/3
f 115/1/3 112/1/3 114/1/3
f 118/6/3 117/6/3 116/6/3
f 119/6/3 117/6/3 118/6/3
f 122/1/3 121/1/3 120/1/3
f 123/1/3 121/1/3 122/1/3
f 125/1/3 121/1/3 123/1/3
f 126/1/3 125/1/3 124/1/3
f 127/1/3 121/1/3 125/1/3
f 127/1/3 125/1/3 126/1/3
f 130/1/3 129/1/3 128/1/3
f 131/1/3 129/1/3 130/1/3
f 132/1/3 130/1/3 128/1/3
f 133/1/3 130/1/3 132/1/3
f 136/1/3 135/1/3 134/1/3
f 137/1/3 135/1/3 136/1/3
f 140/1/3 139/1/3 138/1/3
f 141/1/3 139/1/3 140/1/3
f 144/1/3 143/1/3 142/1/3
f 145/1/3 143/1/3 144/1/3
f 146/1/4 147/1/4 148/1/4
f 148/1/4 147/1/4 149/1/4
f 148/6/4 149/6/4 150/6/4
f 150/6/4 149/6/4 151/6/4
f 148/6/4 150/6/4 152/6/4
f 151/6/4 149/6/4 153/6/4
f 146/1/4 148/1/4 154/1/4
f 152/6/4 153/6/4 154/6/4
f 148/6/4 152/6/4 154/6/4
f 153/6/4 149/6/4 155/6/4
f 154/6/4 153/6/4 155/6/4
f 149/1/4 147/1/4 155/1/4
f 146/1/4 154/1/4 156/1/4
f 154/1/4 155/1/4 156/1/4
f 155/1/4 147/1/4 157/1/4
f 156/1/4 155/1/4 157/1/4
f 158/6/4 159/6/4 160/6/4
f 160/6/4 159/6/4 161/6/4
f 162/1/4 163/1/4 164/1/4
f 164/1/4 163/1/4 165/1/4
f 165/1/4 163/1/4 166/1/4
f 167/1/4 168/1/4 169/1/4
f 169/1/4 168/1/4 170/1/4
f 171/1/4 172/1/4 173/1/4
f 173/1/4 172/1/4 174/1/4
f 174/1/4 172/1/4 176/1/4
f 175/1/4 176/1/4 177/1/4
f 176/1/4 172/1/4 178/1/4
f 177/1/4 176/1/4 178/1/4
f 179/1/4 180/1/4 181/1/4
f 181/1/4 180/1/4 182/1/4
f 183/1/4 184/1/4 185/1/4
f 185/1/4 184/1/4 186/1/4
f 183/1/4 185/1/4 187/1/4
f 187/1/4 185/1/4 188/1/4
f 189/7/4 190/7/4 191/7/4
f 191/7/4 190/7/4 192/7/4
f 195/7/5 194/7/5 193/7/5
f 196/7/5 194/7/5 195/7/5
f 199/1/5 198/1/5 197/1/5
f 200/1/5 198/1/5 199/1/5
f 203/1/5 202/1/5 201/1/5
f 204/1/5 202/1/5 203/1/5
f 207/1/5 206/1/5 205/1/5
f 208/1/5 206/1/5 207/1/5
f 211/1/5 210/1/5 209/1/5
f 212/1/5 210/1/5 211/1/5
f 215/6/5 214/6/5 213/6/5
f 216/6/5 214/6/5 215/6/5
f 219/6/5 218/6/5 217/6/5
f 220/6/5 218/6/5 219/6/5
f 223/2/5 222/2/5 221/2/5
f 224/2/5 222/2/5 223/2/5
f 229/2/5 226/2/5 225/2/5
f 230/2/5 226/2/5 229/2/5
f 233/2/5 232/2/5 231/2/5
f 234/2/5 232/2/5 233/2/5
f 235/2/5 228/2/5 227/2/5
f 236/2/5 228/2/5 235/2/5
f 237/5/6 238/5/6 239/5/6
f 239/5/6 238/5/6 240/5/6
f 240/5/6 238/5/6 241/5/6
f 241/5/6 238/5/6 242/5/6
f 242/5/6 238/5/6 243/5/6
f 243/5/6 238/5/6 244/5/6
f 237/5/6 239/5/6 245/5/6
f 239/4/6 240/4/6 245/4/6
f 240/5/6 241/5/6 246/5/6
f 245/4/6 240/4/6 246/4/6
f 243/4/6 244/4/6 247/4/6
f 242/3/6 243/3/6 247/3/6
f 244/5/6 238/5/6 248/5/6
f 247/4/6 244/4/6 248/4/6
f 246/5/6 241/5/6 249/5/6
f 245/5/6 246/5/6 249/5/6
f 249/5/6 241/5/6 250/5/6
f 245/5/6 249/5/6 251/5/6
f 249/4/6 250/4/6 251/4/6
f 250/5/6 241/5/6 252/5/6
f 251/4/6 250/4/6 252/4/6
f 241/4/6 242/4/6 253/4/6
f 252/5/6 241/5/6 253/5/6
f 242/3/6 247/3/6 254/3/6
f 253/4/6 242/4/6 254/4/6
f 247/3/6 248/3/6 254/3/6
f 248/5/6 238/5/6 255/5/6
f 252/5/6 253/5/6 258/5/6
f 237/5/6 245/5/6 258/5/6
f 251/5/6 252/5/6 258/5/6
f 245/5/6 251/5/6 258/5/6
f 253/5/6 254/5/6 258/5/6
f 254/3/6 248/3/6 259/3/6
f 258/5/6 254/5/6 259/5/6
f 259/3/6 248/3/6 260/3/6
f 260/3/6 248/3/6 261/3/6
f 255/5/6 256/5/6 262/5/6
f 261/3/6 248/3/6 262/3/6
f 248/5/6 255/5/6 262/5/6
f 256/7/6 257/7/6 263/7/6
f 262/5/6 256/5/6 263/5/6
f 259/3/6 260/3/6 264/3/6
f 258/4/6 259/4/6 264/4/6
f 260/4/6 261/4/6 265/4/6
f 264/3/6 260/3/6 265/3/6
f 261/3/6 262/3/6 266/3/6
f 262/3/6 263/3/6 266/3/6
f 263/7/6 257/7/6 267/7/6
f 266/3/6 263/3/6 267/3/6
f 237/5/6 258/5/6 268/5/6
f 258/4/6 264/4/6 268/4/6
f 268/4/6 264/4/6 269/4/6
f 269/4/6 264/4/6 270/4/6
f 264/5/6 265/5/6 271/5/6
f 270/4/6 264/4/6 271/4/6
f 266/5/6 267/5/6 272/5/6
f 261/3/6 266/3/6 272/3/6
f 272/5/6 267/5/6 273/5/6
f 267/7/6 257/7/6 274/7/6
f 273/5/6 267/5/6 274/5/6
f 273/3/6 274/3/6 275/3/6
f 274/7/6 257/7/6 276/7/6
f 275/3/6 274/3/6 276/3/6
f 268/3/6 269/3/6 277/3/6
f 277/3/6 269/3/6 278/3/6
f 278/3/6 269/3/6 279/3/6
f 269/4/6 270/4/6 280/4/6
f 279/3/6 269/3/6 280/3/6
f 270/5/6 271/5/6 281/5/6
f 280/4/6 270/4/6 281/4/6
f 275/5/6 276/5/6 282/5/6
f 276/7/6 257/7/6 283/7/6
f 282/5/6 276/5/6 283/5/6
f 283/7/6 257/7/6 284/7/6
f 271/5/6 265/5/6 285/5/6
f 279/5/6 280/5/6 285/5/6
f 280/5/6 281/5/6 285/5/6
f 281/5/6 271/5/6 285/5/6
f 265/4/6 261/4/6 286/4/6
f 285/5/6 265/5/6 286/5/6
f 261/3/6 272/3/6 287/3/6
f 286/4/6 261/4/6 287/4/6
f 272/4/6 273/4/6 288/4/6
f 287/3/6 272/3/6 288/3/6
f 279/5/6 285/5/6 289/5/6
f 286/4/6 287/4/6 289/4/6
f 287/4/6 288/4/6 289/4/6
f 285/4/6 286/4/6 289/4/6
f 288/4/6 273/4/6 290/4/6
f 289/4/6 288/4/6 290/4/6
f 279/5/6 289/5/6 291/5/6
f 278/4/6 279/4/6 291/4/6
f 291/5/6 289/5/6 292/5/6
f 268/3/6 277/3/6 293/3/6
f 237/5/6 268/5/6 293/5/6
f 277/5/6 278/5/6 294/5/6
f 293/3/6 277/3/6 294/3/6
f 291/4/6 292/4/6 295/4/6
f 294/5/6 278/5/6 295/5/6
f 278/4/6 291/4/6 295/4/6
f 292/5/6 289/5/6 296/5/6
f 295/4/6 292/4/6 296/4/6
f 289/3/6 290/3/6 297/3/6
f 296/5/6 289/5/6 297/5/6
f 290/4/6 273/4/6 298/4/6
f 297/3/6 290/3/6 298/3/6
f 273/3/6 275/3/6 299/3/6
f 298/4/6 273/4/6 299/4/6
f 275/5/6 282/5/6 300/5/6
f 299/3/6 275/3/6 300/3/6
f 296/5/6 297/5/6 301/5/6
f 294/5/6 295/5/6 301/5/6
f 299/5/6 300/5/6 301/5/6
f 297/5/6 298/5/6 301/5/6
f 298/5/6 299/5/6 301/5/6
f 293/5/6 294/5/6 301/5/6
f 295/5/6 296/5/6 301/5/6
f 237/5/6 293/5/6 301/5/6
f 301/5/6 300/5/6 302/5/6
f 302/5/6 300/5/6 303/5/6
f 300/5/6 282/5/6 304/5/6
f 303/5/6 300/5/6 304/5/6
f 302/5/6 303/5/6 308/5/6
f 308/5/6 303/5/6 309/5/6
f 305/5/6 306/5/6 311/5/6
f 311/5/6 306/5/6 312/5/6
f 312/5/6 306/5/6 313/5/6
f 309/5/6 310/5/6 314/5/6
f 307/5/6 308/5/6 314/5/6
f 308/5/6 309/5/6 314/5/6
f 314/5/6 310/5/6 315/5/6
f 312/4/6 313/4/6 316/4/6
f 313/5/6 306/5/6 317/5/6
f 316/4/6 313/4/6 317/4/6
f 307/5/6 314/5/6 318/5/6
f 314/4/6 315/4/6 318/4/6
f 315/5/6 310/5/6 319/5/6
f 318/4/6 315/4/6 319/4/6
f 319/5/6 310/5/6 320/5/6
f 320/5/6 310/5/6 321/5/6
f 321/5/6 310/5/6 322/5/6
f 317/5/6 306/5/6 323/5/6
f 307/5/6 318/5/6 324/5/6
f 317/5/6 323/5/6 325/5/6
f 323/5/6 324/5/6 325/5/6
f 316/3/6 317/3/6 325/3/6
f 324/5/6 318/5/6 326/5/6
f 325/5/6 324/5/6 326/5/6
f 318/3/6 319/3/6 326/3/6
f 319/3/6 320/3/6 326/3/6
f 320/5/6 321/5/6 327/5/6
f 326/3/6 320/3/6 327/3/6
f 325/3/6 326/3/6 327/3/6
f 321/3/6 322/3/6 328/3/6
f 327/5/6 321/5/6 328/5/6
f 311/3/6 312/3/6 329/3/6
f 305/5/6 311/5/6 329/5/6
f 329/3/6 312/3/6 330/3/6
f 330/3/6 312/3/6 331/3/6
f 312/4/6 316/4/6 332/4/6
f 331/3/6 312/3/6 332/3/6
f 316/3/6 325/3/6 333/3/6
f 332/4/6 316/4/6 333/4/6
f 325/3/6 327/3/6 333/3/6
f 333/3/6 327/3/6 334/3/6
f 327/4/6 328/4/6 335/4/6
f 334/3/6 327/3/6 335/3/6
f 328/3/6 322/3/6 336/3/6
f 335/4/6 328/4/6 336/4/6
f 329/5/6 330/5/6 337/5/6
f 305/5/6 329/5/6 337/5/6
f 330/4/6 331/4/6 338/4/6
f 337/5/6 330/5/6 338/5/6
f 331/5/6 332/5/6 339/5/6
f 338/4/6 331/4/6 339/4/6
f 333/5/6 334/5/6 339/5/6
f 332/5/6 333/5/6 339/5/6
f 334/3/6 335/3/6 340/3/6
f 339/5/6 334/5/6 340/5/6
f 335/3/6 336/3/6 340/3/6
f 305/5/6 337/5/6 341/5/6
f 337/3/6 338/3/6 341/3/6
f 339/3/6 340/3/6 341/3/6
f 338/3/6 339/3/6 341/3/6
f 340/3/6 336/3/6 342/3/6
f 341/3/6 340/3/6 342/3/6
f 305/5/6 341/5/6 343/5/6
f 341/5/6 342/5/6 343/5/6
f 343/5/6 342/5/6 344/5/6
f 344/5/6 342/5/6 346/5/6
f 345/5/6 346/5/6 347/5/6
f 342/3/6 336/3/6 348/3/6
f 347/5/6 346/5/6 348/5/6
f 346/5/6 342/5/6 348/5/6
f 345/5/6 347/5/6 349/5/6
f 347/3/6 348/3/6 350/3/6
f 349/5/6 347/5/6 350/5/6
f 350/3/6 348/3/6 351/3/6
f 348/3/6 336/3/6 352/3/6
f 351/3/6 348/3/6 352/3/6
f 349/4/6 350/4/6 353/4/6
f 353/4/6 350/4/6 354/4/6
f 350/3/6 351/3/6 355/3/6
f 354/4/6 350/4/6 355/4/6
f 351/5/6 352/5/6 356/5/6
f 355/3/6 351/3/6 356/3/6
f 356/5/6 352/5/6 357/5/6
f 357/5/6 352/5/6 358/5/6
f 352/3/6 336/3/6 359/3/6
f 358/5/6 352/5/6 359/5/6
f 322/5/6 310/5/6 360/5/6
f 359/3/6 336/3/6 360/3/6
f 336/3/6 322/3/6 360/3/6
f 356/5/6 357/5/6 361/5/6
f 354/3/6 355/3/6 361/3/6
f 355/5/6 356/5/6 361/5/6
f 361/5/6 357/5/6 362/5/6
f 358/5/6 359/5/6 363/5/6
f 359/5/6 360/5/6 363/5/6
f 360/5/6 310/5/6 364/5/6
f 363/5/6 360/5/6 364/5/6
f 345/5/6 349/5/6 365/5/6
f 349/4/6 353/4/6 365/4/6
f 353/5/6 354/5/6 366/5/6
f 365/4/6 353/4/6 366/4/6
f 361/3/6 362/3/6 367/3/6
f 366/5/6 354/5/6 367/5/6
f 354/3/6 361/3/6 367/3/6
f 367/3/6 362/3/6 368/3/6
f 358/5/6 363/5/6 369/5/6
f 363/3/6 364/3/6 369/3/6
f 364/5/6 310/5/6 370/5/6
f 369/3/6 364/3/6 370/3/6
f 345/5/6 365/5/6 371/5/6
f 365/5/6 366/5/6 371/5/6
f 367/5/6 368/5/6 371/5/6
f 366/5/6 367/5/6 371/5/6
f 371/5/6 368/5/6 372/5/6
f 369/5/6 370/5/6 373/5/6
f 358/5/6 369/5/6 373/5/6
f 370/5/6 310/5/6 374/5/6
f 373/5/6 370/5/6 374/5/6
f 375/6/6 376/6/6 377/6/6
f 377/6/6 376/6/6 378/6/6
f 379/6/6 380/6/6 381/6/6
f 381/6/6 380/6/6 382/6/6
f 383/7/6 384/7/6 385/7/6
f 385/7/6 384/7/6 386/7/6
