# MagicaVoxel @ Ephtracy

# group
o 

# material
mtllib Bedside table.mtl
usemtl palette

# normals
vn -1 0 0
vn 1 0 0
vn 0 0 1
vn 0 0 -1
vn 0 -1 0
vn 0 1 0

# texcoords
vt 0.232422 0.5
vt 0.396484 0.5
vt 0.986328 0.5

# verts
v -0.5 0 0.4
v -0.5 0 -0.6
v -0.5 1.1 0.4
v -0.5 1.1 -0.6
v -0.2 0.3 0.5
v -0.2 0.3 0.4
v -0.2 0.4 0.5
v -0.2 0.4 0.4
v -0.2 0.8 0.5
v -0.2 0.8 0.4
v -0.2 0.9 0.5
v -0.2 0.9 0.4
v 0.2 0.3 0.5
v 0.2 0.3 0.4
v 0.2 0.4 0.5
v 0.2 0.4 0.4
v 0.2 0.8 0.5
v 0.2 0.8 0.4
v 0.2 0.9 0.5
v 0.2 0.9 0.4
v 0.5 0 0.4
v 0.5 0 -0.6
v 0.5 1.1 0.4
v 0.5 1.1 -0.6
v -0.2 0.3 0.5
v -0.2 0.4 0.5
v -0.2 0.8 0.5
v -0.2 0.9 0.5
v 0.2 0.3 0.5
v 0.2 0.4 0.5
v 0.2 0.8 0.5
v 0.2 0.9 0.5
v -0.5 0 0.4
v -0.5 1.1 0.4
v -0.4 0.1 0.4
v -0.4 0.5 0.4
v -0.4 0.6 0.4
v -0.4 1 0.4
v -0.2 0.3 0.4
v -0.2 0.4 0.4
v -0.2 0.8 0.4
v -0.2 0.9 0.4
v 0.2 0.3 0.4
v 0.2 0.4 0.4
v 0.2 0.8 0.4
v 0.2 0.9 0.4
v 0.4 0.1 0.4
v 0.4 0.5 0.4
v 0.4 0.6 0.4
v 0.4 1 0.4
v 0.5 0 0.4
v 0.5 1.1 0.4
v -0.5 0 -0.6
v -0.5 1.1 -0.6
v -0.4 0 -0.6
v -0.4 1 -0.6
v 0.4 0 -0.6
v 0.4 1 -0.6
v 0.5 0 -0.6
v 0.5 1.1 -0.6
v -0.5 0 0.4
v 0.5 0 0.4
v -0.4 0 0.3
v 0.4 0 0.3
v -0.5 0 -0.6
v -0.4 0 -0.6
v 0.4 0 -0.6
v 0.5 0 -0.6
v -0.2 0.3 0.5
v 0.2 0.3 0.5
v -0.2 0.3 0.4
v 0.2 0.3 0.4
v -0.2 0.8 0.5
v 0.2 0.8 0.5
v -0.2 0.8 0.4
v 0.2 0.8 0.4
v -0.2 0.4 0.5
v 0.2 0.4 0.5
v -0.2 0.4 0.4
v 0.2 0.4 0.4
v -0.2 0.9 0.5
v 0.2 0.9 0.5
v -0.2 0.9 0.4
v 0.2 0.9 0.4
v -0.5 1.1 0.4
v 0.5 1.1 0.4
v -0.4 1.1 0.3
v 0.4 1.1 0.3
v -0.4 1.1 -0.5
v 0.4 1.1 -0.5
v -0.5 1.1 -0.6
v 0.5 1.1 -0.6

# faces
f 3/2/1 2/2/1 1/2/1
f 4/2/1 2/2/1 3/2/1
f 7/3/1 6/3/1 5/3/1
f 8/3/1 6/3/1 7/3/1
f 11/3/1 10/3/1 9/3/1
f 12/3/1 10/3/1 11/3/1
f 13/3/2 14/3/2 15/3/2
f 15/3/2 14/3/2 16/3/2
f 17/3/2 18/3/2 19/3/2
f 19/3/2 18/3/2 20/3/2
f 21/2/2 22/2/2 23/2/2
f 23/2/2 22/2/2 24/2/2
f 29/3/3 26/3/3 25/3/3
f 30/3/3 26/3/3 29/3/3
f 31/3/3 28/3/3 27/3/3
f 32/3/3 28/3/3 31/3/3
f 35/2/3 34/2/3 33/2/3
f 36/2/3 34/2/3 35/2/3
f 37/2/3 34/2/3 36/2/3
f 38/2/3 34/2/3 37/2/3
f 39/1/3 36/1/3 35/1/3
f 40/1/3 36/1/3 39/1/3
f 41/1/3 38/1/3 37/1/3
f 42/1/3 38/1/3 41/1/3
f 43/1/3 39/1/3 35/1/3
f 44/1/3 36/1/3 40/1/3
f 45/1/3 41/1/3 37/1/3
f 46/1/3 38/1/3 42/1/3
f 47/2/3 35/2/3 33/2/3
f 47/1/3 43/1/3 35/1/3
f 47/1/3 44/1/3 43/1/3
f 48/2/3 37/2/3 36/2/3
f 48/1/3 44/1/3 47/1/3
f 48/1/3 36/1/3 44/1/3
f 49/1/3 46/1/3 45/1/3
f 49/2/3 37/2/3 48/2/3
f 49/1/3 45/1/3 37/1/3
f 50/2/3 34/2/3 38/2/3
f 50/1/3 46/1/3 49/1/3
f 50/1/3 38/1/3 46/1/3
f 51/2/3 48/2/3 47/2/3
f 51/2/3 49/2/3 48/2/3
f 51/2/3 50/2/3 49/2/3
f 51/2/3 47/2/3 33/2/3
f 52/2/3 34/2/3 50/2/3
f 52/2/3 50/2/3 51/2/3
f 53/2/4 54/2/4 55/2/4
f 55/2/4 54/2/4 56/2/4
f 55/1/4 56/1/4 57/1/4
f 56/2/4 54/2/4 58/2/4
f 57/1/4 56/1/4 58/1/4
f 57/2/4 58/2/4 59/2/4
f 58/2/4 54/2/4 60/2/4
f 59/2/4 58/2/4 60/2/4
f 63/2/5 62/2/5 61/2/5
f 64/2/5 62/2/5 63/2/5
f 65/2/5 63/2/5 61/2/5
f 66/1/5 64/1/5 63/1/5
f 66/2/5 63/2/5 65/2/5
f 67/2/5 62/2/5 64/2/5
f 67/1/5 64/1/5 66/1/5
f 68/2/5 62/2/5 67/2/5
f 71/3/5 70/3/5 69/3/5
f 72/3/5 70/3/5 71/3/5
f 75/3/5 74/3/5 73/3/5
f 76/3/5 74/3/5 75/3/5
f 77/3/6 78/3/6 79/3/6
f 79/3/6 78/3/6 80/3/6
f 81/3/6 82/3/6 83/3/6
f 83/3/6 82/3/6 84/3/6
f 85/2/6 86/2/6 87/2/6
f 87/2/6 86/2/6 88/2/6
f 85/2/6 87/2/6 89/2/6
f 87/1/6 88/1/6 89/1/6
f 88/2/6 86/2/6 90/2/6
f 89/1/6 88/1/6 90/1/6
f 85/2/6 89/2/6 91/2/6
f 89/2/6 90/2/6 91/2/6
f 90/2/6 86/2/6 92/2/6
f 91/2/6 90/2/6 92/2/6
