# MagicaVoxel @ Ephtracy

# group
o 

# material
mtllib Chest.mtl
usemtl palette

# normals
vn -1 0 0
vn 1 0 0
vn 0 0 1
vn 0 0 -1
vn 0 -1 0
vn 0 1 0

# texcoords
vt 0.0644531 0.5
vt 0.951172 0.5
vt 0.994141 0.5

# verts
v -1 0 0.5
v -1 0 -0.5
v -1 0.1 0.4
v -1 0.1 -0.4
v -1 0.2 0.3
v -1 0.2 -0.3
v -1 0.9 0.3
v -1 0.9 -0.3
v -1 1 0.4
v -1 1 -0.4
v -1 1.1 0.5
v -1 1.1 -0.5
v -1 1.2 0.6
v -1 1.2 -0.5
v -1 1.3 0.6
v -1 1.3 -0.5
v -0.9 0 0.6
v -0.9 0 0.5
v -0.9 0 -0.5
v -0.9 0 -0.6
v -0.9 1.1 0.6
v -0.9 1.1 0.5
v -0.9 1.1 -0.5
v -0.9 1.1 -0.6
v -0.9 1.2 0.5
v -0.9 1.2 -0.5
v -0.9 1.2 -0.6
v -0.9 1.3 0.5
v -0.9 1.3 -0.5
v -0.9 1.3 -0.6
v -0.9 1.4 0.5
v -0.9 1.4 -0.5
v -0.7 0.1 0.6
v -0.7 0.1 0.5
v -0.7 1 0.6
v -0.7 1 0.5
v -0.7 1.3 0.4
v -0.7 1.3 -0.4
v -0.7 1.4 0.4
v -0.7 1.4 -0.4
v -0.5 0 0.6
v -0.5 0 0.5
v -0.5 0.5 -0.5
v -0.5 0.5 -0.6
v -0.5 1.1 0.6
v -0.5 1.1 0.5
v -0.5 1.1 -0.5
v -0.5 1.1 -0.6
v -0.5 1.2 0.6
v -0.5 1.2 0.5
v -0.5 1.3 0.6
v -0.5 1.3 0.5
v -0.5 1.3 -0.5
v -0.5 1.4 0.5
v -0.5 1.4 -0.5
v -0.3 0.1 0.6
v -0.3 0.1 0.5
v -0.3 0.9 0.6
v -0.3 0.9 0.5
v -0.3 1.3 0.2
v -0.3 1.3 -0.4
v -0.3 1.4 0.2
v -0.3 1.4 -0.4
v 0.4 0.1 0.6
v 0.4 0.1 0.5
v 0.4 1 0.6
v 0.4 1 0.5
v 0.4 1.3 0.3
v 0.4 1.3 -0.4
v 0.4 1.4 0.3
v 0.4 1.4 -0.4
v 0.6 0 0.6
v 0.6 0 0.5
v 0.6 0.4 -0.5
v 0.6 0.4 -0.6
v 0.6 1.1 0.6
v 0.6 1.1 0.5
v 0.6 1.1 -0.5
v 0.6 1.1 -0.6
v 0.6 1.2 0.6
v 0.6 1.2 0.5
v 0.6 1.3 0.6
v 0.6 1.3 0.5
v 0.6 1.3 -0.5
v 0.6 1.4 0.5
v 0.6 1.4 -0.5
v 0.8 0.1 0.6
v 0.8 0.1 0.5
v 0.8 1 0.6
v 0.8 1 0.5
v 0.8 1.3 0.4
v 0.8 1.3 -0.4
v 0.8 1.4 0.4
v 0.8 1.4 -0.4
v -0.8 0.1 0.6
v -0.8 0.1 0.5
v -0.8 1 0.6
v -0.8 1 0.5
v -0.8 1.3 0.4
v -0.8 1.3 -0.4
v -0.8 1.4 0.4
v -0.8 1.4 -0.4
v -0.6 0 0.6
v -0.6 0 0.5
v -0.6 0.5 -0.5
v -0.6 0.5 -0.6
v -0.6 1.1 0.6
v -0.6 1.1 0.5
v -0.6 1.1 -0.5
v -0.6 1.1 -0.6
v -0.6 1.2 0.6
v -0.6 1.2 0.5
v -0.6 1.3 0.6
v -0.6 1.3 0.5
v -0.6 1.3 -0.5
v -0.6 1.4 0.5
v -0.6 1.4 -0.5
v -0.4 0.1 0.6
v -0.4 0.1 0.5
v -0.4 1 0.6
v -0.4 1 0.5
v -0.4 1.3 0.3
v -0.4 1.3 -0.4
v -0.4 1.4 0.3
v -0.4 1.4 -0.4
v 0.3 0.1 0.6
v 0.3 0.1 0.5
v 0.3 0.9 0.6
v 0.3 0.9 0.5
v 0.3 1.3 0.2
v 0.3 1.3 -0.4
v 0.3 1.4 0.2
v 0.3 1.4 -0.4
v 0.5 0 0.6
v 0.5 0 0.5
v 0.5 0.4 -0.5
v 0.5 0.4 -0.6
v 0.5 1.1 0.6
v 0.5 1.1 0.5
v 0.5 1.1 -0.5
v 0.5 1.1 -0.6
v 0.5 1.2 0.6
v 0.5 1.2 0.5
v 0.5 1.3 0.6
v 0.5 1.3 0.5
v 0.5 1.3 -0.5
v 0.5 1.4 0.5
v 0.5 1.4 -0.5
v 0.7 0.1 0.6
v 0.7 0.1 0.5
v 0.7 1 0.6
v 0.7 1 0.5
v 0.7 1.3 0.4
v 0.7 1.3 -0.4
v 0.7 1.4 0.4
v 0.7 1.4 -0.4
v 0.9 0 0.6
v 0.9 0 0.5
v 0.9 0 -0.5
v 0.9 0 -0.6
v 0.9 1.1 0.6
v 0.9 1.1 0.5
v 0.9 1.1 -0.5
v 0.9 1.1 -0.6
v 0.9 1.2 0.6
v 0.9 1.2 0.5
v 0.9 1.2 -0.5
v 0.9 1.2 -0.6
v 0.9 1.3 0.6
v 0.9 1.3 0.5
v 0.9 1.3 -0.5
v 0.9 1.3 -0.6
v 0.9 1.4 0.5
v 0.9 1.4 -0.5
v 1 0 0.5
v 1 0 -0.5
v 1 0.1 0.4
v 1 0.1 -0.4
v 1 0.2 0.3
v 1 0.2 -0.3
v 1 0.9 0.3
v 1 0.9 -0.3
v 1 1 0.4
v 1 1 -0.4
v 1 1.1 0.5
v 1 1.1 -0.5
v 1 1.2 0.5
v 1 1.2 -0.5
v 1 1.3 0.5
v 1 1.3 -0.5
v -1 1.2 0.6
v -1 1.3 0.6
v -0.9 0 0.6
v -0.9 1.1 0.6
v -0.8 0.1 0.6
v -0.8 1 0.6
v -0.7 0.1 0.6
v -0.7 1 0.6
v -0.6 0 0.6
v -0.6 1.1 0.6
v -0.6 1.2 0.6
v -0.6 1.3 0.6
v -0.5 0 0.6
v -0.5 1.1 0.6
v -0.5 1.2 0.6
v -0.5 1.3 0.6
v -0.4 0.1 0.6
v -0.4 1 0.6
v -0.3 0.1 0.6
v -0.3 0.9 0.6
v -0.2 0.5 0.6
v -0.2 0.6 0.6
v -0.2 0.7 0.6
v -0.2 0.8 0.6
v -0.2 1.2 0.6
v -0.2 1.3 0.6
v 0.2 0.5 0.6
v 0.2 0.6 0.6
v 0.2 0.7 0.6
v 0.2 0.8 0.6
v 0.2 1.2 0.6
v 0.2 1.3 0.6
v 0.3 0.1 0.6
v 0.3 0.9 0.6
v 0.4 0.1 0.6
v 0.4 1 0.6
v 0.5 0 0.6
v 0.5 1.1 0.6
v 0.5 1.2 0.6
v 0.5 1.3 0.6
v 0.6 0 0.6
v 0.6 1.1 0.6
v 0.6 1.2 0.6
v 0.6 1.3 0.6
v 0.7 0.1 0.6
v 0.7 1 0.6
v 0.8 0.1 0.6
v 0.8 1 0.6
v 0.9 0 0.6
v 0.9 1.1 0.6
v 0.9 1.2 0.6
v 0.9 1.3 0.6
v -1 0 0.5
v -1 1.1 0.5
v -0.9 0 0.5
v -0.9 1.1 0.5
v -0.9 1.2 0.5
v -0.9 1.3 0.5
v -0.9 1.4 0.5
v -0.8 0.1 0.5
v -0.8 1 0.5
v -0.7 0.1 0.5
v -0.7 1 0.5
v -0.6 0 0.5
v -0.6 1.1 0.5
v -0.6 1.2 0.5
v -0.6 1.3 0.5
v -0.6 1.4 0.5
v -0.5 0 0.5
v -0.5 1.1 0.5
v -0.5 1.2 0.5
v -0.5 1.3 0.5
v -0.5 1.4 0.5
v -0.4 0.1 0.5
v -0.4 1 0.5
v -0.3 0.1 0.5
v -0.3 0.9 0.5
v -0.2 1.2 0.5
v -0.2 1.3 0.5
v -0.2 1.4 0.5
v 0.2 1.2 0.5
v 0.2 1.3 0.5
v 0.2 1.4 0.5
v 0.3 0.1 0.5
v 0.3 0.9 0.5
v 0.4 0.1 0.5
v 0.4 1 0.5
v 0.5 0 0.5
v 0.5 1.1 0.5
v 0.5 1.2 0.5
v 0.5 1.3 0.5
v 0.5 1.4 0.5
v 0.6 0 0.5
v 0.6 1.1 0.5
v 0.6 1.2 0.5
v 0.6 1.3 0.5
v 0.6 1.4 0.5
v 0.7 0.1 0.5
v 0.7 1 0.5
v 0.8 0.1 0.5
v 0.8 1 0.5
v 0.9 0 0.5
v 0.9 1.1 0.5
v 0.9 1.2 0.5
v 0.9 1.3 0.5
v 0.9 1.4 0.5
v 1 0 0.5
v 1 1.1 0.5
v 1 1.2 0.5
v 1 1.3 0.5
v -0.3 1.3 0.2
v -0.3 1.4 0.2
v 0.3 1.3 0.2
v 0.3 1.4 0.2
v -0.8 1.3 -0.4
v -0.8 1.4 -0.4
v -0.7 1.3 -0.4
v -0.7 1.4 -0.4
v -0.4 1.3 -0.4
v -0.4 1.4 -0.4
v -0.3 1.3 -0.4
v -0.3 1.4 -0.4
v 0.3 1.3 -0.4
v 0.3 1.4 -0.4
v 0.4 1.3 -0.4
v 0.4 1.4 -0.4
v 0.7 1.3 -0.4
v 0.7 1.4 -0.4
v 0.8 1.3 -0.4
v 0.8 1.4 -0.4
v -0.8 1.3 0.4
v -0.8 1.4 0.4
v -0.7 1.3 0.4
v -0.7 1.4 0.4
v 0.7 1.3 0.4
v 0.7 1.4 0.4
v 0.8 1.3 0.4
v 0.8 1.4 0.4
v -0.4 1.3 0.3
v -0.4 1.4 0.3
v 0.4 1.3 0.3
v 0.4 1.4 0.3
v -1 0 -0.5
v -1 1.1 -0.5
v -1 1.2 -0.5
v -1 1.3 -0.5
v -0.9 0 -0.5
v -0.9 1.1 -0.5
v -0.9 1.2 -0.5
v -0.9 1.3 -0.5
v -0.9 1.4 -0.5
v -0.6 0.5 -0.5
v -0.6 1.1 -0.5
v -0.6 1.2 -0.5
v -0.6 1.3 -0.5
v -0.6 1.4 -0.5
v -0.5 0.5 -0.5
v -0.5 1.1 -0.5
v -0.5 1.2 -0.5
v -0.5 1.3 -0.5
v -0.5 1.4 -0.5
v 0.5 0.4 -0.5
v 0.5 1.1 -0.5
v 0.5 1.2 -0.5
v 0.5 1.3 -0.5
v 0.5 1.4 -0.5
v 0.6 0.4 -0.5
v 0.6 1.1 -0.5
v 0.6 1.2 -0.5
v 0.6 1.3 -0.5
v 0.6 1.4 -0.5
v 0.9 0 -0.5
v 0.9 1.1 -0.5
v 0.9 1.2 -0.5
v 0.9 1.3 -0.5
v 0.9 1.4 -0.5
v 1 0 -0.5
v 1 1.1 -0.5
v 1 1.2 -0.5
v 1 1.3 -0.5
v -0.9 0 -0.6
v -0.9 1.1 -0.6
v -0.9 1.2 -0.6
v -0.9 1.3 -0.6
v -0.6 0 -0.6
v -0.6 0.5 -0.6
v -0.6 1.1 -0.6
v -0.6 1.2 -0.6
v -0.6 1.3 -0.6
v -0.5 0 -0.6
v -0.5 0.5 -0.6
v -0.5 1.1 -0.6
v -0.5 1.2 -0.6
v -0.5 1.3 -0.6
v 0.5 0 -0.6
v 0.5 0.4 -0.6
v 0.5 1.1 -0.6
v 0.5 1.2 -0.6
v 0.5 1.3 -0.6
v 0.6 0 -0.6
v 0.6 0.4 -0.6
v 0.6 1.1 -0.6
v 0.6 1.2 -0.6
v 0.6 1.3 -0.6
v 0.9 0 -0.6
v 0.9 1.1 -0.6
v 0.9 1.2 -0.6
v 0.9 1.3 -0.6
v -0.9 0 0.6
v -0.6 0 0.6
v -0.5 0 0.6
v 0.5 0 0.6
v 0.6 0 0.6
v 0.9 0 0.6
v -1 0 0.5
v -0.9 0 0.5
v -0.6 0 0.5
v -0.5 0 0.5
v 0.5 0 0.5
v 0.6 0 0.5
v 0.9 0 0.5
v 1 0 0.5
v -1 0 -0.5
v -0.9 0 -0.5
v 0.9 0 -0.5
v 1 0 -0.5
v -0.9 0 -0.6
v -0.6 0 -0.6
v -0.5 0 -0.6
v 0.5 0 -0.6
v 0.6 0 -0.6
v 0.9 0 -0.6
v -0.8 1 0.6
v -0.7 1 0.6
v -0.4 1 0.6
v 0.4 1 0.6
v 0.7 1 0.6
v 0.8 1 0.6
v -0.8 1 0.5
v -0.7 1 0.5
v -0.4 1 0.5
v 0.4 1 0.5
v 0.7 1 0.5
v 0.8 1 0.5
v -1 1.2 0.6
v -0.6 1.2 0.6
v -0.5 1.2 0.6
v -0.2 1.2 0.6
v 0.2 1.2 0.6
v 0.5 1.2 0.6
v 0.6 1.2 0.6
v 0.9 1.2 0.6
v -0.9 1.2 0.5
v -0.6 1.2 0.5
v -0.5 1.2 0.5
v -0.2 1.2 0.5
v 0.2 1.2 0.5
v 0.5 1.2 0.5
v 0.6 1.2 0.5
v 0.9 1.2 0.5
v 1 1.2 0.5
v -1 1.2 -0.5
v -0.9 1.2 -0.5
v -0.6 1.2 -0.5
v -0.5 1.2 -0.5
v 0.5 1.2 -0.5
v 0.6 1.2 -0.5
v 0.9 1.2 -0.5
v 1 1.2 -0.5
v -0.9 1.2 -0.6
v -0.6 1.2 -0.6
v -0.5 1.2 -0.6
v 0.5 1.2 -0.6
v 0.6 1.2 -0.6
v 0.9 1.2 -0.6
v -0.8 0.1 0.6
v -0.7 0.1 0.6
v -0.4 0.1 0.6
v -0.3 0.1 0.6
v 0.3 0.1 0.6
v 0.4 0.1 0.6
v 0.7 0.1 0.6
v 0.8 0.1 0.6
v -0.8 0.1 0.5
v -0.7 0.1 0.5
v -0.4 0.1 0.5
v -0.3 0.1 0.5
v 0.3 0.1 0.5
v 0.4 0.1 0.5
v 0.7 0.1 0.5
v 0.8 0.1 0.5
v 0.5 0.4 -0.5
v 0.6 0.4 -0.5
v 0.5 0.4 -0.6
v 0.6 0.4 -0.6
v -0.6 0.5 -0.5
v -0.5 0.5 -0.5
v -0.6 0.5 -0.6
v -0.5 0.5 -0.6
v -0.3 0.9 0.6
v 0.3 0.9 0.6
v -0.3 0.9 0.5
v 0.3 0.9 0.5
v -0.9 1.1 0.6
v -0.6 1.1 0.6
v -0.5 1.1 0.6
v 0.5 1.1 0.6
v 0.6 1.1 0.6
v 0.9 1.1 0.6
v -1 1.1 0.5
v -0.9 1.1 0.5
v -0.6 1.1 0.5
v -0.5 1.1 0.5
v 0.5 1.1 0.5
v 0.6 1.1 0.5
v 0.9 1.1 0.5
v 1 1.1 0.5
v -1 1.1 -0.5
v -0.9 1.1 -0.5
v -0.6 1.1 -0.5
v -0.5 1.1 -0.5
v 0.5 1.1 -0.5
v 0.6 1.1 -0.5
v 0.9 1.1 -0.5
v 1 1.1 -0.5
v -0.9 1.1 -0.6
v -0.6 1.1 -0.6
v -0.5 1.1 -0.6
v 0.5 1.1 -0.6
v 0.6 1.1 -0.6
v 0.9 1.1 -0.6
v -1 1.3 0.6
v -0.6 1.3 0.6
v -0.5 1.3 0.6
v -0.2 1.3 0.6
v 0.2 1.3 0.6
v 0.5 1.3 0.6
v 0.6 1.3 0.6
v 0.9 1.3 0.6
v -0.9 1.3 0.5
v -0.6 1.3 0.5
v -0.5 1.3 0.5
v -0.2 1.3 0.5
v 0.2 1.3 0.5
v 0.5 1.3 0.5
v 0.6 1.3 0.5
v 0.9 1.3 0.5
v 1 1.3 0.5
v -0.8 1.3 0.4
v -0.7 1.3 0.4
v 0.7 1.3 0.4
v 0.8 1.3 0.4
v -0.4 1.3 0.3
v 0.4 1.3 0.3
v -0.3 1.3 0.2
v 0.3 1.3 0.2
v -0.8 1.3 -0.4
v -0.7 1.3 -0.4
v -0.4 1.3 -0.4
v -0.3 1.3 -0.4
v 0.3 1.3 -0.4
v 0.4 1.3 -0.4
v 0.7 1.3 -0.4
v 0.8 1.3 -0.4
v -1 1.3 -0.5
v -0.9 1.3 -0.5
v -0.6 1.3 -0.5
v -0.5 1.3 -0.5
v 0.5 1.3 -0.5
v 0.6 1.3 -0.5
v 0.9 1.3 -0.5
v 1 1.3 -0.5
v -0.9 1.3 -0.6
v -0.6 1.3 -0.6
v -0.5 1.3 -0.6
v 0.5 1.3 -0.6
v 0.6 1.3 -0.6
v 0.9 1.3 -0.6
v -0.9 1.4 0.5
v -0.6 1.4 0.5
v -0.5 1.4 0.5
v -0.2 1.4 0.5
v 0.2 1.4 0.5
v 0.5 1.4 0.5
v 0.6 1.4 0.5
v 0.9 1.4 0.5
v -0.8 1.4 0.4
v -0.7 1.4 0.4
v -0.2 1.4 0.4
v 0.2 1.4 0.4
v 0.7 1.4 0.4
v 0.8 1.4 0.4
v -0.4 1.4 0.3
v 0.4 1.4 0.3
v -0.3 1.4 0.2
v 0.3 1.4 0.2
v -0.8 1.4 -0.4
v -0.7 1.4 -0.4
v -0.4 1.4 -0.4
v -0.3 1.4 -0.4
v 0.3 1.4 -0.4
v 0.4 1.4 -0.4
v 0.7 1.4 -0.4
v 0.8 1.4 -0.4
v -0.9 1.4 -0.5
v -0.6 1.4 -0.5
v -0.5 1.4 -0.5
v 0.5 1.4 -0.5
v 0.6 1.4 -0.5
v 0.9 1.4 -0.5

# faces
f 3/1/1 2/1/1 1/1/1
f 4/1/1 2/1/1 3/1/1
f 5/2/1 4/2/1 3/2/1
f 6/2/1 4/2/1 5/2/1
f 7/2/1 5/2/1 3/2/1
f 7/1/1 6/1/1 5/1/1
f 8/2/1 4/2/1 6/2/1
f 8/1/1 6/1/1 7/1/1
f 9/1/1 3/1/1 1/1/1
f 9/2/1 7/2/1 3/2/1
f 9/2/1 8/2/1 7/2/1
f 10/2/1 4/2/1 8/2/1
f 10/2/1 8/2/1 9/2/1
f 10/1/1 2/1/1 4/1/1
f 11/1/1 9/1/1 1/1/1
f 11/1/1 10/1/1 9/1/1
f 12/1/1 2/1/1 10/1/1
f 12/1/1 10/1/1 11/1/1
f 15/1/1 14/1/1 13/1/1
f 16/1/1 14/1/1 15/1/1
f 21/1/1 18/1/1 17/1/1
f 22/1/1 18/1/1 21/1/1
f 23/1/1 20/1/1 19/1/1
f 24/1/1 20/1/1 23/1/1
f 25/3/1 23/3/1 22/3/1
f 26/3/1 23/3/1 25/3/1
f 29/1/1 27/1/1 26/1/1
f 30/1/1 27/1/1 29/1/1
f 31/1/1 29/1/1 28/1/1
f 32/1/1 29/1/1 31/1/1
f 35/1/1 34/1/1 33/1/1
f 36/1/1 34/1/1 35/1/1
f 39/1/1 38/1/1 37/1/1
f 40/1/1 38/1/1 39/1/1
f 45/1/1 42/1/1 41/1/1
f 46/1/1 42/1/1 45/1/1
f 47/1/1 44/1/1 43/1/1
f 48/1/1 44/1/1 47/1/1
f 51/1/1 50/1/1 49/1/1
f 52/1/1 50/1/1 51/1/1
f 54/1/1 53/1/1 52/1/1
f 55/1/1 53/1/1 54/1/1
f 58/1/1 57/1/1 56/1/1
f 59/1/1 57/1/1 58/1/1
f 62/1/1 61/1/1 60/1/1
f 63/1/1 61/1/1 62/1/1
f 66/1/1 65/1/1 64/1/1
f 67/1/1 65/1/1 66/1/1
f 70/1/1 69/1/1 68/1/1
f 71/1/1 69/1/1 70/1/1
f 76/1/1 73/1/1 72/1/1
f 77/1/1 73/1/1 76/1/1
f 78/1/1 75/1/1 74/1/1
f 79/1/1 75/1/1 78/1/1
f 82/1/1 81/1/1 80/1/1
f 83/1/1 81/1/1 82/1/1
f 85/1/1 84/1/1 83/1/1
f 86/1/1 84/1/1 85/1/1
f 89/1/1 88/1/1 87/1/1
f 90/1/1 88/1/1 89/1/1
f 93/1/1 92/1/1 91/1/1
f 94/1/1 92/1/1 93/1/1
f 95/1/2 96/1/2 97/1/2
f 97/1/2 96/1/2 98/1/2
f 99/1/2 100/1/2 101/1/2
f 101/1/2 100/1/2 102/1/2
f 103/1/2 104/1/2 107/1/2
f 107/1/2 104/1/2 108/1/2
f 105/1/2 106/1/2 109/1/2
f 109/1/2 106/1/2 110/1/2
f 111/1/2 112/1/2 113/1/2
f 113/1/2 112/1/2 114/1/2
f 114/1/2 115/1/2 116/1/2
f 116/1/2 115/1/2 117/1/2
f 118/1/2 119/1/2 120/1/2
f 120/1/2 119/1/2 121/1/2
f 122/1/2 123/1/2 124/1/2
f 124/1/2 123/1/2 125/1/2
f 126/1/2 127/1/2 128/1/2
f 128/1/2 127/1/2 129/1/2
f 130/1/2 131/1/2 132/1/2
f 132/1/2 131/1/2 133/1/2
f 134/1/2 135/1/2 138/1/2
f 138/1/2 135/1/2 139/1/2
f 136/1/2 137/1/2 140/1/2
f 140/1/2 137/1/2 141/1/2
f 142/1/2 143/1/2 144/1/2
f 144/1/2 143/1/2 145/1/2
f 145/1/2 146/1/2 147/1/2
f 147/1/2 146/1/2 148/1/2
f 149/1/2 150/1/2 151/1/2
f 151/1/2 150/1/2 152/1/2
f 153/1/2 154/1/2 155/1/2
f 155/1/2 154/1/2 156/1/2
f 157/1/2 158/1/2 161/1/2
f 161/1/2 158/1/2 162/1/2
f 159/1/2 160/1/2 163/1/2
f 163/1/2 160/1/2 164/1/2
f 162/3/2 163/3/2 166/3/2
f 166/3/2 163/3/2 167/3/2
f 165/1/2 166/1/2 169/1/2
f 169/1/2 166/1/2 170/1/2
f 167/1/2 168/1/2 171/1/2
f 171/1/2 168/1/2 172/1/2
f 170/1/2 171/1/2 173/1/2
f 173/1/2 171/1/2 174/1/2
f 175/1/2 176/1/2 177/1/2
f 177/1/2 176/1/2 178/1/2
f 177/2/2 178/2/2 179/2/2
f 179/2/2 178/2/2 180/2/2
f 177/2/2 179/2/2 181/2/2
f 179/1/2 180/1/2 181/1/2
f 180/2/2 178/2/2 182/2/2
f 181/1/2 180/1/2 182/1/2
f 175/1/2 177/1/2 183/1/2
f 177/2/2 181/2/2 183/2/2
f 181/2/2 182/2/2 183/2/2
f 182/2/2 178/2/2 184/2/2
f 183/2/2 182/2/2 184/2/2
f 178/1/2 176/1/2 184/1/2
f 175/1/2 183/1/2 185/1/2
f 183/1/2 184/1/2 185/1/2
f 184/1/2 176/1/2 186/1/2
f 185/1/2 184/1/2 186/1/2
f 187/1/2 188/1/2 189/1/2
f 189/1/2 188/1/2 190/1/2
f 195/1/3 194/1/3 193/1/3
f 196/1/3 194/1/3 195/1/3
f 197/1/3 195/1/3 193/1/3
f 198/1/3 194/1/3 196/1/3
f 199/1/3 197/1/3 193/1/3
f 199/1/3 198/1/3 197/1/3
f 200/1/3 194/1/3 198/1/3
f 200/1/3 198/1/3 199/1/3
f 201/1/3 192/1/3 191/1/3
f 202/1/3 192/1/3 201/1/3
f 207/1/3 204/1/3 203/1/3
f 208/1/3 204/1/3 207/1/3
f 209/1/3 207/1/3 203/1/3
f 211/1/3 210/1/3 209/1/3
f 212/1/3 210/1/3 211/1/3
f 213/1/3 210/1/3 212/1/3
f 214/1/3 210/1/3 213/1/3
f 215/1/3 206/1/3 205/1/3
f 216/1/3 206/1/3 215/1/3
f 217/1/3 211/1/3 209/1/3
f 217/3/3 212/3/3 211/3/3
f 218/1/3 213/1/3 212/1/3
f 218/3/3 212/3/3 217/3/3
f 219/3/3 214/3/3 213/3/3
f 219/1/3 213/1/3 218/1/3
f 220/1/3 210/1/3 214/1/3
f 220/3/3 214/3/3 219/3/3
f 221/2/3 216/2/3 215/2/3
f 222/2/3 216/2/3 221/2/3
f 223/1/3 219/1/3 218/1/3
f 223/1/3 209/1/3 203/1/3
f 223/1/3 217/1/3 209/1/3
f 223/1/3 218/1/3 217/1/3
f 223/1/3 220/1/3 219/1/3
f 224/1/3 210/1/3 220/1/3
f 224/1/3 220/1/3 223/1/3
f 225/1/3 223/1/3 203/1/3
f 226/1/3 204/1/3 208/1/3
f 227/1/3 225/1/3 203/1/3
f 227/1/3 226/1/3 225/1/3
f 228/1/3 204/1/3 226/1/3
f 228/1/3 226/1/3 227/1/3
f 229/1/3 222/1/3 221/1/3
f 230/1/3 222/1/3 229/1/3
f 235/1/3 232/1/3 231/1/3
f 236/1/3 232/1/3 235/1/3
f 237/1/3 235/1/3 231/1/3
f 238/1/3 232/1/3 236/1/3
f 239/1/3 237/1/3 231/1/3
f 239/1/3 238/1/3 237/1/3
f 240/1/3 232/1/3 238/1/3
f 240/1/3 238/1/3 239/1/3
f 241/1/3 234/1/3 233/1/3
f 242/1/3 234/1/3 241/1/3
f 245/1/3 244/1/3 243/1/3
f 246/1/3 244/1/3 245/1/3
f 252/3/3 251/3/3 250/3/3
f 253/3/3 251/3/3 252/3/3
f 255/3/3 247/3/3 246/3/3
f 256/3/3 247/3/3 255/3/3
f 257/1/3 249/1/3 248/1/3
f 258/1/3 249/1/3 257/1/3
f 259/3/3 256/3/3 255/3/3
f 259/3/3 255/3/3 254/3/3
f 259/3/3 257/3/3 256/3/3
f 260/3/3 257/3/3 259/3/3
f 261/3/3 257/3/3 260/3/3
f 262/3/3 257/3/3 261/3/3
f 266/3/3 265/3/3 264/3/3
f 267/3/3 265/3/3 266/3/3
f 268/3/3 261/3/3 260/3/3
f 269/1/3 263/1/3 262/1/3
f 270/1/3 263/1/3 269/1/3
f 271/3/3 268/3/3 260/3/3
f 272/2/3 270/2/3 269/2/3
f 273/2/3 270/2/3 272/2/3
f 275/3/3 265/3/3 267/3/3
f 276/3/3 275/3/3 274/3/3
f 277/3/3 265/3/3 275/3/3
f 277/3/3 275/3/3 276/3/3
f 279/3/3 271/3/3 260/3/3
f 280/3/3 271/3/3 279/3/3
f 281/1/3 273/1/3 272/1/3
f 282/1/3 273/1/3 281/1/3
f 283/3/3 280/3/3 279/3/3
f 283/3/3 279/3/3 278/3/3
f 283/3/3 281/3/3 280/3/3
f 284/3/3 281/3/3 283/3/3
f 285/3/3 281/3/3 284/3/3
f 286/3/3 281/3/3 285/3/3
f 290/3/3 289/3/3 288/3/3
f 291/3/3 289/3/3 290/3/3
f 293/3/3 285/3/3 284/3/3
f 294/3/3 285/3/3 293/3/3
f 295/1/3 287/1/3 286/1/3
f 296/1/3 287/1/3 295/1/3
f 297/1/3 293/1/3 292/1/3
f 298/1/3 293/1/3 297/1/3
f 299/1/3 295/1/3 294/1/3
f 300/1/3 295/1/3 299/1/3
f 303/1/3 302/1/3 301/1/3
f 304/1/3 302/1/3 303/1/3
f 307/1/3 306/1/3 305/1/3
f 308/1/3 306/1/3 307/1/3
f 311/1/3 310/1/3 309/1/3
f 312/1/3 310/1/3 311/1/3
f 315/1/3 314/1/3 313/1/3
f 316/1/3 314/1/3 315/1/3
f 319/1/3 318/1/3 317/1/3
f 320/1/3 318/1/3 319/1/3
f 321/1/4 322/1/4 323/1/4
f 323/1/4 322/1/4 324/1/4
f 325/1/4 326/1/4 327/1/4
f 327/1/4 326/1/4 328/1/4
f 329/1/4 330/1/4 331/1/4
f 331/1/4 330/1/4 332/1/4
f 333/1/4 334/1/4 337/1/4
f 337/1/4 334/1/4 338/1/4
f 335/1/4 336/1/4 339/1/4
f 339/1/4 336/1/4 340/1/4
f 338/3/4 339/3/4 343/3/4
f 343/3/4 339/3/4 344/3/4
f 340/1/4 341/1/4 345/1/4
f 345/1/4 341/1/4 346/1/4
f 343/3/4 344/3/4 347/3/4
f 342/3/4 343/3/4 347/3/4
f 347/3/4 344/3/4 348/3/4
f 348/3/4 344/3/4 349/3/4
f 348/3/4 349/3/4 353/3/4
f 353/3/4 349/3/4 354/3/4
f 350/1/4 351/1/4 355/1/4
f 355/1/4 351/1/4 356/1/4
f 353/3/4 354/3/4 357/3/4
f 352/3/4 353/3/4 357/3/4
f 357/3/4 354/3/4 358/3/4
f 358/3/4 354/3/4 359/3/4
f 358/3/4 359/3/4 363/3/4
f 363/3/4 359/3/4 364/3/4
f 360/1/4 361/1/4 365/1/4
f 365/1/4 361/1/4 366/1/4
f 362/1/4 363/1/4 367/1/4
f 367/1/4 363/1/4 368/1/4
f 364/1/4 365/1/4 369/1/4
f 369/1/4 365/1/4 370/1/4
f 371/1/4 372/1/4 375/1/4
f 375/1/4 372/1/4 376/1/4
f 376/1/4 372/1/4 377/1/4
f 373/1/4 374/1/4 378/1/4
f 378/1/4 374/1/4 379/1/4
f 375/3/4 376/3/4 380/3/4
f 380/3/4 376/3/4 381/3/4
f 378/3/4 379/3/4 383/3/4
f 383/3/4 379/3/4 384/3/4
f 381/1/4 382/1/4 385/1/4
f 380/1/4 381/1/4 385/1/4
f 385/1/4 382/1/4 386/1/4
f 386/1/4 382/1/4 387/1/4
f 383/1/4 384/1/4 388/1/4
f 388/1/4 384/1/4 389/1/4
f 385/3/4 386/3/4 390/3/4
f 390/3/4 386/3/4 391/3/4
f 388/3/4 389/3/4 393/3/4
f 393/3/4 389/3/4 394/3/4
f 391/1/4 392/1/4 395/1/4
f 390/1/4 391/1/4 395/1/4
f 395/1/4 392/1/4 396/1/4
f 393/1/4 394/1/4 397/1/4
f 397/1/4 394/1/4 398/1/4
f 406/1/5 400/1/5 399/1/5
f 407/1/5 400/1/5 406/1/5
f 408/1/5 402/1/5 401/1/5
f 409/1/5 402/1/5 408/1/5
f 410/1/5 404/1/5 403/1/5
f 411/1/5 404/1/5 410/1/5
f 413/1/5 407/1/5 406/1/5
f 413/1/5 406/1/5 405/1/5
f 414/1/5 407/1/5 413/1/5
f 415/1/5 412/1/5 411/1/5
f 415/1/5 411/1/5 410/1/5
f 416/1/5 412/1/5 415/1/5
f 417/1/5 407/1/5 414/1/5
f 418/3/5 408/3/5 407/3/5
f 418/1/5 407/1/5 417/1/5
f 419/1/5 409/1/5 408/1/5
f 419/3/5 408/3/5 418/3/5
f 420/3/5 410/3/5 409/3/5
f 420/1/5 409/1/5 419/1/5
f 421/1/5 415/1/5 410/1/5
f 421/3/5 410/3/5 420/3/5
f 422/1/5 415/1/5 421/1/5
f 429/1/5 424/1/5 423/1/5
f 430/1/5 424/1/5 429/1/5
f 431/1/5 426/1/5 425/1/5
f 432/1/5 426/1/5 431/1/5
f 433/1/5 428/1/5 427/1/5
f 434/1/5 428/1/5 433/1/5
f 443/1/5 436/1/5 435/1/5
f 444/1/5 436/1/5 443/1/5
f 445/1/5 438/1/5 437/1/5
f 446/2/5 439/2/5 438/2/5
f 446/1/5 438/1/5 445/1/5
f 447/1/5 440/1/5 439/1/5
f 447/2/5 439/2/5 446/2/5
f 448/1/5 440/1/5 447/1/5
f 449/1/5 442/1/5 441/1/5
f 450/1/5 442/1/5 449/1/5
f 452/1/5 443/1/5 435/1/5
f 453/1/5 443/1/5 452/1/5
f 458/1/5 451/1/5 450/1/5
f 459/1/5 451/1/5 458/1/5
f 460/1/5 454/1/5 453/1/5
f 461/3/5 455/3/5 454/3/5
f 461/1/5 454/1/5 460/1/5
f 462/1/5 456/1/5 455/1/5
f 462/3/5 455/3/5 461/3/5
f 463/3/5 457/3/5 456/3/5
f 463/1/5 456/1/5 462/1/5
f 464/1/5 458/1/5 457/1/5
f 464/3/5 457/3/5 463/3/5
f 465/1/5 458/1/5 464/1/5
f 466/1/6 467/1/6 474/1/6
f 474/1/6 467/1/6 475/1/6
f 468/1/6 469/1/6 476/1/6
f 476/1/6 469/1/6 477/1/6
f 470/1/6 471/1/6 478/1/6
f 478/1/6 471/1/6 479/1/6
f 472/1/6 473/1/6 480/1/6
f 480/1/6 473/1/6 481/1/6
f 482/3/6 483/3/6 484/3/6
f 484/3/6 483/3/6 485/3/6
f 486/3/6 487/3/6 488/3/6
f 488/3/6 487/3/6 489/3/6
f 490/1/6 491/1/6 492/1/6
f 492/1/6 491/1/6 493/1/6
f 494/1/6 495/1/6 501/1/6
f 501/1/6 495/1/6 502/1/6
f 496/1/6 497/1/6 503/1/6
f 503/1/6 497/1/6 504/1/6
f 498/1/6 499/1/6 505/1/6
f 505/1/6 499/1/6 506/1/6
f 500/1/6 501/1/6 508/1/6
f 508/1/6 501/1/6 509/1/6
f 506/1/6 507/1/6 514/1/6
f 514/1/6 507/1/6 515/1/6
f 509/1/6 510/1/6 516/1/6
f 516/1/6 510/1/6 517/1/6
f 511/1/6 512/1/6 518/1/6
f 518/1/6 512/1/6 519/1/6
f 513/1/6 514/1/6 520/1/6
f 520/1/6 514/1/6 521/1/6
f 522/1/6 523/1/6 530/1/6
f 530/1/6 523/1/6 531/1/6
f 524/1/6 525/1/6 532/1/6
f 525/2/6 526/2/6 533/2/6
f 532/1/6 525/1/6 533/1/6
f 526/1/6 527/1/6 534/1/6
f 533/2/6 526/2/6 534/2/6
f 534/1/6 527/1/6 535/1/6
f 528/1/6 529/1/6 536/1/6
f 536/1/6 529/1/6 537/1/6
f 543/3/6 544/3/6 545/3/6
f 545/3/6 544/3/6 546/3/6
f 539/3/6 540/3/6 547/3/6
f 547/3/6 540/3/6 548/3/6
f 543/3/6 545/3/6 549/3/6
f 549/3/6 545/3/6 550/3/6
f 546/3/6 544/3/6 551/3/6
f 551/3/6 544/3/6 552/3/6
f 541/1/6 542/1/6 553/1/6
f 553/1/6 542/1/6 554/1/6
f 522/1/6 530/1/6 555/1/6
f 555/1/6 530/1/6 556/1/6
f 531/3/6 532/3/6 557/3/6
f 557/3/6 532/3/6 558/3/6
f 535/3/6 536/3/6 559/3/6
f 559/3/6 536/3/6 560/3/6
f 537/1/6 538/1/6 561/1/6
f 561/1/6 538/1/6 562/1/6
f 556/1/6 557/1/6 563/1/6
f 557/3/6 558/3/6 564/3/6
f 563/1/6 557/1/6 564/1/6
f 558/1/6 559/1/6 565/1/6
f 564/3/6 558/3/6 565/3/6
f 559/3/6 560/3/6 566/3/6
f 565/1/6 559/1/6 566/1/6
f 560/1/6 561/1/6 567/1/6
f 566/3/6 560/3/6 567/3/6
f 567/1/6 561/1/6 568/1/6
f 569/1/6 570/1/6 577/1/6
f 577/1/6 570/1/6 578/1/6
f 571/1/6 572/1/6 579/1/6
f 572/2/6 573/2/6 579/2/6
f 573/1/6 574/1/6 580/1/6
f 579/2/6 573/2/6 580/2/6
f 575/1/6 576/1/6 581/1/6
f 581/1/6 576/1/6 582/1/6
f 571/1/6 579/1/6 583/1/6
f 579/1/6 580/1/6 583/1/6
f 580/1/6 574/1/6 584/1/6
f 583/1/6 580/1/6 584/1/6
f 569/1/6 577/1/6 587/1/6
f 578/1/6 570/1/6 588/1/6
f 571/1/6 583/1/6 589/1/6
f 585/1/6 586/1/6 590/1/6
f 590/1/6 586/1/6 591/1/6
f 584/1/6 574/1/6 592/1/6
f 575/1/6 581/1/6 593/1/6
f 582/1/6 576/1/6 594/1/6
f 587/1/6 588/1/6 595/1/6
f 569/1/6 587/1/6 595/1/6
f 588/1/6 570/1/6 596/1/6
f 595/1/6 588/1/6 596/1/6
f 591/1/6 592/1/6 597/1/6
f 571/1/6 589/1/6 597/1/6
f 590/1/6 591/1/6 597/1/6
f 589/1/6 590/1/6 597/1/6
f 592/1/6 574/1/6 598/1/6
f 597/1/6 592/1/6 598/1/6
f 593/1/6 594/1/6 599/1/6
f 575/1/6 593/1/6 599/1/6
f 594/1/6 576/1/6 600/1/6
f 599/1/6 594/1/6 600/1/6
