# MagicaVoxel @ Ephtracy

# group
o 

# material
mtllib Coffee and cookie.mtl
usemtl palette

# normals
vn -1 0 0
vn 1 0 0
vn 0 0 1
vn 0 0 -1
vn 0 -1 0
vn 0 1 0

# texcoords
vt 0.302734 0.5
vt 0.349609 0.5
vt 0.841797 0.5
vt 0.916016 0.5
vt 0.947266 0.5
vt 0.955078 0.5
vt 0.962891 0.5

# verts
v -1.3 0 1.2
v -1.3 0 -0.4
v -1.3 0.1 1.2
v -1.3 0.1 -0.4
v -1.1 0.1 0.9
v -1.1 0.1 0.3
v -1.1 0.2 0.9
v -1.1 0.2 0.3
v -0.6 0.1 0.1
v -0.6 0.1 -0.2
v -0.6 0.2 0.1
v -0.6 0.2 -0.2
v -0.6 0.3 0.1
v -0.6 0.3 -0.2
v -0.3 0.1 1.1
v -0.3 0.1 0.4
v -0.3 0.2 1.1
v -0.3 0.2 0.4
v 0.5 0 -0.7
v 0.5 0 -1.2
v 0.5 0.8 -0.7
v 0.5 0.8 -1.2
v 1.2 0.2 -0.9
v 1.2 0.2 -1
v 1.2 0.6 -0.9
v 1.2 0.6 -1
v -0.5 0.1 0.9
v -0.5 0.1 0.3
v -0.5 0.2 0.9
v -0.5 0.2 0.3
v 0.0999999 0.1 0.1
v 0.0999999 0.1 -0.2
v 0.0999999 0.2 0.1
v 0.0999999 0.2 -0.2
v 0.0999999 0.3 0.1
v 0.0999999 0.3 -0.2
v 0.2 0.1 1.1
v 0.2 0.1 0.4
v 0.2 0.2 1.1
v 0.2 0.2 0.4
v 0.3 0 1.2
v 0.3 0 -0.4
v 0.3 0.1 1.2
v 0.3 0.1 -0.4
v 1 0 -0.7
v 1 0 -1.2
v 1 0.1 -0.9
v 1 0.1 -1
v 1 0.2 -0.9
v 1 0.2 -1
v 1 0.6 -0.9
v 1 0.6 -1
v 1 0.7 -0.9
v 1 0.7 -1
v 1 0.8 -0.7
v 1 0.8 -1.2
v 1.3 0.1 -0.9
v 1.3 0.1 -1
v 1.3 0.7 -0.9
v 1.3 0.7 -1
v -1.3 0 1.2
v -1.3 0.1 1.2
v 0.3 0 1.2
v 0.3 0.1 1.2
v -0.3 0.1 1.1
v -0.3 0.2 1.1
v 0.2 0.1 1.1
v 0.2 0.2 1.1
v -1.1 0.1 0.9
v -1.1 0.2 0.9
v -0.5 0.1 0.9
v -0.5 0.2 0.9
v -0.6 0.1 0.1
v -0.6 0.2 0.1
v -0.6 0.3 0.1
v 0.0999999 0.1 0.1
v 0.0999999 0.2 0.1
v 0.0999999 0.3 0.1
v 0.5 0 -0.7
v 0.5 0.8 -0.7
v 0.6 0.1 -0.7
v 0.6 0.2 -0.7
v 0.6 0.3 -0.7
v 0.6 0.7 -0.7
v 0.7 0.3 -0.7
v 0.7 0.7 -0.7
v 0.8 0.1 -0.7
v 0.8 0.2 -0.7
v 0.8 0.4 -0.7
v 0.8 0.5 -0.7
v 0.8 0.7 -0.7
v 0.9 0.2 -0.7
v 0.9 0.4 -0.7
v 0.9 0.5 -0.7
v 0.9 0.7 -0.7
v 1 0 -0.7
v 1 0.8 -0.7
v 1 0.1 -0.9
v 1 0.2 -0.9
v 1 0.6 -0.9
v 1 0.7 -0.9
v 1.2 0.2 -0.9
v 1.2 0.6 -0.9
v 1.3 0.1 -0.9
v 1.3 0.7 -0.9
v -0.3 0.1 0.4
v -0.3 0.2 0.4
v 0.2 0.1 0.4
v 0.2 0.2 0.4
v -1.1 0.1 0.3
v -1.1 0.2 0.3
v -0.5 0.1 0.3
v -0.5 0.2 0.3
v -0.6 0.1 -0.2
v -0.6 0.2 -0.2
v -0.6 0.3 -0.2
v 0.0999999 0.1 -0.2
v 0.0999999 0.2 -0.2
v 0.0999999 0.3 -0.2
v -1.3 0 -0.4
v -1.3 0.1 -0.4
v 0.3 0 -0.4
v 0.3 0.1 -0.4
v 1 0.1 -1
v 1 0.2 -1
v 1 0.6 -1
v 1 0.7 -1
v 1.2 0.2 -1
v 1.2 0.6 -1
v 1.3 0.1 -1
v 1.3 0.7 -1
v 0.5 0 -1.2
v 0.5 0.8 -1.2
v 1 0 -1.2
v 1 0.8 -1.2
v -1.3 0 1.2
v 0.3 0 1.2
v -1.2 0 1.1
v 0.2 0 1.1
v -1.2 0 -0.3
v 0.2 0 -0.3
v -1.3 0 -0.4
v 0.3 0 -0.4
v 0.5 0 -0.7
v 1 0 -0.7
v 0.5 0 -1.2
v 1 0 -1.2
v 1 0.1 -0.9
v 1.3 0.1 -0.9
v 1 0.1 -1
v 1.3 0.1 -1
v 1 0.6 -0.9
v 1.2 0.6 -0.9
v 1 0.6 -1
v 1.2 0.6 -1
v -1.3 0.1 1.2
v 0.3 0.1 1.2
v -1.2 0.1 1.1
v -0.3 0.1 1.1
v 0.2 0.1 1.1
v -1.1 0.1 0.9
v -0.5 0.1 0.9
v -0.3 0.1 0.4
v 0.2 0.1 0.4
v -1.1 0.1 0.3
v -0.5 0.1 0.3
v -0.6 0.1 0.1
v 0.0999999 0.1 0.1
v -0.6 0.1 -0.2
v 0.0999999 0.1 -0.2
v -1.2 0.1 -0.3
v 0.2 0.1 -0.3
v -1.3 0.1 -0.4
v 0.3 0.1 -0.4
v -0.3 0.2 1.1
v 0.2 0.2 1.1
v -0.2 0.2 1
v -1.19209e-007 0.2 1
v -1.1 0.2 0.9
v -0.5 0.2 0.9
v -0.2 0.2 0.9
v -1.19209e-007 0.2 0.9
v -1 0.2 0.8
v -0.9 0.2 0.8
v -0.8 0.2 0.8
v -0.7 0.2 0.8
v -0.2 0.2 0.8
v -0.1 0.2 0.8
v -1.19209e-007 0.2 0.8
v 0.0999999 0.2 0.8
v -1 0.2 0.7
v -0.9 0.2 0.7
v -0.8 0.2 0.7
v -0.7 0.2 0.7
v -1.19209e-007 0.2 0.7
v 0.0999999 0.2 0.7
v -1 0.2 0.6
v -0.9 0.2 0.6
v -0.8 0.2 0.6
v -0.6 0.2 0.6
v -0.2 0.2 0.6
v -0.1 0.2 0.6
v 0.0999999 0.2 0.6
v -0.8 0.2 0.5
v -0.6 0.2 0.5
v -0.1 0.2 0.5
v 0.0999999 0.2 0.5
v -1 0.2 0.4
v -0.9 0.2 0.4
v -0.3 0.2 0.4
v 0.2 0.2 0.4
v -1.1 0.2 0.3
v -0.5 0.2 0.3
v 1 0.2 -0.9
v 1.2 0.2 -0.9
v 1 0.2 -1
v 1.2 0.2 -1
v -0.6 0.3 0.1
v 0.0999999 0.3 0.1
v -0.6 0.3 -0.2
v 0.0999999 0.3 -0.2
v 1 0.7 -0.9
v 1.3 0.7 -0.9
v 1 0.7 -1
v 1.3 0.7 -1
v 0.5 0.8 -0.7
v 1 0.8 -0.7
v 0.6 0.8 -0.8
v 0.9 0.8 -0.8
v 0.6 0.8 -1.1
v 0.9 0.8 -1.1
v 0.5 0.8 -1.2
v 1 0.8 -1.2

# faces
f 3/1/1 2/1/1 1/1/1
f 4/1/1 2/1/1 3/1/1
f 7/2/1 6/2/1 5/2/1
f 8/2/1 6/2/1 7/2/1
f 11/2/1 10/2/1 9/2/1
f 12/2/1 10/2/1 11/2/1
f 13/4/1 12/4/1 11/4/1
f 14/4/1 12/4/1 13/4/1
f 17/2/1 16/2/1 15/2/1
f 18/2/1 16/2/1 17/2/1
f 21/7/1 20/7/1 19/7/1
f 22/7/1 20/7/1 21/7/1
f 25/7/1 24/7/1 23/7/1
f 26/7/1 24/7/1 25/7/1
f 27/2/2 28/2/2 29/2/2
f 29/2/2 28/2/2 30/2/2
f 31/2/2 32/2/2 33/2/2
f 33/2/2 32/2/2 34/2/2
f 33/4/2 34/4/2 35/4/2
f 35/4/2 34/4/2 36/4/2
f 37/2/2 38/2/2 39/2/2
f 39/2/2 38/2/2 40/2/2
f 41/1/2 42/1/2 43/1/2
f 43/1/2 42/1/2 44/1/2
f 45/7/2 46/7/2 47/7/2
f 47/7/2 46/7/2 48/7/2
f 45/7/2 47/7/2 49/7/2
f 48/7/2 46/7/2 50/7/2
f 45/7/2 49/7/2 51/7/2
f 49/7/2 50/7/2 51/7/2
f 50/7/2 46/7/2 52/7/2
f 51/7/2 50/7/2 52/7/2
f 45/7/2 51/7/2 53/7/2
f 52/7/2 46/7/2 54/7/2
f 45/7/2 53/7/2 55/7/2
f 53/7/2 54/7/2 55/7/2
f 54/7/2 46/7/2 56/7/2
f 55/7/2 54/7/2 56/7/2
f 57/7/2 58/7/2 59/7/2
f 59/7/2 58/7/2 60/7/2
f 63/1/3 62/1/3 61/1/3
f 64/1/3 62/1/3 63/1/3
f 67/2/3 66/2/3 65/2/3
f 68/2/3 66/2/3 67/2/3
f 71/2/3 70/2/3 69/2/3
f 72/2/3 70/2/3 71/2/3
f 76/2/3 74/2/3 73/2/3
f 77/4/3 75/4/3 74/4/3
f 77/2/3 74/2/3 76/2/3
f 78/4/3 75/4/3 77/4/3
f 81/7/3 80/7/3 79/7/3
f 82/7/3 80/7/3 81/7/3
f 83/7/3 80/7/3 82/7/3
f 84/7/3 80/7/3 83/7/3
f 85/7/3 83/7/3 82/7/3
f 85/3/3 84/3/3 83/3/3
f 86/7/3 80/7/3 84/7/3
f 86/3/3 84/3/3 85/3/3
f 87/7/3 81/7/3 79/7/3
f 87/3/3 82/3/3 81/3/3
f 88/7/3 86/7/3 85/7/3
f 88/3/3 82/3/3 87/3/3
f 88/7/3 85/7/3 82/7/3
f 89/7/3 86/7/3 88/7/3
f 90/7/3 86/7/3 89/7/3
f 91/7/3 80/7/3 86/7/3
f 91/7/3 86/7/3 90/7/3
f 92/7/3 88/7/3 87/7/3
f 92/3/3 89/3/3 88/3/3
f 93/7/3 90/7/3 89/7/3
f 93/3/3 89/3/3 92/3/3
f 94/3/3 91/3/3 90/3/3
f 94/7/3 90/7/3 93/7/3
f 95/7/3 80/7/3 91/7/3
f 95/3/3 91/3/3 94/3/3
f 96/7/3 92/7/3 87/7/3
f 96/7/3 87/7/3 79/7/3
f 96/7/3 95/7/3 94/7/3
f 96/7/3 93/7/3 92/7/3
f 96/7/3 94/7/3 93/7/3
f 97/7/3 80/7/3 95/7/3
f 97/7/3 95/7/3 96/7/3
f 102/7/3 99/7/3 98/7/3
f 103/7/3 101/7/3 100/7/3
f 104/7/3 102/7/3 98/7/3
f 104/7/3 103/7/3 102/7/3
f 105/7/3 101/7/3 103/7/3
f 105/7/3 103/7/3 104/7/3
f 106/2/4 107/2/4 108/2/4
f 108/2/4 107/2/4 109/2/4
f 110/2/4 111/2/4 112/2/4
f 112/2/4 111/2/4 113/2/4
f 114/2/4 115/2/4 117/2/4
f 115/4/4 116/4/4 118/4/4
f 117/2/4 115/2/4 118/2/4
f 118/4/4 116/4/4 119/4/4
f 120/1/4 121/1/4 122/1/4
f 122/1/4 121/1/4 123/1/4
f 124/7/4 125/7/4 128/7/4
f 126/7/4 127/7/4 129/7/4
f 124/7/4 128/7/4 130/7/4
f 128/7/4 129/7/4 130/7/4
f 129/7/4 127/7/4 131/7/4
f 130/7/4 129/7/4 131/7/4
f 132/7/4 133/7/4 134/7/4
f 134/7/4 133/7/4 135/7/4
f 138/1/5 137/1/5 136/1/5
f 139/1/5 137/1/5 138/1/5
f 140/1/5 138/1/5 136/1/5
f 140/7/5 139/7/5 138/7/5
f 141/1/5 137/1/5 139/1/5
f 141/7/5 139/7/5 140/7/5
f 142/1/5 140/1/5 136/1/5
f 142/1/5 141/1/5 140/1/5
f 143/1/5 137/1/5 141/1/5
f 143/1/5 141/1/5 142/1/5
f 146/7/5 145/7/5 144/7/5
f 147/7/5 145/7/5 146/7/5
f 150/7/5 149/7/5 148/7/5
f 151/7/5 149/7/5 150/7/5
f 154/7/5 153/7/5 152/7/5
f 155/7/5 153/7/5 154/7/5
f 156/1/6 157/1/6 158/1/6
f 158/1/6 157/1/6 159/1/6
f 159/1/6 157/1/6 160/1/6
f 158/7/6 159/7/6 161/7/6
f 161/7/6 159/7/6 162/7/6
f 162/7/6 159/7/6 163/7/6
f 160/1/6 157/1/6 164/1/6
f 158/7/6 161/7/6 165/7/6
f 162/7/6 163/7/6 166/7/6
f 163/7/6 164/7/6 166/7/6
f 165/7/6 166/7/6 167/7/6
f 166/7/6 164/7/6 168/7/6
f 167/7/6 166/7/6 168/7/6
f 165/7/6 167/7/6 169/7/6
f 168/7/6 164/7/6 170/7/6
f 156/1/6 158/1/6 171/1/6
f 169/7/6 170/7/6 171/7/6
f 158/7/6 165/7/6 171/7/6
f 165/7/6 169/7/6 171/7/6
f 170/7/6 164/7/6 172/7/6
f 171/7/6 170/7/6 172/7/6
f 164/1/6 157/1/6 172/1/6
f 156/1/6 171/1/6 173/1/6
f 171/1/6 172/1/6 173/1/6
f 172/1/6 157/1/6 174/1/6
f 173/1/6 172/1/6 174/1/6
f 175/2/6 176/2/6 177/2/6
f 177/2/6 176/2/6 178/2/6
f 175/2/6 177/2/6 181/2/6
f 177/4/6 178/4/6 181/4/6
f 178/2/6 176/2/6 182/2/6
f 181/4/6 178/4/6 182/4/6
f 179/2/6 180/2/6 183/2/6
f 183/2/6 180/2/6 184/2/6
f 184/2/6 180/2/6 185/2/6
f 185/2/6 180/2/6 186/2/6
f 175/2/6 181/2/6 187/2/6
f 181/2/6 182/2/6 187/2/6
f 187/2/6 182/2/6 188/2/6
f 182/2/6 176/2/6 189/2/6
f 188/2/6 182/2/6 189/2/6
f 189/2/6 176/2/6 190/2/6
f 179/2/6 183/2/6 191/2/6
f 183/4/6 184/4/6 191/4/6
f 184/2/6 185/2/6 192/2/6
f 191/4/6 184/4/6 192/4/6
f 185/4/6 186/4/6 193/4/6
f 192/2/6 185/2/6 193/2/6
f 186/2/6 180/2/6 194/2/6
f 193/4/6 186/4/6 194/4/6
f 189/4/6 190/4/6 195/4/6
f 188/2/6 189/2/6 195/2/6
f 190/2/6 176/2/6 196/2/6
f 195/4/6 190/4/6 196/4/6
f 192/2/6 193/2/6 197/2/6
f 191/2/6 192/2/6 197/2/6
f 179/2/6 191/2/6 197/2/6
f 193/2/6 194/2/6 197/2/6
f 197/2/6 194/2/6 198/2/6
f 198/2/6 194/2/6 199/2/6
f 194/2/6 180/2/6 200/2/6
f 199/2/6 194/2/6 200/2/6
f 187/4/6 188/4/6 201/4/6
f 175/2/6 187/2/6 201/2/6
f 195/2/6 196/2/6 202/2/6
f 201/4/6 188/4/6 202/4/6
f 188/2/6 195/2/6 202/2/6
f 196/2/6 176/2/6 203/2/6
f 202/2/6 196/2/6 203/2/6
f 198/2/6 199/2/6 204/2/6
f 199/4/6 200/4/6 204/4/6
f 200/2/6 180/2/6 205/2/6
f 204/4/6 200/4/6 205/4/6
f 201/2/6 202/2/6 206/2/6
f 202/4/6 203/4/6 206/4/6
f 203/2/6 176/2/6 207/2/6
f 206/4/6 203/4/6 207/4/6
f 197/4/6 198/4/6 208/4/6
f 179/2/6 197/2/6 208/2/6
f 198/2/6 204/2/6 209/2/6
f 208/4/6 198/4/6 209/4/6
f 204/2/6 205/2/6 209/2/6
f 175/2/6 201/2/6 210/2/6
f 201/2/6 206/2/6 210/2/6
f 206/2/6 207/2/6 210/2/6
f 207/2/6 176/2/6 211/2/6
f 210/2/6 207/2/6 211/2/6
f 179/2/6 208/2/6 212/2/6
f 208/2/6 209/2/6 212/2/6
f 205/2/6 180/2/6 213/2/6
f 212/2/6 209/2/6 213/2/6
f 209/2/6 205/2/6 213/2/6
f 214/7/6 215/7/6 216/7/6
f 216/7/6 215/7/6 217/7/6
f 218/4/6 219/4/6 220/4/6
f 220/4/6 219/4/6 221/4/6
f 222/7/6 223/7/6 224/7/6
f 224/7/6 223/7/6 225/7/6
f 226/7/6 227/7/6 228/7/6
f 228/7/6 227/7/6 229/7/6
f 226/7/6 228/7/6 230/7/6
f 228/6/6 229/6/6 230/6/6
f 229/7/6 227/7/6 231/7/6
f 230/6/6 229/6/6 231/6/6
f 226/7/6 230/7/6 232/7/6
f 230/7/6 231/7/6 232/7/6
f 231/7/6 227/7/6 233/7/6
f 232/7/6 231/7/6 233/7/6
