# MagicaVoxel @ Ephtracy

# group
o 

# material
mtllib Road sign.mtl
usemtl palette

# normals
vn -1 0 0
vn 1 0 0
vn 0 0 1
vn 0 0 -1
vn 0 -1 0
vn 0 1 0

# texcoords
vt 0.806641 0.5
vt 0.876953 0.5
vt 0.955078 0.5
vt 0.958984 0.5
vt 0.962891 0.5
vt 0.986328 0.5
vt 0.994141 0.5

# verts
v -1.1 3.9 0.1
v -1.1 3.9 -0.1
v -1.1 5.7 0.1
v -1.1 5.7 -0.1
v -0.2 3.8 0.1
v -0.2 3.8 -0.1
v -0.2 3.9 0.1
v -0.2 3.9 -0.1
v -0.1 0 0.1
v -0.1 0 -0.1
v -0.1 3.8 0.1
v -0.1 3.8 -0.1
v 0.1 0 0.1
v 0.1 0 -0.1
v 0.1 3.8 0.1
v 0.1 3.8 -0.1
v 0.2 3.8 0.1
v 0.2 3.8 -0.1
v 0.2 3.9 0.1
v 0.2 3.9 -0.1
v 1.1 3.9 0.1
v 1.1 3.9 -0.1
v 1.1 5.7 0.1
v 1.1 5.7 -0.1
v -1.1 3.9 0.1
v -1.1 5.7 0.1
v -1 4.1 0.1
v -1 4.2 0.1
v -0.9 4.2 0.1
v -0.9 4.4 0.1
v -0.8 4.4 0.1
v -0.8 4.5 0.1
v -0.7 4.5 0.1
v -0.7 4.7 0.1
v -0.6 4.2 0.1
v -0.6 4.3 0.1
v -0.6 4.7 0.1
v -0.6 4.9 0.1
v -0.5 4.9 0.1
v -0.5 5 0.1
v -0.4 4.2 0.1
v -0.4 4.3 0.1
v -0.4 5 0.1
v -0.4 5.2 0.1
v -0.3 4.3 0.1
v -0.3 4.4 0.1
v -0.3 4.7 0.1
v -0.3 4.8 0.1
v -0.3 5 0.1
v -0.3 5.2 0.1
v -0.3 5.4 0.1
v -0.2 3.8 0.1
v -0.2 3.9 0.1
v -0.2 4.3 0.1
v -0.2 4.4 0.1
v -0.2 4.6 0.1
v -0.2 4.7 0.1
v -0.2 4.8 0.1
v -0.2 5 0.1
v -0.2 5.1 0.1
v -0.2 5.4 0.1
v -0.2 5.5 0.1
v -0.1 0 0.1
v -0.1 3.8 0.1
v -0.1 4.2 0.1
v -0.1 4.3 0.1
v -0.1 4.4 0.1
v -0.1 4.6 0.1
v -0.1 4.7 0.1
v -0.1 5 0.1
v -0.1 5.1 0.1
v -0.1 5.4 0.1
v -0.1 5.5 0.1
v -0.1 5.6 0.1
v 0 4.7 0.1
v 0 5.1 0.1
v 0.1 0 0.1
v 0.1 3.8 0.1
v 0.1 4.2 0.1
v 0.1 4.3 0.1
v 0.1 4.5 0.1
v 0.1 4.6 0.1
v 0.1 4.8 0.1
v 0.1 4.9 0.1
v 0.1 5.1 0.1
v 0.1 5.3 0.1
v 0.1 5.4 0.1
v 0.1 5.5 0.1
v 0.1 5.6 0.1
v 0.2 3.8 0.1
v 0.2 3.9 0.1
v 0.2 4.2 0.1
v 0.2 4.5 0.1
v 0.2 4.6 0.1
v 0.2 4.7 0.1
v 0.2 4.8 0.1
v 0.2 4.9 0.1
v 0.2 5.1 0.1
v 0.2 5.3 0.1
v 0.2 5.4 0.1
v 0.2 5.5 0.1
v 0.3 4.2 0.1
v 0.3 4.5 0.1
v 0.3 4.7 0.1
v 0.3 4.8 0.1
v 0.3 5.2 0.1
v 0.3 5.4 0.1
v 0.4 4.2 0.1
v 0.4 4.3 0.1
v 0.4 5 0.1
v 0.4 5.2 0.1
v 0.5 4.9 0.1
v 0.5 5 0.1
v 0.6 4.2 0.1
v 0.6 4.3 0.1
v 0.6 4.7 0.1
v 0.6 4.9 0.1
v 0.7 4.5 0.1
v 0.7 4.7 0.1
v 0.8 4.4 0.1
v 0.8 4.5 0.1
v 0.9 4.2 0.1
v 0.9 4.4 0.1
v 1 4.1 0.1
v 1 4.2 0.1
v 1.1 3.9 0.1
v 1.1 5.7 0.1
v -1.1 3.9 -0.1
v -1.1 5.7 -0.1
v -0.2 3.8 -0.1
v -0.2 3.9 -0.1
v -0.1 0 -0.1
v -0.1 3.8 -0.1
v 0.1 0 -0.1
v 0.1 3.8 -0.1
v 0.2 3.8 -0.1
v 0.2 3.9 -0.1
v 1.1 3.9 -0.1
v 1.1 5.7 -0.1
v -0.1 0 0.1
v 0.1 0 0.1
v -0.1 0 -0.1
v 0.1 0 -0.1
v -0.2 3.8 0.1
v -0.1 3.8 0.1
v 0.1 3.8 0.1
v 0.2 3.8 0.1
v -0.2 3.8 -0.1
v -0.1 3.8 -0.1
v 0.1 3.8 -0.1
v 0.2 3.8 -0.1
v -1.1 3.9 0.1
v -0.2 3.9 0.1
v 0.2 3.9 0.1
v 1.1 3.9 0.1
v -1.1 3.9 -0.1
v -0.2 3.9 -0.1
v 0.2 3.9 -0.1
v 1.1 3.9 -0.1
v -1.1 5.7 0.1
v 1.1 5.7 0.1
v -1.1 5.7 -0.1
v 1.1 5.7 -0.1

# faces
f 3/1/1 2/1/1 1/1/1
f 4/1/1 2/1/1 3/1/1
f 7/6/1 6/6/1 5/6/1
f 8/6/1 6/6/1 7/6/1
f 11/6/1 10/6/1 9/6/1
f 12/6/1 10/6/1 11/6/1
f 13/6/2 14/6/2 15/6/2
f 15/6/2 14/6/2 16/6/2
f 17/6/2 18/6/2 19/6/2
f 19/6/2 18/6/2 20/6/2
f 21/1/2 22/1/2 23/1/2
f 23/1/2 22/1/2 24/1/2
f 27/1/3 26/1/3 25/1/3
f 28/1/3 26/1/3 27/1/3
f 29/4/3 28/4/3 27/4/3
f 29/1/3 26/1/3 28/1/3
f 30/1/3 26/1/3 29/1/3
f 31/4/3 30/4/3 29/4/3
f 31/1/3 26/1/3 30/1/3
f 32/1/3 26/1/3 31/1/3
f 33/4/3 32/4/3 31/4/3
f 33/1/3 26/1/3 32/1/3
f 34/1/3 26/1/3 33/1/3
f 35/4/3 29/4/3 27/4/3
f 35/4/3 31/4/3 29/4/3
f 35/4/3 34/4/3 33/4/3
f 35/4/3 33/4/3 31/4/3
f 36/4/3 34/4/3 35/4/3
f 37/1/3 26/1/3 34/1/3
f 37/4/3 34/4/3 36/4/3
f 38/1/3 26/1/3 37/1/3
f 39/4/3 37/4/3 36/4/3
f 39/1/3 26/1/3 38/1/3
f 39/4/3 38/4/3 37/4/3
f 40/1/3 26/1/3 39/1/3
f 41/7/3 36/7/3 35/7/3
f 41/4/3 35/4/3 27/4/3
f 42/4/3 40/4/3 39/4/3
f 42/7/3 36/7/3 41/7/3
f 42/4/3 39/4/3 36/4/3
f 43/1/3 26/1/3 40/1/3
f 43/4/3 40/4/3 42/4/3
f 44/1/3 26/1/3 43/1/3
f 45/4/3 42/4/3 41/4/3
f 45/4/3 43/4/3 42/4/3
f 45/4/3 44/4/3 43/4/3
f 46/4/3 44/4/3 45/4/3
f 47/4/3 44/4/3 46/4/3
f 48/4/3 44/4/3 47/4/3
f 49/4/3 44/4/3 48/4/3
f 50/1/3 26/1/3 44/1/3
f 50/4/3 44/4/3 49/4/3
f 51/1/3 26/1/3 50/1/3
f 53/1/3 27/1/3 25/1/3
f 54/4/3 45/4/3 41/4/3
f 54/7/3 46/7/3 45/7/3
f 55/4/3 47/4/3 46/4/3
f 55/7/3 46/7/3 54/7/3
f 56/4/3 47/4/3 55/4/3
f 57/3/3 48/3/3 47/3/3
f 57/4/3 47/4/3 56/4/3
f 58/2/3 49/2/3 48/2/3
f 58/3/3 48/3/3 57/3/3
f 59/4/3 50/4/3 49/4/3
f 59/2/3 49/2/3 58/2/3
f 59/4/3 51/4/3 50/4/3
f 60/4/3 51/4/3 59/4/3
f 61/1/3 26/1/3 51/1/3
f 61/4/3 51/4/3 60/4/3
f 62/1/3 26/1/3 61/1/3
f 64/6/3 53/6/3 52/6/3
f 65/4/3 41/4/3 27/4/3
f 65/4/3 54/4/3 41/4/3
f 66/3/3 55/3/3 54/3/3
f 66/4/3 54/4/3 65/4/3
f 67/7/3 56/7/3 55/7/3
f 67/3/3 55/3/3 66/3/3
f 68/4/3 57/4/3 56/4/3
f 68/7/3 56/7/3 67/7/3
f 68/4/3 58/4/3 57/4/3
f 68/4/3 59/4/3 58/4/3
f 69/4/3 59/4/3 68/4/3
f 70/2/3 60/2/3 59/2/3
f 70/4/3 59/4/3 69/4/3
f 71/4/3 62/4/3 61/4/3
f 71/2/3 60/2/3 70/2/3
f 71/4/3 61/4/3 60/4/3
f 72/4/3 62/4/3 71/4/3
f 73/1/3 26/1/3 62/1/3
f 73/4/3 62/4/3 72/4/3
f 74/1/3 26/1/3 73/1/3
f 75/3/3 69/3/3 68/3/3
f 75/2/3 70/2/3 69/2/3
f 75/2/3 71/2/3 70/2/3
f 76/7/3 72/7/3 71/7/3
f 76/2/3 71/2/3 75/2/3
f 77/6/3 64/6/3 63/6/3
f 78/6/3 53/6/3 64/6/3
f 78/6/3 64/6/3 77/6/3
f 79/7/3 66/7/3 65/7/3
f 79/4/3 65/4/3 27/4/3
f 80/4/3 67/4/3 66/4/3
f 80/7/3 66/7/3 79/7/3
f 80/4/3 68/4/3 67/4/3
f 81/4/3 68/4/3 80/4/3
f 82/3/3 75/3/3 68/3/3
f 82/4/3 68/4/3 81/4/3
f 82/3/3 76/3/3 75/3/3
f 83/3/3 76/3/3 82/3/3
f 84/3/3 76/3/3 83/3/3
f 85/7/3 72/7/3 76/7/3
f 85/3/3 76/3/3 84/3/3
f 86/7/3 72/7/3 85/7/3
f 87/4/3 74/4/3 73/4/3
f 87/7/3 72/7/3 86/7/3
f 87/4/3 73/4/3 72/4/3
f 88/4/3 74/4/3 87/4/3
f 89/1/3 26/1/3 74/1/3
f 89/4/3 74/4/3 88/4/3
f 90/6/3 53/6/3 78/6/3
f 91/1/3 27/1/3 53/1/3
f 91/6/3 53/6/3 90/6/3
f 92/4/3 79/4/3 27/4/3
f 92/4/3 81/4/3 80/4/3
f 92/4/3 80/4/3 79/4/3
f 93/3/3 82/3/3 81/3/3
f 93/4/3 81/4/3 92/4/3
f 94/4/3 83/4/3 82/4/3
f 94/3/3 82/3/3 93/3/3
f 95/4/3 83/4/3 94/4/3
f 96/7/3 84/7/3 83/7/3
f 96/4/3 83/4/3 95/4/3
f 97/4/3 85/4/3 84/4/3
f 97/7/3 84/7/3 96/7/3
f 98/7/3 86/7/3 85/7/3
f 98/4/3 85/4/3 97/4/3
f 99/5/3 87/5/3 86/5/3
f 99/7/3 86/7/3 98/7/3
f 100/4/3 88/4/3 87/4/3
f 100/5/3 87/5/3 99/5/3
f 101/1/3 89/1/3 88/1/3
f 101/4/3 88/4/3 100/4/3
f 102/4/3 92/4/3 27/4/3
f 102/3/3 93/3/3 92/3/3
f 103/4/3 95/4/3 94/4/3
f 103/3/3 93/3/3 102/3/3
f 103/4/3 94/4/3 93/4/3
f 104/7/3 96/7/3 95/7/3
f 104/4/3 95/4/3 103/4/3
f 105/4/3 99/4/3 98/4/3
f 105/7/3 96/7/3 104/7/3
f 105/4/3 100/4/3 99/4/3
f 105/4/3 97/4/3 96/4/3
f 105/4/3 98/4/3 97/4/3
f 106/4/3 100/4/3 105/4/3
f 107/1/3 101/1/3 100/1/3
f 107/4/3 100/4/3 106/4/3
f 108/4/3 104/4/3 103/4/3
f 108/4/3 102/4/3 27/4/3
f 108/4/3 106/4/3 105/4/3
f 108/4/3 105/4/3 104/4/3
f 108/4/3 103/4/3 102/4/3
f 109/4/3 106/4/3 108/4/3
f 110/4/3 106/4/3 109/4/3
f 111/1/3 107/1/3 106/1/3
f 111/4/3 106/4/3 110/4/3
f 112/4/3 110/4/3 109/4/3
f 113/1/3 111/1/3 110/1/3
f 113/4/3 110/4/3 112/4/3
f 114/4/3 108/4/3 27/4/3
f 114/3/3 109/3/3 108/3/3
f 115/4/3 112/4/3 109/4/3
f 115/3/3 109/3/3 114/3/3
f 116/4/3 112/4/3 115/4/3
f 117/1/3 113/1/3 112/1/3
f 117/4/3 112/4/3 116/4/3
f 118/4/3 116/4/3 115/4/3
f 118/4/3 115/4/3 114/4/3
f 119/1/3 117/1/3 116/1/3
f 119/4/3 116/4/3 118/4/3
f 120/4/3 118/4/3 114/4/3
f 121/1/3 119/1/3 118/1/3
f 121/4/3 118/4/3 120/4/3
f 122/4/3 114/4/3 27/4/3
f 122/4/3 120/4/3 114/4/3
f 123/1/3 121/1/3 120/1/3
f 123/4/3 120/4/3 122/4/3
f 124/1/3 27/1/3 91/1/3
f 124/4/3 122/4/3 27/4/3
f 125/1/3 123/1/3 122/1/3
f 125/4/3 122/4/3 124/4/3
f 126/1/3 124/1/3 91/1/3
f 126/1/3 125/1/3 124/1/3
f 127/1/3 101/1/3 107/1/3
f 127/1/3 125/1/3 126/1/3
f 127/1/3 121/1/3 123/1/3
f 127/1/3 123/1/3 125/1/3
f 127/1/3 117/1/3 119/1/3
f 127/1/3 119/1/3 121/1/3
f 127/1/3 113/1/3 117/1/3
f 127/1/3 111/1/3 113/1/3
f 127/1/3 107/1/3 111/1/3
f 127/1/3 89/1/3 101/1/3
f 127/1/3 26/1/3 89/1/3
f 128/1/4 129/1/4 131/1/4
f 130/6/4 131/6/4 133/6/4
f 132/6/4 133/6/4 134/6/4
f 133/6/4 131/6/4 135/6/4
f 134/6/4 133/6/4 135/6/4
f 135/6/4 131/6/4 136/6/4
f 131/1/4 129/1/4 137/1/4
f 136/6/4 131/6/4 137/6/4
f 137/1/4 129/1/4 138/1/4
f 138/1/4 129/1/4 139/1/4
f 142/6/5 141/6/5 140/6/5
f 143/6/5 141/6/5 142/6/5
f 148/6/5 145/6/5 144/6/5
f 149/6/5 145/6/5 148/6/5
f 150/6/5 147/6/5 146/6/5
f 151/6/5 147/6/5 150/6/5
f 156/1/5 153/1/5 152/1/5
f 157/1/5 153/1/5 156/1/5
f 158/1/5 155/1/5 154/1/5
f 159/1/5 155/1/5 158/1/5
f 160/1/6 161/1/6 162/1/6
f 162/1/6 161/1/6 163/1/6
