# MagicaVoxel @ Ephtracy

# group
o 

# material
mtllib TestSound.mtl
usemtl palette

# normals
vn -1 0 0
vn 1 0 0
vn 0 0 1
vn 0 0 -1
vn 0 -1 0
vn 0 1 0

# texcoords
vt 0.501953 0.5
vt 0.505859 0.5
vt 0.509766 0.5
vt 0.513672 0.5
vt 0.564453 0.5
vt 0.568359 0.5
vt 0.572266 0.5
vt 0.576172 0.5
vt 0.580078 0.5
vt 0.626953 0.5
vt 0.630859 0.5
vt 0.634766 0.5
vt 0.638672 0.5
vt 0.642578 0.5
vt 0.646484 0.5
vt 0.689453 0.5
vt 0.693359 0.5
vt 0.697266 0.5
vt 0.701172 0.5
vt 0.705078 0.5
vt 0.708984 0.5
vt 0.751953 0.5
vt 0.755859 0.5
vt 0.759766 0.5
vt 0.763672 0.5
vt 0.767578 0.5
vt 0.783203 0.5
vt 0.787109 0.5
vt 0.791016 0.5
vt 0.794922 0.5
vt 0.798828 0.5
vt 0.802734 0.5
vt 0.845703 0.5
vt 0.849609 0.5
vt 0.853516 0.5
vt 0.857422 0.5
vt 0.861328 0.5
vt 0.908203 0.5
vt 0.912109 0.5
vt 0.916016 0.5
vt 0.939453 0.5
vt 0.943359 0.5
vt 0.947266 0.5
vt 0.951172 0.5
vt 0.955078 0.5
vt 0.958984 0.5
vt 0.962891 0.5
vt 0.970703 0.5
vt 0.974609 0.5
vt 0.978516 0.5

# verts
v -12.8 0 12.8
v -12.8 0 12.3
v -12.8 0 11.8
v -12.8 0 11.3
v -12.8 0 10.8
v -12.8 0 10.3
v -12.8 0 9.8
v -12.8 0 9.3
v -12.8 0 8.8
v -12.8 0 8.2
v -12.8 0 7.7
v -12.8 0 7.2
v -12.8 0 6.7
v -12.8 0 6.2
v -12.8 0 5.7
v -12.8 0 5.2
v -12.8 0 4.7
v -12.8 0 4.1
v -12.8 0 3.6
v -12.8 0 3.1
v -12.8 0 2.6
v -12.8 0 2.1
v -12.8 0 1.6
v -12.8 0 1.1
v -12.8 0 0.6
v -12.8 0 0
v -12.8 0 -0.5
v -12.8 0 -1
v -12.8 0 -1.5
v -12.8 0 -2
v -12.8 0 -2.5
v -12.8 0 -3
v -12.8 0 -3.5
v -12.8 0 -4
v -12.8 0 -4.6
v -12.8 0 -5.1
v -12.8 0 -5.6
v -12.8 0 -6.1
v -12.8 0 -6.6
v -12.8 0 -7.1
v -12.8 0 -7.6
v -12.8 0 -8.1
v -12.8 0 -8.7
v -12.8 0 -9.2
v -12.8 0 -9.7
v -12.8 0 -10.2
v -12.8 0 -10.7
v -12.8 0 -11.2
v -12.8 0 -11.7
v -12.8 0 -12.2
v -12.8 0 -12.8
v -12.8 0.9 12.8
v -12.8 0.9 12.3
v -12.8 0.9 11.8
v -12.8 0.9 11.3
v -12.8 0.9 10.8
v -12.8 0.9 10.3
v -12.8 0.9 9.8
v -12.8 0.9 9.3
v -12.8 0.9 8.8
v -12.8 0.9 8.2
v -12.8 0.9 7.7
v -12.8 0.9 7.2
v -12.8 0.9 6.7
v -12.8 0.9 6.2
v -12.8 0.9 5.7
v -12.8 0.9 5.2
v -12.8 0.9 4.7
v -12.8 0.9 4.1
v -12.8 0.9 3.6
v -12.8 0.9 3.1
v -12.8 0.9 2.6
v -12.8 0.9 2.1
v -12.8 0.9 1.6
v -12.8 0.9 1.1
v -12.8 0.9 0.6
v -12.8 0.9 0
v -12.8 0.9 -0.5
v -12.8 0.9 -1
v -12.8 0.9 -1.5
v -12.8 0.9 -2
v -12.8 0.9 -2.5
v -12.8 0.9 -3
v -12.8 0.9 -3.5
v -12.8 0.9 -4
v -12.8 0.9 -4.6
v -12.8 0.9 -5.1
v -12.8 0.9 -5.6
v -12.8 0.9 -6.1
v -12.8 0.9 -6.6
v -12.8 0.9 -7.1
v -12.8 0.9 -7.6
v -12.8 0.9 -8.1
v -12.8 0.9 -8.7
v -12.8 0.9 -9.2
v -12.8 0.9 -9.7
v -12.8 0.9 -10.2
v -12.8 0.9 -10.7
v -12.8 0.9 -11.2
v -12.8 0.9 -11.7
v -12.8 0.9 -12.2
v -12.8 0.9 -12.8
v 12.8 0 12.8
v 12.8 0 12.3
v 12.8 0 11.8
v 12.8 0 11.3
v 12.8 0 10.8
v 12.8 0 10.3
v 12.8 0 9.8
v 12.8 0 9.3
v 12.8 0 8.8
v 12.8 0 8.2
v 12.8 0 7.7
v 12.8 0 7.2
v 12.8 0 6.7
v 12.8 0 6.2
v 12.8 0 5.7
v 12.8 0 5.2
v 12.8 0 4.7
v 12.8 0 4.1
v 12.8 0 3.6
v 12.8 0 3.1
v 12.8 0 2.6
v 12.8 0 2.1
v 12.8 0 1.6
v 12.8 0 1.1
v 12.8 0 0.6
v 12.8 0 0
v 12.8 0 -0.5
v 12.8 0 -1
v 12.8 0 -1.5
v 12.8 0 -2
v 12.8 0 -2.5
v 12.8 0 -3
v 12.8 0 -3.5
v 12.8 0 -4
v 12.8 0 -4.6
v 12.8 0 -5.1
v 12.8 0 -5.6
v 12.8 0 -6.1
v 12.8 0 -6.6
v 12.8 0 -7.1
v 12.8 0 -7.6
v 12.8 0 -8.1
v 12.8 0 -8.7
v 12.8 0 -9.2
v 12.8 0 -9.7
v 12.8 0 -10.2
v 12.8 0 -10.7
v 12.8 0 -11.2
v 12.8 0 -11.7
v 12.8 0 -12.2
v 12.8 0 -12.8
v 12.8 0.9 12.8
v 12.8 0.9 12.3
v 12.8 0.9 11.8
v 12.8 0.9 11.3
v 12.8 0.9 10.8
v 12.8 0.9 10.3
v 12.8 0.9 9.8
v 12.8 0.9 9.3
v 12.8 0.9 8.8
v 12.8 0.9 8.2
v 12.8 0.9 7.7
v 12.8 0.9 7.2
v 12.8 0.9 6.7
v 12.8 0.9 6.2
v 12.8 0.9 5.7
v 12.8 0.9 5.2
v 12.8 0.9 4.7
v 12.8 0.9 4.1
v 12.8 0.9 3.6
v 12.8 0.9 3.1
v 12.8 0.9 2.6
v 12.8 0.9 2.1
v 12.8 0.9 1.6
v 12.8 0.9 1.1
v 12.8 0.9 0.6
v 12.8 0.9 0
v 12.8 0.9 -0.5
v 12.8 0.9 -1
v 12.8 0.9 -1.5
v 12.8 0.9 -2
v 12.8 0.9 -2.5
v 12.8 0.9 -3
v 12.8 0.9 -3.5
v 12.8 0.9 -4
v 12.8 0.9 -4.6
v 12.8 0.9 -5.1
v 12.8 0.9 -5.6
v 12.8 0.9 -6.1
v 12.8 0.9 -6.6
v 12.8 0.9 -7.1
v 12.8 0.9 -7.6
v 12.8 0.9 -8.1
v 12.8 0.9 -8.7
v 12.8 0.9 -9.2
v 12.8 0.9 -9.7
v 12.8 0.9 -10.2
v 12.8 0.9 -10.7
v 12.8 0.9 -11.2
v 12.8 0.9 -11.7
v 12.8 0.9 -12.2
v 12.8 0.9 -12.8
v -12.8 0 12.8
v -12.8 0.9 12.8
v 12.8 0 12.8
v 12.8 0.9 12.8
v -12.8 0 -12.8
v -12.8 0.9 -12.8
v 12.8 0 -12.8
v 12.8 0.9 -12.8
v -12.8 0 12.8
v 12.8 0 12.8
v -12.8 0 12.3
v 12.8 0 12.3
v -12.8 0 11.8
v 12.8 0 11.8
v -12.8 0 11.3
v 12.8 0 11.3
v -12.8 0 10.8
v 12.8 0 10.8
v -12.8 0 10.3
v 12.8 0 10.3
v -12.8 0 9.8
v 12.8 0 9.8
v -12.8 0 9.3
v 12.8 0 9.3
v -12.8 0 8.8
v 12.8 0 8.8
v -12.8 0 8.2
v 12.8 0 8.2
v -12.8 0 7.7
v 12.8 0 7.7
v -12.8 0 7.2
v 12.8 0 7.2
v -12.8 0 6.7
v 12.8 0 6.7
v -12.8 0 6.2
v 12.8 0 6.2
v -12.8 0 5.7
v 12.8 0 5.7
v -12.8 0 5.2
v 12.8 0 5.2
v -12.8 0 4.7
v 12.8 0 4.7
v -12.8 0 4.1
v 12.8 0 4.1
v -12.8 0 3.6
v 12.8 0 3.6
v -12.8 0 3.1
v 12.8 0 3.1
v -12.8 0 2.6
v 12.8 0 2.6
v -12.8 0 2.1
v 12.8 0 2.1
v -12.8 0 1.6
v 12.8 0 1.6
v -12.8 0 1.1
v 12.8 0 1.1
v -12.8 0 0.6
v 12.8 0 0.6
v -12.8 0 0
v 12.8 0 0
v -12.8 0 -0.5
v 12.8 0 -0.5
v -12.8 0 -1
v 12.8 0 -1
v -12.8 0 -1.5
v 12.8 0 -1.5
v -12.8 0 -2
v 12.8 0 -2
v -12.8 0 -2.5
v 12.8 0 -2.5
v -12.8 0 -3
v 12.8 0 -3
v -12.8 0 -3.5
v 12.8 0 -3.5
v -12.8 0 -4
v 12.8 0 -4
v -12.8 0 -4.6
v 12.8 0 -4.6
v -12.8 0 -5.1
v 12.8 0 -5.1
v -12.8 0 -5.6
v 12.8 0 -5.6
v -12.8 0 -6.1
v 12.8 0 -6.1
v -12.8 0 -6.6
v 12.8 0 -6.6
v -12.8 0 -7.1
v 12.8 0 -7.1
v -12.8 0 -7.6
v 12.8 0 -7.6
v -12.8 0 -8.1
v 12.8 0 -8.1
v -12.8 0 -8.7
v 12.8 0 -8.7
v -12.8 0 -9.2
v 12.8 0 -9.2
v -12.8 0 -9.7
v 12.8 0 -9.7
v -12.8 0 -10.2
v 12.8 0 -10.2
v -12.8 0 -10.7
v 12.8 0 -10.7
v -12.8 0 -11.2
v 12.8 0 -11.2
v -12.8 0 -11.7
v 12.8 0 -11.7
v -12.8 0 -12.2
v 12.8 0 -12.2
v -12.8 0 -12.8
v 12.8 0 -12.8
v -12.8 0.9 12.8
v 12.8 0.9 12.8
v -12.8 0.9 12.3
v 12.8 0.9 12.3
v -12.8 0.9 11.8
v 12.8 0.9 11.8
v -12.8 0.9 11.3
v 12.8 0.9 11.3
v -12.8 0.9 10.8
v 12.8 0.9 10.8
v -12.8 0.9 10.3
v 12.8 0.9 10.3
v -12.8 0.9 9.8
v 12.8 0.9 9.8
v -12.8 0.9 9.3
v 12.8 0.9 9.3
v -12.8 0.9 8.8
v 12.8 0.9 8.8
v -12.8 0.9 8.2
v 12.8 0.9 8.2
v -12.8 0.9 7.7
v 12.8 0.9 7.7
v -12.8 0.9 7.2
v 12.8 0.9 7.2
v -12.8 0.9 6.7
v 12.8 0.9 6.7
v -12.8 0.9 6.2
v 12.8 0.9 6.2
v -12.8 0.9 5.7
v 12.8 0.9 5.7
v -12.8 0.9 5.2
v 12.8 0.9 5.2
v -12.8 0.9 4.7
v 12.8 0.9 4.7
v -12.8 0.9 4.1
v 12.8 0.9 4.1
v -12.8 0.9 3.6
v 12.8 0.9 3.6
v -12.8 0.9 3.1
v 12.8 0.9 3.1
v -12.8 0.9 2.6
v 12.8 0.9 2.6
v -12.8 0.9 2.1
v 12.8 0.9 2.1
v -12.8 0.9 1.6
v 12.8 0.9 1.6
v -12.8 0.9 1.1
v 12.8 0.9 1.1
v -12.8 0.9 0.6
v 12.8 0.9 0.6
v -12.8 0.9 0
v 12.8 0.9 0
v -12.8 0.9 -0.5
v 12.8 0.9 -0.5
v -12.8 0.9 -1
v 12.8 0.9 -1
v -12.8 0.9 -1.5
v 12.8 0.9 -1.5
v -12.8 0.9 -2
v 12.8 0.9 -2
v -12.8 0.9 -2.5
v 12.8 0.9 -2.5
v -12.8 0.9 -3
v 12.8 0.9 -3
v -12.8 0.9 -3.5
v 12.8 0.9 -3.5
v -12.8 0.9 -4
v 12.8 0.9 -4
v -12.8 0.9 -4.6
v 12.8 0.9 -4.6
v -12.8 0.9 -5.1
v 12.8 0.9 -5.1
v -12.8 0.9 -5.6
v 12.8 0.9 -5.6
v -12.8 0.9 -6.1
v 12.8 0.9 -6.1
v -12.8 0.9 -6.6
v 12.8 0.9 -6.6
v -12.8 0.9 -7.1
v 12.8 0.9 -7.1
v -12.8 0.9 -7.6
v 12.8 0.9 -7.6
v -12.8 0.9 -8.1
v 12.8 0.9 -8.1
v -12.8 0.9 -8.7
v 12.8 0.9 -8.7
v -12.8 0.9 -9.2
v 12.8 0.9 -9.2
v -12.8 0.9 -9.7
v 12.8 0.9 -9.7
v -12.8 0.9 -10.2
v 12.8 0.9 -10.2
v -12.8 0.9 -10.7
v 12.8 0.9 -10.7
v -12.8 0.9 -11.2
v 12.8 0.9 -11.2
v -12.8 0.9 -11.7
v 12.8 0.9 -11.7
v -12.8 0.9 -12.2
v 12.8 0.9 -12.2
v -12.8 0.9 -12.8
v 12.8 0.9 -12.8

# faces
f 52/50/1 2/50/1 1/50/1
f 53/49/1 3/49/1 2/49/1
f 53/50/1 2/50/1 52/50/1
f 54/48/1 4/48/1 3/48/1
f 54/49/1 3/49/1 53/49/1
f 55/47/1 5/47/1 4/47/1
f 55/48/1 4/48/1 54/48/1
f 56/46/1 6/46/1 5/46/1
f 56/47/1 5/47/1 55/47/1
f 57/45/1 7/45/1 6/45/1
f 57/46/1 6/46/1 56/46/1
f 58/44/1 8/44/1 7/44/1
f 58/45/1 7/45/1 57/45/1
f 59/43/1 9/43/1 8/43/1
f 59/44/1 8/44/1 58/44/1
f 60/42/1 10/42/1 9/42/1
f 60/43/1 9/43/1 59/43/1
f 61/41/1 11/41/1 10/41/1
f 61/42/1 10/42/1 60/42/1
f 62/40/1 12/40/1 11/40/1
f 62/41/1 11/41/1 61/41/1
f 63/39/1 13/39/1 12/39/1
f 63/40/1 12/40/1 62/40/1
f 64/38/1 14/38/1 13/38/1
f 64/39/1 13/39/1 63/39/1
f 65/37/1 15/37/1 14/37/1
f 65/38/1 14/38/1 64/38/1
f 66/36/1 16/36/1 15/36/1
f 66/37/1 15/37/1 65/37/1
f 67/35/1 17/35/1 16/35/1
f 67/36/1 16/36/1 66/36/1
f 68/34/1 18/34/1 17/34/1
f 68/35/1 17/35/1 67/35/1
f 69/33/1 19/33/1 18/33/1
f 69/34/1 18/34/1 68/34/1
f 70/32/1 20/32/1 19/32/1
f 70/33/1 19/33/1 69/33/1
f 71/31/1 21/31/1 20/31/1
f 71/32/1 20/32/1 70/32/1
f 72/30/1 22/30/1 21/30/1
f 72/31/1 21/31/1 71/31/1
f 73/29/1 23/29/1 22/29/1
f 73/30/1 22/30/1 72/30/1
f 74/28/1 24/28/1 23/28/1
f 74/29/1 23/29/1 73/29/1
f 75/27/1 25/27/1 24/27/1
f 75/28/1 24/28/1 74/28/1
f 76/26/1 26/26/1 25/26/1
f 76/27/1 25/27/1 75/27/1
f 77/25/1 27/25/1 26/25/1
f 77/26/1 26/26/1 76/26/1
f 78/24/1 28/24/1 27/24/1
f 78/25/1 27/25/1 77/25/1
f 79/23/1 29/23/1 28/23/1
f 79/24/1 28/24/1 78/24/1
f 80/22/1 30/22/1 29/22/1
f 80/23/1 29/23/1 79/23/1
f 81/21/1 31/21/1 30/21/1
f 81/22/1 30/22/1 80/22/1
f 82/20/1 32/20/1 31/20/1
f 82/21/1 31/21/1 81/21/1
f 83/19/1 33/19/1 32/19/1
f 83/20/1 32/20/1 82/20/1
f 84/18/1 34/18/1 33/18/1
f 84/19/1 33/19/1 83/19/1
f 85/17/1 35/17/1 34/17/1
f 85/18/1 34/18/1 84/18/1
f 86/16/1 36/16/1 35/16/1
f 86/17/1 35/17/1 85/17/1
f 87/15/1 37/15/1 36/15/1
f 87/16/1 36/16/1 86/16/1
f 88/14/1 38/14/1 37/14/1
f 88/15/1 37/15/1 87/15/1
f 89/13/1 39/13/1 38/13/1
f 89/14/1 38/14/1 88/14/1
f 90/12/1 40/12/1 39/12/1
f 90/13/1 39/13/1 89/13/1
f 91/11/1 41/11/1 40/11/1
f 91/12/1 40/12/1 90/12/1
f 92/10/1 42/10/1 41/10/1
f 92/11/1 41/11/1 91/11/1
f 93/9/1 43/9/1 42/9/1
f 93/10/1 42/10/1 92/10/1
f 94/8/1 44/8/1 43/8/1
f 94/9/1 43/9/1 93/9/1
f 95/7/1 45/7/1 44/7/1
f 95/8/1 44/8/1 94/8/1
f 96/6/1 46/6/1 45/6/1
f 96/7/1 45/7/1 95/7/1
f 97/5/1 47/5/1 46/5/1
f 97/6/1 46/6/1 96/6/1
f 98/4/1 48/4/1 47/4/1
f 98/5/1 47/5/1 97/5/1
f 99/3/1 49/3/1 48/3/1
f 99/4/1 48/4/1 98/4/1
f 100/2/1 50/2/1 49/2/1
f 100/3/1 49/3/1 99/3/1
f 101/1/1 51/1/1 50/1/1
f 101/2/1 50/2/1 100/2/1
f 102/1/1 51/1/1 101/1/1
f 103/50/2 104/50/2 154/50/2
f 104/49/2 105/49/2 155/49/2
f 154/50/2 104/50/2 155/50/2
f 105/48/2 106/48/2 156/48/2
f 155/49/2 105/49/2 156/49/2
f 106/47/2 107/47/2 157/47/2
f 156/48/2 106/48/2 157/48/2
f 107/46/2 108/46/2 158/46/2
f 157/47/2 107/47/2 158/47/2
f 108/45/2 109/45/2 159/45/2
f 158/46/2 108/46/2 159/46/2
f 109/44/2 110/44/2 160/44/2
f 159/45/2 109/45/2 160/45/2
f 110/43/2 111/43/2 161/43/2
f 160/44/2 110/44/2 161/44/2
f 111/42/2 112/42/2 162/42/2
f 161/43/2 111/43/2 162/43/2
f 112/41/2 113/41/2 163/41/2
f 162/42/2 112/42/2 163/42/2
f 113/40/2 114/40/2 164/40/2
f 163/41/2 113/41/2 164/41/2
f 114/39/2 115/39/2 165/39/2
f 164/40/2 114/40/2 165/40/2
f 115/38/2 116/38/2 166/38/2
f 165/39/2 115/39/2 166/39/2
f 116/37/2 117/37/2 167/37/2
f 166/38/2 116/38/2 167/38/2
f 117/36/2 118/36/2 168/36/2
f 167/37/2 117/37/2 168/37/2
f 118/35/2 119/35/2 169/35/2
f 168/36/2 118/36/2 169/36/2
f 119/34/2 120/34/2 170/34/2
f 169/35/2 119/35/2 170/35/2
f 120/33/2 121/33/2 171/33/2
f 170/34/2 120/34/2 171/34/2
f 121/32/2 122/32/2 172/32/2
f 171/33/2 121/33/2 172/33/2
f 122/31/2 123/31/2 173/31/2
f 172/32/2 122/32/2 173/32/2
f 123/30/2 124/30/2 174/30/2
f 173/31/2 123/31/2 174/31/2
f 124/29/2 125/29/2 175/29/2
f 174/30/2 124/30/2 175/30/2
f 125/28/2 126/28/2 176/28/2
f 175/29/2 125/29/2 176/29/2
f 126/27/2 127/27/2 177/27/2
f 176/28/2 126/28/2 177/28/2
f 127/26/2 128/26/2 178/26/2
f 177/27/2 127/27/2 178/27/2
f 128/25/2 129/25/2 179/25/2
f 178/26/2 128/26/2 179/26/2
f 129/24/2 130/24/2 180/24/2
f 179/25/2 129/25/2 180/25/2
f 130/23/2 131/23/2 181/23/2
f 180/24/2 130/24/2 181/24/2
f 131/22/2 132/22/2 182/22/2
f 181/23/2 131/23/2 182/23/2
f 132/21/2 133/21/2 183/21/2
f 182/22/2 132/22/2 183/22/2
f 133/20/2 134/20/2 184/20/2
f 183/21/2 133/21/2 184/21/2
f 134/19/2 135/19/2 185/19/2
f 184/20/2 134/20/2 185/20/2
f 135/18/2 136/18/2 186/18/2
f 185/19/2 135/19/2 186/19/2
f 136/17/2 137/17/2 187/17/2
f 186/18/2 136/18/2 187/18/2
f 137/16/2 138/16/2 188/16/2
f 187/17/2 137/17/2 188/17/2
f 138/15/2 139/15/2 189/15/2
f 188/16/2 138/16/2 189/16/2
f 139/14/2 140/14/2 190/14/2
f 189/15/2 139/15/2 190/15/2
f 140/13/2 141/13/2 191/13/2
f 190/14/2 140/14/2 191/14/2
f 141/12/2 142/12/2 192/12/2
f 191/13/2 141/13/2 192/13/2
f 142/11/2 143/11/2 193/11/2
f 192/12/2 142/12/2 193/12/2
f 143/10/2 144/10/2 194/10/2
f 193/11/2 143/11/2 194/11/2
f 144/9/2 145/9/2 195/9/2
f 194/10/2 144/10/2 195/10/2
f 145/8/2 146/8/2 196/8/2
f 195/9/2 145/9/2 196/9/2
f 146/7/2 147/7/2 197/7/2
f 196/8/2 146/8/2 197/8/2
f 147/6/2 148/6/2 198/6/2
f 197/7/2 147/7/2 198/7/2
f 148/5/2 149/5/2 199/5/2
f 198/6/2 148/6/2 199/6/2
f 149/4/2 150/4/2 200/4/2
f 199/5/2 149/5/2 200/5/2
f 150/3/2 151/3/2 201/3/2
f 200/4/2 150/4/2 201/4/2
f 151/2/2 152/2/2 202/2/2
f 201/3/2 151/3/2 202/3/2
f 152/1/2 153/1/2 203/1/2
f 202/2/2 152/2/2 203/2/2
f 203/1/2 153/1/2 204/1/2
f 207/50/3 206/50/3 205/50/3
f 208/50/3 206/50/3 207/50/3
f 209/1/4 210/1/4 211/1/4
f 211/1/4 210/1/4 212/1/4
f 215/50/5 214/50/5 213/50/5
f 216/50/5 214/50/5 215/50/5
f 217/49/5 216/49/5 215/49/5
f 218/49/5 216/49/5 217/49/5
f 219/48/5 218/48/5 217/48/5
f 220/48/5 218/48/5 219/48/5
f 221/47/5 220/47/5 219/47/5
f 222/47/5 220/47/5 221/47/5
f 223/46/5 222/46/5 221/46/5
f 224/46/5 222/46/5 223/46/5
f 225/45/5 224/45/5 223/45/5
f 226/45/5 224/45/5 225/45/5
f 227/44/5 226/44/5 225/44/5
f 228/44/5 226/44/5 227/44/5
f 229/43/5 228/43/5 227/43/5
f 230/43/5 228/43/5 229/43/5
f 231/42/5 230/42/5 229/42/5
f 232/42/5 230/42/5 231/42/5
f 233/41/5 232/41/5 231/41/5
f 234/41/5 232/41/5 233/41/5
f 235/40/5 234/40/5 233/40/5
f 236/40/5 234/40/5 235/40/5
f 237/39/5 236/39/5 235/39/5
f 238/39/5 236/39/5 237/39/5
f 239/38/5 238/38/5 237/38/5
f 240/38/5 238/38/5 239/38/5
f 241/37/5 240/37/5 239/37/5
f 242/37/5 240/37/5 241/37/5
f 243/36/5 242/36/5 241/36/5
f 244/36/5 242/36/5 243/36/5
f 245/35/5 244/35/5 243/35/5
f 246/35/5 244/35/5 245/35/5
f 247/34/5 246/34/5 245/34/5
f 248/34/5 246/34/5 247/34/5
f 249/33/5 248/33/5 247/33/5
f 250/33/5 248/33/5 249/33/5
f 251/32/5 250/32/5 249/32/5
f 252/32/5 250/32/5 251/32/5
f 253/31/5 252/31/5 251/31/5
f 254/31/5 252/31/5 253/31/5
f 255/30/5 254/30/5 253/30/5
f 256/30/5 254/30/5 255/30/5
f 257/29/5 256/29/5 255/29/5
f 258/29/5 256/29/5 257/29/5
f 259/28/5 258/28/5 257/28/5
f 260/28/5 258/28/5 259/28/5
f 261/27/5 260/27/5 259/27/5
f 262/27/5 260/27/5 261/27/5
f 263/26/5 262/26/5 261/26/5
f 264/26/5 262/26/5 263/26/5
f 265/25/5 264/25/5 263/25/5
f 266/25/5 264/25/5 265/25/5
f 267/24/5 266/24/5 265/24/5
f 268/24/5 266/24/5 267/24/5
f 269/23/5 268/23/5 267/23/5
f 270/23/5 268/23/5 269/23/5
f 271/22/5 270/22/5 269/22/5
f 272/22/5 270/22/5 271/22/5
f 273/21/5 272/21/5 271/21/5
f 274/21/5 272/21/5 273/21/5
f 275/20/5 274/20/5 273/20/5
f 276/20/5 274/20/5 275/20/5
f 277/19/5 276/19/5 275/19/5
f 278/19/5 276/19/5 277/19/5
f 279/18/5 278/18/5 277/18/5
f 280/18/5 278/18/5 279/18/5
f 281/17/5 280/17/5 279/17/5
f 282/17/5 280/17/5 281/17/5
f 283/16/5 282/16/5 281/16/5
f 284/16/5 282/16/5 283/16/5
f 285/15/5 284/15/5 283/15/5
f 286/15/5 284/15/5 285/15/5
f 287/14/5 286/14/5 285/14/5
f 288/14/5 286/14/5 287/14/5
f 289/13/5 288/13/5 287/13/5
f 290/13/5 288/13/5 289/13/5
f 291/12/5 290/12/5 289/12/5
f 292/12/5 290/12/5 291/12/5
f 293/11/5 292/11/5 291/11/5
f 294/11/5 292/11/5 293/11/5
f 295/10/5 294/10/5 293/10/5
f 296/10/5 294/10/5 295/10/5
f 297/9/5 296/9/5 295/9/5
f 298/9/5 296/9/5 297/9/5
f 299/8/5 298/8/5 297/8/5
f 300/8/5 298/8/5 299/8/5
f 301/7/5 300/7/5 299/7/5
f 302/7/5 300/7/5 301/7/5
f 303/6/5 302/6/5 301/6/5
f 304/6/5 302/6/5 303/6/5
f 305/5/5 304/5/5 303/5/5
f 306/5/5 304/5/5 305/5/5
f 307/4/5 306/4/5 305/4/5
f 308/4/5 306/4/5 307/4/5
f 309/3/5 308/3/5 307/3/5
f 310/3/5 308/3/5 309/3/5
f 311/2/5 310/2/5 309/2/5
f 312/2/5 310/2/5 311/2/5
f 313/1/5 312/1/5 311/1/5
f 314/1/5 312/1/5 313/1/5
f 315/50/6 316/50/6 317/50/6
f 317/50/6 316/50/6 318/50/6
f 317/49/6 318/49/6 319/49/6
f 319/49/6 318/49/6 320/49/6
f 319/48/6 320/48/6 321/48/6
f 321/48/6 320/48/6 322/48/6
f 321/47/6 322/47/6 323/47/6
f 323/47/6 322/47/6 324/47/6
f 323/46/6 324/46/6 325/46/6
f 325/46/6 324/46/6 326/46/6
f 325/45/6 326/45/6 327/45/6
f 327/45/6 326/45/6 328/45/6
f 327/44/6 328/44/6 329/44/6
f 329/44/6 328/44/6 330/44/6
f 329/43/6 330/43/6 331/43/6
f 331/43/6 330/43/6 332/43/6
f 331/42/6 332/42/6 333/42/6
f 333/42/6 332/42/6 334/42/6
f 333/41/6 334/41/6 335/41/6
f 335/41/6 334/41/6 336/41/6
f 335/40/6 336/40/6 337/40/6
f 337/40/6 336/40/6 338/40/6
f 337/39/6 338/39/6 339/39/6
f 339/39/6 338/39/6 340/39/6
f 339/38/6 340/38/6 341/38/6
f 341/38/6 340/38/6 342/38/6
f 341/37/6 342/37/6 343/37/6
f 343/37/6 342/37/6 344/37/6
f 343/36/6 344/36/6 345/36/6
f 345/36/6 344/36/6 346/36/6
f 345/35/6 346/35/6 347/35/6
f 347/35/6 346/35/6 348/35/6
f 347/34/6 348/34/6 349/34/6
f 349/34/6 348/34/6 350/34/6
f 349/33/6 350/33/6 351/33/6
f 351/33/6 350/33/6 352/33/6
f 351/32/6 352/32/6 353/32/6
f 353/32/6 352/32/6 354/32/6
f 353/31/6 354/31/6 355/31/6
f 355/31/6 354/31/6 356/31/6
f 355/30/6 356/30/6 357/30/6
f 357/30/6 356/30/6 358/30/6
f 357/29/6 358/29/6 359/29/6
f 359/29/6 358/29/6 360/29/6
f 359/28/6 360/28/6 361/28/6
f 361/28/6 360/28/6 362/28/6
f 361/27/6 362/27/6 363/27/6
f 363/27/6 362/27/6 364/27/6
f 363/26/6 364/26/6 365/26/6
f 365/26/6 364/26/6 366/26/6
f 365/25/6 366/25/6 367/25/6
f 367/25/6 366/25/6 368/25/6
f 367/24/6 368/24/6 369/24/6
f 369/24/6 368/24/6 370/24/6
f 369/23/6 370/23/6 371/23/6
f 371/23/6 370/23/6 372/23/6
f 371/22/6 372/22/6 373/22/6
f 373/22/6 372/22/6 374/22/6
f 373/21/6 374/21/6 375/21/6
f 375/21/6 374/21/6 376/21/6
f 375/20/6 376/20/6 377/20/6
f 377/20/6 376/20/6 378/20/6
f 377/19/6 378/19/6 379/19/6
f 379/19/6 378/19/6 380/19/6
f 379/18/6 380/18/6 381/18/6
f 381/18/6 380/18/6 382/18/6
f 381/17/6 382/17/6 383/17/6
f 383/17/6 382/17/6 384/17/6
f 383/16/6 384/16/6 385/16/6
f 385/16/6 384/16/6 386/16/6
f 385/15/6 386/15/6 387/15/6
f 387/15/6 386/15/6 388/15/6
f 387/14/6 388/14/6 389/14/6
f 389/14/6 388/14/6 390/14/6
f 389/13/6 390/13/6 391/13/6
f 391/13/6 390/13/6 392/13/6
f 391/12/6 392/12/6 393/12/6
f 393/12/6 392/12/6 394/12/6
f 393/11/6 394/11/6 395/11/6
f 395/11/6 394/11/6 396/11/6
f 395/10/6 396/10/6 397/10/6
f 397/10/6 396/10/6 398/10/6
f 397/9/6 398/9/6 399/9/6
f 399/9/6 398/9/6 400/9/6
f 399/8/6 400/8/6 401/8/6
f 401/8/6 400/8/6 402/8/6
f 401/7/6 402/7/6 403/7/6
f 403/7/6 402/7/6 404/7/6
f 403/6/6 404/6/6 405/6/6
f 405/6/6 404/6/6 406/6/6
f 405/5/6 406/5/6 407/5/6
f 407/5/6 406/5/6 408/5/6
f 407/4/6 408/4/6 409/4/6
f 409/4/6 408/4/6 410/4/6
f 409/3/6 410/3/6 411/3/6
f 411/3/6 410/3/6 412/3/6
f 411/2/6 412/2/6 413/2/6
f 413/2/6 412/2/6 414/2/6
f 413/1/6 414/1/6 415/1/6
f 415/1/6 414/1/6 416/1/6
